<svg width="193" height="191" viewBox="0 0 193 191" fill="none" xmlns="http://www.w3.org/2000/svg">
<path opacity="0.8" d="M99.7559 158.466V168C117.521 166.983 134.291 159.492 146.873 146.954C159.456 134.415 166.972 117.703 167.993 100H158.425C157.42 115.177 150.916 129.472 140.123 140.227C129.331 150.982 114.985 157.464 99.7559 158.466Z" fill="white"/>
<path opacity="0.8" d="M93.7352 33.3997V24C75.6298 24.7926 58.4823 32.2115 45.6678 44.7964C32.8533 57.3813 25.3 74.2207 24.4946 92H34.0667C34.8682 76.7143 41.4117 62.2629 52.4326 51.4394C63.4535 40.6158 78.1692 34.1884 93.7352 33.3997Z" fill="white"/>
<path opacity="0.8" d="M158.432 92H167.993C167.192 74.3649 159.771 57.6491 147.166 45.0876C134.561 32.5261 117.667 25.0122 99.7559 24V33.4071C115.132 34.4091 129.599 40.9283 140.415 51.7283C151.23 62.5284 157.641 76.8581 158.432 92Z" fill="white"/>
<path opacity="0.8" d="M34.0734 100H24.4946C25.5253 117.849 33.1763 134.684 45.967 147.245C58.7576 159.807 75.7784 167.202 93.7352 168V158.472C78.3181 157.681 63.7285 151.292 52.7321 140.514C41.7356 129.737 35.0966 115.321 34.0734 100Z" fill="white"/>
<path d="M144.218 143.308C170.65 116.968 170.65 74.2626 144.218 47.9228C117.786 21.583 74.9324 21.583 48.5009 47.9228C22.0693 74.2626 22.0693 116.968 48.5009 143.308C74.9324 169.647 117.786 169.647 144.218 143.308Z" stroke="#0FCFB0" stroke-width="3" stroke-miterlimit="10"/>
</svg>
