<svg width="38" height="38" viewBox="0 0 38 38" fill="none" xmlns="http://www.w3.org/2000/svg">
<path d="M19 12.666L14.25 15.4368V20.9785L19 23.7493L23.75 20.9785V15.4368L19 12.666ZM21.4019 15.896L18.9794 17.3083L16.5775 15.9071L19 14.4948L21.4019 15.896ZM15.8175 17.2925L18.1672 18.6637V21.4345L15.8175 20.0649V17.2925ZM19.7347 21.4931V18.6953L22.1825 17.2672V20.0649L19.7347 21.4931Z" fill="#263238"/>
<path d="M4.75 0L0 2.77083V8.3125L4.75 11.0833L9.5 8.3125V2.77083L4.75 0ZM7.15192 3.23L4.72942 4.64233L2.3275 3.24108L4.75 1.82875L7.15192 3.23ZM1.5675 4.62492L3.91717 5.99608V8.76692L1.5675 7.4005V4.62492ZM5.48467 8.8255V6.02933L7.9325 4.60117V7.39892L5.48467 8.8255Z" fill="#263238"/>
<path d="M4.75 26.916L0 29.6868V35.2285L4.75 37.9993L9.5 35.2285V29.6868L4.75 26.916ZM7.15192 30.146L4.72942 31.5583L2.3275 30.1571L4.75 28.7448L7.15192 30.146ZM1.5675 31.5425L3.91717 32.9137V35.6845L1.5675 34.3165V31.5425ZM5.48467 35.7431V32.9453L7.9325 31.5172V34.3149L5.48467 35.7431Z" fill="#263238"/>
<path d="M33.25 0L28.5 2.77083V8.3125L33.25 11.0833L38 8.3125V2.77083L33.25 0ZM35.6519 3.23L33.2294 4.64233L30.8275 3.24108L33.25 1.82875L35.6519 3.23ZM30.0675 4.6265L32.4172 5.99767V8.7685L30.0675 7.39892V4.6265ZM33.9847 8.82708V6.02933L36.4325 4.60117V7.39892L33.9847 8.82708Z" fill="#263238"/>
<path d="M33.25 26.916L28.5 29.6868V35.2285L33.25 37.9993L38 35.2285V29.6868L33.25 26.916ZM35.6519 30.146L33.2294 31.5583L30.8275 30.1571L33.25 28.7448L35.6519 30.146ZM30.0675 31.5425L32.4172 32.9137V35.6845L30.0675 34.3149V31.5425ZM33.9847 35.7431V32.9453L36.4325 31.5172V34.3149L33.9847 35.7431Z" fill="#263238"/>
<path d="M14.25 4.75H23.75V6.33333H14.25V4.75Z" fill="#263238"/>
<path d="M14.25 31.666H23.75V33.2493H14.25V31.666Z" fill="#263238"/>
<path d="M5.54158 14.25V23.75H3.95825V14.25H5.54158Z" fill="#263238"/>
<path d="M11.5472 13.9777L8.18579 10.621L9.30679 9.5L12.6666 12.8583L11.5472 13.9777Z" fill="#263238"/>
<path d="M25.3333 13.1317L28.6915 9.77344L29.8109 10.8929L26.4543 14.2511L25.3333 13.1317Z" fill="#263238"/>
<path d="M12.8709 23.5573L9.5126 26.9171L8.3916 25.7961L11.7514 22.4395L12.8709 23.5573Z" fill="#263238"/>
<path d="M26.7251 22.3711L30.0834 25.7293L28.964 26.8488L25.6057 23.4905L26.7251 22.3711Z" fill="#263238"/>
<path d="M34.0416 14.25V23.75H32.4583V14.25H34.0416Z" fill="#263238"/>
</svg>
