<svg width="53" height="59" viewBox="0 0 53 59" fill="none" xmlns="http://www.w3.org/2000/svg">
<path d="M16.4182 4.89905C12.8913 5.87105 9.38839 6.92796 5.91245 8.06886C5.41895 8.2291 4.98028 8.52456 4.6463 8.92167C4.3119 9.31928 4.09589 9.80281 4.02289 10.3172L4.02285 10.3172L4.02173 10.3256C1.94001 25.9459 6.75311 37.3908 12.5251 44.9439C14.9691 48.1733 17.8831 51.0182 21.1701 53.3841L21.17 53.3842L21.1779 53.3898C22.492 54.3164 23.6703 54.9966 24.6206 55.4424C25.0858 55.6632 25.4863 55.8211 25.8164 55.9236C25.9908 55.9834 26.1703 56.0272 26.3527 56.0543L26.5067 56.0773L26.6604 56.0523C26.835 56.024 27.0069 55.9815 27.1745 55.9253C27.5109 55.8224 27.9137 55.6636 28.3799 55.4422C29.326 54.9967 30.5075 54.3131 31.8206 53.3909L31.8207 53.3909L31.8301 53.3841C35.117 51.0182 38.031 48.1732 40.475 44.9439C46.2472 37.3943 51.0601 25.9457 48.9784 10.3256L48.9774 10.3185C48.905 9.80349 48.6891 9.31927 48.3543 8.92125C48.0201 8.52383 47.5809 8.22838 47.0868 8.06859C44.678 7.28047 40.6085 5.9955 36.5781 4.9017L36.5779 4.90165C32.5096 3.79845 28.6144 2.93455 26.5001 2.93455C24.6089 2.93455 21.282 3.62812 17.6839 4.56599V4.55023L16.4182 4.89905ZM37.0347 3.02996L37.0362 3.03036C41.104 4.12976 45.2106 5.43238 47.6306 6.2231C48.4659 6.49922 49.2065 7.00524 49.7672 7.68311C50.3283 8.36133 50.6867 9.18407 50.8012 10.0568L50.8014 10.0587C52.9602 26.2751 47.9543 38.2489 41.9085 46.1574L41.906 46.1608C39.3425 49.5435 36.2859 52.5224 32.8383 54.9978L32.838 54.9981C31.6656 55.8405 30.4235 56.5815 29.1251 57.2129C28.1142 57.689 27.1776 57.9998 26.5001 57.9998C25.8229 57.9998 24.8906 57.6894 23.8741 57.2124C22.5761 56.5811 21.3343 55.8403 20.1622 54.9981L20.1619 54.9979C16.7143 52.5223 13.6577 49.5434 11.0942 46.1607L11.0916 46.1574C5.04583 38.2489 0.039893 26.2751 2.19871 10.0587L2.19896 10.0568C2.31346 9.18407 2.67183 8.36133 3.2329 7.68311C3.79372 7.00518 4.53432 6.49913 5.36969 6.22303C8.8759 5.07343 12.4093 4.00863 15.9669 3.02955C19.9901 1.93575 24.1119 1 26.5001 1C28.8885 1 33.0111 1.93599 37.0347 3.02996Z" stroke="#263238" stroke-width="2"/>
<path d="M28.0104 28.2428L27.1983 28.5299L27.3619 29.3755L28.7816 36.7136L28.7816 36.7137C28.8052 36.8358 28.8016 36.9616 28.7709 37.0822C28.7402 37.2028 28.6832 37.315 28.604 37.411C28.5248 37.5069 28.4254 37.5842 28.3129 37.6372L28.7391 38.5418L28.3129 37.6372C28.2003 37.6903 28.0775 37.7177 27.953 37.7177H27.9528L25.0489 37.7177C25.0486 37.7177 25.0483 37.7177 25.048 37.7177C24.9241 37.7174 24.8017 37.6897 24.6896 37.6367C24.5773 37.5836 24.4781 37.5063 24.3991 37.4103C24.3201 37.3144 24.2633 37.2022 24.2326 37.0818C24.202 36.9614 24.1984 36.8357 24.222 36.7137L24.2221 36.7131L25.6381 29.375L25.8012 28.5297L24.9896 28.2428C24.2065 27.9659 23.5145 27.4791 22.9893 26.8356C22.4642 26.192 22.126 25.4165 22.0118 24.5938C21.8976 23.7711 22.0117 22.9328 22.3417 22.1705C22.6717 21.4083 23.2048 20.7514 23.8829 20.2716C24.561 19.7919 25.3579 19.5078 26.1865 19.4503C27.0151 19.3928 27.8436 19.5643 28.5814 19.9458C29.3192 20.3273 29.9379 20.9043 30.37 21.6138C30.802 22.3232 31.0308 23.1377 31.0312 23.9683C31.0317 24.9057 30.7414 25.8203 30.2004 26.5858C29.6594 27.3514 28.8942 27.9303 28.0104 28.2428Z" stroke="#263238" stroke-width="2"/>
</svg>
