<svg width="189" height="56" viewBox="0 0 189 56" fill="none" xmlns="http://www.w3.org/2000/svg">
<path d="M29.7084 37.5155L0 18.7923L29.6393 0L59.3477 18.7232L29.7084 37.5155ZM3.10902 18.7923L29.7084 35.5119L56.2386 18.7232L29.6393 2.00359L3.10902 18.7923ZM29.7084 55.2714L0 36.5482L29.6393 17.7559L59.3477 36.4791L29.7084 55.2714ZM3.10902 36.5482L29.7084 53.2678L56.2386 36.4791L29.6393 19.7595L3.10902 36.5482ZM30.5374 0.967249H28.8102V54.2351H30.5374V0.967249ZM59.3477 18.7232H57.6204V36.4791H59.3477V18.7232ZM1.72723 18.7923H0V36.5482H1.72723V18.7923ZM115.586 27.7739H103.979V17.5487H115.586V19.1377H105.637V26.2539H115.586V27.7739ZM113.514 21.9013H104.048V23.4903H113.514V21.9013ZM188.061 27.843H176.661V17.2723H178.319V26.2539H188.061V27.843ZM136.589 17.2723H134.931V27.7739H136.589V17.2723ZM154.967 17.2723L148.473 22.3158L141.978 17.2723H140.528V27.843H142.186V19.4832L148.058 23.974H149.025L154.967 19.4832V27.843H156.556V17.2723H154.967ZM169.338 23.0067H162.083V24.4576H169.338V23.0067ZM160.356 27.843L165.745 19.2759L171.203 27.843H173.069L166.436 17.2723H165.054L158.491 27.843H160.356ZM81.3871 27.843H76.2745C74.4091 27.843 72.8891 26.3921 72.8891 24.6649C72.8891 22.9376 74.4091 21.4868 76.2745 21.4868H81.3871C83.2525 21.4868 84.7725 22.9376 84.7725 24.6649C84.7725 26.3921 83.2525 27.843 81.3871 27.843ZM76.2745 22.9376C75.3073 22.9376 74.5473 23.6976 74.5473 24.5958C74.5473 25.563 75.3073 26.2539 76.2745 26.2539H81.3871C82.3544 26.2539 83.1144 25.4939 83.1144 24.5958C83.1144 23.6285 82.3544 22.9376 81.3871 22.9376H76.2745ZM81.3871 23.0067H76.3436C74.6855 23.0067 73.3728 21.7631 73.3728 20.105C73.3728 18.5159 74.6855 17.2032 76.3436 17.2032H81.3871C83.0453 17.2032 84.358 18.4468 84.358 20.105C84.358 21.7631 83.0453 23.0067 81.3871 23.0067ZM76.3436 18.7923C75.5836 18.7923 74.9618 19.4141 74.9618 20.105C74.9618 20.7959 75.5836 21.4177 76.3436 21.4177H81.3871C82.1471 21.4177 82.7689 20.7959 82.7689 20.105C82.7689 19.4141 82.1471 18.7923 81.3871 18.7923H76.3436ZM97.0013 27.843H88.0197V17.2723H97.0013C99.1431 17.2723 100.801 18.9305 100.801 20.8649V24.1812C100.732 26.1848 99.074 27.843 97.0013 27.843ZM89.6087 26.323H96.9322C98.1758 26.323 99.1431 25.3557 99.1431 24.2503V20.934C99.1431 19.7595 98.1758 18.8614 96.9322 18.8614H89.6087V26.323ZM130.51 27.843H121.597C119.87 27.843 118.419 26.5303 118.419 24.803V20.2431C118.419 18.585 119.801 17.2032 121.597 17.2032H130.51V18.7923H121.597C120.768 18.7923 120.077 19.4832 120.077 20.2431V24.8721C120.077 25.7012 120.768 26.323 121.597 26.323H130.51V27.843ZM130.164 39.7263H124.568V34.5446H125.328V38.9663H130.095V39.7263H130.164ZM86.9143 37.4464H83.3907V38.1373H86.9143V37.4464ZM82.5616 39.7954L85.187 35.581L87.8124 39.7954H88.7106L85.4634 34.6137H84.7725L81.5253 39.7954H82.5616ZM119.317 37.4464H115.794V38.1373H119.317V37.4464ZM114.895 39.7954L117.521 35.581L120.146 39.7954H121.113L117.866 34.6137H117.175L113.928 39.7954H114.895ZM112.063 34.6137H105.983V35.3046H112.063V34.6137ZM92.7868 34.8901H92.0269V39.7954H92.7868V34.8901ZM96.2413 35.3737C96.794 35.3737 97.2776 35.7882 97.2776 36.41C97.2776 36.9627 96.794 37.4464 96.2413 37.4464H92.7868V35.4428H96.2413V35.3737ZM96.2413 34.6137H91.9578V38.1373H96.2413C97.2776 38.1373 98.1067 37.3773 98.1067 36.3409C98.1758 35.3737 97.2776 34.6137 96.2413 34.6137ZM102.459 34.6137H101.699V39.7954H102.459V34.6137ZM109.368 34.7519H108.608V39.7954H109.368V34.7519ZM78.6926 39.7954H74.5473C73.7182 39.7954 72.9582 39.1045 72.9582 38.2754V36.0646C72.9582 35.2355 73.6491 34.5446 74.5473 34.5446H78.6926V35.3046H74.5473C74.1328 35.3046 73.7873 35.65 73.7873 35.9955V38.2063C73.7873 38.6209 74.1328 38.8972 74.5473 38.8972H78.6926V39.7954Z" fill="#263238"/>
</svg>
