<svg width="158" height="78" viewBox="0 0 158 78" fill="none" xmlns="http://www.w3.org/2000/svg">
<g clip-path="url(#clip0_236_826)">
<path d="M30.5447 69.2352C42.9174 69.2352 52.9442 59.2084 52.9442 46.8357C52.9442 34.4631 42.9174 24.4363 30.5447 24.4363C18.1721 24.4363 8.14526 34.4631 8.14526 46.8357C8.14526 59.2084 18.1721 69.2352 30.5447 69.2352ZM30.5447 77.3805C13.6759 77.3805 0 63.7046 0 46.8357C0 29.9669 13.6759 16.291 30.5447 16.291C47.4135 16.291 61.0894 29.9669 61.0894 46.8357C61.0894 63.7046 47.4135 77.3805 30.5447 77.3805Z" fill="#FBCC5C"/>
<path d="M46.8352 52.9442C59.2079 52.9442 69.2347 42.9174 69.2347 30.5447C69.2347 18.1721 59.2079 8.14526 46.8352 8.14526C34.4626 8.14526 24.4358 18.1721 24.4358 30.5447C24.4358 42.9174 34.4626 52.9442 46.8352 52.9442ZM46.8352 61.0894C29.9664 61.0894 16.2905 47.4135 16.2905 30.5447C16.2905 13.6759 29.9664 0 46.8352 0C63.7041 0 77.38 13.6759 77.38 30.5447C77.38 47.4135 63.7041 61.0894 46.8352 61.0894Z" fill="#0FCFB0"/>
<path d="M47.8452 61.0899C49.963 58.5242 51.478 55.5186 52.2844 52.2849C55.5099 51.4785 58.5155 49.9635 61.0894 47.8457C60.9754 51.5844 60.169 55.2661 58.711 58.7197C55.2656 60.1695 51.5839 60.9759 47.8452 61.0899ZM25.0955 25.096C21.87 25.9024 18.8644 27.4174 16.2905 29.5352C16.4046 25.7965 17.2109 22.1149 18.6689 18.6694C22.1144 17.2196 25.8042 16.4132 29.5347 16.291C27.4169 18.8568 25.9019 21.8624 25.0955 25.096Z" fill="#0FCFB0"/>
</g>
<path d="M94.0266 54.4618C92.3786 54.4618 90.8906 54.0938 89.5626 53.3578C88.2506 52.6218 87.2106 51.6058 86.4426 50.3098C85.6906 49.0138 85.3146 47.5578 85.3146 45.9418C85.3146 44.3258 85.6906 42.8698 86.4426 41.5738C87.2106 40.2778 88.2506 39.2618 89.5626 38.5258C90.8906 37.7898 92.3786 37.4218 94.0266 37.4218C95.2426 37.4218 96.3626 37.6218 97.3866 38.0218C98.4106 38.4058 99.2826 38.9818 100.003 39.7498L99.2346 40.5418C97.8906 39.2138 96.1706 38.5498 94.0746 38.5498C92.6666 38.5498 91.3866 38.8698 90.2346 39.5098C89.0826 40.1498 88.1786 41.0378 87.5226 42.1738C86.8666 43.2938 86.5386 44.5498 86.5386 45.9418C86.5386 47.3338 86.8666 48.5978 87.5226 49.7338C88.1786 50.8538 89.0826 51.7338 90.2346 52.3738C91.3866 53.0138 92.6666 53.3338 94.0746 53.3338C96.1546 53.3338 97.8746 52.6618 99.2346 51.3178L100.003 52.1098C99.2826 52.8778 98.4026 53.4618 97.3626 53.8618C96.3386 54.2618 95.2266 54.4618 94.0266 54.4618ZM115.694 53.2378V54.3418H104.102V37.5418H115.334V38.6458H105.326V45.2698H114.278V46.3498H105.326V53.2378H115.694ZM120.157 37.5418H121.381V53.2378H131.053V54.3418H120.157V37.5418ZM140.996 54.4618C139.348 54.4618 137.86 54.0938 136.532 53.3578C135.204 52.6058 134.156 51.5818 133.388 50.2858C132.636 48.9898 132.26 47.5418 132.26 45.9418C132.26 44.3418 132.636 42.8938 133.388 41.5978C134.156 40.3018 135.204 39.2858 136.532 38.5498C137.86 37.7978 139.348 37.4218 140.996 37.4218C142.644 37.4218 144.132 37.7898 145.46 38.5258C146.788 39.2618 147.828 40.2778 148.58 41.5738C149.348 42.8698 149.732 44.3258 149.732 45.9418C149.732 47.5578 149.348 49.0138 148.58 50.3098C147.828 51.6058 146.788 52.6218 145.46 53.3578C144.132 54.0938 142.644 54.4618 140.996 54.4618ZM140.996 53.3338C142.404 53.3338 143.676 53.0138 144.812 52.3738C145.948 51.7338 146.844 50.8538 147.5 49.7338C148.156 48.5978 148.484 47.3338 148.484 45.9418C148.484 44.5498 148.156 43.2938 147.5 42.1738C146.844 41.0378 145.948 40.1498 144.812 39.5098C143.676 38.8698 142.404 38.5498 140.996 38.5498C139.588 38.5498 138.308 38.8698 137.156 39.5098C136.02 40.1498 135.124 41.0378 134.468 42.1738C133.812 43.2938 133.484 44.5498 133.484 45.9418C133.484 47.3338 133.812 48.5978 134.468 49.7338C135.124 50.8538 136.02 51.7338 137.156 52.3738C138.308 53.0138 139.588 53.3338 140.996 53.3338Z" fill="#263238"/>
<defs>
<clipPath id="clip0_236_826">
<rect width="77.3799" height="77.3799" fill="white"/>
</clipPath>
</defs>
</svg>
