<svg width="106" height="58" viewBox="0 0 106 58" fill="none" xmlns="http://www.w3.org/2000/svg">
<path d="M48.8015 57.7557V33.0027H24.4004V8.25122H0V0H32.5343V24.7522H56.9348V57.755L48.8015 57.7557ZM0.00357347 24.7522V57.755H32.5336V49.5044H8.13323V24.7522H0.00357347ZM65.073 32.5438H67.5158V28.1793C67.5158 27.7139 67.6245 27.3332 67.8389 27.0389C68.0533 26.7452 68.3513 26.5966 68.7315 26.5966C69.1003 26.5966 69.3733 26.7119 69.5477 26.9396C69.7221 27.1672 69.8093 27.4949 69.8093 27.9205V32.5438H72.2535V28.1793C72.2535 27.7139 72.3586 27.3332 72.5687 27.0389C72.7788 26.7452 73.079 26.5966 73.4685 26.5966C73.8394 26.5966 74.1096 26.7119 74.2847 26.9396C74.4612 27.1672 74.5477 27.4949 74.5477 27.9205V32.5438H76.9927V27.4804C76.9927 27.0425 76.9369 26.643 76.8276 26.2783C76.7161 25.9129 76.5553 25.6019 76.3394 25.3424C76.125 25.085 75.852 24.8849 75.5233 24.7421C75.1931 24.6 74.8136 24.5296 74.384 24.5296C73.8838 24.5296 73.4321 24.6391 73.0275 24.8573C72.6216 25.0756 72.2693 25.4214 71.9712 25.8984H71.9398C71.7404 25.4736 71.4581 25.1387 71.0943 24.8951C70.7284 24.6515 70.291 24.5296 69.7821 24.5296C69.2218 24.5296 68.7537 24.6515 68.3799 24.8951C68.0054 25.1387 67.6981 25.4627 67.4572 25.8687H67.4129V24.758H65.073V32.5438ZM78.0704 23.6785H80.514V21.6702H78.0704V23.6785ZM78.0704 32.5438H80.514V24.7566H78.0704V32.5438ZM85.5883 32.5975C85.812 32.5728 85.98 32.5438 86.09 32.5126V30.7037C86.0414 30.7037 85.9657 30.7074 85.8656 30.7117C85.7677 30.7168 85.6619 30.7197 85.5511 30.7197C85.2903 30.7197 85.0823 30.6675 84.9286 30.5667C84.7728 30.4652 84.6964 30.2608 84.6964 29.9585V26.3088H86.09V24.7573H84.6964V22.2938H82.3129V24.7573H81.2944V26.3088H82.3129V30.4913C82.3129 30.906 82.3729 31.254 82.4937 31.5324C82.613 31.8116 82.7817 32.0312 83.0033 32.1936C83.2227 32.3553 83.48 32.4706 83.7751 32.5358C84.0703 32.6025 84.3976 32.6337 84.7571 32.6337C85.0859 32.6337 85.3646 32.6228 85.5883 32.5975ZM65.073 44.3482H67.5158V39.9838C67.5158 39.5169 67.6245 39.1369 67.8389 38.8426C68.0533 38.5475 68.3513 38.4003 68.7315 38.4003C69.1003 38.4003 69.3733 38.5156 69.5477 38.7433C69.7221 38.9709 69.8093 39.2986 69.8093 39.7235V44.3482H72.2535V39.9838C72.2535 39.5169 72.3586 39.1369 72.5687 38.8426C72.7788 38.5475 73.079 38.4003 73.4685 38.4003C73.8394 38.4003 74.1096 38.5156 74.2847 38.7433C74.4612 38.9709 74.5477 39.2986 74.5477 39.7235V44.3482H76.9927V39.2827C76.9927 38.847 76.9369 38.446 76.8276 38.0813C76.7161 37.7167 76.5553 37.4064 76.3394 37.1468C76.125 36.8895 75.852 36.6872 75.5233 36.5465C75.1931 36.4059 74.8136 36.3319 74.384 36.3319C73.8838 36.3319 73.4321 36.4436 73.0275 36.6611C72.6216 36.8779 72.2693 37.2266 71.9712 37.7029H71.9398C71.7404 37.2766 71.4581 36.9431 71.0943 36.6981C70.7284 36.4559 70.291 36.3319 69.7821 36.3319C69.2218 36.3319 68.7537 36.4559 68.3799 36.6981C68.0054 36.9431 67.6981 37.2665 67.4572 37.6732H67.4129V36.5618H65.073V44.3482ZM83.094 44.3925C83.4878 44.2714 83.8459 44.0959 84.1661 43.861C84.5055 43.6283 84.7857 43.3521 85.0044 43.0324C85.2245 42.7127 85.376 42.3763 85.4547 42.0232H83.0704C82.9611 42.2653 82.801 42.456 82.5909 42.593C82.38 42.7271 82.117 42.7967 81.7969 42.7967C81.2858 42.7967 80.8928 42.646 80.6112 42.3429C80.3317 42.0384 80.1516 41.6215 80.0723 41.0937H85.589C85.5997 40.3042 85.4925 39.5828 85.2667 38.9274C85.0423 38.2735 84.6985 37.7341 84.2397 37.3085C83.9095 37.0033 83.5271 36.7655 83.0933 36.5937C82.6581 36.4204 82.1663 36.3326 81.616 36.3326C81.0271 36.3326 80.4932 36.4385 80.013 36.6473C79.5327 36.8539 79.1167 37.1439 78.768 37.5137C78.4192 37.8834 78.149 38.3206 77.9582 38.8209C77.7681 39.324 77.6738 39.8634 77.6738 40.4405C77.6738 41.0285 77.7681 41.5773 77.9582 42.0826C78.149 42.5923 78.4192 43.028 78.768 43.4007C79.1167 43.7682 79.5477 44.0582 80.0566 44.2649C80.5661 44.4729 81.1365 44.5766 81.7661 44.5766C82.2557 44.5744 82.6988 44.5157 83.094 44.3925ZM80.0873 39.6176C80.1674 39.1507 80.3317 38.781 80.5826 38.5069C80.8334 38.2336 81.1922 38.0966 81.6618 38.0966C82.0613 38.0966 82.3908 38.2336 82.6509 38.5069C82.9118 38.7803 83.0654 39.1507 83.1148 39.6176H80.0873ZM90.9021 44.2489C91.2866 44.0213 91.5932 43.7052 91.8233 43.297H91.854V44.3482H94.1925V33.4732H91.7497V37.4419H91.7047C91.4738 37.1178 91.1929 36.8517 90.8642 36.6451C90.5333 36.437 90.0973 36.3305 89.5606 36.3305C89.0589 36.3305 88.6043 36.4334 88.1948 36.6364C87.7839 36.8394 87.4337 37.1215 87.1392 37.4818C86.8426 37.8414 86.6132 38.2749 86.4481 38.781C86.2844 39.2892 86.2008 39.8467 86.2008 40.4528C86.2008 41.1031 86.2844 41.6839 86.4481 42.1964C86.6132 42.7076 86.8469 43.1404 87.1471 43.4956C87.4458 43.8516 87.7996 44.1221 88.2105 44.3098C88.6208 44.4969 89.0682 44.5911 89.5606 44.5911C90.0695 44.5904 90.5183 44.4758 90.9021 44.2489ZM89.0724 42.0369C88.8094 41.6411 88.6772 41.1031 88.6772 40.4231C88.6772 39.7663 88.8109 39.2297 89.0817 38.8194C89.3512 38.4083 89.7307 38.2039 90.2202 38.2039C90.4904 38.2039 90.7227 38.2597 90.9185 38.3706C91.1136 38.483 91.278 38.6389 91.4131 38.8346C91.5474 39.0318 91.6468 39.2711 91.7132 39.5487C91.7769 39.8286 91.8097 40.1295 91.8097 40.4528C91.8097 41.0923 91.6654 41.6157 91.3831 42.0224C91.0972 42.4263 90.7012 42.63 90.1909 42.63C89.7107 42.6293 89.3383 42.4314 89.0724 42.0369ZM95.1767 35.4808H97.6202V33.474H95.1767V35.4808ZM95.1767 44.3482H97.6202V36.5618H95.1767V44.3482ZM102.469 44.2576C102.825 44.0633 103.117 43.8052 103.346 43.4797H103.378C103.408 43.6842 103.442 43.8589 103.482 44.0061C103.521 44.1518 103.574 44.2663 103.631 44.3482H106V44.2417C105.89 44.1706 105.818 44.0452 105.783 43.8676C105.748 43.6907 105.731 43.4449 105.731 43.1302V39.208C105.731 38.7215 105.651 38.2909 105.49 37.9146C105.33 37.5405 105.087 37.2302 104.756 36.9873C104.478 36.7734 104.134 36.6154 103.736 36.5074C103.335 36.4015 102.846 36.3479 102.268 36.3479C101.688 36.3479 101.183 36.4189 100.754 36.5618C100.322 36.7024 99.9658 36.8945 99.6814 37.1389C99.3969 37.381 99.1804 37.6681 99.0296 37.9914C98.8795 38.3155 98.8002 38.6599 98.7894 39.0253H101.038C101.078 38.6991 101.198 38.4525 101.398 38.2793C101.597 38.1074 101.893 38.0205 102.282 38.0205C102.652 38.0205 102.919 38.0966 103.085 38.2495C103.248 38.4003 103.331 38.6048 103.331 38.8586C103.331 39.121 103.188 39.3095 102.897 39.4197C102.607 39.5314 102.101 39.6343 101.383 39.7235C100.983 39.7757 100.605 39.8511 100.25 39.9533C99.8944 40.0541 99.582 40.1984 99.3126 40.3869C99.0424 40.5739 98.8316 40.8124 98.6751 41.1003C98.5207 41.3903 98.4442 41.7477 98.4442 42.1725C98.4442 42.5589 98.5086 42.8983 98.6379 43.1919C98.7687 43.4855 98.9481 43.7356 99.1789 43.9357C99.4084 44.1387 99.685 44.2917 100.011 44.3918C100.334 44.4947 100.686 44.5454 101.068 44.5454C101.646 44.5454 102.115 44.449 102.469 44.2576ZM101.099 42.7649C100.896 42.6336 100.799 42.4096 100.799 42.0949C100.799 41.8028 100.903 41.5824 101.115 41.4345C101.324 41.288 101.662 41.1597 102.133 41.0451C102.382 40.9864 102.615 40.9226 102.829 40.8574C103.044 40.7907 103.23 40.7174 103.392 40.6362V41.5635C103.392 41.9898 103.248 42.3299 102.963 42.5829C102.68 42.8352 102.306 42.9635 101.848 42.9635C101.547 42.9642 101.298 42.8983 101.099 42.7649ZM65.073 57.7564H67.5458V46.8821H65.073V57.7564ZM72.4115 57.6643C72.7667 57.4729 73.0576 57.2148 73.2877 56.8893H73.3184C73.3477 57.0923 73.3835 57.2663 73.4228 57.4149C73.4628 57.5614 73.5135 57.6759 73.5736 57.7564H75.9421V57.6505C75.832 57.5788 75.7584 57.4555 75.7248 57.2779C75.6898 57.1003 75.6719 56.8552 75.6719 56.5398V52.6176C75.6719 52.1311 75.5919 51.6997 75.4311 51.3242C75.2724 50.9486 75.0266 50.6391 74.6971 50.3948C74.4176 50.1831 74.0774 50.0243 73.6786 49.917C73.2784 49.8118 72.7896 49.7567 72.2092 49.7567C71.6296 49.7567 71.1243 49.8271 70.6948 49.9706C70.2652 50.1105 69.9072 50.3034 69.6227 50.5477C69.3383 50.7899 69.121 51.0741 68.9695 51.3989C68.8201 51.7251 68.7408 52.0688 68.7315 52.4334H70.9807C71.0207 52.1079 71.1393 51.8592 71.3394 51.6881C71.5396 51.5156 71.834 51.4293 72.2242 51.4293C72.593 51.4293 72.861 51.5054 73.0254 51.657C73.1905 51.8092 73.2748 52.0108 73.2748 52.2652C73.2748 52.5291 73.1283 52.7169 72.8389 52.8279C72.5494 52.9395 72.0441 53.0403 71.3244 53.1324C70.9249 53.1817 70.5483 53.2585 70.1931 53.36C69.8386 53.4615 69.527 53.6058 69.2561 53.7928C68.9867 53.9799 68.773 54.2184 68.6186 54.5084C68.4642 54.797 68.3856 55.1551 68.3856 55.58C68.3856 55.9649 68.4506 56.3057 68.5814 56.5986C68.7122 56.8922 68.8902 57.1423 69.121 57.3439C69.3511 57.5469 69.6277 57.6991 69.9522 57.8013C70.2781 57.9014 70.6305 57.9529 71.0092 57.9529C71.5903 57.9543 72.0563 57.8579 72.4115 57.6643ZM71.0407 56.1752C70.8399 56.0432 70.7398 55.8206 70.7398 55.5053C70.7398 55.2109 70.8449 54.992 71.055 54.8441C71.2644 54.6984 71.6046 54.5678 72.0741 54.4576C72.3229 54.3968 72.5566 54.3337 72.7717 54.267C72.9868 54.201 73.1741 54.1278 73.3341 54.0473V54.9738C73.3341 55.4001 73.1905 55.7394 72.9068 55.9932C72.6209 56.247 72.2485 56.3738 71.7897 56.3738C71.4895 56.3731 71.2394 56.3071 71.0407 56.1752ZM82.8089 57.7187C83.2141 57.5316 83.5586 57.259 83.843 56.9045C84.1275 56.5507 84.3476 56.1165 84.5034 55.6031C84.6585 55.092 84.735 54.512 84.735 53.8617C84.735 53.2752 84.6585 52.7307 84.5034 52.2268C84.3476 51.7266 84.1282 51.2901 83.843 50.9211C83.5586 50.5521 83.2141 50.2621 82.8089 50.054C82.4036 49.8459 81.9519 49.7408 81.4517 49.7408C80.9228 49.7408 80.4861 49.8423 80.1416 50.0453C79.795 50.249 79.5034 50.5158 79.2625 50.8522H79.2175V46.8821H76.774V57.7557H79.1125V56.7675H79.1425C79.3826 57.1721 79.7014 57.4795 80.1023 57.6883C80.5018 57.8963 80.9571 58 81.4667 58C81.9569 58 82.4029 57.905 82.8089 57.7187ZM79.5777 55.4364C79.2876 55.0355 79.1432 54.512 79.1432 53.8617C79.1432 53.2244 79.2754 52.6916 79.5406 52.266C79.8043 51.8397 80.2074 51.6265 80.7477 51.6265C81.248 51.6265 81.6239 51.831 81.879 52.2363C82.1342 52.6415 82.2621 53.178 82.2621 53.8479C82.2621 54.5265 82.1342 55.0623 81.879 55.4531C81.6232 55.8431 81.2573 56.0382 80.777 56.0382C80.2674 56.0382 79.8672 55.8388 79.5777 55.4364Z" fill="#221E20"/>
</svg>
