<svg width="149" height="44" viewBox="0 0 149 44" fill="none" xmlns="http://www.w3.org/2000/svg">
<g clip-path="url(#clip0_236_809)">
<path d="M54.1416 16.4329C53.7492 16.2996 52.9209 16.2107 52.0924 16.2107C49.6069 16.2107 46.9471 18.2616 46.9471 20.7933V32.8666H41.2788V11.3251H46.7292V13.5014C47.9936 11.9025 50.3045 10.8809 52.8772 10.8809C53.5205 10.8856 54.1622 10.945 54.7958 11.0585L54.1416 16.4329Z" fill="#263238"/>
<path d="M60.551 0C62.6004 0 64.2573 1.59896 64.2573 3.68652C64.2573 5.77409 62.6004 7.37293 60.551 7.37293C58.5016 7.37293 56.8447 5.77409 56.8447 3.68652C56.8447 1.59896 58.5017 0 60.551 0ZM63.3852 32.8676H57.7168V11.326H63.3852V32.8675V32.8676Z" fill="#263238"/>
<path d="M80.1293 10.8816C77.8797 10.8526 75.6904 11.6229 73.9379 13.0601V11.3267H68.4863V43.5271H74.1552V31.3587C75.7674 32.656 77.7698 33.3464 79.8241 33.3134C82.9638 33.3134 85.9716 31.8909 87.8466 29.6701C89.5043 27.7154 90.5053 25.0519 90.5053 22.1199C90.5054 15.7684 85.8838 10.8816 80.1293 10.8816ZM79.4404 28.0711C75.9192 28.0711 73.605 25.5959 73.605 22.1387C73.605 18.6815 75.9192 16.2064 79.4404 16.2064C82.4459 16.2064 84.8827 18.8628 84.8827 22.1387C84.8827 25.4146 82.4459 28.0711 79.4404 28.0711Z" fill="#263238"/>
<path d="M124.909 32.8672H119.24V1.33203H124.909V32.8672V32.8672Z" fill="#263238"/>
<path d="M148.018 29.4466C145.969 31.9339 142.611 33.3108 139.341 33.3108C133.019 33.3108 128.266 28.8693 128.266 22.1181C128.266 16.122 132.278 10.8809 138.557 10.8809C144.399 10.8809 148.542 15.8998 148.542 21.8959C148.545 22.4466 148.501 22.9965 148.411 23.5394H133.76C134.065 26.5596 136.464 28.6471 139.472 28.6471C141.87 28.6471 143.789 27.2702 144.792 26.1599L148.018 29.4466ZM142.742 19.3199C142.568 17.41 140.868 15.5446 138.557 15.5446C136.202 15.5446 134.283 17.3657 134.022 19.3199H142.742Z" fill="#263238"/>
<path d="M105.507 10.8816C103.257 10.8527 101.068 11.6229 99.3154 13.0601V11.3267H93.8638V43.5271H99.5327V31.3587C101.145 32.656 103.147 33.3464 105.202 33.3134C108.341 33.3134 111.349 31.8909 113.224 29.6701C114.882 27.7154 115.883 25.0519 115.883 22.1199C115.883 15.7684 111.261 10.8816 105.507 10.8816ZM104.818 28.0711C101.297 28.0711 98.9824 25.5959 98.9824 22.1387C98.9824 18.6815 101.297 16.2063 104.818 16.2063C107.823 16.2063 110.26 18.8628 110.26 22.1387C110.26 25.4145 107.823 28.0711 104.818 28.0711Z" fill="#263238"/>
<path d="M29.5933 25.019C28.3135 24.2663 26.8722 24.0481 25.4447 23.9973C24.2469 23.9547 22.46 23.1729 22.46 20.9535C22.46 19.2999 23.7759 17.969 25.4453 17.9096C26.8727 17.8589 28.3138 17.6404 29.5933 16.8879C30.7426 16.212 31.697 15.2399 32.3605 14.0691C33.0241 12.8984 33.3734 11.5704 33.3734 10.2186C33.3734 8.86675 33.024 7.53874 32.3605 6.36803C31.6969 5.19732 30.7425 4.22516 29.5932 3.54926C28.4439 2.87337 27.1402 2.51755 25.8131 2.51758C24.486 2.51761 23.1823 2.87348 22.033 3.54942C20.8837 4.22536 19.9293 5.19756 19.2658 6.3683C18.6023 7.53904 18.253 8.86706 18.2531 10.2189C18.2531 11.711 18.774 13.084 19.4388 14.3575C19.9979 15.4286 20.2807 17.4166 18.3632 18.5443C16.9368 19.3832 15.1566 18.852 14.2674 17.4024C13.5163 16.178 12.6096 15.0308 11.3402 14.2842C10.1909 13.6083 8.88723 13.2524 7.56015 13.2524C6.23307 13.2524 4.92936 13.6082 3.78008 14.2841C2.63079 14.96 1.67641 15.9322 1.01287 17.1029C0.349326 18.2736 0 19.6016 0 20.9534C0 22.3052 0.349326 23.6332 1.01287 24.8039C1.67641 25.9746 2.63079 26.9468 3.78008 27.6227C4.92936 28.2986 6.23307 28.6544 7.56015 28.6544C8.88723 28.6544 10.1909 28.2986 11.3402 27.6227C12.6093 26.8763 13.516 25.7298 14.2667 24.5062C14.883 23.5014 16.4224 22.2206 18.3631 23.3628C19.7874 24.2011 20.2277 26.0376 19.4381 27.5503C18.7735 28.8236 18.2532 30.1964 18.2532 31.6882C18.2532 33.04 18.6025 34.368 19.266 35.5387C19.9296 36.7094 20.8839 37.6815 22.0332 38.3574C23.1825 39.0333 24.4862 39.3892 25.8132 39.3892C27.1403 39.3892 28.444 39.0333 29.5932 38.3574C30.7425 37.6815 31.6969 36.7094 32.3604 35.5387C33.024 34.368 33.3733 33.04 33.3733 31.6882C33.3733 30.3364 33.024 29.0085 32.3604 27.8378C31.6969 26.6671 30.7425 25.6949 29.5933 25.019Z" fill="url(#paint0_linear_236_809)"/>
</g>
<defs>
<linearGradient id="paint0_linear_236_809" x1="9.41196" y1="8.17585" x2="34.9627" y2="33.2592" gradientUnits="userSpaceOnUse">
<stop stop-color="#00AAE4"/>
<stop offset="1" stop-color="#006097"/>
</linearGradient>
<clipPath id="clip0_236_809">
<rect width="148.542" height="43.5262" fill="white"/>
</clipPath>
</defs>
</svg>
