<svg width="51" height="69" viewBox="0 0 51 69" fill="none" xmlns="http://www.w3.org/2000/svg">
<g clip-path="url(#clip0_515_286)">
<path d="M49.8939 12.8887L26.8691 0V27.5651L51.3317 41.2703V15.3025C51.3312 14.8133 51.1981 14.3328 50.9458 13.9091C50.6934 13.4855 50.3307 13.1336 49.8939 12.8887Z" fill="#0FCFB0"/>
<path d="M24.4626 0L1.4378 12.8887C1.001 13.1336 0.638253 13.4855 0.385907 13.9091C0.133561 14.3328 0.000480245 14.8133 0 15.3025L0 41.2703L24.4626 27.5651V0Z" fill="#0FCFB0"/>
<path d="M50.1167 43.2124L25.6674 29.5234L1.21484 43.2124L20.0726 53.7777V66.3856C19.154 65.5793 17.9534 65.142 16.7145 65.1626C14.2715 65.1626 12.2912 66.7051 12.2912 68.609H22.4224V55.0975L24.3295 56.1495C24.7291 56.3903 25.1903 56.5178 25.6608 56.5178C26.1313 56.5178 26.5924 56.3903 26.9921 56.1495L28.8991 55.0846V68.5961H39.0403C39.0403 66.6922 37.0433 65.1497 34.6171 65.1497C33.3781 65.1291 32.1775 65.5663 31.2589 66.3727V53.7777L50.1167 43.2124Z" fill="#0FCFB0"/>
<path d="M39.0998 17.8789C37.5255 17.8789 36.2441 18.9245 36.2441 20.5702C36.2441 22.1353 37.5255 23.2196 39.0998 23.2196C39.4682 23.2326 39.8355 23.1738 40.1801 23.0468C40.5247 22.9198 40.8396 22.7271 41.1061 22.4801C41.3726 22.2331 41.5854 21.9369 41.7318 21.6089C41.8782 21.2808 41.9554 20.9277 41.9587 20.5702C41.9587 18.9245 40.6341 17.8789 39.0998 17.8789Z" fill="white"/>
<path d="M12.231 17.8789C10.6967 17.8789 9.37207 18.9245 9.37207 20.5702C9.37317 20.929 9.44869 21.2839 9.59415 21.6139C9.7396 21.9438 9.95202 22.2419 10.2188 22.4906C10.4855 22.7393 10.8011 22.9334 11.1468 23.0615C11.4925 23.1895 11.8612 23.2487 12.231 23.2357C13.8053 23.2357 15.0867 22.1515 15.0867 20.5864C15.0867 18.9245 13.8053 17.8789 12.231 17.8789Z" fill="white"/>
<path d="M25.6676 45.9592C21.7369 45.9592 18.6783 43.7293 17.6598 40.3926H15.2568C16.3285 45.0427 20.379 48.2084 25.6676 48.2084C30.9561 48.2084 35.0033 45.0427 36.075 40.3926H33.672C32.6535 43.7293 29.5982 45.9592 25.6676 45.9592Z" fill="white"/>
</g>
<defs>
<clipPath id="clip0_515_286">
<rect width="51" height="69" fill="white"/>
</clipPath>
</defs>
</svg>
