<svg width="122" height="33" viewBox="0 0 122 33" fill="none" xmlns="http://www.w3.org/2000/svg">
<path d="M38.9266 3.32549C38.9238 2.89015 39.0049 2.45856 39.1653 2.05575C39.3256 1.65294 39.562 1.28692 39.8608 0.978911C40.1596 0.670902 40.5148 0.427031 40.9058 0.26144C41.2968 0.0958501 41.7158 0.0118338 42.1385 0.0142621C43.0016 0.00736059 43.8325 0.351123 44.4511 0.970992C45.0696 1.59086 45.4259 2.43686 45.4427 3.32549C45.4232 4.20893 45.0645 5.04839 44.4452 5.66009C43.8259 6.27178 42.9965 6.60587 42.1385 6.58921C41.7185 6.59601 41.3013 6.51655 40.9115 6.35549C40.5216 6.19443 40.1668 5.95499 39.8678 5.65115C39.5687 5.34731 39.3315 4.98516 39.1699 4.58585C39.0083 4.18654 38.9256 3.75808 38.9266 3.32549V3.32549Z" fill="#263238"/>
<path d="M4.22695 14.4327H0V10.2626H4.22695V8.04052C4.22695 2.46332 7.9251 0 12.2834 0C13.9669 0.0113065 15.6401 0.271 17.2521 0.771159L16.6381 4.6233C15.5183 4.22505 14.3445 4.01166 13.16 3.99102C10.2072 3.99102 8.93304 5.81842 8.93304 8.34387V10.248H16.9007V14.4181H8.94014V32.1913H4.22695V14.4327Z" fill="#263238"/>
<path d="M35.5798 10.3065L34.8699 14.8859C33.8272 14.4893 32.7235 14.29 31.6119 14.2975C28.6165 14.2975 26.2883 16.4283 26.2883 20.4631V32.206H21.5751V10.2773H26.306V12.7698C27.6688 10.8657 29.7841 9.82408 32.4246 9.82408C33.4949 9.80622 34.5607 9.96919 35.5798 10.3065Z" fill="#263238"/>
<path d="M39.7926 10.2627H44.5022V32.1914H39.7926V10.2627Z" fill="#263238"/>
<path d="M49.5803 21.2342C49.5803 14.3413 54.29 9.80933 60.4121 9.80933C66.4456 9.80933 70.8464 14.1147 70.8464 20.7737C70.8467 21.2891 70.8171 21.8042 70.7577 22.316H54.29C54.6449 26.4422 57.1079 28.7557 60.5009 28.7557C62.6303 28.7557 64.5433 27.8311 65.4163 26.0329H69.9592C68.8164 30.4771 64.9408 32.6554 60.4938 32.6554C54.29 32.6627 49.5803 28.171 49.5803 21.2342ZM66.261 18.6064C65.8635 15.9311 63.6631 13.7528 60.4476 13.7528C57.5871 13.7528 55.3405 15.4742 54.549 18.6064H66.261Z" fill="#263238"/>
<path d="M94.7141 18.1498V32.2061H90.0009V19.4144C90.0009 15.8765 87.9744 14.199 85.1138 14.199C82.1645 14.199 80.1806 16.3297 80.1806 20.0466V32.1951H75.4709V10.2664H80.1806V12.759C81.6002 10.8548 83.7474 9.81324 86.4802 9.81324C91.2538 9.80958 94.7141 12.7115 94.7141 18.1498Z" fill="#263238"/>
<path d="M121.616 0.467773V32.2059H116.907V29.1688C115.274 31.3909 112.765 32.6627 109.596 32.6627C103.74 32.6627 99.1614 27.9919 99.1614 21.2342C99.1614 14.4766 103.74 9.80939 109.638 9.80939C112.765 9.80939 115.274 11.0776 116.907 13.2997V0.467773H121.616ZM116.907 21.2342C116.907 16.9728 114.22 14.0709 110.518 14.0709C106.952 14.0709 103.999 16.8375 103.999 21.2342C103.999 25.6309 106.952 28.3976 110.518 28.3976C114.22 28.3976 116.907 25.4957 116.907 21.2342Z" fill="#263238"/>
</svg>
