<svg width="40" height="21" viewBox="0 0 40 21" fill="none" xmlns="http://www.w3.org/2000/svg">
<path d="M10 0.25H5C4.33696 0.25 3.70107 0.513393 3.23223 0.982234C2.76339 1.45107 2.5 2.08696 2.5 2.75V17.75H5V11.5H10V17.75H12.5V2.75C12.5 2.08696 12.2366 1.45107 11.7678 0.982234C11.2989 0.513393 10.663 0.25 10 0.25ZM5 9V2.75H10V9H5Z" fill="#263238"/>
<path d="M27.5 2.75H31.25V15.25H27.5V17.75H37.5V15.25H33.75V2.75H37.5V0.25H27.5V2.75Z" fill="#263238"/>
<path d="M17.5 17.75H15V0.25H22.5C23.163 0.25 23.7989 0.513393 24.2678 0.982234C24.7366 1.45107 25 2.08696 25 2.75V9C25 9.66304 24.7366 10.2989 24.2678 10.7678C23.7989 11.2366 23.163 11.5 22.5 11.5H17.5V17.75ZM17.5 9H22.5V2.75H17.5V9Z" fill="#263238"/>
</svg>
