<svg width="16" height="165" viewBox="0 0 16 165" fill="none" xmlns="http://www.w3.org/2000/svg">
<path d="M7.64645 164.354C7.84171 164.549 8.15829 164.549 8.35355 164.354L11.5355 161.172C11.7308 160.976 11.7308 160.66 11.5355 160.464C11.3403 160.269 11.0237 160.269 10.8284 160.464L8 163.293L5.17157 160.464C4.97631 160.269 4.65973 160.269 4.46447 160.464C4.2692 160.66 4.2692 160.976 4.46447 161.172L7.64645 164.354ZM7.5 0V1H8.5V0L7.5 0ZM7.5 3V5H8.5V3H7.5ZM7.5 7L7.5 9H8.5V7H7.5ZM7.5 11V13H8.5V11H7.5ZM7.5 15V17H8.5L8.5 15H7.5ZM7.5 19V21H8.5V19H7.5ZM7.5 23V25H8.5V23H7.5ZM7.5 27V29H8.5V27H7.5ZM7.5 31V33H8.5V31H7.5ZM7.5 35L7.5 37H8.5V35H7.5ZM7.5 39V41H8.5V39H7.5ZM7.5 43V45H8.5V43H7.5ZM7.5 47V49H8.5V47H7.5ZM7.5 51V53H8.5V51H7.5ZM7.5 55V57H8.5V55H7.5ZM7.5 59V61H8.5V59H7.5ZM7.5 63V65H8.5V63H7.5ZM7.5 67V69H8.5V67H7.5ZM7.5 71V73H8.5V71H7.5ZM7.5 75V77H8.5V75H7.5ZM7.5 79L7.5 81H8.5V79H7.5ZM7.5 83V85H8.5V83H7.5ZM7.5 87V89H8.5V87H7.5ZM7.5 91V93H8.5V91H7.5ZM7.5 95V97H8.5V95H7.5ZM7.5 99V101H8.5L8.5 99H7.5ZM7.5 103V105H8.5V103H7.5ZM7.5 107L7.5 109H8.5V107H7.5ZM7.5 111V113H8.5V111H7.5ZM7.5 115V117H8.5V115H7.5ZM7.5 119V121H8.5V119H7.5ZM7.5 123L7.5 125H8.5V123H7.5ZM7.5 127V129H8.5V127H7.5ZM7.5 131V133H8.5L8.5 131H7.5ZM7.5 135V137H8.5V135H7.5ZM7.5 139V141H8.5V139H7.5ZM7.5 143V145H8.5V143H7.5ZM7.5 147V149H8.5V147H7.5ZM7.5 151V153H8.5V151H7.5ZM7.5 155V157H8.5V155H7.5ZM7.5 159V161H8.5L8.5 159H7.5ZM7.5 163V164H8.5V163H7.5ZM7.29289 164.707C7.68342 165.098 8.31658 165.098 8.70711 164.707L15.0711 158.343C15.4616 157.953 15.4616 157.319 15.0711 156.929C14.6805 156.538 14.0474 156.538 13.6569 156.929L8 162.586L2.34315 156.929C1.95262 156.538 1.31946 156.538 0.928932 156.929C0.538408 157.319 0.538408 157.953 0.928932 158.343L7.29289 164.707ZM7 0V1L9 1V0L7 0ZM7 3V5H9V3H7ZM7 7L7 9H9V7H7ZM7 11V13H9V11H7ZM7 15V17H9L9 15H7ZM7 19L7 21H9V19H7ZM7 23V25H9V23H7ZM7 27V29H9V27H7ZM7 31V33H9V31H7ZM7 35V37H9V35H7ZM7 39V41H9V39H7ZM7 43V45H9V43H7ZM7 47V49H9V47H7ZM7 51V53H9V51H7ZM7 55V57H9V55H7ZM7 59V61H9V59H7ZM7 63V65H9V63H7ZM7 67V69H9V67H7ZM7 71V73H9V71H7ZM7 75V77H9V75H7ZM7 79L7 81H9V79H7ZM7 83V85H9V83H7ZM7 87V89H9V87H7ZM7 91V93H9V91H7ZM7 95L7 97H9V95H7ZM7 99V101H9L9 99H7ZM7 103V105H9V103H7ZM7 107L7 109H9V107H7ZM7 111V113H9V111H7ZM7 115V117H9V115H7ZM7 119V121H9V119H7ZM7 123L7 125H9V123H7ZM7 127V129H9V127H7ZM7 131V133H9L9 131H7ZM7 135V137H9V135H7ZM7 139V141H9V139H7ZM7 143V145H9V143H7ZM7 147V149H9V147H7ZM7 151V153H9V151H7ZM7 155V157H9V155H7ZM7 159V161H9V159H7ZM7 163V164H9V163H7Z" fill="#263238"/>
</svg>
