<svg width="155" height="112" viewBox="0 0 155 112" fill="none" xmlns="http://www.w3.org/2000/svg">
<path d="M153.491 109.492C153.764 109.446 153.948 109.188 153.902 108.916L153.152 104.487C153.106 104.215 152.848 104.032 152.575 104.078C152.302 104.124 152.118 104.382 152.164 104.654L152.831 108.591L148.88 109.26C148.608 109.306 148.424 109.564 148.47 109.836C148.516 110.107 148.774 110.29 149.047 110.244L153.491 109.492ZM0.587779 1.40711L1.39911 1.98158L1.97965 1.16735L1.16832 0.592886L0.587779 1.40711ZM3.02176 3.13052L4.64442 4.27945L5.22497 3.46523L3.60231 2.31629L3.02176 3.13052ZM6.26708 5.42839L7.88974 6.57733L8.47028 5.7631L6.84763 4.61416L6.26708 5.42839ZM9.51239 7.72626L11.1351 8.8752L11.7156 8.06097L10.0929 6.91204L9.51239 7.72626ZM12.7577 10.0241L14.3804 11.1731L14.9609 10.3588L13.3383 9.20991L12.7577 10.0241ZM16.003 12.322L17.6257 13.4709L18.2062 12.6567L16.5836 11.5078L16.003 12.322ZM19.2483 14.6199L20.871 15.7688L21.4515 14.9546L19.8289 13.8057L19.2483 14.6199ZM22.4937 16.9178L24.1163 18.0667L24.6969 17.2525L23.0742 16.1035L22.4937 16.9178ZM25.739 19.2156L27.3616 20.3646L27.9422 19.5503L26.3195 18.4014L25.739 19.2156ZM28.9843 21.5135L30.6069 22.6624L31.1875 21.8482L29.5648 20.6993L28.9843 21.5135ZM32.2296 23.8114L33.8523 24.9603L34.4328 24.1461L32.8101 22.9971L32.2296 23.8114ZM35.4749 26.1092L37.0976 27.2582L37.6781 26.4439L36.0555 25.295L35.4749 26.1092ZM38.7202 28.4071L40.3429 29.556L40.9234 28.7418L39.3008 27.5929L38.7202 28.4071ZM41.9655 30.705L43.5882 31.8539L44.1687 31.0397L42.5461 29.8908L41.9655 30.705ZM45.2108 33.0029L46.8335 34.1518L47.414 33.3376L45.7914 32.1886L45.2108 33.0029ZM48.4562 35.3007L50.0788 36.4497L50.6594 35.6354L49.0367 34.4865L48.4562 35.3007ZM51.7015 37.5986L53.3241 38.7475L53.9047 37.9333L52.282 36.7844L51.7015 37.5986ZM54.9468 39.8965L56.5694 41.0454L57.15 40.2312L55.5273 39.0822L54.9468 39.8965ZM58.1921 42.1943L59.8148 43.3433L60.3953 42.5291L58.7727 41.3801L58.1921 42.1943ZM61.4374 44.4922L63.0601 45.6412L63.6406 44.8269L62.018 43.678L61.4374 44.4922ZM64.6827 46.7901L66.3054 47.939L66.886 47.1248L65.2633 45.9759L64.6827 46.7901ZM67.9281 49.088L69.5507 50.2369L70.1313 49.4227L68.5086 48.2737L67.9281 49.088ZM71.1734 51.3858L72.796 52.5348L73.3766 51.7206L71.7539 50.5716L71.1734 51.3858ZM74.4187 53.6837L76.0414 54.8327L76.6219 54.0184L74.9992 52.8695L74.4187 53.6837ZM77.664 55.9816L79.2867 57.1305L79.8672 56.3163L78.2446 55.1674L77.664 55.9816ZM80.9093 58.2795L82.532 59.4284L83.1125 58.6142L81.4899 57.4652L80.9093 58.2795ZM84.1547 60.5774L85.7773 61.7263L86.3579 60.9121L84.7352 59.7631L84.1547 60.5774ZM87.4 62.8752L89.0226 64.0242L89.6032 63.2099L87.9805 62.061L87.4 62.8752ZM90.6453 65.1731L92.268 66.322L92.8485 65.5078L91.2258 64.3589L90.6453 65.1731ZM93.8906 67.471L95.5133 68.6199L96.0938 67.8057L94.4712 66.6567L93.8906 67.471ZM97.1359 69.7689L98.7586 70.9178L99.3391 70.1036L97.7165 68.9546L97.1359 69.7689ZM100.381 72.0667L102.004 73.2157L102.584 72.4014L100.962 71.2525L100.381 72.0667ZM103.627 74.3646L105.249 75.5135L105.83 74.6993L104.207 73.5504L103.627 74.3646ZM106.872 76.6625L108.495 77.8114L109.075 76.9972L107.452 75.8482L106.872 76.6625ZM110.117 78.9603L111.74 80.1093L112.32 79.2951L110.698 78.1461L110.117 78.9603ZM113.363 81.2582L114.985 82.4072L115.566 81.5929L113.943 80.444L113.363 81.2582ZM116.608 83.5561L118.23 84.705L118.811 83.8908L117.188 82.7419L116.608 83.5561ZM119.853 85.854L121.476 87.0029L122.056 86.1887L120.434 85.0397L119.853 85.854ZM123.098 88.1518L124.721 89.3008L125.302 88.4866L123.679 87.3376L123.098 88.1518ZM126.344 90.4497L127.966 91.5987L128.547 90.7844L126.924 89.6355L126.344 90.4497ZM129.589 92.7476L131.212 93.8965L131.792 93.0823L130.17 91.9334L129.589 92.7476ZM132.834 95.0455L134.457 96.1944L135.038 95.3802L133.415 94.2312L132.834 95.0455ZM136.08 97.3433L137.702 98.4923L138.283 97.6781L136.66 96.5291L136.08 97.3433ZM139.325 99.6412L140.948 100.79L141.528 99.9759L139.906 98.827L139.325 99.6412ZM142.57 101.939L144.193 103.088L144.774 102.274L143.151 101.125L142.57 101.939ZM145.816 104.237L147.438 105.386L148.019 104.572L146.396 103.423L145.816 104.237ZM149.061 106.535L150.684 107.684L151.264 106.87L149.642 105.721L149.061 106.535ZM152.306 108.833L153.118 109.407L153.698 108.593L152.887 108.018L152.306 108.833ZM153.574 109.984C154.12 109.892 154.487 109.377 154.395 108.833L152.896 99.9736C152.804 99.43 152.287 99.0641 151.742 99.1564C151.197 99.2487 150.829 99.7642 150.921 100.308L152.254 108.183L144.353 109.52C143.807 109.612 143.44 110.128 143.532 110.671C143.624 111.215 144.141 111.581 144.686 111.489L153.574 109.984ZM0.297506 1.81423L1.10883 2.3887L2.26993 0.760241L1.4586 0.185773L0.297506 1.81423ZM2.73149 3.53763L4.35415 4.68657L5.51524 3.05811L3.89258 1.90918L2.73149 3.53763ZM5.97681 5.8355L7.59946 6.98444L8.76056 5.35599L7.1379 4.20705L5.97681 5.8355ZM9.22212 8.13338L10.8448 9.28231L12.0059 7.65386L10.3832 6.50492L9.22212 8.13338ZM12.4674 10.4312L14.0901 11.5802L15.2512 9.95173L13.6285 8.8028L12.4674 10.4312ZM15.7128 12.7291L17.3354 13.8781L18.4965 12.2496L16.8738 11.1007L15.7128 12.7291ZM18.9581 15.027L20.5807 16.1759L21.7418 14.5475L20.1192 13.3985L18.9581 15.027ZM22.2034 17.3249L23.826 18.4738L24.9871 16.8454L23.3645 15.6964L22.2034 17.3249ZM25.4487 19.6227L27.0714 20.7717L28.2324 19.1432L26.6098 17.9943L25.4487 19.6227ZM28.694 21.9206L30.3167 23.0695L31.4778 21.4411L29.8551 20.2922L28.694 21.9206ZM31.9393 24.2185L33.562 25.3674L34.7231 23.739L33.1004 22.59L31.9393 24.2185ZM35.1846 26.5164L36.8073 27.6653L37.9684 26.0368L36.3457 24.8879L35.1846 26.5164ZM38.4299 28.8142L40.0526 29.9632L41.2137 28.3347L39.591 27.1858L38.4299 28.8142ZM41.6753 31.1121L43.2979 32.261L44.459 30.6326L42.8364 29.4836L41.6753 31.1121ZM44.9206 33.41L46.5432 34.5589L47.7043 32.9304L46.0817 31.7815L44.9206 33.41ZM48.1659 35.7078L49.7885 36.8568L50.9496 35.2283L49.327 34.0794L48.1659 35.7078ZM51.4112 38.0057L53.0339 39.1546L54.195 37.5262L52.5723 36.3773L51.4112 38.0057ZM54.6565 40.3036L56.2792 41.4525L57.4403 39.8241L55.8176 38.6751L54.6565 40.3036ZM57.9018 42.6015L59.5245 43.7504L60.6856 42.1219L59.0629 40.973L57.9018 42.6015ZM61.1472 44.8993L62.7698 46.0483L63.9309 44.4198L62.3082 43.2709L61.1472 44.8993ZM64.3925 47.1972L66.0151 48.3461L67.1762 46.7177L65.5536 45.5688L64.3925 47.1972ZM67.6378 49.4951L69.2605 50.644L70.4215 49.0156L68.7989 47.8666L67.6378 49.4951ZM70.8831 51.793L72.5058 52.9419L73.6669 51.3134L72.0442 50.1645L70.8831 51.793ZM74.1284 54.0908L75.7511 55.2398L76.9122 53.6113L75.2895 52.4624L74.1284 54.0908ZM77.3737 56.3887L78.9964 57.5376L80.1575 55.9092L78.5348 54.7603L77.3737 56.3887ZM80.6191 58.6866L82.2417 59.8355L83.4028 58.2071L81.7802 57.0581L80.6191 58.6866ZM83.8644 60.9845L85.487 62.1334L86.6481 60.5049L85.0255 59.356L83.8644 60.9845ZM87.1097 63.2823L88.7324 64.4313L89.8934 62.8028L88.2708 61.6539L87.1097 63.2823ZM90.355 65.5802L91.9777 66.7292L93.1388 65.1007L91.5161 63.9518L90.355 65.5802ZM93.6003 67.8781L95.223 69.027L96.3841 67.3986L94.7614 66.2496L93.6003 67.8781ZM96.8457 70.176L98.4683 71.3249L99.6294 69.6964L98.0068 68.5475L96.8457 70.176ZM100.091 72.4738L101.714 73.6228L102.875 71.9943L101.252 70.8454L100.091 72.4738ZM103.336 74.7717L104.959 75.9206L106.12 74.2922L104.497 73.1433L103.336 74.7717ZM106.582 77.0696L108.204 78.2185L109.365 76.5901L107.743 75.4411L106.582 77.0696ZM109.827 79.3675L111.45 80.5164L112.611 78.8879L110.988 77.739L109.827 79.3675ZM113.072 81.6653L114.695 82.8143L115.856 81.1858L114.233 80.0369L113.072 81.6653ZM116.318 83.9632L117.94 85.1121L119.101 83.4837L117.479 82.3348L116.318 83.9632ZM119.563 86.2611L121.186 87.41L122.347 85.7816L120.724 84.6326L119.563 86.2611ZM122.808 88.559L124.431 89.7079L125.592 88.0794L123.969 86.9305L122.808 88.559ZM126.054 90.8568L127.676 92.0058L128.837 90.3773L127.215 89.2284L126.054 90.8568ZM129.299 93.1547L130.921 94.3036L132.083 92.6752L130.46 91.5263L129.299 93.1547ZM132.544 95.4526L134.167 96.6015L135.328 94.9731L133.705 93.8241L132.544 95.4526ZM135.789 97.7505L137.412 98.8994L138.573 97.2709L136.951 96.122L135.789 97.7505ZM139.035 100.048L140.657 101.197L141.819 99.5688L140.196 98.4199L139.035 100.048ZM142.28 102.346L143.903 103.495L145.064 101.867L143.441 100.718L142.28 102.346ZM145.525 104.644L147.148 105.793L148.309 104.165L146.687 103.016L145.525 104.644ZM148.771 106.942L150.393 108.091L151.555 106.462L149.932 105.314L148.771 106.942ZM152.016 109.24L152.827 109.814L153.988 108.186L153.177 107.611L152.016 109.24Z" fill="#263238"/>
</svg>
