<svg width="135" height="124" viewBox="0 0 135 124" fill="none" xmlns="http://www.w3.org/2000/svg">
<path d="M134.347 1.52161C134.359 1.2462 134.145 1.01328 133.868 1.00135L129.365 0.806986C129.089 0.795058 128.855 1.00865 128.843 1.28406C128.831 1.55946 129.045 1.79239 129.322 1.80431L133.325 1.97708L133.151 5.96637C133.139 6.24177 133.354 6.4747 133.63 6.48663C133.906 6.49856 134.14 6.28497 134.152 6.00956L134.347 1.52161ZM1.22352 123.368L1.9622 122.693L1.28517 121.957L0.546497 122.632L1.22352 123.368ZM3.43955 121.343L4.91691 119.993L4.23988 119.257L2.76253 120.607L3.43955 121.343ZM6.39426 118.643L7.87161 117.293L7.19459 116.557L5.71723 117.907L6.39426 118.643ZM9.34896 115.943L10.8263 114.593L10.1493 113.857L8.67194 115.207L9.34896 115.943ZM12.3037 113.243L13.781 111.893L13.104 111.157L11.6266 112.507L12.3037 113.243ZM15.2584 110.543L16.7357 109.193L16.0587 108.457L14.5814 109.807L15.2584 110.543ZM18.2131 107.843L19.6904 106.493L19.0134 105.757L17.5361 107.107L18.2131 107.843ZM21.1678 105.143L22.6451 103.793L21.9681 103.057L20.4908 104.407L21.1678 105.143ZM24.1225 102.443L25.5998 101.093L24.9228 100.357L23.4455 101.707L24.1225 102.443ZM27.0772 99.7429L28.5546 98.3929L27.8775 97.6571L26.4002 99.0071L27.0772 99.7429ZM30.0319 97.0429L31.5093 95.6929L30.8322 94.9571L29.3549 96.3071L30.0319 97.0429ZM32.9866 94.3429L34.464 92.9929L33.7869 92.2571L32.3096 93.6071L32.9866 94.3429ZM35.9413 91.6429L37.4187 90.2929L36.7416 89.5571L35.2643 90.9071L35.9413 91.6429ZM38.896 88.9429L40.3734 87.5929L39.6963 86.8571L38.219 88.2071L38.896 88.9429ZM41.8507 86.2429L43.3281 84.8929L42.651 84.1571L41.1737 85.5071L41.8507 86.2429ZM44.8054 83.5429L46.2828 82.1929L45.6058 81.4571L44.1284 82.8071L44.8054 83.5429ZM47.7601 80.8429L49.2375 79.4929L48.5605 78.7571L47.0831 80.1071L47.7601 80.8429ZM50.7148 78.1429L52.1922 76.7929L51.5152 76.0571L50.0378 77.4071L50.7148 78.1429ZM53.6695 75.4429L55.1469 74.0929L54.4699 73.3571L52.9925 74.7071L53.6695 75.4429ZM56.6243 72.7429L58.1016 71.3929L57.4246 70.6571L55.9472 72.0071L56.6243 72.7429ZM59.579 70.0429L61.0563 68.6929L60.3793 67.9571L58.9019 69.3071L59.579 70.0429ZM62.5337 67.3429L64.011 65.9929L63.334 65.2571L61.8566 66.6071L62.5337 67.3429ZM65.4884 64.6429L66.9657 63.2929L66.2887 62.5571L64.8114 63.9071L65.4884 64.6429ZM68.4431 61.9429L69.9204 60.5929L69.2434 59.8571L67.7661 61.2071L68.4431 61.9429ZM71.3978 59.2429L72.8752 57.8929L72.1981 57.1571L70.7208 58.5071L71.3978 59.2429ZM74.3525 56.5429L75.8299 55.1929L75.1528 54.4571L73.6755 55.8071L74.3525 56.5429ZM77.3072 53.8429L78.7846 52.4929L78.1075 51.7571L76.6302 53.1071L77.3072 53.8429ZM80.2619 51.1429L81.7393 49.7929L81.0623 49.0571L79.5849 50.4071L80.2619 51.1429ZM83.2166 48.4429L84.694 47.0929L84.017 46.3571L82.5396 47.7071L83.2166 48.4429ZM86.1714 45.7429L87.6487 44.3929L86.9717 43.6571L85.4943 45.0071L86.1714 45.7429ZM89.1261 43.0429L90.6034 41.6929L89.9264 40.9571L88.449 42.3071L89.1261 43.0429ZM92.0808 40.3429L93.5581 38.9929L92.8811 38.2571L91.4037 39.6071L92.0808 40.3429ZM95.0355 37.6429L96.5128 36.2929L95.8358 35.5571L94.3585 36.9071L95.0355 37.6429ZM97.9902 34.9429L99.4675 33.5929L98.7905 32.8571L97.3131 34.2071L97.9902 34.9429ZM100.945 32.2429L102.422 30.8929L101.745 30.1571L100.268 31.5071L100.945 32.2429ZM103.9 29.5429L105.377 28.1929L104.7 27.4571L103.223 28.8071L103.9 29.5429ZM106.854 26.8429L108.332 25.4929L107.655 24.7571L106.177 26.1071L106.854 26.8429ZM109.809 24.1429L111.286 22.7929L110.609 22.0571L109.132 23.4071L109.809 24.1429ZM112.764 21.4429L114.241 20.0929L113.564 19.3572L112.087 20.7071L112.764 21.4429ZM115.718 18.7429L117.196 17.3929L116.519 16.6572L115.041 18.0071L115.718 18.7429ZM118.673 16.0429L120.15 14.6929L119.473 13.9572L117.996 15.3072L118.673 16.0429ZM121.628 13.3429L123.105 11.9929L122.428 11.2572L120.951 12.6072L121.628 13.3429ZM124.582 10.6429L126.06 9.29294L125.383 8.55718L123.905 9.90717L124.582 10.6429ZM127.537 7.94294L129.015 6.59294L128.337 5.85719L126.86 7.20719L127.537 7.94294ZM130.492 5.24295L131.969 3.89295L131.292 3.15719L129.815 4.50719L130.492 5.24295ZM133.447 2.54296L134.185 1.86789L133.508 1.13213L132.77 1.8072L133.447 2.54296ZM134.848 1.5432C134.872 0.992398 134.443 0.526536 133.89 0.502681L124.883 0.113962C124.33 0.0901067 123.863 0.517295 123.839 1.06809C123.815 1.6189 124.244 2.08476 124.796 2.10861L132.803 2.45414L132.456 10.4327C132.432 10.9835 132.861 11.4494 133.413 11.4733C133.966 11.4971 134.434 11.0699 134.458 10.5191L134.848 1.5432ZM1.56203 123.736L2.30071 123.061L0.946661 121.589L0.207985 122.264L1.56203 123.736ZM3.77806 121.711L5.25542 120.361L3.90137 118.889L2.42401 120.239L3.77806 121.711ZM6.73277 119.011L8.21012 117.661L6.85607 116.189L5.37872 117.539L6.73277 119.011ZM9.68748 116.311L11.1648 114.961L9.81078 113.489L8.33343 114.839L9.68748 116.311ZM12.6422 113.611L14.1195 112.261L12.7655 110.789L11.2881 112.139L12.6422 113.611ZM15.5969 110.911L17.0742 109.561L15.7202 108.089L14.2428 109.439L15.5969 110.911ZM18.5516 108.211L20.029 106.861L18.6749 105.389L17.1975 106.739L18.5516 108.211ZM21.5063 105.511L22.9837 104.161L21.6296 102.689L20.1523 104.039L21.5063 105.511ZM24.461 102.811L25.9384 101.461L24.5843 99.9892L23.107 101.339L24.461 102.811ZM27.4157 100.111L28.8931 98.7608L27.539 97.2892L26.0617 98.6392L27.4157 100.111ZM30.3704 97.4108L31.8478 96.0608L30.4937 94.5893L29.0164 95.9392L30.3704 97.4108ZM33.3251 94.7108L34.8025 93.3608L33.4484 91.8893L31.9711 93.2393L33.3251 94.7108ZM36.2798 92.0108L37.7572 90.6608L36.4031 89.1893L34.9258 90.5393L36.2798 92.0108ZM39.2345 89.3108L40.7119 87.9608L39.3578 86.4893L37.8805 87.8393L39.2345 89.3108ZM42.1892 86.6108L43.6666 85.2608L42.3125 83.7893L40.8352 85.1393L42.1892 86.6108ZM45.1439 83.9108L46.6213 82.5608L45.2672 81.0893L43.7899 82.4393L45.1439 83.9108ZM48.0986 81.2108L49.576 79.8608L48.2219 78.3893L46.7446 79.7393L48.0986 81.2108ZM51.0533 78.5108L52.5307 77.1608L51.1767 75.6893L49.6993 77.0393L51.0533 78.5108ZM54.0081 75.8108L55.4854 74.4608L54.1314 72.9893L52.654 74.3393L54.0081 75.8108ZM56.9628 73.1108L58.4401 71.7608L57.0861 70.2893L55.6087 71.6393L56.9628 73.1108ZM59.9175 70.4108L61.3948 69.0608L60.0408 67.5893L58.5634 68.9393L59.9175 70.4108ZM62.8722 67.7108L64.3495 66.3608L62.9955 64.8893L61.5181 66.2392L62.8722 67.7108ZM65.8269 65.0108L67.3043 63.6608L65.9502 62.1892L64.4728 63.5392L65.8269 65.0108ZM68.7816 62.3108L70.259 60.9608L68.9049 59.4892L67.4276 60.8392L68.7816 62.3108ZM71.7363 59.6108L73.2137 58.2608L71.8596 56.7892L70.3823 58.1392L71.7363 59.6108ZM74.691 56.9108L76.1684 55.5608L74.8143 54.0892L73.337 55.4392L74.691 56.9108ZM77.6457 54.2107L79.1231 52.8607L77.769 51.3892L76.2917 52.7392L77.6457 54.2107ZM80.6004 51.5107L82.0778 50.1607L80.7237 48.6892L79.2464 50.0392L80.6004 51.5107ZM83.5552 48.8107L85.0325 47.4607L83.6785 45.9892L82.2011 47.3392L83.5552 48.8107ZM86.5099 46.1107L87.9872 44.7607L86.6332 43.2892L85.1558 44.6392L86.5099 46.1107ZM89.4646 43.4107L90.9419 42.0607L89.5879 40.5892L88.1105 41.9392L89.4646 43.4107ZM92.4193 40.7107L93.8966 39.3607L92.5426 37.8892L91.0652 39.2392L92.4193 40.7107ZM95.374 38.0107L96.8513 36.6607L95.4973 35.1892L94.0199 36.5392L95.374 38.0107ZM98.3287 35.3107L99.806 33.9607L98.452 32.4892L96.9746 33.8392L98.3287 35.3107ZM101.283 32.6108L102.761 31.2607L101.407 29.7892L99.9293 31.1392L101.283 32.6108ZM104.238 29.9108L105.715 28.5608L104.361 27.0892L102.884 28.4392L104.238 29.9108ZM107.193 27.2108L108.67 25.8608L107.316 24.3893L105.839 25.7393L107.193 27.2108ZM110.147 24.5108L111.625 23.1608L110.271 21.6893L108.793 23.0393L110.147 24.5108ZM113.102 21.8108L114.58 20.4608L113.225 18.9893L111.748 20.3393L113.102 21.8108ZM116.057 19.1108L117.534 17.7608L116.18 16.2893L114.703 17.6393L116.057 19.1108ZM119.012 16.4108L120.489 15.0608L119.135 13.5893L117.658 14.9393L119.012 16.4108ZM121.966 13.7108L123.444 12.3608L122.09 10.8893L120.612 12.2393L121.966 13.7108ZM124.921 11.0108L126.398 9.66081L125.044 8.1893L123.567 9.53929L124.921 11.0108ZM127.876 8.31082L129.353 6.96082L127.999 5.48931L126.522 6.83931L127.876 8.31082ZM130.83 5.61083L132.308 4.26082L130.954 2.78931L129.476 4.13932L130.83 5.61083ZM133.785 2.91083L134.524 2.23577L133.17 0.764249L132.431 1.43932L133.785 2.91083Z" fill="#263238"/>
</svg>
