<svg width="148" height="107" viewBox="0 0 148 107" fill="none" xmlns="http://www.w3.org/2000/svg">
<path d="M0.617864 103.416C0.571016 103.687 0.754048 103.945 1.02667 103.992L5.46937 104.752C5.742 104.799 6.00098 104.616 6.04783 104.344C6.09468 104.073 5.91165 103.815 5.63902 103.768L1.68996 103.093L2.36853 99.157C2.41538 98.8853 2.23234 98.6273 1.95972 98.5806C1.68709 98.534 1.42811 98.7164 1.38126 98.9881L0.617864 103.416ZM146.328 0.592435L145.501 1.17482L146.079 1.98995L146.906 1.40756L146.328 0.592435ZM143.848 2.33959L142.194 3.50437L142.772 4.3195L144.426 3.15472L143.848 2.33959ZM140.541 4.66914L138.887 5.83391L139.466 6.64904L141.119 5.48427L140.541 4.66914ZM137.234 6.99869L135.58 8.16346L136.159 8.97859L137.812 7.81381L137.234 6.99869ZM133.927 9.32823L132.273 10.493L132.852 11.3081L134.505 10.1434L133.927 9.32823ZM130.62 11.6578L128.967 12.8225L129.545 13.6377L131.198 12.4729L130.62 11.6578ZM127.313 13.9873L125.66 15.1521L126.238 15.9672L127.891 14.8025L127.313 13.9873ZM124.006 16.3169L122.353 17.4816L122.931 18.2968L124.584 17.132L124.006 16.3169ZM120.699 18.6464L119.046 19.8112L119.624 20.6263L121.277 19.4615L120.699 18.6464ZM117.392 20.976L115.739 22.1407L116.317 22.9559L117.97 21.7911L117.392 20.976ZM114.085 23.3055L112.432 24.4703L113.01 25.2854L114.663 24.1206L114.085 23.3055ZM110.778 25.635L109.125 26.7998L109.703 27.6149L111.356 26.4502L110.778 25.635ZM107.471 27.9646L105.818 29.1294L106.396 29.9445L108.05 28.7797L107.471 27.9646ZM104.164 30.2941L102.511 31.4589L103.089 32.274L104.743 31.1093L104.164 30.2941ZM100.858 32.6237L99.204 33.7885L99.7822 34.6036L101.436 33.4388L100.858 32.6237ZM97.5506 34.9532L95.8971 36.118L96.4752 36.9331L98.1287 35.7684L97.5506 34.9532ZM94.2436 37.2828L92.5901 38.4475L93.1683 39.2627L94.8218 38.0979L94.2436 37.2828ZM90.9367 39.6123L89.2832 40.7771L89.8613 41.5922L91.5148 40.4275L90.9367 39.6123ZM87.6297 41.9419L85.9762 43.1066L86.5544 43.9218L88.2079 42.757L87.6297 41.9419ZM84.3228 44.2714L82.6693 45.4362L83.2474 46.2513L84.9009 45.0866L84.3228 44.2714ZM81.0158 46.601L79.3623 47.7657L79.9405 48.5809L81.594 47.4161L81.0158 46.601ZM77.7089 48.9305L76.0554 50.0953L76.6335 50.9104L78.287 49.7457L77.7089 48.9305ZM74.4019 51.2601L72.7484 52.4248L73.3266 53.24L74.9801 52.0752L74.4019 51.2601ZM71.095 53.5896L69.4415 54.7544L70.0196 55.5695L71.6731 54.4048L71.095 53.5896ZM67.788 55.9192L66.1345 57.0839L66.7127 57.8991L68.3662 56.7343L67.788 55.9192ZM64.4811 58.2487L62.8276 59.4135L63.4057 60.2286L65.0592 59.0638L64.4811 58.2487ZM61.1741 60.5783L59.5206 61.743L60.0988 62.5582L61.7523 61.3934L61.1741 60.5783ZM57.8672 62.9078L56.2137 64.0726L56.7918 64.8877L58.4453 63.7229L57.8672 62.9078ZM54.5602 65.2374L52.9067 66.4021L53.4849 67.2173L55.1384 66.0525L54.5602 65.2374ZM51.2533 67.5669L49.5998 68.7317L50.1779 69.5468L51.8314 68.382L51.2533 67.5669ZM47.9463 69.8965L46.2928 71.0612L46.871 71.8764L48.5245 70.7116L47.9463 69.8965ZM44.6394 72.226L42.9859 73.3908L43.564 74.2059L45.2175 73.0411L44.6394 72.226ZM41.3324 74.5556L39.6789 75.7203L40.2571 76.5355L41.9106 75.3707L41.3324 74.5556ZM38.0255 76.8851L36.372 78.0499L36.9501 78.865L38.6036 77.7002L38.0255 76.8851ZM34.7185 79.2146L33.0651 80.3794L33.6432 81.1945L35.2967 80.0298L34.7185 79.2146ZM31.4116 81.5442L29.7581 82.709L30.3363 83.5241L31.9897 82.3593L31.4116 81.5442ZM28.1046 83.8737L26.4512 85.0385L27.0293 85.8536L28.6828 84.6889L28.1046 83.8737ZM24.7977 86.2033L23.1443 87.368L23.7224 88.1832L25.3759 87.0184L24.7977 86.2033ZM21.4908 88.5328L19.8373 89.6976L20.4155 90.5127L22.0689 89.3479L21.4908 88.5328ZM18.1838 90.8623L16.5304 92.0271L17.1085 92.8422L18.762 91.6775L18.1838 90.8623ZM14.8769 93.1919L13.2234 94.3567L13.8016 95.1718L15.455 94.007L14.8769 93.1919ZM11.57 95.5214L9.91649 96.6862L10.4946 97.5013L12.1481 96.3366L11.57 95.5214ZM8.26303 97.851L6.60956 99.0157L7.1877 99.8309L8.84117 98.6661L8.26303 97.851ZM4.95608 100.181L3.30262 101.345L3.88076 102.16L5.53423 100.996L4.95608 100.181ZM1.64914 102.51L0.822428 103.092L1.40057 103.908L2.22729 103.325L1.64914 102.51ZM0.12423 103.331C0.030544 103.874 0.396597 104.391 0.941854 104.484L9.82725 106.004C10.3725 106.097 10.8905 105.732 10.9842 105.189C11.0778 104.646 10.7118 104.129 10.1665 104.036L2.26841 102.685L3.62556 94.8141C3.71926 94.2707 3.35319 93.7546 2.80794 93.6613C2.26269 93.568 1.74472 93.9329 1.65104 94.4763L0.12423 103.331ZM146.039 0.184871L145.212 0.767257L146.368 2.39752L147.195 1.81513L146.039 0.184871ZM143.559 1.93203L141.905 3.0968L143.062 4.72706L144.715 3.56229L143.559 1.93203ZM140.252 4.26158L138.598 5.42635L139.755 7.05661L141.408 5.89183L140.252 4.26158ZM136.945 6.59112L135.291 7.75589L136.448 9.38615L138.101 8.22138L136.945 6.59112ZM133.638 8.92067L131.984 10.0854L133.141 11.7157L134.794 10.5509L133.638 8.92067ZM130.331 11.2502L128.677 12.415L129.834 14.0452L131.487 12.8805L130.331 11.2502ZM127.024 13.5798L125.371 14.7445L126.527 16.3748L128.18 15.21L127.024 13.5798ZM123.717 15.9093L122.064 17.0741L123.22 18.7043L124.873 17.5396L123.717 15.9093ZM120.41 18.2388L118.757 19.4036L119.913 21.0339L121.566 19.8691L120.41 18.2388ZM117.103 20.5684L115.45 21.7332L116.606 23.3634L118.259 22.1987L117.103 20.5684ZM113.796 22.8979L112.143 24.0627L113.299 25.693L114.953 24.5282L113.796 22.8979ZM110.489 25.2275L108.836 26.3923L109.992 28.0225L111.646 26.8577L110.489 25.2275ZM107.182 27.557L105.529 28.7218L106.685 30.3521L108.339 29.1873L107.182 27.557ZM103.875 29.8866L102.222 31.0513L103.378 32.6816L105.032 31.5168L103.875 29.8866ZM100.568 32.2161L98.915 33.3809L100.071 35.0112L101.725 33.8464L100.568 32.2161ZM97.2615 34.5457L95.608 35.7104L96.7643 37.3407L98.4178 36.1759L97.2615 34.5457ZM93.9545 36.8752L92.3011 38.04L93.4574 39.6702L95.1108 38.5055L93.9545 36.8752ZM90.6476 39.2048L88.9941 40.3695L90.1504 41.9998L91.8039 40.835L90.6476 39.2048ZM87.3406 41.5343L85.6872 42.6991L86.8435 44.3293L88.4969 43.1646L87.3406 41.5343ZM84.0337 43.8639L82.3802 45.0286L83.5365 46.6589L85.19 45.4941L84.0337 43.8639ZM80.7267 46.1934L79.0733 47.3582L80.2296 48.9884L81.883 47.8237L80.7267 46.1934ZM77.4198 48.523L75.7663 49.6877L76.9226 51.318L78.5761 50.1532L77.4198 48.523ZM74.1128 50.8525L72.4594 52.0173L73.6157 53.6475L75.2691 52.4828L74.1128 50.8525ZM70.8059 53.1821L69.1524 54.3468L70.3087 55.9771L71.9622 54.8123L70.8059 53.1821ZM67.4989 55.5116L65.8455 56.6764L67.0018 58.3066L68.6552 57.1419L67.4989 55.5116ZM64.192 57.8412L62.5385 59.0059L63.6948 60.6362L65.3483 59.4714L64.192 57.8412ZM60.885 60.1707L59.2316 61.3355L60.3879 62.9657L62.0413 61.801L60.885 60.1707ZM57.5781 62.5003L55.9246 63.665L57.0809 65.2953L58.7344 64.1305L57.5781 62.5003ZM54.2711 64.8298L52.6177 65.9946L53.7739 67.6248L55.4274 66.4601L54.2711 64.8298ZM50.9642 67.1594L49.3107 68.3241L50.467 69.9544L52.1205 68.7896L50.9642 67.1594ZM47.6572 69.4889L46.0038 70.6537L47.16 72.2839L48.8135 71.1192L47.6572 69.4889ZM44.3503 71.8185L42.6968 72.9832L43.8531 74.6135L45.5066 73.4487L44.3503 71.8185ZM41.0433 74.148L39.3899 75.3128L40.5462 76.943L42.1996 75.7783L41.0433 74.148ZM37.7364 76.4775L36.0829 77.6423L37.2392 79.2726L38.8927 78.1078L37.7364 76.4775ZM34.4295 78.8071L32.776 79.9719L33.9323 81.6021L35.5858 80.4373L34.4295 78.8071ZM31.1225 81.1366L29.4691 82.3014L30.6253 83.9317L32.2788 82.7669L31.1225 81.1366ZM27.8156 83.4662L26.1621 84.6309L27.3184 86.2612L28.9719 85.0964L27.8156 83.4662ZM24.5086 85.7957L22.8552 86.9605L24.0115 88.5907L25.6649 87.426L24.5086 85.7957ZM21.2017 88.1252L19.5482 89.29L20.7045 90.9203L22.358 89.7555L21.2017 88.1252ZM17.8948 90.4548L16.2413 91.6196L17.3976 93.2498L19.0511 92.085L17.8948 90.4548ZM14.5878 92.7843L12.9344 93.9491L14.0906 95.5794L15.7441 94.4146L14.5878 92.7843ZM11.2809 95.1139L9.62742 96.2786L10.7837 97.9089L12.4372 96.7441L11.2809 95.1139ZM7.97395 97.4434L6.32048 98.6082L7.47677 100.238L9.13024 99.0737L7.97395 97.4434ZM4.66701 99.773L3.01354 100.938L4.16983 102.568L5.82331 101.403L4.66701 99.773ZM1.36007 102.102L0.533354 102.685L1.68964 104.315L2.51637 103.733L1.36007 102.102Z" fill="#263238"/>
</svg>
