<svg width="26" height="26" viewBox="0 0 26 26" fill="none" xmlns="http://www.w3.org/2000/svg">
<path d="M18.1134 8.65234H16.831C16.5521 8.65234 16.2868 8.78633 16.1228 9.01602L11.8243 14.977L9.87745 12.2754C9.71338 12.0484 9.45088 11.9117 9.16924 11.9117H7.88682C7.70909 11.9117 7.60518 12.1141 7.70909 12.259L11.1161 16.984C11.1966 17.0963 11.3027 17.1879 11.4256 17.251C11.5486 17.3141 11.6848 17.3471 11.823 17.3471C11.9611 17.3471 12.0974 17.3141 12.2203 17.251C12.3432 17.1879 12.4493 17.0963 12.5298 16.984L18.2884 8.99961C18.395 8.85469 18.2911 8.65234 18.1134 8.65234V8.65234Z" fill="#263238"/>
<path d="M13 0.75C6.23516 0.75 0.75 6.23516 0.75 13C0.75 19.7648 6.23516 25.25 13 25.25C19.7648 25.25 25.25 19.7648 25.25 13C25.25 6.23516 19.7648 0.75 13 0.75ZM13 23.1719C7.38359 23.1719 2.82812 18.6164 2.82812 13C2.82812 7.38359 7.38359 2.82812 13 2.82812C18.6164 2.82812 23.1719 7.38359 23.1719 13C23.1719 18.6164 18.6164 23.1719 13 23.1719Z" fill="#263238"/>
</svg>
