<svg width="106" height="106" viewBox="0 0 106 106" fill="none" xmlns="http://www.w3.org/2000/svg">
<path d="M58.7139 9.67326e-06C60.2721 9.67326e-06 61.666 0.96991 62.1907 2.42211L65.9325 12.7942C67.2734 13.1281 68.4235 13.462 69.3987 13.8118C70.464 14.1934 71.8367 14.7711 73.5327 15.5608L82.2459 10.9498C82.9571 10.573 83.7713 10.437 84.5664 10.5622C85.3614 10.6874 86.0945 11.067 86.6555 11.6441L94.3193 19.5676C95.3369 20.6223 95.6231 22.1646 95.0507 23.5108L90.9644 33.0879C91.6428 34.3334 92.1834 35.3987 92.5968 36.2891C93.042 37.259 93.5932 38.5946 94.2504 40.3171L103.774 44.3981C105.205 45.0076 106.091 46.4386 105.995 47.9703L105.296 58.9678C105.248 59.6823 104.991 60.367 104.558 60.937C104.124 61.507 103.533 61.9372 102.858 62.1743L93.837 65.3808C93.5773 66.6263 93.307 67.6916 93.0208 68.5926C92.5592 69.9841 92.0321 71.353 91.4414 72.6948L95.9729 82.7118C96.2927 83.4156 96.3788 84.2033 96.2186 84.9596C96.0584 85.7159 95.6602 86.4011 95.0825 86.9147L86.4647 94.6103C85.8971 95.115 85.1889 95.4342 84.4349 95.5251C83.6809 95.616 82.9171 95.4744 82.2459 95.1191L73.3631 90.4127C71.9734 91.1486 70.5396 91.7981 69.0701 92.3578L65.1905 93.81L61.7455 103.35C61.4902 104.049 61.0297 104.654 60.4244 105.086C59.819 105.518 59.0972 105.757 58.3535 105.772L48.2835 106C47.5201 106.02 46.7692 105.803 46.1343 105.379C45.4993 104.954 45.0114 104.344 44.7378 103.631L40.678 92.8878C39.2928 92.4144 37.9213 91.9019 36.5652 91.3508C35.456 90.8707 34.3635 90.3528 33.2898 89.7979L23.2198 94.1015C22.5563 94.3846 21.8248 94.4687 21.1143 94.3435C20.4039 94.2184 19.7451 93.8894 19.2183 93.3966L11.7665 86.4059C11.2117 85.8877 10.8339 85.2082 10.6864 84.4635C10.539 83.7187 10.6295 82.9465 10.945 82.256L15.2751 72.822C14.6992 71.7046 14.1653 70.5661 13.6745 69.4088C13.1016 67.9923 12.5713 66.5589 12.0845 65.1105L2.59748 62.222C1.82634 61.9889 1.15373 61.5077 0.684129 60.8532C0.214524 60.1986 -0.0257987 59.4073 0.000482743 58.6021L0.371483 48.4208C0.39789 47.7565 0.605407 47.1121 0.971591 46.5572C1.33777 46.0023 1.84869 45.5581 2.44908 45.2726L12.4025 40.492C12.8636 38.8013 13.2664 37.4869 13.6215 36.5276C14.1215 35.2463 14.6767 33.9873 15.2857 32.754L10.9715 23.638C10.6441 22.9457 10.5447 22.1675 10.6875 21.4151C10.8304 20.6628 11.2081 19.9751 11.7665 19.451L19.2077 12.4232C19.7293 11.9312 20.382 11.6005 21.0872 11.4707C21.7924 11.3409 22.5201 11.4177 23.1827 11.6918L33.2421 15.847C34.3551 15.105 35.3621 14.5061 36.2737 14.0238C37.3602 13.4461 38.8124 12.8419 40.6409 12.19L44.1389 2.43271C44.3975 1.71863 44.8702 1.10178 45.4925 0.666384C46.1147 0.230988 46.8562 -0.00172913 47.6157 9.67326e-06H58.7139ZM53.1277 37.2007C44.2926 37.2007 37.1323 44.2762 37.1323 53.0106C37.1323 61.745 44.2926 68.8258 53.1277 68.8258C61.9575 68.8258 69.1178 61.745 69.1178 53.0106C69.1178 44.2762 61.9628 37.2007 53.1277 37.2007Z" fill="#221E20"/>
<circle cx="53" cy="53" r="18" fill="#221E20"/>
</svg>
