<svg width="197" height="54" viewBox="0 0 197 54" fill="none" xmlns="http://www.w3.org/2000/svg">
<path d="M106.246 21.7852C106.246 18.3481 106.308 15.1481 106.494 12.1852L97.008 13.9037V14.7333L97.938 14.8518C98.62 14.9111 99.054 15.1481 99.302 15.5037C99.55 15.9185 99.736 16.5111 99.86 17.4C99.984 19.1185 100.108 23.0296 100.046 29.1926C100.046 35.2963 99.984 39.1481 99.86 40.6296C103.27 41.3407 105.936 41.637 107.92 41.637C111.64 41.637 114.554 40.6296 116.662 38.5555C118.77 36.5407 119.886 33.6963 119.886 30.2C119.886 27.4148 119.08 25.1037 117.468 23.2667C115.856 21.4296 113.81 20.5407 111.392 20.5407C109.78 20.5407 108.106 20.9556 106.246 21.7852ZM106.432 40.037C106.308 38.1407 106.184 32.4518 106.184 23.1481C106.742 22.9704 107.486 22.8518 108.416 22.8518C109.904 22.8518 111.082 23.563 111.95 25.0444C112.818 26.5259 113.252 28.3037 113.252 30.5555C113.252 33.3407 112.756 35.5926 111.764 37.4889C110.772 39.3259 109.532 40.2741 107.982 40.2741C107.486 40.1556 106.99 40.0963 106.432 40.037ZM61.42 12.7778H36.62V13.963L37.922 14.0815C38.914 14.2593 39.596 14.6148 40.03 15.1481C40.464 15.7407 40.712 16.6889 40.774 17.9926C41.27 24.3926 41.27 30.3778 40.774 35.8889C40.65 37.1926 40.402 38.1407 40.03 38.7333C39.596 39.3259 38.914 39.6815 37.922 39.8L36.62 39.9778V41.163H52.616V39.9778L50.942 39.8593C49.95 39.7407 49.268 39.3259 48.834 38.7926C48.4 38.2 48.152 37.2518 48.09 35.9481C47.904 33.5778 47.78 30.8518 47.78 27.8296L51.128 27.8889C52.926 27.9481 54.166 29.2518 54.786 31.8593H56.026V22.2H54.786C54.166 24.7481 52.988 26.0518 51.128 26.1111L47.78 26.1704C47.78 20.837 47.904 17.0444 48.09 14.7333H52.988C56.46 14.7333 58.816 16.8667 60.18 21.1333L61.668 20.7185L61.42 12.7778ZM58.506 31.0296C58.506 34.1111 59.436 36.6593 61.234 38.6741C63.032 40.6889 65.698 41.637 69.046 41.637C72.394 41.637 75.122 40.6296 77.106 38.5555C79.09 36.5407 80.02 33.9926 80.02 30.9111C80.02 27.8296 79.09 25.2815 77.292 23.2667C75.494 21.2518 72.828 20.3037 69.48 20.3037C66.132 20.3037 63.404 21.3111 61.42 23.3852C59.436 25.4 58.506 27.9481 58.506 31.0296ZM72.332 24.2741C73.076 25.9926 73.386 28.2444 73.386 30.9704C73.386 37.2518 72.022 40.3333 69.356 40.3333C67.992 40.3333 66.938 39.4444 66.194 37.6667C65.45 35.8889 65.14 33.637 65.14 30.9704C65.14 24.7481 66.504 21.6667 69.17 21.6667C70.534 21.6074 71.588 22.4963 72.332 24.2741ZM124.722 38.6741C126.768 40.6296 129.372 41.637 132.472 41.637C134.394 41.637 136.068 41.2815 137.556 40.5111C139.044 39.8 140.222 38.9111 141.028 37.8444L140.408 37.1333C139.044 38.1407 137.494 38.6148 135.696 38.6148C133.216 38.6148 131.294 37.8444 129.992 36.2444C128.628 34.6444 128.008 32.6296 128.132 30.0222H141.4C141.4 27.1778 140.656 24.8667 139.106 23.0296C137.556 21.2518 135.386 20.363 132.596 20.363C129.124 20.363 126.458 21.4296 124.536 23.5037C122.614 25.5778 121.684 28.1259 121.684 31.1481C121.684 34.2296 122.676 36.7185 124.722 38.6741ZM129.31 23.8C129.992 22.3778 130.86 21.6667 132.038 21.6667C133.898 21.6667 134.828 23.9185 134.828 28.4815L128.256 28.6C128.318 26.8222 128.628 25.2222 129.31 23.8ZM158.078 21.4296C156.404 20.7185 154.296 20.3037 151.754 20.3037C149.15 20.3037 147.104 20.9556 145.554 22.2C144.004 23.4444 143.198 24.9852 143.198 26.8222C143.198 28.4222 143.694 29.6667 144.624 30.5555C145.554 31.4444 147.042 32.2148 148.964 32.8667C150.7 33.4593 151.94 34.0518 152.56 34.5852C153.18 35.1778 153.552 35.8296 153.552 36.7185C153.552 37.5481 153.242 38.3185 152.56 38.9111C151.94 39.563 151.072 39.8593 149.956 39.8593C147.228 39.8593 145.182 37.963 143.756 34.1704L142.702 34.4667L142.95 40.3926C145.182 41.2222 147.662 41.637 150.39 41.637C153.242 41.637 155.412 41.0444 157.024 39.8C158.636 38.6148 159.442 36.8963 159.442 34.763C159.442 33.3407 159.07 32.1556 158.264 31.2667C157.458 30.3778 156.156 29.6074 154.296 28.8963C152.25 28.1852 150.824 27.5333 150.08 26.9407C149.336 26.3481 148.964 25.637 148.964 24.7481C148.964 23.8593 149.212 23.1481 149.77 22.5555C150.328 21.963 151.01 21.7259 151.878 21.7259C154.358 21.7259 156.156 23.4444 157.272 26.8222L158.326 26.5259L158.078 21.4296ZM98.434 20.8963C97.566 20.4815 96.636 20.3037 95.582 20.3037C94.528 20.3037 93.474 20.7185 92.296 21.5481C91.118 22.3778 90.25 23.5037 89.568 25.0444L89.63 20.3037L80.206 22.0815V22.9111L81.136 22.9704C82.314 23.0889 82.996 23.9778 83.12 25.5778C83.492 29.2518 83.492 33.163 83.12 37.3111C82.996 38.9111 82.314 39.7407 81.136 39.9185L80.206 40.037V41.163H93.35V40.037L91.676 39.9185C90.498 39.8 89.816 38.9111 89.692 37.3111C89.32 33.8741 89.258 30.2 89.568 26.4074C89.94 25.8148 90.746 25.4593 91.986 25.3407C93.226 25.2222 94.652 25.5778 96.14 26.4074L98.434 20.8963Z" fill="white"/>
</svg>
