<svg width="197" height="54" viewBox="0 0 197 54" fill="none" xmlns="http://www.w3.org/2000/svg">
<path d="M31.1993 31.3277L32.9187 31.0504V14.9916L31 14.7395L31.0997 13H43.1099L42.8109 17.8655L40.4188 17.7899L40.2693 14.7395H36.5566V21.9748H38.1763L38.55 20.3109L40.2195 20.3613V25.3529H38.55L38.1513 23.6387H36.5317V31.3025H40.2693L40.6182 27.9748L43.1348 28.0504L43.3342 33.1176H31.1246L31.1993 31.3277Z" fill="white"/>
<path d="M44.4555 33.1428L44.5302 31.6555L45.8758 31.3781V21.2437L44.306 21.0924V19.5798L48.2429 19L48.542 19.8571V20.437C49.4888 19.4286 50.635 18.8235 52.1052 18.8235C54.2481 18.8235 55.8428 20.1344 55.8428 22.7311V31.3529L57.2631 31.6302L57.1883 33.1176H52.5038V23.4874C52.5038 22.1008 52.0055 21.3193 50.7596 21.3193C50.336 21.3193 50.037 21.3949 49.7131 21.521C49.5137 21.6975 49.3144 21.9496 49.14 22.1765V31.4034L50.5603 31.6807L50.4606 33.1681H44.4555V33.1428Z" fill="white"/>
<path d="M119.731 33.1428L119.781 31.6555L121.127 31.3781V21.2437L119.557 21.0924V19.5798L123.494 19L123.793 19.8571V20.437C124.74 19.4286 125.886 18.8235 127.356 18.8235C129.499 18.8235 131.094 20.1344 131.094 22.7311V31.3529L132.514 31.6302L132.439 33.1176H127.78V23.4874C127.78 22.1008 127.281 21.3193 126.036 21.3193C125.612 21.3193 125.313 21.3949 124.989 21.521C124.79 21.6975 124.59 21.9496 124.416 22.1765V31.4034L125.836 31.6807L125.737 33.1681H119.731V33.1428Z" fill="white"/>
<path d="M64.6885 32.8655C64.1404 33.0924 63.1686 33.3445 61.8978 33.3445C60.2283 33.3445 58.6834 32.5882 58.6834 30.1176V21.2437L57.0887 20.9916L57.1634 19.2269L58.9575 19.1513L59.7299 16.4538L62.0224 16.3529V19.2521H64.4892L64.3148 21.0168L62.0473 21.2689V30.1429C62.0473 30.8739 62.446 31.3529 63.1935 31.3529H64.539L64.6885 32.8655Z" fill="white"/>
<path d="M157.955 33.1429L158.005 31.6807L159.276 31.3782V21.2437L157.781 21.0924V19.5798L161.867 19L162.141 19.9832V20.3109C163.213 19.5042 164.658 18.9748 166.402 18.9748L167 19.5042L166.576 23.3361L164.334 23.2605L164.11 21.2185C163.586 21.2941 163.088 21.4454 162.664 21.7479V31.4034L164.085 31.7059L163.985 33.1681H157.955V33.1429Z" fill="white"/>
<path d="M99.2741 33.1429L99.3488 31.6807L100.62 31.3782V21.2437L99.1246 21.0924V19.5798L103.211 19L103.485 19.9832V20.3109C104.557 19.5042 106.002 18.9748 107.746 18.9748L108.344 19.5042L107.871 23.3361L105.628 23.2605L105.404 21.2185C104.881 21.2941 104.382 21.4454 103.959 21.7479V31.4034L105.379 31.7059L105.279 33.1681H99.2741V33.1429Z" fill="white"/>
<path d="M65.6852 33.1429L65.76 31.6807L67.0308 31.3782V21.2437L65.5357 21.0924V19.5798L69.6222 19L69.8963 19.9832V20.3109C70.9678 19.5042 72.413 18.9748 74.1323 18.9748L74.7303 19.5042L74.3067 23.3361L72.0641 23.2605L71.8399 21.2185C71.3166 21.2941 70.8182 21.4454 70.3947 21.7479V31.4034L71.8149 31.7059L71.7153 33.1681H65.6852V33.1429Z" fill="white"/>
<path d="M78.5925 26.9664C78.5925 29.3865 79.6391 31.2521 81.7072 31.2521C82.7787 31.2521 83.6259 31.0252 84.6226 30.5462L85.1957 31.8823C84.1741 32.7143 82.679 33.3445 80.8102 33.3445C77.1722 33.3445 75.0791 30.1681 75.0791 26.084C75.0791 22.605 76.5991 18.7983 80.7604 18.7983C84.3983 18.7983 85.7688 22.2017 85.7688 25.9832L85.4199 26.8907L78.5925 26.9664ZM78.5427 25.3529L82.7288 25.1513C82.6541 23.4622 82.3052 20.7899 80.6607 20.7899C80.262 20.7899 79.9879 20.8655 79.4896 21.1176C78.8168 22.2773 78.5427 24.3697 78.5427 25.3529Z" fill="white"/>
<path d="M136.501 26.9664C136.501 29.3865 137.547 31.2521 139.616 31.2521C140.687 31.2521 141.534 31.0252 142.531 30.5462L143.104 31.8823C142.082 32.7143 140.587 33.3445 138.719 33.3445C135.081 33.3445 132.988 30.1681 132.988 26.084C132.988 22.605 134.508 18.7983 138.669 18.7983C142.307 18.7983 143.677 22.2017 143.677 25.9832L143.328 26.8907L136.501 26.9664ZM136.451 25.3529L140.637 25.1513C140.562 23.4622 140.214 20.7899 138.569 20.7899C138.17 20.7899 137.896 20.8655 137.398 21.1176C136.725 22.2773 136.451 24.3697 136.451 25.3529Z" fill="white"/>
<path d="M112.181 26.9664C112.181 29.3865 113.228 31.2521 115.296 31.2521C116.368 31.2521 117.215 31.0252 118.211 30.5462L118.785 31.8823C117.763 32.7143 116.268 33.3445 114.399 33.3445C110.761 33.3445 108.668 30.1681 108.668 26.084C108.668 22.605 110.188 18.7983 114.349 18.7983C117.987 18.7983 119.358 22.2017 119.358 25.9832L119.009 26.8907L112.181 26.9664ZM112.132 25.3529L116.318 25.1513C116.243 23.4622 115.894 20.7899 114.25 20.7899C113.851 20.7899 113.577 20.8655 113.078 21.1176C112.406 22.2773 112.107 24.3697 112.132 25.3529Z" fill="white"/>
<path d="M153.096 33.1429L152.747 31.9328C151.825 32.8151 150.928 33.3445 149.533 33.3445C147.39 33.3445 145.471 32.2605 145.471 29.2605V20.8908L143.901 20.7395V19.4034L148.436 18.874L148.785 20.084V28.8572C148.785 30.395 149.408 31.2017 150.629 31.2017C150.978 31.2017 151.427 31.1513 151.825 31C152.049 30.7731 152.274 30.4958 152.448 30.2185V20.8908L150.829 20.7395V19.4034L155.413 18.874L155.762 20.084V31.3782L157.182 31.6555L157.008 33.1429H153.096Z" fill="white"/>
<path d="M92.5713 31.3277C91.8487 31.3277 91.2756 31.2017 90.8271 30.9496V22.0504C91.0264 21.7479 91.2506 21.4706 91.4749 21.2185C91.8985 21.0672 92.2723 21.0168 92.7208 21.0168C94.5896 21.0168 94.9135 22.9328 94.9135 26.3613C94.9135 29.6639 94.4152 30.5714 94.2906 30.9496C93.7673 31.2017 93.2191 31.3277 92.5713 31.3277ZM98.1528 25.7563C98.1528 21.4958 96.9069 18.8235 93.7922 18.8235C91.7241 18.8235 90.7523 20.0336 90.3536 20.5378V20.0588L90.0048 18.8487L85.9432 19.4286V20.8907L87.513 21.0924V38.2857L86.1675 38.563L86.0927 40H92.0978L92.1975 38.563L90.7772 38.2857V32.8403C91.3503 33.1681 92.1477 33.3697 93.0198 33.3697C98.103 33.3697 98.1528 28.1512 98.1528 25.7563Z" fill="white"/>
</svg>
