<svg width="197" height="54" viewBox="0 0 197 54" fill="none" xmlns="http://www.w3.org/2000/svg">
<path d="M32 14.5369H41.8239C43.6951 14.5369 45.0985 15.0082 46.1381 15.7937C47.2816 16.7362 47.9054 18.0978 47.9054 19.7735C47.9054 21.711 47.1257 22.9155 45.5663 23.6486V23.7533C47.6455 24.4341 48.841 26.3193 48.841 28.571C48.841 30.718 48.0093 32.3937 46.6579 33.4411C45.5144 34.2789 44.059 34.6455 42.0838 34.6455H32V14.5369ZM40.8363 22.3918C41.8759 22.3918 42.6555 21.8158 42.6555 20.6113C42.6555 19.4593 41.8759 18.8833 40.7843 18.8833H37.4057V22.3394H40.8363V22.3918ZM41.3041 30.1944C42.4996 30.1944 43.3832 29.4612 43.3832 28.1521C43.3832 26.7382 42.4476 26.1098 41.3041 26.1098H37.4577V30.2467H41.3041V30.1944Z" fill="#404F54"/>
<path d="M49.7246 14.5369H54.8705V34.6978H49.7246V14.5369Z" fill="#404F54"/>
<path d="M55.91 27.5237C55.91 22.9678 58.8208 19.9306 63.3429 19.9306C67.865 19.9306 70.7238 23.0202 70.7238 27.5237C70.7238 32.0795 67.865 35.1168 63.3429 35.1168C58.8208 35.1168 55.91 32.0795 55.91 27.5237ZM65.578 27.5237C65.578 25.0101 64.7983 23.4391 63.2389 23.4391C61.6796 23.4391 60.9519 25.0101 60.9519 27.5237C60.9519 30.0372 61.6796 31.6606 63.2389 31.6606C64.7983 31.6082 65.578 30.0372 65.578 27.5237Z" fill="#404F54"/>
<path d="M71.2956 27.5237C71.2956 22.9678 74.2064 19.9306 78.7285 19.9306C83.2506 19.9306 86.0574 22.9678 86.0574 27.5237C86.0574 32.0795 83.1986 35.1168 78.6765 35.1168C74.2064 35.1168 71.2956 32.0795 71.2956 27.5237ZM80.9636 27.5237C80.9636 25.0101 80.1839 23.4391 78.6245 23.4391C77.0652 23.4391 76.3375 25.0101 76.3375 27.5237C76.3375 30.0372 77.0652 31.6606 78.6245 31.6606C80.1839 31.6082 80.9636 30.0372 80.9636 27.5237Z" fill="#404F54"/>
<path d="M87.097 20.2971H91.879V22.4441H91.9829C92.9185 20.7684 94.218 19.8782 96.2971 19.8782C98.1164 19.8782 99.4678 20.7684 100.144 22.3394H100.247C101.391 20.4542 102.898 19.8782 104.666 19.8782C107.992 19.8782 109.396 22.3394 109.396 25.6385V34.6455H104.406V26.5287C104.406 25.0625 103.938 24.1199 102.69 24.1199C101.443 24.1199 100.819 25.2719 100.819 26.8429V34.6455H95.8293V26.5287C95.8293 25.0625 95.3615 24.1199 94.114 24.1199C92.8666 24.1199 92.2428 25.2719 92.2428 26.8429V34.6455H87.097C87.097 34.6455 87.097 20.2971 87.097 20.2971Z" fill="#404F54"/>
<path d="M115.685 32.7603H115.633V34.6455H110.851V14.5369H115.841V21.7634H115.945C116.881 20.5066 118.18 19.8258 119.999 19.8258C123.586 19.8258 125.665 23.0726 125.665 27.4189C125.665 32.289 123.43 35.1168 119.687 35.1168C118.128 35.1168 116.517 34.3836 115.685 32.7603ZM120.519 27.3666C120.519 25.0625 119.687 23.5438 118.18 23.5438C116.621 23.5438 115.685 25.0625 115.685 27.3666C115.685 29.6707 116.673 31.1893 118.18 31.1893C119.687 31.1893 120.519 29.7231 120.519 27.3666Z" fill="#404F54"/>
<path d="M126.237 27.4713C126.237 22.9678 129.199 19.8782 133.462 19.8782C135.593 19.8782 137.204 20.559 138.452 21.7634C140.115 23.3867 140.843 25.9003 140.791 28.8328H131.227C131.434 30.6133 132.266 31.5559 133.773 31.5559C134.657 31.5559 135.437 31.1369 135.749 30.1943H140.583C139.751 33.4934 137.204 35.1168 133.618 35.1168C129.199 35.0644 126.237 32.0272 126.237 27.4713ZM131.227 25.9527H135.801C135.697 24.2246 134.761 23.3344 133.566 23.3344C132.162 23.282 131.382 24.277 131.227 25.9527Z" fill="#404F54"/>
<path d="M146.456 22.7583H146.56C147.6 20.7684 148.951 19.9829 150.666 19.9829C151.082 19.9829 151.342 20.0353 151.498 20.14V24.5388H151.394C148.431 24.0151 146.716 25.429 146.716 28.6757V34.6978H141.674V20.2971H146.456V22.7583Z" fill="#404F54"/>
<path d="M152.018 34.6979H156.852C157.06 35.3263 157.683 35.9023 158.879 35.9023C160.49 35.9023 161.062 34.9073 161.062 33.3887V32.3414H160.958C160.178 33.284 159.087 33.9647 157.528 33.9647C154.461 33.9647 151.758 31.6606 151.758 27.1571C151.758 23.0202 153.941 19.8259 157.268 19.8259C159.191 19.8259 160.334 20.6114 161.114 21.8158H161.218V20.2448H166V32.7079C166 35.0121 165.22 36.7925 164.025 37.8398C162.777 38.9395 161.01 39.4108 158.983 39.4108C155.137 39.4632 152.486 37.8922 152.018 34.6979ZM161.27 26.9477C161.27 25.1672 160.438 23.701 158.983 23.701C157.58 23.701 156.696 24.9578 156.696 26.9477C156.696 28.8852 157.58 30.2467 158.983 30.2467C160.386 30.2467 161.27 28.8329 161.27 26.9477Z" fill="#404F54"/>
</svg>
