<svg width="197" height="54" viewBox="0 0 197 54" fill="none" xmlns="http://www.w3.org/2000/svg">
<g clip-path="url(#clip0_7_9)">
<path d="M61.1118 25.3768L60.8624 26.5591H60.8C60.4882 25.8978 59.615 24.976 57.6817 24.976C54.5634 24.976 51.3828 27.3006 50.676 30.9679C50.0731 34.1743 51.6738 37 55.3742 37C56.7254 37 58.2846 36.499 59.0953 35.3968H59.1577L58.929 36.5992H62.3799L64.5419 25.3768H61.1118ZM59.9892 30.9679C59.7606 32.0701 58.6796 33.8537 56.5175 33.8537C54.3971 33.8537 53.9606 32.0501 54.1477 31.008C54.3971 29.7255 55.5821 28.1222 57.5986 28.1222C59.5735 28.1423 60.2387 29.6453 59.9892 30.9679Z" fill="white"/>
<path d="M66.4961 25.3768H69.7391L69.5104 26.5591H69.5728C69.9885 26.018 70.7993 24.976 72.795 24.976L72.1505 28.3828C70.5082 28.4028 69.3233 28.7234 69.0115 30.4469L67.8265 36.5992H64.334L66.4961 25.3768Z" fill="white"/>
<path d="M75.1441 20.988H78.6366L76.9943 29.4449H77.0566L81.0896 25.3768H85.185L79.8631 30.3066L82.919 36.5992H78.9692L76.724 31.1884H76.6617L75.643 36.5992H72.1298L75.1441 20.988Z" fill="white"/>
<path d="M90.7771 24.976C87.243 24.976 84.1039 27.9018 83.5219 31.0281C82.8774 34.3547 85.2057 36.98 88.5527 36.98C89.7376 36.98 90.9642 36.6393 92.0452 35.9579C93.1469 35.3166 94.1656 34.3547 94.9555 33.0922H91.4007C90.8186 33.6733 90.1534 34.1343 89.0724 34.1343C87.7211 34.1343 86.7025 33.3527 86.7649 32.01H95.496C95.6 31.7495 95.6624 31.5491 95.7455 31.1283C96.4107 27.7014 94.3319 24.976 90.7771 24.976ZM87.243 29.7455C87.5133 29.0842 88.4695 27.8216 90.2781 27.8216C92.0867 27.8216 92.5233 29.0842 92.5233 29.7455H87.243Z" fill="white"/>
<path d="M46.0609 20.988L39.9075 29.8858H39.8659V20.988H36.8932L26 36.5992H30.2201L36.3319 27.7014H36.3943V36.5992H39.3878L45.4996 27.7014H45.562V36.5992H49.0545V20.988H46.0609Z" fill="white"/>
<path d="M104.581 25.3768H102.377L103.022 22.0501H99.9656L99.7161 23.3327C99.4459 24.7956 98.4896 25.2365 97.2215 25.3768H97.2007L96.681 27.9219H98.4064L96.7434 36.5992H100.215L101.878 27.9219H104.103L104.581 25.3768Z" fill="white"/>
<path d="M158.465 32.3507C157.321 34.8958 154.598 36.98 151.459 36.98C147.925 36.98 145.742 34.2946 146.366 30.9479C147.01 27.6613 150.17 24.976 153.662 24.976C156.739 24.976 158.86 26.9599 158.922 29.7054H155.388C155.159 28.9238 154.639 28.1222 153.163 28.1222C151.521 28.0421 150.17 29.3447 149.858 30.9679C149.546 32.6112 150.419 33.8337 152.082 33.8337C153.517 33.8337 154.39 33.0321 154.889 32.3307H158.465V32.3507ZM129.61 17L122.833 20.988H124.746L118.613 29.8858H118.551V20.988H115.557L109.424 29.8858H109.362V20.988H105.87V36.5992H108.905L115.037 27.7014H115.1V36.5992H118.093L128.945 20.988H130.67L129.61 17ZM136.221 36.5992H132.77L132.999 35.3968H132.936C132.125 36.499 130.566 37 129.215 37C125.515 37 123.914 34.1944 124.517 30.9679C125.203 27.3006 128.404 24.976 131.523 24.976C133.435 24.976 134.329 25.8778 134.641 26.5591H134.703L134.953 25.3768H138.404L136.221 36.5992ZM130.358 33.8737C132.52 33.8737 133.601 32.0701 133.83 30.988C134.08 29.6453 133.414 28.1423 131.439 28.1423C129.444 28.1423 128.238 29.7455 127.989 31.0281C127.801 32.0701 128.238 33.8737 130.358 33.8737ZM147.093 25.3768H144.91L145.555 22.0501H142.499L142.249 23.3327C141.979 24.7956 141.023 25.2365 139.755 25.3768H139.713L139.214 27.9218H140.94L139.277 36.5992H142.748L144.411 27.9218H146.636L147.093 25.3768ZM161.749 20.988H165.221L164.161 26.5591H164.223C164.971 25.517 165.969 24.976 167.508 24.976C168.609 24.976 169.877 25.3768 170.46 26.2385C171.208 27.3407 171.125 28.3226 170.73 30.3267L169.545 36.5992H166.073L167.237 30.487C167.341 29.9459 167.674 28.1222 165.824 28.1222C163.87 28.1222 163.537 29.8056 163.433 30.3667L162.248 36.5792H158.776L161.749 20.988Z" fill="#00AC4E"/>
</g>
<defs>
<clipPath id="clip0_7_9">
<rect width="145" height="20" fill="white" transform="translate(26 17)"/>
</clipPath>
</defs>
</svg>
