<svg width="197" height="54" viewBox="0 0 197 54" fill="none" xmlns="http://www.w3.org/2000/svg">
<g clip-path="url(#clip0_7_3)">
<path d="M19.8 18.9C19.8 16.9 17.9 16.4 16.4 16.4V16.7C17.3 16.7 18 17 18 17.7C18 18.1 17.7 18.7 16.8 18.7C16.1 18.7 14.6 18.3 13.5 17.9C12.2 17.4 11 17 10 17C8 17 6.6 18.5 6.6 20.2C6.6 21.7 7.7 22.2 8.1 22.4L8.2 22.2C8 22 7.7 21.8 7.7 21.2C7.7 20.8 8.1 20.1 9.1 20.1C10 20.1 11.2 20.5 12.8 21C14.2 21.4 15.7 21.7 16.5 21.8V24.9L15 26.2V26.3L16.5 27.6V31.9C15.7 32.4 14.8 32.5 14 32.5C12.5 32.5 11.2 32.1 10.1 30.9L14.2 28.9V22L9.2 24.2C9.6 22.9 10.7 22 11.8 21.4L11.7 21.1C8.7 21.9 6 24.7 6 28.1C6 32.1 9.3 35.1 13 35.1C17 35.1 19.6 31.9 19.6 28.6H19.4C18.8 29.9 17.9 31.1 16.8 31.7V27.6L18.4 26.3V26.2L16.8 24.9V21.8C18.3 21.8 19.8 20.8 19.8 18.9ZM11.1 29.9L9.9 30.5C9.2 29.6 8.8 28.4 8.8 26.7C8.8 26 8.8 25.2 9 24.6L11.1 23.7V29.9ZM21.7 32.2L20.4 33.2L20.6 33.4L21.2 32.9L23.4 34.9L26.4 32.9L26.3 32.7L25.5 33.2L24.5 32.2V25.4L25.3 24.8L27 26.2V32.3C27 36.1 26.2 36.7 24.5 37.3V37.6C27.3 37.7 29.9 36.8 29.9 31.9V25.3L30.8 24.6L30.6 24.4L29.8 25L27.3 22.9L24.5 25V16.8H24.3L20.8 19.2V19.4C21.2 19.6 21.8 19.8 21.8 20.9L21.7 32.2ZM40 31.1L37.5 33L35 31V29.8L39.7 26.6V26.5L37.3 22.9L32.1 25.7V32.3L31.1 33.1L31.3 33.3L32.2 32.6L35.6 35.1L40.1 31.5L40 31.1ZM35 29.4V24.5L35.2 24.4L37.4 27.9L35 29.4ZM59.1 18C59.1 17.7 59 17.4 58.9 17.1H58.7C58.4 17.9 58 18.3 57 18.3C56.1 18.3 55.5 17.8 55.1 17.4L52.2 20.7L52.4 20.9L53.4 20C54 20.5 54.5 20.9 55.9 21V29.3L50 19.2C49.5 18.4 48.8 17.3 47.4 17.3C45.8 17.3 44.4 18.7 44.6 20.9H44.9C45 20.3 45.3 19.6 46 19.6C46.5 19.6 47 20.1 47.3 20.6V23.9C45.5 23.9 44.3 24.7 44.3 26.2C44.3 27 44.7 28.2 45.9 28.5V28.3C45.7 28.1 45.6 27.9 45.6 27.6C45.6 27.1 46 26.7 46.7 26.7H47.2V30.9C45.1 30.9 43.4 32.1 43.4 34.1C43.4 36 45 36.9 46.8 36.8V36.6C45.7 36.5 45.2 36 45.2 35.3C45.2 34.4 45.8 34 46.6 34C47.4 34 48.1 34.5 48.6 35.1L51.5 31.9L51.3 31.7L50.6 32.5C49.5 31.5 48.9 31.2 47.6 31V21L55.6 35H56.2V21C57.7 20.9 59.1 19.7 59.1 18ZM66.4 31.1L63.9 33L61.4 31V29.8L66.1 26.6V26.5L63.7 22.9L58.5 25.7V32.3L57.5 33.1L57.7 33.3L58.6 32.6L62 35.1L66.5 31.5L66.4 31.1ZM61.4 29.4V24.5L61.6 24.4L63.8 27.9L61.4 29.4ZM82.7 24L82 24.5L80.1 22.9L77.9 24.9L78.8 25.8V33.3L76.4 31.8V25.6L77.2 25.1L74.9 22.9L72.7 24.9L73.6 25.8V33L73.3 33.2L71.2 31.7V25.7C71.2 24.3 70.5 23.9 69.7 23.4C69 22.9 68.6 22.6 68.6 21.9C68.6 21.3 69.2 21 69.5 20.8V20.6C68.7 20.6 66.6 21.4 66.6 23.3C66.6 24.3 67.1 24.7 67.6 25.2C68.1 25.7 68.6 26.1 68.6 27V32.8L67.5 33.6L67.7 33.8L68.7 33L71 35L73.5 33.3L76.3 35L81.6 31.9V25.2L82.9 24.2L82.7 24ZM101.3 18.5L100.3 19.4L98.1 17.4L94.8 19.8V17.6H94.5L94.6 33.8C94.3 33.8 93.4 33.6 92.7 33.4L92.5 19.9C92.5 18.9 91.8 17.5 90 17.5C88.2 17.5 87 18.9 87 20.3H87.3C87.4 19.7 87.7 19.2 88.3 19.2C88.9 19.2 89.4 19.6 89.4 20.9V24.8C87.6 24.9 86.5 25.9 86.5 27.2C86.5 28 86.9 29.2 88.1 29.2V29C87.7 28.8 87.6 28.5 87.6 28.3C87.6 27.7 88.1 27.5 88.9 27.5H89.3V33.7C87.8 34.2 87.2 35.3 87.2 36.5C87.2 38.2 88.5 39.4 90.5 39.4C91.9 39.4 93.1 39.2 94.3 38.9C95.3 38.7 96.6 38.4 97.2 38.4C98 38.4 98.3 38.8 98.3 39.3C98.3 40 98 40.3 97.6 40.4V40.6C99.2 40.3 100.2 39.3 100.2 37.8C100.2 36.3 98.7 35.4 97.1 35.4C96.3 35.4 94.6 35.7 93.4 35.9C92 36.2 90.6 36.4 90.2 36.4C89.5 36.4 88.7 36.1 88.7 35.1C88.7 34.3 89.4 33.6 91.1 33.6C92 33.6 93.1 33.7 94.2 34C95.4 34.3 96.5 34.6 97.5 34.6C99 34.6 100.3 34.1 100.3 32V19.7L101.5 18.7L101.3 18.5ZM97.2 24.6C96.9 24.9 96.5 25.2 96 25.2C95.5 25.2 95 24.9 94.8 24.6V20.2L95.8 19.5L97.2 20.8V24.6ZM97.2 27.6C97 27.4 96.5 27.1 96 27.1C95.5 27.1 95 27.4 94.8 27.6V25C95 25.2 95.5 25.5 96 25.5C96.5 25.5 97 25.2 97.2 25V27.6ZM97.2 32.3C97.2 33.1 96.7 33.9 95.6 33.9H94.8V28C95 27.8 95.5 27.5 96 27.5C96.5 27.5 96.9 27.8 97.2 28V32.3ZM110.9 25.2L107.7 22.9L102.8 25.7V32.2L101.8 33L101.9 33.2L102.7 32.6L105.9 35L110.9 32V25.2ZM105.5 31.5V24.3L108 26.1V33.2L105.5 31.5ZM120.4 23.1H120.2C119.9 23.3 119.6 23.5 119.3 23.5C118.9 23.5 118.4 23.3 118.2 23H118L116.3 24.9L114.6 23L111.6 25L111.7 25.2L112.5 24.7L113.5 25.8V32.1L112.2 33.1L112.4 33.3L113 32.8L115.4 34.8L118.5 32.7L118.4 32.5L117.5 33L116.3 32V25C116.8 25.5 117.4 26 118.1 26C119.5 26.1 120.3 24.7 120.4 23.1ZM132.4 32.7L129 35L124.4 28L127.7 22.9H127.9C128.3 23.3 128.9 23.7 129.6 23.7C130.3 23.7 130.8 23.3 131.1 22.9H131.3C131.2 24.9 129.8 26.1 128.8 26.1C127.8 26.1 127.3 25.6 126.7 25.3L126.4 25.8L131.4 33.2L132.4 32.6V32.7ZM121.4 32.2L120.1 33.2L120.3 33.4L120.9 32.9L123.1 34.9L126.1 32.9L125.9 32.7L125.1 33.2L124.1 32.2V16.8H124L120.4 19.2V19.4C120.8 19.6 121.4 19.7 121.4 20.9V32.2ZM149 18.9C149 16.9 147.1 16.4 145.6 16.4V16.7C146.5 16.7 147.2 17 147.2 17.7C147.2 18.1 146.9 18.7 146 18.7C145.3 18.7 143.8 18.3 142.7 17.9C141.4 17.5 140.2 17.1 139.2 17.1C137.2 17.1 135.8 18.6 135.8 20.3C135.8 21.8 136.9 22.3 137.3 22.5L137.4 22.3C137.1 22.1 136.8 21.9 136.8 21.3C136.8 20.9 137.2 20.2 138.2 20.2C139.1 20.2 140.3 20.6 141.9 21.1C143.3 21.5 144.8 21.8 145.6 21.9V25L144.1 26.3V26.4L145.6 27.7V32C144.8 32.5 143.9 32.6 143.1 32.6C141.6 32.6 140.3 32.2 139.2 31L143.3 29V22L138.3 24.2C138.8 22.9 139.9 22 140.9 21.3L140.8 21.1C137.8 21.9 135.1 24.6 135.1 28C135.1 32 138.4 35 142.1 35C146.1 35 148.7 31.8 148.7 28.5H148.5C147.9 29.8 147 31 145.9 31.6V27.5L147.5 26.2V26.1L146 24.8V21.8C147.5 21.8 149 20.8 149 18.9ZM140.3 29.9L139.1 30.5C138.4 29.6 138 28.4 138 26.7C138 26 138.1 25.2 138.3 24.6L140.4 23.7L140.3 29.9ZM152.5 17.9H152.4L150.4 19.6V19.7L152.1 21.6H152.3L154.3 19.9V19.8L152.5 17.9ZM155.5 32.7L154.7 33.2L153.7 32.2V25.3L154.7 24.6L154.5 24.4L153.8 25L152 22.9L149.1 24.9L149.3 25.2L150 24.7L150.9 25.8V32.3L149.6 33.3L149.7 33.5L150.4 33L152.6 35L155.6 33L155.5 32.7ZM172.2 32.6L171.5 33.1L170.4 32.1V25.3L171.4 24.5L171.2 24.3L170.4 25L168.1 22.9L165.1 25L162.8 22.9L160 25L158.2 22.9L155.3 24.9L155.4 25.2L156.1 24.7L157.1 25.8V32.3L156.3 33.1L158.6 35L160.8 33L159.9 32.1V25.3L160.8 24.7L162.3 26.1V32.1L161.5 32.9L163.8 34.8L166 32.8L165.1 31.9V25.3L165.9 24.8L167.5 26.2V32.2L166.8 32.9L169.1 35L172.2 32.9V32.6ZM180.9 31.1L178.4 33L175.9 31V29.8L180.6 26.6V26.5L178.2 22.9L173 25.7V32.5L176.5 35L181 31.4L180.9 31.1ZM175.9 29.4V24.5L176.1 24.4L178.3 27.9L175.9 29.4ZM190 28.5L188.1 27C189.4 25.9 189.9 24.4 189.9 23.4V22.8H189.7C189.5 23.3 189.1 23.8 188.3 23.8C187.5 23.8 187 23.4 186.5 22.8L182 25.3V28.9L183.7 30.2C182 31.7 181.7 32.7 181.7 33.5C181.7 34.5 182.2 35.2 183 35.5L183.1 35.3C182.9 35.1 182.7 35 182.7 34.5C182.7 34.2 183.1 33.7 183.9 33.7C184.9 33.7 185.5 34.4 185.8 34.7L190.1 32.1V28.5H190ZM188.9 25.5C188.2 26.7 186.7 27.9 185.8 28.5L184.7 27.6V24.1C185.1 25.1 186.2 25.9 187.3 25.9C188 25.9 188.4 25.8 188.9 25.5ZM187.2 33.5C186.7 32.4 185.5 31.6 184.3 31.6C184 31.6 183.2 31.6 182.4 32.1C182.9 31.3 184.2 29.9 185.9 28.9L187.1 29.9L187.2 33.5Z" fill="#404F54"/>
</g>
<defs>
<clipPath id="clip0_7_3">
<rect width="184" height="25" fill="white" transform="translate(6 16)"/>
</clipPath>
</defs>
</svg>
