<svg width="154" height="112" viewBox="0 0 154 112" fill="none" xmlns="http://www.w3.org/2000/svg">
<path d="M153.083 109.493C153.356 109.447 153.539 109.189 153.493 108.917L152.742 104.48C152.696 104.207 152.438 104.024 152.166 104.07C151.893 104.116 151.71 104.374 151.756 104.647L152.424 108.59L148.48 109.258C148.207 109.304 148.024 109.562 148.07 109.834C148.116 110.107 148.374 110.29 148.647 110.244L153.083 109.493ZM0.710396 1.40759L1.51891 1.98206L2.09811 1.16688L1.2896 0.59241L0.710396 1.40759ZM3.13593 3.13099L4.75295 4.27993L5.33216 3.46475L3.71514 2.31581L3.13593 3.13099ZM6.36997 5.42887L7.98699 6.5778L8.5662 5.76262L6.94918 4.61369L6.36997 5.42887ZM9.60401 7.72674L11.221 8.87568L11.8002 8.06049L10.1832 6.91156L9.60401 7.72674ZM12.8381 10.0246L14.4551 11.1735L15.0343 10.3584L13.4173 9.20943L12.8381 10.0246ZM16.0721 12.3225L17.6891 13.4714L18.2683 12.6562L16.6513 11.5073L16.0721 12.3225ZM19.3061 14.6204L20.9232 15.7693L21.5024 14.9541L19.8854 13.8052L19.3061 14.6204ZM22.5402 16.9182L24.1572 18.0672L24.7364 17.252L23.1194 16.103L22.5402 16.9182ZM25.7742 19.2161L27.3913 20.365L27.9705 19.5499L26.3534 18.4009L25.7742 19.2161ZM29.0083 21.514L30.6253 22.6629L31.2045 21.8477L29.5875 20.6988L29.0083 21.514ZM32.2423 23.8118L33.8593 24.9608L34.4385 24.1456L32.8215 22.9967L32.2423 23.8118ZM35.4764 26.1097L37.0934 27.2587L37.6726 26.4435L36.0556 25.2945L35.4764 26.1097ZM38.7104 28.4076L40.3274 29.5565L40.9066 28.7413L39.2896 27.5924L38.7104 28.4076ZM41.9444 30.7055L43.5615 31.8544L44.1407 31.0392L42.5236 29.8903L41.9444 30.7055ZM45.1785 33.0033L46.7955 34.1523L47.3747 33.3371L45.7577 32.1881L45.1785 33.0033ZM48.4125 35.3012L50.0295 36.4501L50.6087 35.635L48.9917 34.486L48.4125 35.3012ZM51.6466 37.5991L53.2636 38.748L53.8428 37.9328L52.2258 36.7839L51.6466 37.5991ZM54.8806 39.8969L56.4976 41.0459L57.0768 40.2307L55.4598 39.0818L54.8806 39.8969ZM58.1146 42.1948L59.7317 43.3438L60.3109 42.5286L58.6938 41.3796L58.1146 42.1948ZM61.3487 44.4927L62.9657 45.6416L63.5449 44.8264L61.9279 43.6775L61.3487 44.4927ZM64.5827 46.7906L66.1997 47.9395L66.779 47.1243L65.1619 45.9754L64.5827 46.7906ZM67.8168 49.0884L69.4338 50.2374L70.013 49.4222L68.396 48.2732L67.8168 49.0884ZM71.0508 51.3863L72.6678 52.5352L73.247 51.7201L71.63 50.5711L71.0508 51.3863ZM74.2848 53.6842L75.9019 54.8331L76.4811 54.0179L74.8641 52.869L74.2848 53.6842ZM77.5189 55.982L79.1359 57.131L79.7151 56.3158L78.0981 55.1669L77.5189 55.982ZM80.7529 58.2799L82.3699 59.4288L82.9492 58.6137L81.3321 57.4647L80.7529 58.2799ZM83.987 60.5778L85.604 61.7267L86.1832 60.9115L84.5662 59.7626L83.987 60.5778ZM87.221 62.8757L88.838 64.0246L89.4172 63.2094L87.8002 62.0605L87.221 62.8757ZM90.455 65.1735L92.0721 66.3225L92.6513 65.5073L91.0342 64.3583L90.455 65.1735ZM93.6891 67.4714L95.3061 68.6203L95.8853 67.8052L94.2683 66.6562L93.6891 67.4714ZM96.9231 69.7693L98.5402 70.9182L99.1194 70.103L97.5023 68.9541L96.9231 69.7693ZM100.157 72.0671L101.774 73.2161L102.353 72.4009L100.736 71.252L100.157 72.0671ZM103.391 74.365L105.008 75.5139L105.587 74.6988L103.97 73.5498L103.391 74.365ZM106.625 76.6629L108.242 77.8118L108.821 76.9966L107.204 75.8477L106.625 76.6629ZM109.859 78.9608L111.476 80.1097L112.056 79.2945L110.439 78.1456L109.859 78.9608ZM113.093 81.2586L114.71 82.4076L115.29 81.5924L113.673 80.4435L113.093 81.2586ZM116.327 83.5565L117.944 84.7055L118.524 83.8903L116.907 82.7413L116.327 83.5565ZM119.561 85.8544L121.178 87.0033L121.758 86.1882L120.141 85.0392L119.561 85.8544ZM122.796 88.1523L124.413 89.3012L124.992 88.486L123.375 87.3371L122.796 88.1523ZM126.03 90.4502L127.647 91.5991L128.226 90.7839L126.609 89.635L126.03 90.4502ZM129.264 92.748L130.881 93.897L131.46 93.0818L129.843 91.9329L129.264 92.748ZM132.498 95.0459L134.115 96.1949L134.694 95.3797L133.077 94.2307L132.498 95.0459ZM135.732 97.3438L137.349 98.4927L137.928 97.6776L136.311 96.5286L135.732 97.3438ZM138.966 99.6417L140.583 100.791L141.162 99.9754L139.545 98.8265L138.966 99.6417ZM142.2 101.94L143.817 103.088L144.396 102.273L142.779 101.124L142.2 101.94ZM145.434 104.237L147.051 105.386L147.63 104.571L146.013 103.422L145.434 104.237ZM148.668 106.535L150.285 107.684L150.864 106.869L149.247 105.72L148.668 106.535ZM151.902 108.833L152.71 109.408L153.29 108.592L152.481 108.018L151.902 108.833ZM153.167 109.986C153.711 109.894 154.078 109.378 153.986 108.833L152.484 99.9593C152.392 99.4148 151.876 99.048 151.331 99.1402C150.787 99.2323 150.42 99.7485 150.512 100.293L151.847 108.181L143.959 109.516C143.415 109.608 143.048 110.124 143.14 110.669C143.232 111.213 143.748 111.58 144.293 111.488L153.167 109.986ZM0.420793 1.81518L1.2293 2.38965L2.38772 0.759288L1.57921 0.18482L0.420793 1.81518ZM2.84633 3.53858L4.46335 4.68752L5.62176 3.05716L4.00474 1.90822L2.84633 3.53858ZM6.08037 5.83646L7.69739 6.98539L8.8558 5.35503L7.23878 4.2061L6.08037 5.83646ZM9.31441 8.13433L10.9314 9.28327L12.0898 7.6529L10.4728 6.50397L9.31441 8.13433ZM12.5485 10.4322L14.1655 11.5811L15.3239 9.95078L13.7069 8.80184L12.5485 10.4322ZM15.7825 12.7301L17.3995 13.879L18.5579 12.2486L16.9409 11.0997L15.7825 12.7301ZM19.0165 15.0279L20.6336 16.1769L21.792 14.5465L20.175 13.3976L19.0165 15.0279ZM22.2506 17.3258L23.8676 18.4748L25.026 16.8444L23.409 15.6955L22.2506 17.3258ZM25.4846 19.6237L27.1016 20.7726L28.2601 19.1423L26.643 17.9933L25.4846 19.6237ZM28.7187 21.9216L30.3357 23.0705L31.4941 21.4401L29.8771 20.2912L28.7187 21.9216ZM31.9527 24.2194L33.5697 25.3684L34.7281 23.738L33.1111 22.5891L31.9527 24.2194ZM35.1867 26.5173L36.8038 27.6662L37.9622 26.0359L36.3452 24.8869L35.1867 26.5173ZM38.4208 28.8152L40.0378 29.9641L41.1962 28.3338L39.5792 27.1848L38.4208 28.8152ZM41.6548 31.113L43.2719 32.262L44.4303 30.6316L42.8132 29.4827L41.6548 31.113ZM44.8889 33.4109L46.5059 34.5599L47.6643 32.9295L46.0473 31.7806L44.8889 33.4109ZM48.1229 35.7088L49.7399 36.8577L50.8983 35.2274L49.2813 34.0784L48.1229 35.7088ZM51.357 38.0067L52.974 39.1556L54.1324 37.5252L52.5154 36.3763L51.357 38.0067ZM54.591 40.3045L56.208 41.4535L57.3664 39.8231L55.7494 38.6742L54.591 40.3045ZM57.825 42.6024L59.4421 43.7513L60.6005 42.121L58.9835 40.972L57.825 42.6024ZM61.0591 44.9003L62.6761 46.0492L63.8345 44.4189L62.2175 43.2699L61.0591 44.9003ZM64.2931 47.1981L65.9101 48.3471L67.0686 46.7167L65.4515 45.5678L64.2931 47.1981ZM67.5272 49.496L69.1442 50.645L70.3026 49.0146L68.6856 47.8657L67.5272 49.496ZM70.7612 51.7939L72.3782 52.9428L73.5366 51.3125L71.9196 50.1635L70.7612 51.7939ZM73.9952 54.0918L75.6123 55.2407L76.7707 53.6103L75.1537 52.4614L73.9952 54.0918ZM77.2293 56.3896L78.8463 57.5386L80.0047 55.9082L78.3877 54.7593L77.2293 56.3896ZM80.4633 58.6875L82.0803 59.8364L83.2388 58.2061L81.6217 57.0571L80.4633 58.6875ZM83.6974 60.9854L85.3144 62.1343L86.4728 60.504L84.8558 59.355L83.6974 60.9854ZM86.9314 63.2832L88.5484 64.4322L89.7068 62.8018L88.0898 61.6529L86.9314 63.2832ZM90.1654 65.5811L91.7825 66.7301L92.9409 65.0997L91.3239 63.9508L90.1654 65.5811ZM93.3995 67.879L95.0165 69.0279L96.1749 67.3976L94.5579 66.2486L93.3995 67.879ZM96.6335 70.1769L98.2505 71.3258L99.409 69.6954L97.7919 68.5465L96.6335 70.1769ZM99.8676 72.4747L101.485 73.6237L102.643 71.9933L101.026 70.8444L99.8676 72.4747ZM103.102 74.7726L104.719 75.9215L105.877 74.2912L104.26 73.1422L103.102 74.7726ZM106.336 77.0705L107.953 78.2194L109.111 76.589L107.494 75.4401L106.336 77.0705ZM109.57 79.3684L111.187 80.5173L112.345 78.8869L110.728 77.738L109.57 79.3684ZM112.804 81.6662L114.421 82.8152L115.579 81.1848L113.962 80.0359L112.804 81.6662ZM116.038 83.9641L117.655 85.113L118.813 83.4827L117.196 82.3337L116.038 83.9641ZM119.272 86.262L120.889 87.4109L122.047 85.7806L120.43 84.6316L119.272 86.262ZM122.506 88.5599L124.123 89.7088L125.281 88.0784L123.664 86.9295L122.506 88.5599ZM125.74 90.8577L127.357 92.0067L128.515 90.3763L126.898 89.2274L125.74 90.8577ZM128.974 93.1556L130.591 94.3046L131.749 92.6742L130.132 91.5253L128.974 93.1556ZM132.208 95.4535L133.825 96.6024L134.984 94.9721L133.366 93.8231L132.208 95.4535ZM135.442 97.7514L137.059 98.9003L138.218 97.27L136.601 96.121L135.442 97.7514ZM138.676 100.049L140.293 101.198L141.452 99.5678L139.835 98.4189L138.676 100.049ZM141.91 102.347L143.527 103.496L144.686 101.866L143.069 100.717L141.91 102.347ZM145.144 104.645L146.761 105.794L147.92 104.164L146.303 103.015L145.144 104.645ZM148.378 106.943L149.995 108.092L151.154 106.461L149.537 105.313L148.378 106.943ZM151.612 109.241L152.421 109.815L153.579 108.185L152.771 107.61L151.612 109.241Z" fill="#263238"/>
</svg>
