<svg width="137" height="124" viewBox="0 0 137 124" fill="none" xmlns="http://www.w3.org/2000/svg">
<path d="M0.974638 1.00064C0.698851 1.01465 0.486634 1.24957 0.500638 1.52536L0.728848 6.01957C0.742852 6.29536 0.977774 6.50757 1.25356 6.49357C1.52935 6.47956 1.74156 6.24464 1.72756 5.96886L1.52471 1.974L5.51956 1.77115C5.79535 1.75714 6.00756 1.52222 5.99356 1.24644C5.97956 0.97065 5.74464 0.75843 5.46885 0.77243L0.974638 1.00064ZM135.834 122.629L135.087 121.954L134.417 122.696L135.164 123.371L135.834 122.629ZM133.593 120.604L132.098 119.254L131.428 119.996L132.922 121.346L133.593 120.604ZM130.604 117.904L129.109 116.554L128.439 117.296L129.934 118.646L130.604 117.904ZM127.615 115.204L126.121 113.854L125.45 114.596L126.945 115.946L127.615 115.204ZM124.626 112.504L123.132 111.154L122.461 111.896L123.956 113.246L124.626 112.504ZM121.637 109.804L120.143 108.454L119.473 109.196L120.967 110.546L121.637 109.804ZM118.648 107.104L117.154 105.754L116.484 106.496L117.978 107.846L118.648 107.104ZM115.66 104.404L114.165 103.054L113.495 103.796L114.989 105.146L115.66 104.404ZM112.671 101.704L111.176 100.354L110.506 101.096L112 102.446L112.671 101.704ZM109.682 99.004L108.187 97.654L107.517 98.396L109.011 99.746L109.682 99.004ZM106.693 96.304L105.198 94.954L104.528 95.696L106.023 97.046L106.693 96.304ZM103.704 93.604L102.21 92.254L101.539 92.996L103.034 94.346L103.704 93.604ZM100.715 90.904L99.2207 89.554L98.5504 90.296L100.045 91.646L100.715 90.904ZM97.7263 88.204L96.2319 86.854L95.5615 87.596L97.056 88.946L97.7263 88.204ZM94.7374 85.504L93.243 84.154L92.5727 84.896L94.0671 86.246L94.7374 85.504ZM91.7485 82.804L90.2541 81.454L89.5838 82.196L91.0782 83.546L91.7485 82.804ZM88.7597 80.104L87.2652 78.754L86.5949 79.496L88.0893 80.846L88.7597 80.104ZM85.7708 77.404L84.2764 76.054L83.606 76.796L85.1005 78.146L85.7708 77.404ZM82.7819 74.704L81.2875 73.354L80.6172 74.096L82.1116 75.446L82.7819 74.704ZM79.7931 72.004L78.2986 70.654L77.6283 71.396L79.1227 72.746L79.7931 72.004ZM76.8042 69.304L75.3098 67.954L74.6394 68.696L76.1339 70.046L76.8042 69.304ZM73.8153 66.604L72.3209 65.254L71.6506 65.996L73.145 67.346L73.8153 66.604ZM70.8265 63.904L69.332 62.554L68.6617 63.296L70.1561 64.646L70.8265 63.904ZM67.8376 61.204L66.3432 59.854L65.6728 60.596L67.1673 61.946L67.8376 61.204ZM64.8487 58.504L63.3543 57.154L62.684 57.896L64.1784 59.246L64.8487 58.504ZM61.8599 55.804L60.3654 54.454L59.6951 55.1961L61.1895 56.5461L61.8599 55.804ZM58.871 53.104L57.3766 51.754L56.7062 52.4961L58.2007 53.8461L58.871 53.104ZM55.8821 50.404L54.3877 49.054L53.7174 49.7961L55.2118 51.1461L55.8821 50.404ZM52.8933 47.704L51.3988 46.354L50.7285 47.0961L52.2229 48.4461L52.8933 47.704ZM49.9044 45.004L48.41 43.654L47.7396 44.3961L49.2341 45.7461L49.9044 45.004ZM46.9155 42.304L45.4211 40.954L44.7508 41.6961L46.2452 43.0461L46.9155 42.304ZM43.9267 39.604L42.4322 38.254L41.7619 38.9961L43.2563 40.3461L43.9267 39.604ZM40.9378 36.904L39.4434 35.554L38.773 36.2961L40.2675 37.6461L40.9378 36.904ZM37.9489 34.204L36.4545 32.854L35.7841 33.5961L37.2786 34.9461L37.9489 34.204ZM34.96 31.504L33.4656 30.154L32.7953 30.8961L34.2897 32.2461L34.96 31.504ZM31.9712 28.804L30.4767 27.454L29.8064 28.1961L31.3008 29.5461L31.9712 28.804ZM28.9823 26.104L27.4878 24.754L26.8175 25.4961L28.3119 26.8461L28.9823 26.104ZM25.9934 23.404L24.499 22.054L23.8286 22.7961L25.3231 24.1461L25.9934 23.404ZM23.0045 20.704L21.5101 19.354L20.8397 20.096L22.3342 21.4461L23.0045 20.704ZM20.0156 18.004L18.5212 16.654L17.8509 17.396L19.3453 18.746L20.0156 18.004ZM17.0268 15.304L15.5323 13.954L14.862 14.696L16.3564 16.046L17.0268 15.304ZM14.0379 12.604L12.5434 11.254L11.8731 11.996L13.3675 13.346L14.0379 12.604ZM11.049 9.90398L9.55456 8.55397L8.88422 9.29603L10.3787 10.646L11.049 9.90398ZM8.06012 7.20396L6.56568 5.85397L5.89534 6.59602L7.38978 7.94602L8.06012 7.20396ZM5.07124 4.50396L3.5768 3.15395L2.90646 3.89601L4.4009 5.24602L5.07124 4.50396ZM2.08236 1.80396L1.33516 1.12897L0.664826 1.87103L1.41202 2.54601L2.08236 1.80396ZM0.949281 0.501289C0.397707 0.529297 -0.0267267 0.999138 0.00128144 1.55071L0.457701 10.5391C0.485709 11.0907 0.955553 11.5151 1.50713 11.4871C2.0587 11.4591 2.48314 10.9893 2.45513 10.4377L2.04942 2.448L10.0391 2.0423C10.5907 2.01429 11.0151 1.54444 10.9871 0.992866C10.9591 0.441291 10.4893 0.0168605 9.9377 0.0448681L0.949281 0.501289ZM136.17 122.258L135.422 121.583L134.082 123.067L134.829 123.742L136.17 122.258ZM133.928 120.233L132.434 118.883L131.093 120.367L132.587 121.717L133.928 120.233ZM130.939 117.533L129.445 116.183L128.104 117.667L129.598 119.017L130.939 117.533ZM127.95 114.833L126.456 113.483L125.115 114.967L126.61 116.317L127.95 114.833ZM124.961 112.133L123.467 110.783L122.126 112.267L123.621 113.617L124.961 112.133ZM121.972 109.433L120.478 108.083L119.137 109.567L120.632 110.917L121.972 109.433ZM118.984 106.733L117.489 105.383L116.148 106.867L117.643 108.217L118.984 106.733ZM115.995 104.033L114.5 102.683L113.16 104.167L114.654 105.517L115.995 104.033ZM113.006 101.333L111.511 99.9829L110.171 101.467L111.665 102.817L113.006 101.333ZM110.017 98.6329L108.523 97.2829L107.182 98.767L108.676 100.117L110.017 98.6329ZM107.028 95.9329L105.534 94.5829L104.193 96.067L105.687 97.417L107.028 95.9329ZM104.039 93.2329L102.545 91.8829L101.204 93.367L102.699 94.717L104.039 93.2329ZM101.05 90.5329L99.5559 89.1829L98.2152 90.667L99.7097 92.017L101.05 90.5329ZM98.0615 87.8329L96.567 86.4829L95.2264 87.967L96.7208 89.317L98.0615 87.8329ZM95.0726 85.1329L93.5782 83.7829L92.2375 85.267L93.7319 86.617L95.0726 85.1329ZM92.0837 82.4329L90.5893 81.0829L89.2486 82.567L90.743 83.917L92.0837 82.4329ZM89.0948 79.7329L87.6004 78.3829L86.2597 79.867L87.7542 81.217L89.0948 79.7329ZM86.106 77.0329L84.6115 75.6829L83.2709 77.167L84.7653 78.517L86.106 77.0329ZM83.1171 74.3329L81.6227 72.9829L80.282 74.4671L81.7764 75.8171L83.1171 74.3329ZM80.1282 71.6329L78.6338 70.2829L77.2931 71.7671L78.7876 73.1171L80.1282 71.6329ZM77.1394 68.9329L75.6449 67.5829L74.3043 69.0671L75.7987 70.4171L77.1394 68.9329ZM74.1505 66.2329L72.6561 64.883L71.3154 66.3671L72.8098 67.7171L74.1505 66.2329ZM71.1616 63.533L69.6672 62.183L68.3265 63.6671L69.821 65.0171L71.1616 63.533ZM68.1728 60.833L66.6783 59.483L65.3377 60.9671L66.8321 62.3171L68.1728 60.833ZM65.1839 58.133L63.6895 56.783L62.3488 58.2671L63.8432 59.6171L65.1839 58.133ZM62.195 55.433L60.7006 54.083L59.3599 55.5671L60.8544 56.9171L62.195 55.433ZM59.2062 52.733L57.7117 51.383L56.3711 52.8671L57.8655 54.2171L59.2062 52.733ZM56.2173 50.033L54.7229 48.683L53.3822 50.1671L54.8766 51.5171L56.2173 50.033ZM53.2284 47.333L51.734 45.983L50.3933 47.4671L51.8878 48.8171L53.2284 47.333ZM50.2396 44.633L48.7451 43.283L47.4045 44.7671L48.8989 46.1171L50.2396 44.633ZM47.2507 41.933L45.7563 40.583L44.4156 42.0671L45.91 43.4171L47.2507 41.933ZM44.2618 39.233L42.7674 37.883L41.4267 39.3671L42.9212 40.7171L44.2618 39.233ZM41.273 36.533L39.7785 35.183L38.4378 36.6671L39.9323 38.0171L41.273 36.533ZM38.2841 33.833L36.7896 32.483L35.449 33.9671L36.9434 35.3171L38.2841 33.833ZM35.2952 31.133L33.8008 29.783L32.4601 31.2671L33.9545 32.6171L35.2952 31.133ZM32.3063 28.433L30.8119 27.083L29.4712 28.5671L30.9657 29.9171L32.3063 28.433ZM29.3174 25.733L27.823 24.383L26.4823 25.8671L27.9768 27.2171L29.3174 25.733ZM26.3286 23.033L24.8341 21.683L23.4934 23.1671L24.9879 24.5171L26.3286 23.033ZM23.3397 20.333L21.8452 18.983L20.5046 20.4671L21.999 21.8171L23.3397 20.333ZM20.3508 17.633L18.8564 16.283L17.5157 17.7671L19.0101 19.1171L20.3508 17.633ZM17.3619 14.933L15.8675 13.5829L14.5268 15.0671L16.0212 16.4171L17.3619 14.933ZM14.373 12.2329L12.8786 10.8829L11.5379 12.3671L13.0324 13.7171L14.373 12.2329ZM11.3842 9.53294L9.88973 8.18294L8.54905 9.66705L10.0435 11.0171L11.3842 9.53294ZM8.39529 6.83294L6.90085 5.48293L5.56017 6.96705L7.05461 8.31705L8.39529 6.83294ZM5.40641 4.13293L3.91197 2.78293L2.57129 4.26704L4.06573 5.61704L5.40641 4.13293ZM2.41753 1.43292L1.67033 0.757942L0.329657 2.24206L1.07685 2.91704L2.41753 1.43292Z" fill="#263238"/>
</svg>
