<svg width="92" height="68" viewBox="0 0 92 68" fill="none" xmlns="http://www.w3.org/2000/svg">
<path d="M90.2118 65.7066C90.4841 65.6605 90.6674 65.4024 90.6213 65.1302L89.8705 60.6932C89.8244 60.421 89.5663 60.2376 89.2941 60.2837C89.0218 60.3298 88.8384 60.5878 88.8845 60.8601L89.5519 64.804L85.608 65.4715C85.3357 65.5175 85.1524 65.7756 85.1984 66.0479C85.2445 66.3202 85.5026 66.5035 85.7749 66.4574L90.2118 65.7066ZM0.571847 2.1947L1.39839 2.78198L1.9776 1.9668L1.15105 1.37952L0.571847 2.1947ZM3.05148 3.95655L4.70457 5.13111L5.28378 4.31593L3.63069 3.14137L3.05148 3.95655ZM6.35766 6.30568L8.01076 7.48024L8.58996 6.66506L6.93687 5.49049L6.35766 6.30568ZM9.66385 8.6548L11.3169 9.82937L11.8961 9.01419L10.2431 7.83962L9.66385 8.6548ZM12.97 11.0039L14.6231 12.1785L15.2023 11.3633L13.5492 10.1888L12.97 11.0039ZM16.2762 13.3531L17.9293 14.5276L18.5085 13.7124L16.8554 12.5379L16.2762 13.3531ZM19.5824 15.7022L21.2355 16.8768L21.8147 16.0616L20.1616 14.887L19.5824 15.7022ZM22.8886 18.0513L24.5417 19.2259L25.1209 18.4107L23.4678 17.2361L22.8886 18.0513ZM26.1948 20.4004L27.8478 21.575L28.4271 20.7598L26.774 19.5853L26.1948 20.4004ZM29.5009 22.7496L31.154 23.9241L31.7332 23.109L30.0801 21.9344L29.5009 22.7496ZM32.8071 25.0987L34.4602 26.2733L35.0394 25.4581L33.3863 24.2835L32.8071 25.0987ZM36.1133 27.4478L37.7664 28.6224L38.3456 27.8072L36.6925 26.6327L36.1133 27.4478ZM39.4195 29.797L41.0726 30.9715L41.6518 30.1563L39.9987 28.9818L39.4195 29.797ZM42.7256 32.1461L44.3787 33.3206L44.9579 32.5055L43.3049 31.3309L42.7256 32.1461ZM46.0318 34.4952L47.6849 35.6698L48.2641 34.8546L46.611 33.68L46.0318 34.4952ZM49.338 36.8443L50.9911 38.0189L51.5703 37.2037L49.9172 36.0292L49.338 36.8443ZM52.6442 39.1935L54.2973 40.368L54.8765 39.5528L53.2234 38.3783L52.6442 39.1935ZM55.9504 41.5426L57.6035 42.7172L58.1827 41.902L56.5296 40.7274L55.9504 41.5426ZM59.2566 43.8917L60.9096 45.0663L61.4888 44.2511L59.8358 43.0765L59.2566 43.8917ZM62.5627 46.2409L64.2158 47.4154L64.795 46.6002L63.1419 45.4257L62.5627 46.2409ZM65.8689 48.59L67.522 49.7646L68.1012 48.9494L66.4481 47.7748L65.8689 48.59ZM69.1751 50.9391L70.8282 52.1137L71.4074 51.2985L69.7543 50.1239L69.1751 50.9391ZM72.4813 53.2883L74.1344 54.4628L74.7136 53.6476L73.0605 52.4731L72.4813 53.2883ZM75.7875 55.6374L77.4406 56.812L78.0198 55.9968L76.3667 54.8222L75.7875 55.6374ZM79.0937 57.9865L80.7468 59.1611L81.326 58.3459L79.6729 57.1713L79.0937 57.9865ZM82.3998 60.3356L84.0529 61.5102L84.6321 60.695L82.9791 59.5205L82.3998 60.3356ZM85.706 62.6848L87.3591 63.8593L87.9383 63.0442L86.2852 61.8696L85.706 62.6848ZM89.0122 65.0339L89.8387 65.6212L90.418 64.806L89.5914 64.2187L89.0122 65.0339ZM90.2952 66.1996C90.8398 66.1074 91.2065 65.5913 91.1143 65.0467L89.6126 56.1729C89.5205 55.6284 89.0043 55.2616 88.4598 55.3538C87.9152 55.4459 87.5485 55.9621 87.6406 56.5066L88.9755 64.3945L81.0877 65.7293C80.5431 65.8215 80.1764 66.3376 80.2685 66.8822C80.3607 67.4267 80.8768 67.7934 81.4214 67.7013L90.2952 66.1996ZM0.282243 2.60229L1.10879 3.18957L2.2672 1.55921L1.44066 0.971929L0.282243 2.60229ZM2.76188 4.36414L4.41497 5.5387L5.57338 3.90834L3.92029 2.73378L2.76188 4.36414ZM6.06806 6.71327L7.72115 7.88783L8.87957 6.25747L7.22647 5.0829L6.06806 6.71327ZM9.37424 9.06239L11.0273 10.237L12.1857 8.6066L10.5327 7.43203L9.37424 9.06239ZM12.6804 11.4115L14.3335 12.5861L15.4919 10.9557L13.8388 9.78116L12.6804 11.4115ZM15.9866 13.7607L17.6397 14.9352L18.7981 13.3049L17.145 12.1303L15.9866 13.7607ZM19.2928 16.1098L20.9459 17.2843L22.1043 15.654L20.4512 14.4794L19.2928 16.1098ZM22.599 18.4589L24.2521 19.6335L25.4105 18.0031L23.7574 16.8286L22.599 18.4589ZM25.9052 20.808L27.5582 21.9826L28.7167 20.3522L27.0636 19.1777L25.9052 20.808ZM29.2113 23.1572L30.8644 24.3317L32.0228 22.7014L30.3697 21.5268L29.2113 23.1572ZM32.5175 25.5063L34.1706 26.6809L35.329 25.0505L33.6759 23.8759L32.5175 25.5063ZM35.8237 27.8554L37.4768 29.03L38.6352 27.3996L36.9821 26.2251L35.8237 27.8554ZM39.1299 30.2045L40.783 31.3791L41.9414 29.7488L40.2883 28.5742L39.1299 30.2045ZM42.436 32.5537L44.0891 33.7282L45.2476 32.0979L43.5945 30.9233L42.436 32.5537ZM45.7422 34.9028L47.3953 36.0774L48.5537 34.447L46.9006 33.2724L45.7422 34.9028ZM49.0484 37.2519L50.7015 38.4265L51.8599 36.7961L50.2068 35.6216L49.0484 37.2519ZM52.3546 39.6011L54.0077 40.7756L55.1661 39.1453L53.513 37.9707L52.3546 39.6011ZM55.6608 41.9502L57.3139 43.1247L58.4723 41.4944L56.8192 40.3198L55.6608 41.9502ZM58.9669 44.2993L60.62 45.4739L61.7785 43.8435L60.1254 42.669L58.9669 44.2993ZM62.2731 46.6484L63.9262 47.823L65.0846 46.1927L63.4315 45.0181L62.2731 46.6484ZM65.5793 48.9976L67.2324 50.1721L68.3908 48.5418L66.7377 47.3672L65.5793 48.9976ZM68.8855 51.3467L70.5386 52.5213L71.697 50.8909L70.0439 49.7163L68.8855 51.3467ZM72.1917 53.6958L73.8448 54.8704L75.0032 53.24L73.3501 52.0655L72.1917 53.6958ZM75.4979 56.045L77.151 57.2195L78.3094 55.5892L76.6563 54.4146L75.4979 56.045ZM78.8041 58.3941L80.4572 59.5687L81.6156 57.9383L79.9625 56.7637L78.8041 58.3941ZM82.1102 60.7432L83.7633 61.9178L84.9218 60.2874L83.2687 59.1129L82.1102 60.7432ZM85.4164 63.0924L87.0695 64.2669L88.2279 62.6366L86.5748 61.462L85.4164 63.0924ZM88.7226 65.4415L89.5491 66.0288L90.7076 64.3984L89.881 63.8111L88.7226 65.4415Z" fill="#263238"/>
</svg>
