<svg width="38" height="10" viewBox="0 0 38 10" fill="none" xmlns="http://www.w3.org/2000/svg">
<path d="M5.67355 9.93568C4.71882 9.93568 3.85679 9.72249 3.08744 9.2961C2.32737 8.86972 1.72487 8.28112 1.27994 7.53032C0.844291 6.77951 0.626465 5.93601 0.626465 4.99982C0.626465 4.06363 0.844291 3.22013 1.27994 2.46933C1.72487 1.71852 2.32737 1.12992 3.08744 0.703541C3.85679 0.277157 4.71882 0.0639648 5.67355 0.0639648C6.37801 0.0639648 7.02686 0.17983 7.62009 0.411561C8.21332 0.634022 8.71849 0.967713 9.1356 1.41264L8.69068 1.87146C7.91207 1.10212 6.91563 0.717444 5.70136 0.717444C4.88567 0.717444 4.14413 0.902829 3.47675 1.2736C2.80936 1.64437 2.28565 2.15881 1.90562 2.81692C1.52558 3.46577 1.33556 4.1934 1.33556 4.99982C1.33556 5.80624 1.52558 6.53851 1.90562 7.19662C2.28565 7.84547 2.80936 8.35528 3.47675 8.72604C4.14413 9.09681 4.88567 9.2822 5.70136 9.2822C6.90636 9.2822 7.9028 8.89289 8.69068 8.11428L9.1356 8.5731C8.71849 9.01802 8.20868 9.35635 7.60618 9.58808C7.01295 9.81981 6.36874 9.93568 5.67355 9.93568Z" fill="white"/>
<path d="M18.2262 9.22658V9.86616H11.5107V0.133484H18.0176V0.77306H12.2198V4.61051H17.4059V5.23619H12.2198V9.22658H18.2262Z" fill="white"/>
<path d="M20.8116 0.133484H21.5206V9.22658H27.1239V9.86616H20.8116V0.133484Z" fill="white"/>
<path d="M32.8841 9.93568C31.9294 9.93568 31.0673 9.72249 30.298 9.2961C29.5286 8.86045 28.9215 8.26722 28.4766 7.51641C28.0409 6.76561 27.8231 5.92674 27.8231 4.99982C27.8231 4.0729 28.0409 3.23404 28.4766 2.48323C28.9215 1.73242 29.5286 1.14383 30.298 0.717444C31.0673 0.281791 31.9294 0.0639648 32.8841 0.0639648C33.8388 0.0639648 34.7009 0.277157 35.4702 0.703541C36.2395 1.12992 36.842 1.71852 37.2777 2.46933C37.7226 3.22013 37.9451 4.06363 37.9451 4.99982C37.9451 5.93601 37.7226 6.77951 37.2777 7.53032C36.842 8.28112 36.2395 8.86972 35.4702 9.2961C34.7009 9.72249 33.8388 9.93568 32.8841 9.93568ZM32.8841 9.2822C33.6998 9.2822 34.4367 9.09681 35.0948 8.72604C35.7529 8.35528 36.272 7.84547 36.652 7.19662C37.0321 6.53851 37.2221 5.80624 37.2221 4.99982C37.2221 4.1934 37.0321 3.46577 36.652 2.81692C36.272 2.15881 35.7529 1.64437 35.0948 1.2736C34.4367 0.902829 33.6998 0.717444 32.8841 0.717444C32.0684 0.717444 31.3269 0.902829 30.6595 1.2736C30.0014 1.64437 29.4823 2.15881 29.1022 2.81692C28.7222 3.46577 28.5322 4.1934 28.5322 4.99982C28.5322 5.80624 28.7222 6.53851 29.1022 7.19662C29.4823 7.84547 30.0014 8.35528 30.6595 8.72604C31.3269 9.09681 32.0684 9.2822 32.8841 9.2822Z" fill="white"/>
</svg>
