<svg width="18" height="18" viewBox="0 0 18 18" fill="none" xmlns="http://www.w3.org/2000/svg">
<path d="M8.99999 3.35999C8.43334 3.35999 7.87943 3.52801 7.40828 3.84282C6.93713 4.15764 6.56992 4.60509 6.35307 5.1286C6.13623 5.65211 6.07949 6.22816 6.19004 6.78392C6.30058 7.33968 6.57345 7.85017 6.97413 8.25085C7.3748 8.65152 7.8853 8.92439 8.44105 9.03494C8.99681 9.14548 9.57287 9.08875 10.0964 8.8719C10.6199 8.65506 11.0673 8.28784 11.3821 7.81669C11.697 7.34555 11.865 6.79163 11.865 6.22499C11.865 5.46514 11.5631 4.73642 11.0258 4.19912C10.4886 3.66183 9.75983 3.35999 8.99999 3.35999V3.35999ZM8.99999 8.08999C8.63113 8.08999 8.27055 7.98061 7.96385 7.77568C7.65715 7.57075 7.41811 7.27947 7.27695 6.93869C7.1358 6.59791 7.09886 6.22292 7.17082 5.86114C7.24279 5.49937 7.42041 5.16706 7.68123 4.90623C7.94206 4.64541 8.27437 4.46778 8.63614 4.39582C8.99792 4.32386 9.37291 4.36079 9.71369 4.50195C10.0545 4.64311 10.3457 4.88215 10.5507 5.18885C10.7556 5.49554 10.865 5.85612 10.865 6.22499C10.8637 6.71875 10.6666 7.19183 10.317 7.54051C9.96737 7.88918 9.49375 8.08499 8.99999 8.08499V8.08999Z" fill="white"/>
<path d="M9.00002 1C7.44262 1.0013 5.94901 1.61884 4.84542 2.71775C3.74183 3.81665 3.11794 5.30762 3.11002 6.865C3.11002 9.2 4.42002 11.155 5.38002 12.58L5.55502 12.84C6.51016 14.2243 7.5348 15.5594 8.62502 16.84L9.00502 17.285L9.38502 16.84C10.4751 15.5592 11.4997 14.2242 12.455 12.84L12.63 12.575C13.585 11.15 14.895 9.2 14.895 6.865C14.8871 5.30675 14.2625 3.81503 13.1578 2.71599C12.0532 1.61694 10.5583 0.99998 9.00002 1V1ZM11.795 12L11.615 12.265C10.755 13.555 9.61502 15 9.00002 15.715C8.41002 15 7.24502 13.555 6.38502 12.265L6.21002 12C5.32502 10.68 4.11002 8.875 4.11002 6.845C4.11002 6.20284 4.2365 5.56696 4.48225 4.97368C4.72799 4.3804 5.08819 3.84133 5.54226 3.38725C5.99634 2.93317 6.53541 2.57297 7.12869 2.32723C7.72198 2.08148 8.35785 1.955 9.00002 1.955C9.64218 1.955 10.2781 2.08148 10.8713 2.32723C11.4646 2.57297 12.0037 2.93317 12.4578 3.38725C12.9118 3.84133 13.272 4.3804 13.5178 4.97368C13.7635 5.56696 13.89 6.20284 13.89 6.845C13.89 8.895 12.68 10.7 11.795 12V12Z" fill="white"/>
</svg>
