<svg width="23" height="22" viewBox="0 0 23 22" fill="none" xmlns="http://www.w3.org/2000/svg">
<path d="M11.5 7.33325L8.625 8.93742V12.1458L11.5 13.7499L14.375 12.1458V8.93742L11.5 7.33325ZM12.9538 9.20325L11.4875 10.0209L10.0338 9.20967L11.5 8.392L12.9538 9.20325ZM9.57375 10.0118L10.9959 10.8056V12.4098L9.57375 11.6168V10.0118ZM11.9447 12.4437V10.8239L13.4263 9.99708V11.6168L11.9447 12.4437Z" fill="#263238"/>
<path d="M2.875 0L0 1.60417V4.8125L2.875 6.41667L5.75 4.8125V1.60417L2.875 0ZM4.32879 1.87L2.86254 2.68767L1.40875 1.87642L2.875 1.05875L4.32879 1.87ZM0.94875 2.67758L2.37092 3.47142V5.07558L0.94875 4.2845V2.67758ZM3.31967 5.1095V3.49067L4.80125 2.66383V4.28358L3.31967 5.1095Z" fill="#263238"/>
<path d="M2.875 15.5833L0 17.1874V20.3957L2.875 21.9999L5.75 20.3957V17.1874L2.875 15.5833ZM4.32879 17.4533L2.86254 18.2709L1.40875 17.4597L2.875 16.642L4.32879 17.4533ZM0.94875 18.2618L2.37092 19.0556V20.6597L0.94875 19.8677V18.2618ZM3.31967 20.6937V19.0739L4.80125 18.2471V19.8668L3.31967 20.6937Z" fill="#263238"/>
<path d="M20.125 0L17.25 1.60417V4.8125L20.125 6.41667L23 4.8125V1.60417L20.125 0ZM21.5788 1.87L20.1125 2.68767L18.6587 1.87642L20.125 1.05875L21.5788 1.87ZM18.1987 2.6785L19.6209 3.47233V5.0765L18.1987 4.28358V2.6785ZM20.5697 5.11042V3.49067L22.0513 2.66383V4.28358L20.5697 5.11042Z" fill="#263238"/>
<path d="M20.125 15.5833L17.25 17.1874V20.3957L20.125 21.9999L23 20.3957V17.1874L20.125 15.5833ZM21.5788 17.4533L20.1125 18.2709L18.6587 17.4597L20.125 16.642L21.5788 17.4533ZM18.1987 18.2618L19.6209 19.0556V20.6597L18.1987 19.8668V18.2618ZM20.5697 20.6937V19.0739L22.0513 18.2471V19.8668L20.5697 20.6937Z" fill="#263238"/>
<path d="M8.625 2.75H14.375V3.66667H8.625V2.75Z" fill="#263238"/>
<path d="M8.625 18.3333H14.375V19.2499H8.625V18.3333Z" fill="#263238"/>
<path d="M3.35408 8.25V13.75H2.39575V8.25H3.35408Z" fill="#263238"/>
<path d="M6.98913 8.09233L4.95459 6.149L5.63309 5.5L7.66667 7.44425L6.98913 8.09233Z" fill="#263238"/>
<path d="M15.3333 7.60196L17.3659 5.65771L18.0434 6.3058L16.0118 8.25005L15.3333 7.60196Z" fill="#263238"/>
<path d="M7.79035 13.6383L5.75772 15.5834L5.07922 14.9344L7.11281 12.9911L7.79035 13.6383Z" fill="#263238"/>
<path d="M16.1757 12.9515L18.2083 14.8958L17.5308 15.5439L15.4982 13.5996L16.1757 12.9515Z" fill="#263238"/>
<path d="M20.6042 8.25V13.75H19.6459V8.25H20.6042Z" fill="#263238"/>
</svg>
