<svg width="28" height="9" viewBox="0 0 28 9" fill="none" xmlns="http://www.w3.org/2000/svg">
<path d="M5.33352 0.86137C5.33277 0.748607 5.3543 0.636816 5.39688 0.532479C5.43945 0.428142 5.50221 0.333335 5.58153 0.253554C5.66084 0.173773 5.75513 0.110605 5.85893 0.0677131C5.96272 0.0248216 6.07396 0.00305952 6.18618 0.00368852C6.41531 0.00190087 6.63589 0.090943 6.8001 0.251503C6.96431 0.412062 7.0589 0.631193 7.06335 0.86137C7.05816 1.0902 6.96294 1.30764 6.79854 1.46608C6.63414 1.62452 6.41395 1.71106 6.18618 1.70674C6.07468 1.7085 5.96394 1.68792 5.86044 1.64621C5.75694 1.60449 5.66275 1.54247 5.58337 1.46377C5.50399 1.38506 5.44101 1.29126 5.39811 1.18783C5.35521 1.0844 5.33325 0.97342 5.33352 0.86137V0.86137Z" fill="white"/>
<path d="M4.44513 2.66961L4.25669 3.85579C3.97988 3.75305 3.68686 3.70142 3.39177 3.70338C2.59658 3.70338 1.97851 4.25528 1.97851 5.3004V8.34205H0.727295V2.66204H1.98322V3.30767C2.34501 2.81445 2.90655 2.54465 3.60753 2.54465C3.89165 2.54003 4.1746 2.58224 4.44513 2.66961Z" fill="white"/>
<path d="M5.56348 2.6582H6.81375V8.33821H5.56348V2.6582Z" fill="white"/>
<path d="M8.16187 5.50005C8.16187 3.71464 9.41214 2.54077 11.0374 2.54077C12.6391 2.54077 13.8074 3.65595 13.8074 5.38077C13.8075 5.51429 13.7996 5.64769 13.7838 5.78027H9.41214C9.50635 6.84906 10.1602 7.4483 11.0609 7.4483C11.6262 7.4483 12.1341 7.20879 12.3659 6.74303H13.5718C13.2685 7.89418 12.2396 8.45839 11.0591 8.45839C9.41213 8.46028 8.16187 7.29683 8.16187 5.50005ZM12.5901 4.8194C12.4846 4.12644 11.9004 3.56223 11.0468 3.56223C10.2874 3.56223 9.69102 4.00811 9.48091 4.8194H12.5901Z" fill="white"/>
<path d="M20.1437 4.70122V8.34211H18.8924V5.02877C18.8924 4.11239 18.3545 3.67787 17.5951 3.67787C16.8121 3.67787 16.2854 4.22978 16.2854 5.19254V8.33927H15.0352V2.65926H16.2854V3.30489C16.6623 2.81167 17.2323 2.54187 17.9578 2.54187C19.225 2.54092 20.1437 3.29258 20.1437 4.70122Z" fill="white"/>
<path d="M27.2854 0.121094V8.34195H26.0351V7.55527C25.6017 8.13085 24.9356 8.46029 24.0942 8.46029C22.5396 8.46029 21.3242 7.25045 21.3242 5.50006C21.3242 3.74967 22.5396 2.54077 24.1055 2.54077C24.9356 2.54077 25.6017 2.86927 26.0351 3.44484V0.121094H27.2854ZM26.0351 5.50006C26.0351 4.39624 25.3219 3.64459 24.3392 3.64459C23.3923 3.64459 22.6084 4.36122 22.6084 5.50006C22.6084 6.6389 23.3923 7.35553 24.3392 7.35553C25.3219 7.35553 26.0351 6.60387 26.0351 5.50006Z" fill="white"/>
</svg>
