<svg width="10" height="16" viewBox="0 0 10 16" fill="none" xmlns="http://www.w3.org/2000/svg">
<path d="M0 11.1783C0.169143 13.0834 1.72914 14.4354 4.104 14.6103V16H5.296V14.6103C7.89029 14.4057 9.49943 12.9669 9.49943 10.8389C9.49943 9.02171 8.41714 7.97029 6.12114 7.37829L5.296 7.16457V2.81943C6.57829 2.94514 7.44343 3.63543 7.66171 4.66629H9.34171C9.152 2.83771 7.58171 1.52571 5.296 1.38057V0H4.104V1.40914C1.888 1.672 0.366857 3.09143 0.366857 5.016C0.366857 6.67771 1.47086 7.85371 3.408 8.34971L4.10514 8.53486V13.1417C2.792 12.9474 1.888 12.2274 1.66971 11.1783H0V11.1783ZM3.87543 6.79429C2.68343 6.49371 2.04686 5.85143 2.04686 4.94743C2.04686 3.86857 2.85143 3.072 4.104 2.85829V6.85257L3.87543 6.79543V6.79429ZM5.69371 8.93372C7.16457 9.30286 7.81028 9.91543 7.81028 10.9554C7.81028 12.2091 6.86629 13.0446 5.296 13.1714V8.83429L5.69371 8.93257V8.93372Z" fill="#0FCFB0"/>
</svg>
