<svg width="204" height="62" viewBox="0 0 204 62" fill="none" xmlns="http://www.w3.org/2000/svg">
<g filter="url(#filter0_d_90_2163)">
<rect x="4" width="196" height="54" fill="#0FCFB0"/>
<path d="M56.852 33.168C55.8533 33.168 54.948 32.9533 54.136 32.524C53.3333 32.0853 52.6987 31.4833 52.232 30.718C51.7747 29.9433 51.546 29.0707 51.546 28.1C51.546 27.1293 51.7747 26.2613 52.232 25.496C52.6987 24.7213 53.3333 24.1193 54.136 23.69C54.948 23.2513 55.858 23.032 56.866 23.032C57.7153 23.032 58.4807 23.1813 59.162 23.48C59.8527 23.7787 60.4313 24.208 60.898 24.768L59.442 26.112C58.7793 25.3467 57.958 24.964 56.978 24.964C56.3713 24.964 55.83 25.0993 55.354 25.37C54.878 25.6313 54.5047 26 54.234 26.476C53.9727 26.952 53.842 27.4933 53.842 28.1C53.842 28.7067 53.9727 29.248 54.234 29.724C54.5047 30.2 54.878 30.5733 55.354 30.844C55.83 31.1053 56.3713 31.236 56.978 31.236C57.958 31.236 58.7793 30.8487 59.442 30.074L60.898 31.418C60.4313 31.9873 59.8527 32.4213 59.162 32.72C58.4713 33.0187 57.7013 33.168 56.852 33.168ZM66.9705 33.168C65.9532 33.168 65.0338 32.9487 64.2125 32.51C63.4005 32.0713 62.7612 31.4693 62.2945 30.704C61.8372 29.9293 61.6085 29.0613 61.6085 28.1C61.6085 27.1387 61.8372 26.2753 62.2945 25.51C62.7612 24.7353 63.4005 24.1287 64.2125 23.69C65.0338 23.2513 65.9532 23.032 66.9705 23.032C67.9878 23.032 68.9025 23.2513 69.7145 23.69C70.5265 24.1287 71.1658 24.7353 71.6325 25.51C72.0992 26.2753 72.3325 27.1387 72.3325 28.1C72.3325 29.0613 72.0992 29.9293 71.6325 30.704C71.1658 31.4693 70.5265 32.0713 69.7145 32.51C68.9025 32.9487 67.9878 33.168 66.9705 33.168ZM66.9705 31.236C67.5492 31.236 68.0718 31.1053 68.5385 30.844C69.0052 30.5733 69.3692 30.2 69.6305 29.724C69.9012 29.248 70.0365 28.7067 70.0365 28.1C70.0365 27.4933 69.9012 26.952 69.6305 26.476C69.3692 26 69.0052 25.6313 68.5385 25.37C68.0718 25.0993 67.5492 24.964 66.9705 24.964C66.3918 24.964 65.8692 25.0993 65.4025 25.37C64.9358 25.6313 64.5672 26 64.2965 26.476C64.0352 26.952 63.9045 27.4933 63.9045 28.1C63.9045 28.7067 64.0352 29.248 64.2965 29.724C64.5672 30.2 64.9358 30.5733 65.4025 30.844C65.8692 31.1053 66.3918 31.236 66.9705 31.236ZM83.025 23.2V33H81.163L76.277 27.05V33H74.037V23.2H75.913L80.785 29.15V23.2H83.025ZM87.3736 25.048H84.2376V23.2H92.7776V25.048H89.6416V33H87.3736V25.048ZM99.9598 30.9H95.4098L94.5418 33H92.2177L96.5858 23.2H98.8258L103.208 33H100.828L99.9598 30.9ZM99.2458 29.178L97.6918 25.426L96.1378 29.178H99.2458ZM108.778 33.168C107.779 33.168 106.874 32.9533 106.062 32.524C105.259 32.0853 104.624 31.4833 104.158 30.718C103.7 29.9433 103.472 29.0707 103.472 28.1C103.472 27.1293 103.7 26.2613 104.158 25.496C104.624 24.7213 105.259 24.1193 106.062 23.69C106.874 23.2513 107.784 23.032 108.792 23.032C109.641 23.032 110.406 23.1813 111.088 23.48C111.778 23.7787 112.357 24.208 112.824 24.768L111.368 26.112C110.705 25.3467 109.884 24.964 108.904 24.964C108.297 24.964 107.756 25.0993 107.28 25.37C106.804 25.6313 106.43 26 106.16 26.476C105.898 26.952 105.768 27.4933 105.768 28.1C105.768 28.7067 105.898 29.248 106.16 29.724C106.43 30.2 106.804 30.5733 107.28 30.844C107.756 31.1053 108.297 31.236 108.904 31.236C109.884 31.236 110.705 30.8487 111.368 30.074L112.824 31.418C112.357 31.9873 111.778 32.4213 111.088 32.72C110.397 33.0187 109.627 33.168 108.778 33.168ZM116.29 25.048H113.154V23.2H121.694V25.048H118.558V33H116.29V25.048ZM131.233 33.168C129.833 33.168 128.741 32.7807 127.957 32.006C127.182 31.2313 126.795 30.1253 126.795 28.688V23.2H129.063V28.604C129.063 30.3587 129.791 31.236 131.247 31.236C131.956 31.236 132.497 31.026 132.871 30.606C133.244 30.1767 133.431 29.5093 133.431 28.604V23.2H135.671V28.688C135.671 30.1253 135.279 31.2313 134.495 32.006C133.72 32.7807 132.633 33.168 131.233 33.168ZM141.132 33.168C140.357 33.168 139.606 33.0653 138.878 32.86C138.159 32.6453 137.581 32.37 137.142 32.034L137.912 30.326C138.332 30.634 138.831 30.8813 139.41 31.068C139.989 31.2547 140.567 31.348 141.146 31.348C141.79 31.348 142.266 31.2547 142.574 31.068C142.882 30.872 143.036 30.6153 143.036 30.298C143.036 30.0647 142.943 29.8733 142.756 29.724C142.579 29.5653 142.345 29.4393 142.056 29.346C141.776 29.2527 141.393 29.15 140.908 29.038C140.161 28.8607 139.55 28.6833 139.074 28.506C138.598 28.3287 138.187 28.044 137.842 27.652C137.506 27.26 137.338 26.7373 137.338 26.084C137.338 25.5147 137.492 25.0013 137.8 24.544C138.108 24.0773 138.57 23.7087 139.186 23.438C139.811 23.1673 140.572 23.032 141.468 23.032C142.093 23.032 142.705 23.1067 143.302 23.256C143.899 23.4053 144.422 23.62 144.87 23.9L144.17 25.622C143.265 25.1087 142.359 24.852 141.454 24.852C140.819 24.852 140.348 24.9547 140.04 25.16C139.741 25.3653 139.592 25.636 139.592 25.972C139.592 26.308 139.765 26.56 140.11 26.728C140.465 26.8867 141.001 27.0453 141.72 27.204C142.467 27.3813 143.078 27.5587 143.554 27.736C144.03 27.9133 144.436 28.1933 144.772 28.576C145.117 28.9587 145.29 29.4767 145.29 30.13C145.29 30.69 145.131 31.2033 144.814 31.67C144.506 32.1273 144.039 32.4913 143.414 32.762C142.789 33.0327 142.028 33.168 141.132 33.168Z" fill="white"/>
</g>
<defs>
<filter id="filter0_d_90_2163" x="0" y="0" width="204" height="62" filterUnits="userSpaceOnUse" color-interpolation-filters="sRGB">
<feFlood flood-opacity="0" result="BackgroundImageFix"/>
<feColorMatrix in="SourceAlpha" type="matrix" values="0 0 0 0 0 0 0 0 0 0 0 0 0 0 0 0 0 0 127 0" result="hardAlpha"/>
<feOffset dy="4"/>
<feGaussianBlur stdDeviation="2"/>
<feComposite in2="hardAlpha" operator="out"/>
<feColorMatrix type="matrix" values="0 0 0 0 0 0 0 0 0 0 0 0 0 0 0 0 0 0 0.25 0"/>
<feBlend mode="normal" in2="BackgroundImageFix" result="effect1_dropShadow_90_2163"/>
<feBlend mode="normal" in="SourceGraphic" in2="effect1_dropShadow_90_2163" result="shape"/>
</filter>
</defs>
</svg>
