<svg width="204" height="62" viewBox="0 0 204 62" fill="none" xmlns="http://www.w3.org/2000/svg">
<g filter="url(#filter0_d_90_2162)">
<rect x="4" width="196" height="54" fill="white"/>
<path d="M52.162 23.2H54.43V31.152H59.344V33H52.162V23.2ZM68.1992 31.18V33H60.6112V23.2H68.0172V25.02H62.8652V27.148H67.4152V28.912H62.8652V31.18H68.1992ZM76.4578 30.9H71.9078L71.0398 33H68.7158L73.0838 23.2H75.3238L79.7058 33H77.3258L76.4578 30.9ZM75.7438 29.178L74.1898 25.426L72.6358 29.178H75.7438ZM86.9665 33L85.0765 30.27H84.9645H82.9905V33H80.7225V23.2H84.9645C85.8325 23.2 86.5839 23.3447 87.2185 23.634C87.8625 23.9233 88.3572 24.334 88.7025 24.866C89.0479 25.398 89.2205 26.028 89.2205 26.756C89.2205 27.484 89.0432 28.114 88.6885 28.646C88.3432 29.1687 87.8485 29.57 87.2045 29.85L89.4025 33H86.9665ZM86.9245 26.756C86.9245 26.2053 86.7472 25.7853 86.3925 25.496C86.0379 25.1973 85.5199 25.048 84.8385 25.048H82.9905V28.464H84.8385C85.5199 28.464 86.0379 28.3147 86.3925 28.016C86.7472 27.7173 86.9245 27.2973 86.9245 26.756ZM100.005 23.2V33H98.1435L93.2575 27.05V33H91.0175V23.2H92.8935L97.7655 29.15V23.2H100.005ZM115.207 33L115.193 27.12L112.309 31.964H111.287L108.417 27.246V33H106.289V23.2H108.165L111.833 29.29L115.445 23.2H117.307L117.335 33H115.207ZM124.406 33.168C123.389 33.168 122.469 32.9487 121.648 32.51C120.836 32.0713 120.197 31.4693 119.73 30.704C119.273 29.9293 119.044 29.0613 119.044 28.1C119.044 27.1387 119.273 26.2753 119.73 25.51C120.197 24.7353 120.836 24.1287 121.648 23.69C122.469 23.2513 123.389 23.032 124.406 23.032C125.423 23.032 126.338 23.2513 127.15 23.69C127.962 24.1287 128.601 24.7353 129.068 25.51C129.535 26.2753 129.768 27.1387 129.768 28.1C129.768 29.0613 129.535 29.9293 129.068 30.704C128.601 31.4693 127.962 32.0713 127.15 32.51C126.338 32.9487 125.423 33.168 124.406 33.168ZM124.406 31.236C124.985 31.236 125.507 31.1053 125.974 30.844C126.441 30.5733 126.805 30.2 127.066 29.724C127.337 29.248 127.472 28.7067 127.472 28.1C127.472 27.4933 127.337 26.952 127.066 26.476C126.805 26 126.441 25.6313 125.974 25.37C125.507 25.0993 124.985 24.964 124.406 24.964C123.827 24.964 123.305 25.0993 122.838 25.37C122.371 25.6313 122.003 26 121.732 26.476C121.471 26.952 121.34 27.4933 121.34 28.1C121.34 28.7067 121.471 29.248 121.732 29.724C122.003 30.2 122.371 30.5733 122.838 30.844C123.305 31.1053 123.827 31.236 124.406 31.236ZM137.717 33L135.827 30.27H135.715H133.741V33H131.473V23.2H135.715C136.583 23.2 137.334 23.3447 137.969 23.634C138.613 23.9233 139.107 24.334 139.453 24.866C139.798 25.398 139.971 26.028 139.971 26.756C139.971 27.484 139.793 28.114 139.439 28.646C139.093 29.1687 138.599 29.57 137.955 29.85L140.153 33H137.717ZM137.675 26.756C137.675 26.2053 137.497 25.7853 137.143 25.496C136.788 25.1973 136.27 25.048 135.589 25.048H133.741V28.464H135.589C136.27 28.464 136.788 28.3147 137.143 28.016C137.497 27.7173 137.675 27.2973 137.675 26.756ZM149.355 31.18V33H141.767V23.2H149.173V25.02H144.021V27.148H148.571V28.912H144.021V31.18H149.355Z" fill="#221E20"/>
</g>
<defs>
<filter id="filter0_d_90_2162" x="0" y="0" width="204" height="62" filterUnits="userSpaceOnUse" color-interpolation-filters="sRGB">
<feFlood flood-opacity="0" result="BackgroundImageFix"/>
<feColorMatrix in="SourceAlpha" type="matrix" values="0 0 0 0 0 0 0 0 0 0 0 0 0 0 0 0 0 0 127 0" result="hardAlpha"/>
<feOffset dy="4"/>
<feGaussianBlur stdDeviation="2"/>
<feComposite in2="hardAlpha" operator="out"/>
<feColorMatrix type="matrix" values="0 0 0 0 0 0 0 0 0 0 0 0 0 0 0 0 0 0 0.25 0"/>
<feBlend mode="normal" in2="BackgroundImageFix" result="effect1_dropShadow_90_2162"/>
<feBlend mode="normal" in="SourceGraphic" in2="effect1_dropShadow_90_2162" result="shape"/>
</filter>
</defs>
</svg>
