<svg width="19" height="18" viewBox="0 0 19 18" fill="none" xmlns="http://www.w3.org/2000/svg">
<path d="M4.83827 17.2428V5.60912H0.920825V17.2428H4.83827ZM2.88005 4.01978C4.24614 4.01978 5.09646 3.12645 5.09646 2.01008C5.07101 0.868537 4.24619 0 2.90598 0C1.56598 0 0.689697 0.868554 0.689697 2.01008C0.689697 3.1265 1.53981 4.01978 2.85448 4.01978H2.87993H2.88005ZM7.00657 17.2428H10.924V10.746C10.924 10.3983 10.9495 10.0509 11.0529 9.80239C11.3361 9.1077 11.9807 8.38819 13.0629 8.38819C14.4804 8.38819 15.0475 9.45504 15.0475 11.019V17.2427H18.9647V10.5721C18.9647 6.99866 17.0321 5.33599 14.4546 5.33599C12.3413 5.33599 11.4134 6.50198 10.898 7.29614H10.9241V5.60888H7.00665C7.05806 6.70052 7.00665 17.2426 7.00665 17.2426L7.00657 17.2428Z" fill="#F8F8F8"/>
</svg>
