<svg width="19" height="18" viewBox="0 0 19 18" fill="none" xmlns="http://www.w3.org/2000/svg">
<path d="M4.83803 17.2428V5.60912H0.920581V17.2428H4.83803ZM2.87981 4.01978C4.24589 4.01978 5.09621 3.12645 5.09621 2.01008C5.07076 0.868537 4.24595 0 2.90573 0C1.56573 0 0.689453 0.868554 0.689453 2.01008C0.689453 3.1265 1.53956 4.01978 2.85424 4.01978H2.87969H2.87981ZM7.00632 17.2428H10.9238V10.746C10.9238 10.3983 10.9492 10.0509 11.0527 9.80239C11.3359 9.1077 11.9804 8.38819 13.0626 8.38819C14.4802 8.38819 15.0473 9.45504 15.0473 11.019V17.2427H18.9645V10.5721C18.9645 6.99866 17.0318 5.33599 14.4544 5.33599C12.3411 5.33599 11.4132 6.50198 10.8977 7.29614H10.9239V5.60888H7.00641C7.05782 6.70052 7.00641 17.2426 7.00641 17.2426L7.00632 17.2428Z" fill="#F8F8F8"/>
</svg>
