<svg width="121" height="19" viewBox="0 0 121 19" fill="none" xmlns="http://www.w3.org/2000/svg">
<path d="M76.8659 3.68225C76.8644 3.46206 76.9073 3.24377 76.992 3.04004C77.0768 2.83631 77.2017 2.65118 77.3597 2.4954C77.5176 2.33961 77.7053 2.21627 77.912 2.13252C78.1186 2.04876 78.3401 2.00627 78.5636 2.0075C79.0198 2.00401 79.459 2.17788 79.7859 2.49139C80.1129 2.80491 80.3012 3.2328 80.3101 3.68225C80.2997 4.12907 80.1101 4.55366 79.7828 4.86304C79.4555 5.17242 79.0171 5.3414 78.5636 5.33297C78.3416 5.33641 78.1211 5.29622 77.915 5.21476C77.7089 5.1333 77.5214 5.01219 77.3633 4.85852C77.2053 4.70484 77.0799 4.52167 76.9945 4.31971C76.9091 4.11775 76.8653 3.90105 76.8659 3.68225V3.68225Z" fill="white"/>
<path d="M58.4501 8.07016H56V5.73842H58.4501V4.49591C58.4501 1.37738 60.5937 0 63.1199 0C64.0958 0.00632213 65.0656 0.151531 66 0.431199L65.6441 2.58515C64.9951 2.36247 64.3146 2.24314 63.6281 2.23161C61.9165 2.23161 61.1779 3.25341 61.1779 4.66553V5.73025H65.7963V8.06199H61.1821V18H58.4501V8.07016Z" fill="white"/>
<path d="M75.0969 7.21281L74.7217 9.52899C74.1706 9.32839 73.5872 9.22757 72.9996 9.23139C71.4164 9.23139 70.1858 10.3091 70.1858 12.3498V18.2891H67.6946V7.19803H70.1951V8.45871C70.9155 7.49563 72.0335 6.96881 73.4292 6.96881C73.9949 6.95978 74.5583 7.0422 75.0969 7.21281Z" fill="white"/>
<path d="M77.3236 7.19067H79.8129V18.2817H77.3236V7.19067Z" fill="white"/>
<path d="M82.4973 12.7399C82.4973 9.25358 84.9867 6.96143 88.2226 6.96143C91.4117 6.96143 93.7378 9.13897 93.7378 12.507C93.7379 12.7677 93.7223 13.0282 93.6909 13.287H84.9867C85.1743 15.374 86.4761 16.5441 88.2695 16.5441C89.3951 16.5441 90.4062 16.0764 90.8677 15.167H93.2688C92.6648 17.4148 90.6163 18.5165 88.2658 18.5165C84.9867 18.5202 82.4973 16.2483 82.4973 12.7399ZM91.3141 11.4108C91.104 10.0577 89.941 8.95597 88.2414 8.95597C86.7294 8.95597 85.5419 9.82662 85.1236 11.4108H91.3141Z" fill="white"/>
<path d="M106.353 11.1797V18.2891H103.862V11.8193C103.862 10.0299 102.791 9.18147 101.279 9.18147C99.7201 9.18147 98.6714 10.2592 98.6714 12.1391V18.2835H96.1821V7.19247H98.6714V8.45316C99.4218 7.49008 100.557 6.96326 102.001 6.96326C104.524 6.96141 106.353 8.42913 106.353 11.1797Z" fill="white"/>
<path d="M120.573 2.23657V18.289H118.083V16.7529C117.22 17.8768 115.894 18.5201 114.219 18.5201C111.124 18.5201 108.704 16.1577 108.704 12.7398C108.704 9.32191 111.124 6.96136 114.241 6.96136C115.894 6.96136 117.22 7.6028 118.083 8.72669V2.23657H120.573ZM118.083 12.7398C118.083 10.5844 116.663 9.11673 114.707 9.11673C112.821 9.11673 111.261 10.5161 111.261 12.7398C111.261 14.9636 112.821 16.3629 114.707 16.3629C116.663 16.3629 118.083 14.8952 118.083 12.7398Z" fill="white"/>
<path d="M0 13.778L2.90975 12.9541C3.33213 14.4894 4.75572 15.2391 6.46871 15.2391C8.18171 15.2391 9.44625 14.4715 9.44625 13.2381C9.44625 12.0048 8.1426 11.7029 6.40353 11.4291C3.68672 10.9941 0 10.3825 0 6.76187C0 3.69135 2.65162 2 6.11412 2C9.18552 2 11.7094 3.30242 12.4212 6.19127L9.47493 7.01775C9.11773 5.42875 7.63157 4.73021 6.11151 4.73021C4.49238 4.73021 3.55636 5.49784 3.55636 6.6365C3.55636 7.93635 4.71921 8.19223 6.20798 8.44555C8.5363 8.8268 13 9.21318 13 13.1127C13 16.2549 10.0903 18 6.56257 18C3.26695 18 0.64661 16.4775 0 13.778Z" fill="white"/>
<path d="M38.8413 10.9431V18.0525H36.3501V11.5827C36.3501 9.79336 35.2789 8.9449 33.7669 8.9449C32.2081 8.9449 31.1594 10.0226 31.1594 11.9025V18.0488H28.6701V6.95775H31.1594V8.22028C31.9098 7.25721 33.0447 6.72853 34.4873 6.72853C37.001 6.72299 38.8413 8.1907 38.8413 10.9431Z" fill="white"/>
<path d="M53.0607 2V18.0525H50.5695V16.5164C49.7084 17.6403 48.3822 18.2817 46.707 18.2817C43.6117 18.2817 41.1918 15.9193 41.1918 12.5032C41.1918 9.08719 43.6117 6.72295 46.7295 6.72295C48.3822 6.72295 49.7084 7.36623 50.5695 8.49012V2H53.0607ZM50.5695 12.5032C50.5695 10.3479 49.1513 8.88016 47.1928 8.88016C45.3075 8.88016 43.7487 10.2776 43.7487 12.5032C43.7487 14.7288 45.3075 16.1263 47.1928 16.1263C49.1513 16.1263 50.5695 14.6586 50.5695 12.5032Z" fill="white"/>
<path d="M14.9853 12.5033C14.9853 9.01703 17.4747 6.72302 20.7106 6.72302C23.8996 6.72302 26.2258 8.90242 26.2258 12.2686C26.2259 12.5293 26.2102 12.7898 26.1789 13.0486H17.4747C17.6622 15.1356 18.9641 16.3039 20.7575 16.3039C21.883 16.3039 22.8923 15.838 23.3556 14.9286H25.7606C25.1546 17.1764 23.108 18.2762 20.7575 18.2762C17.4747 18.2818 14.9853 16.0118 14.9853 12.5033ZM23.8021 11.1724C23.592 9.81928 22.4289 8.71941 20.7294 8.71941C19.2174 8.71941 18.0299 9.59006 17.6116 11.1724H23.8021Z" fill="white"/>
</svg>
