<svg width="68" height="92" viewBox="0 0 68 92" fill="none" xmlns="http://www.w3.org/2000/svg">
<path d="M65.5466 17.1849L35.2983 0V36.7535L67.4354 55.027V20.4033C67.4348 19.751 67.26 19.1104 66.9285 18.5455C66.597 17.9806 66.1204 17.5114 65.5466 17.1849V17.1849Z" fill="#0FCFB0"/>
<path d="M32.1371 0L1.88887 17.1849C1.31504 17.5114 0.838489 17.9806 0.506976 18.5455C0.175463 19.1104 0.00063091 19.751 0 20.4033L0 55.027L32.1371 36.7535V0Z" fill="#0FCFB0"/>
<path d="M65.8395 57.6172L33.7199 39.3652L1.59595 57.6172L26.3699 71.7041V88.5147C25.1631 87.4396 23.5858 86.8566 21.9582 86.884C18.7488 86.884 16.1473 88.9407 16.1473 91.4793H29.4568V73.4639L31.9622 74.8666C32.4873 75.1876 33.0931 75.3577 33.7112 75.3577C34.3293 75.3577 34.9351 75.1876 35.4601 74.8666L37.9655 73.4467V91.4621H51.2882C51.2882 88.9235 48.6648 86.8668 45.4773 86.8668C43.8496 86.8394 42.2723 87.4224 41.0655 88.4975V71.7041L65.8395 57.6172Z" fill="#0FCFB0"/>
<path d="M51.3669 23.8369C49.2987 23.8369 47.6154 25.2309 47.6154 27.4253C47.6154 29.5121 49.2987 30.9578 51.3669 30.9578C51.8509 30.9751 52.3335 30.8967 52.7862 30.7274C53.2389 30.558 53.6525 30.3011 54.0026 29.9718C54.3527 29.6425 54.6323 29.2475 54.8246 28.8101C55.017 28.3727 55.1184 27.9019 55.1227 27.4253C55.1227 25.2309 53.3825 23.8369 51.3669 23.8369Z" fill="white"/>
<path d="M16.0685 23.8369C14.0528 23.8369 12.3126 25.2309 12.3126 27.4253C12.3141 27.9037 12.4133 28.3769 12.6044 28.8168C12.7955 29.2567 13.0745 29.6542 13.4249 29.9858C13.7754 30.3174 14.19 30.5762 14.6441 30.7469C15.0983 30.9176 15.5827 30.9966 16.0685 30.9793C18.1367 30.9793 19.82 29.5336 19.82 27.4468C19.82 25.2309 18.1367 23.8369 16.0685 23.8369Z" fill="white"/>
<path d="M33.7199 61.2791C28.5561 61.2791 24.5379 58.3059 23.2 53.8569H20.0431C21.451 60.0571 26.7722 64.278 33.7199 64.278C40.6677 64.278 45.9845 60.0571 47.3924 53.8569H44.2355C42.8976 58.3059 38.8837 61.2791 33.7199 61.2791Z" fill="white"/>
</svg>
