<svg width="149" height="44" viewBox="0 0 149 44" fill="none" xmlns="http://www.w3.org/2000/svg">
<g clip-path="url(#clip0_86_2131)">
<path d="M54.1416 16.4339C53.7492 16.3006 52.9209 16.2117 52.0924 16.2117C49.6069 16.2117 46.9471 18.2626 46.9471 20.7942V32.8676H41.2788V11.3261H46.7292V13.5024C47.9936 11.9034 50.3045 10.8818 52.8772 10.8818C53.5205 10.8866 54.1622 10.946 54.7958 11.0595L54.1416 16.4339Z" fill="#263238"/>
<path d="M60.551 0C62.6004 0 64.2573 1.59896 64.2573 3.68652C64.2573 5.77409 62.6004 7.37293 60.551 7.37293C58.5016 7.37293 56.8447 5.77409 56.8447 3.68652C56.8447 1.59896 58.5017 0 60.551 0ZM63.3852 32.8676H57.7168V11.326H63.3852V32.8675V32.8676Z" fill="#263238"/>
<path d="M80.1293 10.8807C77.8797 10.8517 75.6904 11.6219 73.9379 13.0591V11.3258H68.4863V43.5262H74.1552V31.3577C75.7674 32.655 77.7698 33.3455 79.8241 33.3124C82.9638 33.3124 85.9716 31.8899 87.8466 29.6691C89.5043 27.7145 90.5053 25.0509 90.5053 22.1189C90.5054 15.7674 85.8838 10.8807 80.1293 10.8807ZM79.4404 28.0701C75.9192 28.0701 73.605 25.5949 73.605 22.1377C73.605 18.6805 75.9192 16.2054 79.4404 16.2054C82.4459 16.2054 84.8827 18.8619 84.8827 22.1377C84.8827 25.4136 82.4459 28.0701 79.4404 28.0701Z" fill="#263238"/>
<path d="M124.909 32.8674H119.24V1.33228H124.909V32.8675V32.8674Z" fill="#263238"/>
<path d="M148.018 29.4476C145.969 31.9348 142.611 33.3117 139.341 33.3117C133.019 33.3117 128.266 28.8703 128.266 22.1191C128.266 16.1229 132.278 10.8818 138.557 10.8818C144.399 10.8818 148.542 15.9008 148.542 21.8969C148.545 22.4476 148.501 22.9975 148.411 23.5404H133.76C134.065 26.5605 136.464 28.6481 139.472 28.6481C141.87 28.6481 143.789 27.2712 144.792 26.1608L148.018 29.4476ZM142.742 19.3209C142.568 17.411 140.868 15.5456 138.557 15.5456C136.202 15.5456 134.283 17.3667 134.022 19.3209H142.742Z" fill="#263238"/>
<path d="M105.507 10.8807C103.257 10.8517 101.068 11.622 99.3154 13.0591V11.3258H93.8638V43.5262H99.5327V31.3577C101.145 32.655 103.147 33.3455 105.202 33.3124C108.341 33.3124 111.349 31.8899 113.224 29.6691C114.882 27.7145 115.883 25.0509 115.883 22.1189C115.883 15.7674 111.261 10.8807 105.507 10.8807ZM104.818 28.0701C101.297 28.0701 98.9824 25.5949 98.9824 22.1377C98.9824 18.6805 101.297 16.2054 104.818 16.2054C107.823 16.2054 110.26 18.8618 110.26 22.1377C110.26 25.4136 107.823 28.0701 104.818 28.0701Z" fill="#263238"/>
<path d="M29.5933 25.0195C28.3135 24.2668 26.8722 24.0486 25.4447 23.9978C24.2469 23.9552 22.46 23.1734 22.46 20.954C22.46 19.3003 23.7759 17.9695 25.4453 17.9101C26.8727 17.8594 28.3138 17.6409 29.5933 16.8884C30.7426 16.2125 31.697 15.2404 32.3605 14.0696C33.0241 12.8989 33.3734 11.5709 33.3734 10.2191C33.3734 8.86724 33.024 7.53923 32.3605 6.36852C31.6969 5.19781 30.7425 4.22565 29.5932 3.54975C28.4439 2.87386 27.1402 2.51804 25.8131 2.51807C24.486 2.51809 23.1823 2.87396 22.033 3.54991C20.8837 4.22585 19.9293 5.19805 19.2658 6.36879C18.6023 7.53953 18.253 8.86755 18.2531 10.2194C18.2531 11.7114 18.774 13.0845 19.4388 14.358C19.9979 15.4291 20.2807 17.4171 18.3632 18.5448C16.9368 19.3837 15.1566 18.8525 14.2674 17.4029C13.5163 16.1785 12.6096 15.0313 11.3402 14.2847C10.1909 13.6087 8.88723 13.2529 7.56015 13.2529C6.23307 13.2529 4.92936 13.6087 3.78008 14.2846C2.63079 14.9605 1.67641 15.9327 1.01287 17.1034C0.349326 18.2741 0 19.6021 0 20.9539C0 22.3057 0.349326 23.6337 1.01287 24.8044C1.67641 25.9751 2.63079 26.9473 3.78008 27.6232C4.92936 28.2991 6.23307 28.6549 7.56015 28.6549C8.88723 28.6549 10.1909 28.2991 11.3402 27.6232C12.6093 26.8768 13.516 25.7303 14.2667 24.5067C14.883 23.5019 16.4224 22.2211 18.3631 23.3633C19.7874 24.2015 20.2277 26.0381 19.4381 27.5508C18.7735 28.8241 18.2532 30.1969 18.2532 31.6887C18.2532 33.0405 18.6025 34.3685 19.266 35.5392C19.9296 36.7099 20.8839 37.682 22.0332 38.3579C23.1825 39.0338 24.4862 39.3897 25.8132 39.3897C27.1403 39.3897 28.444 39.0338 29.5932 38.3579C30.7425 37.682 31.6969 36.7099 32.3604 35.5392C33.024 34.3685 33.3733 33.0405 33.3733 31.6887C33.3733 30.3369 33.024 29.009 32.3604 27.8383C31.6969 26.6676 30.7425 25.6954 29.5933 25.0195Z" fill="url(#paint0_linear_86_2131)"/>
</g>
<defs>
<linearGradient id="paint0_linear_86_2131" x1="9.41196" y1="8.17634" x2="34.9627" y2="33.2597" gradientUnits="userSpaceOnUse">
<stop stop-color="#00AAE4"/>
<stop offset="1" stop-color="#006097"/>
</linearGradient>
<clipPath id="clip0_86_2131">
<rect width="148.542" height="43.5262" fill="white"/>
</clipPath>
</defs>
</svg>
