<svg width="140" height="49" viewBox="0 0 140 49" fill="none" xmlns="http://www.w3.org/2000/svg">
<path d="M0 39.527L5.9407 37.7619C6.80306 41.0509 9.70953 42.6571 13.2069 42.6571C16.7042 42.6571 19.286 41.0126 19.286 38.3704C19.286 35.7282 16.6244 35.0813 13.0738 34.4948C7.52701 33.5629 0 32.2527 0 24.4961C0 17.918 5.4137 14.2946 12.4829 14.2946C18.7537 14.2946 23.9065 17.0848 25.3598 23.2736L19.3445 25.0442C18.6152 21.6401 15.581 20.1436 12.4776 20.1436C9.17188 20.1436 7.26085 21.7881 7.26085 24.2275C7.26085 27.0122 9.635 27.5604 12.6746 28.1031C17.4282 28.9198 26.5415 29.7476 26.5415 38.1018C26.5415 44.8333 20.6008 48.5719 13.3985 48.5719C6.66998 48.5719 1.32015 45.3102 0 39.527Z" fill="#263238"/>
<path d="M98.868 26.8091V47.8919H91.7988V28.7058C91.7988 23.3994 88.7592 20.8833 84.4687 20.8833C80.0452 20.8833 77.0695 24.0792 77.0695 29.6541V47.8809H70.0056V14.9905H77.0695V18.7345C79.1988 15.8785 82.4193 14.3107 86.5128 14.3107C93.6459 14.2943 98.868 18.6468 98.868 26.8091Z" fill="#263238"/>
<path d="M139.218 0.28833V47.8918H132.149V43.3364C129.706 46.6693 125.942 48.5715 121.189 48.5715C112.405 48.5715 105.538 41.5658 105.538 31.4356C105.538 21.3053 112.405 14.2942 121.253 14.2942C125.942 14.2942 129.706 16.2018 132.149 19.5347V0.28833H139.218ZM132.149 31.4356C132.149 25.0439 128.125 20.6914 122.567 20.6914C117.218 20.6914 112.794 24.8356 112.794 31.4356C112.794 38.0356 117.218 42.1798 122.567 42.1798C128.125 42.1798 132.149 37.8273 132.149 31.4356Z" fill="#263238"/>
<path d="M31.1724 31.436C31.1724 21.0974 38.2363 14.2946 47.4188 14.2946C56.4682 14.2946 63.069 20.7575 63.069 30.7398C63.0693 31.5129 63.0248 32.2854 62.9359 33.0531H38.2363C38.7686 39.242 42.4629 42.7064 47.5519 42.7064C50.7458 42.7064 53.6097 41.325 54.9245 38.628H61.7489C60.0295 45.2938 54.2218 48.5554 47.5519 48.5554C38.2363 48.5719 31.1724 41.8403 31.1724 31.436ZM56.1914 27.4891C55.5952 23.4765 52.2948 20.2148 47.472 20.2148C43.1815 20.2148 39.8119 22.7967 38.6249 27.4891H56.1914Z" fill="#263238"/>
</svg>
