<svg width="204" height="62" viewBox="0 0 204 62" fill="none" xmlns="http://www.w3.org/2000/svg">
<g filter="url(#filter0_d_118_308)">
<rect x="4" width="196" height="54" fill="#0FCFB0"/>
<path d="M85.7853 32.168C85.0107 32.168 84.2593 32.0653 83.5313 31.86C82.8127 31.6453 82.234 31.37 81.7953 31.034L82.5653 29.326C82.9853 29.634 83.4847 29.8813 84.0633 30.068C84.642 30.2547 85.2207 30.348 85.7993 30.348C86.4433 30.348 86.9193 30.2547 87.2273 30.068C87.5353 29.872 87.6893 29.6153 87.6893 29.298C87.6893 29.0647 87.596 28.8733 87.4093 28.724C87.232 28.5653 86.9987 28.4393 86.7093 28.346C86.4293 28.2527 86.0467 28.15 85.5613 28.038C84.8147 27.8607 84.2033 27.6833 83.7273 27.506C83.2513 27.3287 82.8407 27.044 82.4953 26.652C82.1593 26.26 81.9913 25.7373 81.9913 25.084C81.9913 24.5147 82.1453 24.0013 82.4533 23.544C82.7613 23.0773 83.2233 22.7087 83.8393 22.438C84.4647 22.1673 85.2253 22.032 86.1213 22.032C86.7467 22.032 87.358 22.1067 87.9553 22.256C88.5527 22.4053 89.0753 22.62 89.5233 22.9L88.8233 24.622C87.918 24.1087 87.0127 23.852 86.1073 23.852C85.4727 23.852 85.0013 23.9547 84.6933 24.16C84.3947 24.3653 84.2453 24.636 84.2453 24.972C84.2453 25.308 84.418 25.56 84.7633 25.728C85.118 25.8867 85.6547 26.0453 86.3733 26.204C87.12 26.3813 87.7313 26.5587 88.2073 26.736C88.6833 26.9133 89.0893 27.1933 89.4253 27.576C89.7707 27.9587 89.9433 28.4767 89.9433 29.13C89.9433 29.69 89.7847 30.2033 89.4673 30.67C89.1593 31.1273 88.6927 31.4913 88.0673 31.762C87.442 32.0327 86.6813 32.168 85.7853 32.168ZM99.0811 30.18V32H91.4931V22.2H98.8991V24.02H93.7471V26.148H98.2971V27.912H93.7471V30.18H99.0811ZM109.874 22.2V32H108.012L103.126 26.05V32H100.886V22.2H102.762L107.634 28.15V22.2H109.874ZM112.192 22.2H116.644C117.708 22.2 118.646 22.4053 119.458 22.816C120.28 23.2173 120.914 23.7867 121.362 24.524C121.82 25.2613 122.048 26.12 122.048 27.1C122.048 28.08 121.82 28.9387 121.362 29.676C120.914 30.4133 120.28 30.9873 119.458 31.398C118.646 31.7993 117.708 32 116.644 32H112.192V22.2ZM116.532 30.138C117.512 30.138 118.292 29.8673 118.87 29.326C119.458 28.7753 119.752 28.0333 119.752 27.1C119.752 26.1667 119.458 25.4293 118.87 24.888C118.292 24.3373 117.512 24.062 116.532 24.062H114.46V30.138H116.532Z" fill="white"/>
</g>
<defs>
<filter id="filter0_d_118_308" x="0" y="0" width="204" height="62" filterUnits="userSpaceOnUse" color-interpolation-filters="sRGB">
<feFlood flood-opacity="0" result="BackgroundImageFix"/>
<feColorMatrix in="SourceAlpha" type="matrix" values="0 0 0 0 0 0 0 0 0 0 0 0 0 0 0 0 0 0 127 0" result="hardAlpha"/>
<feOffset dy="4"/>
<feGaussianBlur stdDeviation="2"/>
<feComposite in2="hardAlpha" operator="out"/>
<feColorMatrix type="matrix" values="0 0 0 0 0 0 0 0 0 0 0 0 0 0 0 0 0 0 0.25 0"/>
<feBlend mode="normal" in2="BackgroundImageFix" result="effect1_dropShadow_118_308"/>
<feBlend mode="normal" in="SourceGraphic" in2="effect1_dropShadow_118_308" result="shape"/>
</filter>
</defs>
</svg>
