<svg width="110" height="38" viewBox="0 0 110 38" fill="none" xmlns="http://www.w3.org/2000/svg">
<g filter="url(#filter0_d_182_620)">
<rect x="4" width="102" height="30" fill="#0FCFB0"/>
<path d="M41.1017 19.144C40.4377 19.144 39.7937 19.056 39.1697 18.88C38.5537 18.696 38.0577 18.46 37.6817 18.172L38.3417 16.708C38.7017 16.972 39.1297 17.184 39.6257 17.344C40.1217 17.504 40.6177 17.584 41.1137 17.584C41.6657 17.584 42.0737 17.504 42.3377 17.344C42.6017 17.176 42.7337 16.956 42.7337 16.684C42.7337 16.484 42.6537 16.32 42.4937 16.192C42.3417 16.056 42.1417 15.948 41.8937 15.868C41.6537 15.788 41.3257 15.7 40.9097 15.604C40.2697 15.452 39.7457 15.3 39.3377 15.148C38.9297 14.996 38.5777 14.752 38.2817 14.416C37.9937 14.08 37.8497 13.632 37.8497 13.072C37.8497 12.584 37.9817 12.144 38.2457 11.752C38.5097 11.352 38.9057 11.036 39.4337 10.804C39.9697 10.572 40.6217 10.456 41.3897 10.456C41.9257 10.456 42.4497 10.52 42.9617 10.648C43.4737 10.776 43.9217 10.96 44.3057 11.2L43.7057 12.676C42.9297 12.236 42.1537 12.016 41.3777 12.016C40.8337 12.016 40.4297 12.104 40.1657 12.28C39.9097 12.456 39.7817 12.688 39.7817 12.976C39.7817 13.264 39.9297 13.48 40.2257 13.624C40.5297 13.76 40.9897 13.896 41.6057 14.032C42.2457 14.184 42.7697 14.336 43.1777 14.488C43.5857 14.64 43.9337 14.88 44.2217 15.208C44.5177 15.536 44.6657 15.98 44.6657 16.54C44.6657 17.02 44.5297 17.46 44.2577 17.86C43.9937 18.252 43.5937 18.564 43.0577 18.796C42.5217 19.028 41.8697 19.144 41.1017 19.144ZM52.498 17.44V19H45.994V10.6H52.342V12.16H47.926V13.984H51.826V15.496H47.926V17.44H52.498ZM61.7488 10.6V19H60.1528L55.9648 13.9V19H54.0448V10.6H55.6528L59.8288 15.7V10.6H61.7488ZM63.7362 10.6H67.5522C68.4642 10.6 69.2682 10.776 69.9642 11.128C70.6682 11.472 71.2122 11.96 71.5962 12.592C71.9882 13.224 72.1842 13.96 72.1842 14.8C72.1842 15.64 71.9882 16.376 71.5962 17.008C71.2122 17.64 70.6682 18.132 69.9642 18.484C69.2682 18.828 68.4642 19 67.5522 19H63.7362V10.6ZM67.4562 17.404C68.2962 17.404 68.9642 17.172 69.4602 16.708C69.9642 16.236 70.2162 15.6 70.2162 14.8C70.2162 14 69.9642 13.368 69.4602 12.904C68.9642 12.432 68.2962 12.196 67.4562 12.196H65.6802V17.404H67.4562Z" fill="white"/>
</g>
<defs>
<filter id="filter0_d_182_620" x="0" y="0" width="110" height="38" filterUnits="userSpaceOnUse" color-interpolation-filters="sRGB">
<feFlood flood-opacity="0" result="BackgroundImageFix"/>
<feColorMatrix in="SourceAlpha" type="matrix" values="0 0 0 0 0 0 0 0 0 0 0 0 0 0 0 0 0 0 127 0" result="hardAlpha"/>
<feOffset dy="4"/>
<feGaussianBlur stdDeviation="2"/>
<feComposite in2="hardAlpha" operator="out"/>
<feColorMatrix type="matrix" values="0 0 0 0 0 0 0 0 0 0 0 0 0 0 0 0 0 0 0.25 0"/>
<feBlend mode="normal" in2="BackgroundImageFix" result="effect1_dropShadow_182_620"/>
<feBlend mode="normal" in="SourceGraphic" in2="effect1_dropShadow_182_620" result="shape"/>
</filter>
</defs>
</svg>
