<svg width="31" height="33" viewBox="0 0 31 33" fill="none" xmlns="http://www.w3.org/2000/svg">
<path d="M0.0922852 16.6183C0.0922852 6.7347 6.84534 0.23645 15.6238 0.23645C24.275 0.23645 30.5853 6.40978 30.5853 15.958C30.5857 16.6971 30.5432 17.4356 30.4581 18.1695H6.84534C7.35424 24.0861 10.886 27.4033 15.751 27.4033C18.8044 27.4033 21.5473 26.0774 22.7992 23.4991H29.3131C27.6744 29.8716 22.1173 32.9949 15.7408 32.9949C6.84533 33.0054 0.0922852 26.5648 0.0922852 16.6183ZM24.0104 12.8504C23.4404 9.01432 20.2853 5.89097 15.6747 5.89097C11.573 5.89097 8.35166 8.35926 7.21683 12.8504H24.0104Z" fill="#263238"/>
</svg>
