<svg width="3" height="3" viewBox="0 0 3 3" fill="none" xmlns="http://www.w3.org/2000/svg">
<path d="M0.406761 1.0419C0.40586 0.908965 0.431748 0.777176 0.482924 0.654175C0.5341 0.531174 0.609545 0.419408 0.704887 0.325355C0.800229 0.231302 0.913571 0.156834 1.03834 0.10627C1.16311 0.0557063 1.29682 0.0300513 1.43172 0.0307928C1.70714 0.0286854 1.9723 0.133656 2.16969 0.322937C2.36708 0.512218 2.48078 0.770548 2.48614 1.0419C2.47989 1.31166 2.36543 1.568 2.16781 1.75478C1.97019 1.94157 1.70551 2.04358 1.43172 2.0385C1.29769 2.04057 1.16457 2.01631 1.04016 1.96713C0.915741 1.91795 0.80252 1.84483 0.707099 1.75205C0.611678 1.65927 0.535973 1.54869 0.484407 1.42676C0.43284 1.30483 0.406444 1.17399 0.406761 1.0419V1.0419Z" fill="white"/>
</svg>
