<svg width="20" height="26" viewBox="0 0 20 26" fill="none" xmlns="http://www.w3.org/2000/svg">
<path d="M0 18.5572L4.32352 17.2725C4.95113 19.6662 7.0664 20.8352 9.6117 20.8352C12.157 20.8352 14.036 19.6383 14.036 17.7154C14.036 15.7924 12.0989 15.3217 9.51485 14.8948C5.47801 14.2166 0 13.2631 0 7.61795C0 2.83054 3.93998 0.193481 9.08482 0.193481C13.6485 0.193481 17.3987 2.22414 18.4563 6.72829L14.0786 8.0169C13.5478 5.53942 11.3396 4.45028 9.08095 4.45028C6.67512 4.45028 5.28431 5.64713 5.28431 7.42246C5.28431 9.44913 7.01217 9.84808 9.22429 10.243C12.6839 10.8375 19.3164 11.4399 19.3164 17.5199C19.3164 22.419 14.9929 25.1398 9.75117 25.1398C4.85428 25.1398 0.960783 22.7661 0 18.5572Z" fill="#263238"/>
</svg>
