<svg width="14" height="18" viewBox="0 0 14 18" fill="none" xmlns="http://www.w3.org/2000/svg">
<path d="M0 12.672L3.11246 11.7871C3.56427 13.436 5.08703 14.2412 6.91937 14.2412C8.75171 14.2412 10.1043 13.4168 10.1043 12.0921C10.1043 10.7675 8.70987 10.4432 6.84965 10.1491C3.94357 9.68193 0 9.02511 0 5.13639C0 1.83854 2.83636 0.0219727 6.54007 0.0219727C9.82545 0.0219727 12.5252 1.42081 13.2865 4.52354L10.135 5.41121C9.75294 3.70458 8.16324 2.95431 6.53729 2.95431C4.80535 2.95431 3.80412 3.77878 3.80412 5.00173C3.80412 6.39782 5.04799 6.67264 6.64048 6.94472C9.131 7.3542 13.9057 7.76918 13.9057 11.9575C13.9057 15.3323 10.7932 17.2065 7.01977 17.2065C3.49455 17.2065 0.691658 15.5713 0 12.672Z" fill="white"/>
</svg>
