<svg width="8" height="12" viewBox="0 0 8 12" fill="none" xmlns="http://www.w3.org/2000/svg">
<path d="M4.50951 0.252219C3.75372 0.242473 3.0182 0.501259 2.42943 0.984082V0.401752H0.5979V11.2199H2.50243V7.13173C3.04406 7.56757 3.71682 7.79955 4.40697 7.78843C5.46177 7.78843 6.47229 7.31053 7.10223 6.56444C7.65914 5.90774 7.99546 5.01289 7.99546 4.02784C7.99548 1.89397 6.44279 0.252219 4.50951 0.252219ZM4.27804 6.02721C3.09508 6.02721 2.31758 5.19565 2.31758 4.03417C2.31758 2.87268 3.09508 2.04113 4.27804 2.04113C5.28778 2.04113 6.10647 2.9336 6.10647 4.03417C6.10647 5.13473 5.28779 6.02721 4.27804 6.02721V6.02721Z" fill="white"/>
</svg>
