<svg width="23" height="34" viewBox="0 0 23 34" fill="none" xmlns="http://www.w3.org/2000/svg">
<path d="M12.5222 0.956845C10.2726 0.927837 8.08329 1.69812 6.33079 3.13525V1.40194H0.879211V33.6023H6.54808V21.4339C8.16025 22.7312 10.1627 23.4216 12.217 23.3885C15.3566 23.3885 18.3645 21.9661 20.2395 19.7453C21.8971 17.7906 22.8982 15.1271 22.8982 12.1951C22.8983 5.84355 18.2766 0.956845 12.5222 0.956845ZM11.8332 18.1462C8.31213 18.1462 5.99787 15.6711 5.99787 12.2139C5.99787 8.7567 8.31213 6.28157 11.8332 6.28157C14.8388 6.28157 17.2756 8.93804 17.2756 12.2139C17.2756 15.4898 14.8388 18.1462 11.8332 18.1462Z" fill="white"/>
</svg>
