<svg width="7" height="7" viewBox="0 0 7 7" fill="none" xmlns="http://www.w3.org/2000/svg">
<path d="M0.712158 3.46478C0.712158 1.72345 1.95553 0.577637 3.57182 0.577637C5.16468 0.577637 6.32654 1.6662 6.32654 3.34752C6.32658 3.47774 6.31876 3.60785 6.30311 3.73715H1.95553C2.04923 4.77955 2.69949 5.36308 3.59524 5.36308C4.15743 5.36308 4.66152 5.13041 4.89296 4.67614H6.09417C5.79152 5.79887 4.76928 6.34823 3.59524 6.34823C1.95553 6.351 0.712158 5.2172 0.712158 3.46478ZM5.11596 2.80001C5.01102 2.12416 4.43009 1.5748 3.58119 1.5748C2.82598 1.5748 2.23288 2.00967 2.02393 2.80001H5.11596Z" fill="white"/>
</svg>
