<svg width="25" height="26" viewBox="0 0 25 26" fill="none" xmlns="http://www.w3.org/2000/svg">
<path d="M0.5177 13.1483C0.5177 5.74172 5.80627 0.87207 12.681 0.87207C19.4561 0.87207 24.3979 5.49824 24.3979 12.6535C24.3982 13.2074 24.365 13.7608 24.2983 14.3107H5.80627C6.2048 18.7445 8.97063 21.2304 12.7806 21.2304C15.1718 21.2304 17.3199 20.2368 18.3003 18.3046H23.4016C22.1183 23.08 17.7663 25.4206 12.7726 25.4206C5.80626 25.4285 0.5177 20.602 0.5177 13.1483ZM19.2488 10.3247C18.8025 7.45003 16.3316 5.10946 12.7208 5.10946C9.50866 5.10946 6.98592 6.95914 6.09719 10.3247H19.2488Z" fill="white"/>
</svg>
