<svg width="13" height="21" viewBox="0 0 13 21" fill="none" xmlns="http://www.w3.org/2000/svg">
<path d="M8.01042 10.2435L7.19835 10.5307L7.36196 11.3763L8.78165 18.7144L8.78166 18.7145C8.80529 18.8366 8.80163 18.9625 8.77092 19.083C8.74022 19.2036 8.68324 19.3159 8.60405 19.4118C8.52487 19.5078 8.42546 19.585 8.31291 19.6381C8.20037 19.6911 8.0775 19.7186 7.9531 19.7185H7.95288L5.04891 19.7185C5.04863 19.7185 5.04835 19.7185 5.04807 19.7185C4.9241 19.7182 4.80172 19.6905 4.68964 19.6375L4.26204 20.5415L4.68963 19.6375C4.5773 19.5844 4.47809 19.5071 4.3991 19.4112L3.63965 20.0366L4.3991 19.4112C4.3201 19.3152 4.26327 19.2031 4.23266 19.0826C4.20205 18.9622 4.19843 18.8365 4.22204 18.7145L4.22214 18.7139L5.63814 11.3758L5.80125 10.5305L4.98959 10.2435C4.20647 9.96667 3.51452 9.47986 2.98936 8.83633C2.46419 8.19279 2.12602 7.41729 2.0118 6.59455C1.89758 5.77182 2.0117 4.93352 2.34169 4.17126C2.67168 3.409 3.20484 2.75211 3.88291 2.27237C4.56099 1.79263 5.35788 1.50851 6.18652 1.45104C7.01515 1.39358 7.84364 1.56499 8.58144 1.94653C9.31925 2.32808 9.93798 2.90509 10.37 3.6145C10.8021 4.32392 11.0308 5.13844 11.0313 5.96906C11.0317 6.9065 10.7415 7.82103 10.2004 8.58659C9.65941 9.35215 8.89425 9.93106 8.01042 10.2435Z" stroke="#0FCFB0" stroke-width="2"/>
</svg>
