<svg width="8" height="7" viewBox="0 0 8 7" fill="none" xmlns="http://www.w3.org/2000/svg">
<path d="M0.926585 3.32543C0.92376 2.89009 1.00489 2.4585 1.16526 2.05569C1.32563 1.65288 1.56205 1.28686 1.86082 0.97885C2.1596 0.670841 2.51478 0.42697 2.90576 0.261379C3.29675 0.0957891 3.71576 0.0117727 4.13851 0.0142011C5.00159 0.00729956 5.83253 0.351062 6.45108 0.970931C7.06964 1.5908 7.42595 2.4368 7.44273 3.32543C7.42317 4.20887 7.06448 5.04833 6.44519 5.66003C5.8259 6.27172 4.99648 6.60581 4.13851 6.58915C3.71848 6.59594 3.30134 6.51649 2.91146 6.35543C2.52158 6.19437 2.16677 5.95493 1.86775 5.65109C1.56873 5.34725 1.3315 4.9851 1.1699 4.58579C1.00831 4.18648 0.92559 3.75802 0.926585 3.32543Z" fill="#263238"/>
</svg>
