<svg width="7" height="8" viewBox="0 0 7 8" fill="none" xmlns="http://www.w3.org/2000/svg">
<path d="M0.0471191 4.36757C0.0471191 2.26278 1.55001 0.877808 3.50367 0.877808C5.429 0.877808 6.83337 2.19358 6.83337 4.22584C6.83342 4.38324 6.82397 4.5405 6.80506 4.6968H1.55001C1.66327 5.95677 2.44926 6.66209 3.53198 6.66209C4.21151 6.66209 4.82082 6.38086 5.10056 5.83178H6.5525C6.18668 7.18885 4.95107 7.85287 3.53198 7.85287C1.55001 7.85622 0.0471191 6.48576 0.0471191 4.36757ZM5.37011 3.56405C5.24327 2.74713 4.54108 2.0831 3.51499 2.0831C2.60216 2.0831 1.88525 2.60874 1.63269 3.56405H5.37011Z" fill="white"/>
</svg>
