<svg width="8" height="12" viewBox="0 0 8 12" fill="none" xmlns="http://www.w3.org/2000/svg">
<path d="M4.03538 0.252218C3.2796 0.242479 2.54409 0.501265 1.95533 0.984082V0.401752H0.123779V11.2199H2.02832V7.13172C2.56994 7.56757 3.2427 7.79954 3.93286 7.78843C4.98766 7.78843 5.99817 7.31053 6.6281 6.56443C7.18502 5.90774 7.52134 5.01289 7.52134 4.02784C7.52134 1.89397 5.96866 0.252218 4.03538 0.252218ZM3.80392 6.02721C2.62096 6.02721 1.84346 5.19565 1.84346 4.03417C1.84346 2.87268 2.62098 2.04111 3.80392 2.04111C4.81365 2.04111 5.63234 2.93359 5.63234 4.03415C5.63234 5.13472 4.81367 6.02721 3.80392 6.02721Z" fill="white"/>
</svg>
