<svg width="15" height="16" viewBox="0 0 15 16" fill="none" xmlns="http://www.w3.org/2000/svg">
<path d="M9.464 2C10.894 2 12.243 2.613 13.263 3.726L14.738 2.374C13.334 0.843 11.461 0 9.464 0C7.466 0 5.594 0.843 4.192 2.375C3.4936 3.1386 2.94929 4.02993 2.589 5H0V7H2.114C2.076 7.33 2.05 7.663 2.05 8C2.05 8.337 2.076 8.67 2.114 9H0V11H2.589C2.951 11.97 3.49 12.861 4.192 13.626C5.594 15.157 7.466 16 9.464 16C11.461 16 13.334 15.157 14.737 13.626L13.262 12.274C12.243 13.387 10.894 14 9.464 14C8.034 14 6.686 13.388 5.666 12.274C5.32358 11.8887 5.0328 11.4604 4.801 11H9V9H4.139C4.089 8.672 4.05 8.34 4.05 8C4.05 7.66 4.089 7.328 4.139 7H9V5H4.801C5.041 4.543 5.317 4.107 5.666 3.726C6.686 2.613 8.034 2 9.464 2Z" fill="#0FCFB0"/>
</svg>
