<svg width="3" height="3" viewBox="0 0 3 3" fill="none" xmlns="http://www.w3.org/2000/svg">
<path d="M0.406517 1.0419C0.405615 0.908965 0.431504 0.777176 0.48268 0.654175C0.533856 0.531174 0.609301 0.419408 0.704643 0.325355C0.799984 0.231302 0.913327 0.156834 1.0381 0.10627C1.16286 0.0557063 1.29657 0.0300513 1.43148 0.0307928C1.7069 0.0286854 1.97206 0.133656 2.16945 0.322937C2.36683 0.512218 2.48054 0.770548 2.48589 1.0419C2.47965 1.31166 2.36519 1.568 2.16757 1.75478C1.96994 1.94157 1.70527 2.04358 1.43148 2.0385C1.29744 2.04057 1.16433 2.01631 1.03991 1.96713C0.915497 1.91795 0.802276 1.84483 0.706855 1.75205C0.611434 1.65927 0.535729 1.54869 0.484162 1.42676C0.432596 1.30483 0.406199 1.17399 0.406517 1.0419V1.0419Z" fill="white"/>
</svg>
