<svg width="34" height="38" viewBox="0 0 34 38" fill="none" xmlns="http://www.w3.org/2000/svg">
<path d="M29.5933 23.0195C28.3135 22.2668 26.8722 22.0486 25.4446 21.9978C24.2469 21.9552 22.46 21.1734 22.46 18.954C22.46 17.3003 23.7759 15.9695 25.4453 15.9101C26.8727 15.8594 28.3138 15.6409 29.5933 14.8884C30.7426 14.2125 31.697 13.2404 32.3605 12.0696C33.0241 10.8989 33.3734 9.5709 33.3734 8.21907C33.3734 6.86724 33.024 5.53923 32.3605 4.36852C31.6969 3.19781 30.7425 2.22565 29.5932 1.54975C28.4439 0.873856 27.1402 0.518039 25.8131 0.518066C24.486 0.518093 23.1823 0.873963 22.033 1.54991C20.8837 2.22585 19.9293 3.19805 19.2658 4.36879C18.6023 5.53953 18.253 6.86755 18.2531 8.21938C18.2531 9.71145 18.774 11.0845 19.4388 12.358C19.9979 13.4291 20.2807 15.4171 18.3632 16.5448C16.9368 17.3837 15.1566 16.8525 14.2674 15.4029C13.5163 14.1785 12.6096 13.0313 11.3402 12.2847C10.1909 11.6087 8.88723 11.2529 7.56015 11.2529C6.23307 11.2529 4.92936 11.6087 3.78008 12.2846C2.63079 12.9605 1.67641 13.9327 1.01287 15.1034C0.349326 16.2741 0 17.6021 0 18.9539C0 20.3057 0.349326 21.6337 1.01287 22.8044C1.67641 23.9751 2.63079 24.9473 3.78008 25.6232C4.92936 26.2991 6.23307 26.6549 7.56015 26.6549C8.88723 26.6549 10.1909 26.2991 11.3402 25.6232C12.6093 24.8768 13.516 23.7303 14.2667 22.5067C14.883 21.5019 16.4224 20.2211 18.3631 21.3633C19.7874 22.2016 20.2277 24.0381 19.4381 25.5508C18.7735 26.8241 18.2532 28.1969 18.2532 29.6887C18.2532 31.0405 18.6025 32.3685 19.266 33.5392C19.9296 34.7099 20.8839 35.682 22.0332 36.3579C23.1825 37.0338 24.4862 37.3897 25.8132 37.3897C27.1403 37.3897 28.444 37.0338 29.5932 36.3579C30.7425 35.682 31.6969 34.7099 32.3604 33.5392C33.024 32.3685 33.3733 31.0405 33.3733 29.6887C33.3733 28.3369 33.024 27.009 32.3604 25.8383C31.6969 24.6676 30.7425 23.6954 29.5933 23.0195V23.0195Z" fill="url(#paint0_linear_86_2138)"/>
<defs>
<linearGradient id="paint0_linear_86_2138" x1="9.41196" y1="6.17634" x2="34.9627" y2="31.2597" gradientUnits="userSpaceOnUse">
<stop stop-color="#00AAE4"/>
<stop offset="1" stop-color="#006097"/>
</linearGradient>
</defs>
</svg>
