<svg width="16" height="109" viewBox="0 0 16 109" fill="none" xmlns="http://www.w3.org/2000/svg">
<path d="M8.35355 0.646447C8.15829 0.451184 7.8417 0.451184 7.64644 0.646447L4.46446 3.82843C4.2692 4.02369 4.2692 4.34027 4.46446 4.53553C4.65972 4.7308 4.97631 4.7308 5.17157 4.53553L8 1.70711L10.8284 4.53553C11.0237 4.7308 11.3403 4.7308 11.5355 4.53553C11.7308 4.34027 11.7308 4.02369 11.5355 3.82843L8.35355 0.646447ZM8.5 109L8.5 108L7.5 108L7.5 109L8.5 109ZM8.5 106L8.5 104L7.5 104L7.5 106L8.5 106ZM8.5 102L8.5 100L7.5 100L7.5 102L8.5 102ZM8.5 98L8.5 96L7.5 96L7.5 98L8.5 98ZM8.5 94L8.5 92L7.5 92L7.5 94L8.5 94ZM8.5 90L8.5 88L7.5 88L7.5 90L8.5 90ZM8.5 86L8.5 84L7.5 84L7.5 86L8.5 86ZM8.5 82L8.5 80L7.5 80L7.5 82L8.5 82ZM8.5 78L8.5 76L7.5 76L7.5 78L8.5 78ZM8.5 74L8.5 72L7.5 72L7.5 74L8.5 74ZM8.5 70L8.5 68L7.5 68L7.5 70L8.5 70ZM8.5 66L8.5 64L7.5 64L7.5 66L8.5 66ZM8.5 62L8.5 60L7.5 60L7.5 62L8.5 62ZM8.5 58L8.5 56L7.5 56L7.5 58L8.5 58ZM8.5 54L8.5 52L7.5 52L7.5 54L8.5 54ZM8.5 50L8.5 48L7.5 48L7.5 50L8.5 50ZM8.5 46L8.5 44L7.5 44L7.5 46L8.5 46ZM8.5 42L8.5 40L7.5 40L7.5 42L8.5 42ZM8.5 38L8.5 36L7.5 36L7.5 38L8.5 38ZM8.5 34L8.5 32L7.5 32L7.5 34L8.5 34ZM8.5 30L8.5 28L7.5 28L7.5 30L8.5 30ZM8.5 26L8.5 24L7.5 24L7.5 26L8.5 26ZM8.5 22L8.5 20L7.5 20L7.5 22L8.5 22ZM8.5 18L8.5 16L7.5 16L7.5 18L8.5 18ZM8.5 14L8.5 12L7.5 12L7.5 14L8.5 14ZM8.5 10L8.5 8L7.5 8L7.5 10L8.5 10ZM8.5 6L8.5 4L7.5 4L7.5 6L8.5 6ZM8.5 2L8.5 1L7.5 1L7.5 2L8.5 2ZM8.7071 0.292893C8.31658 -0.0976311 7.68341 -0.0976311 7.29289 0.292893L0.928928 6.65685C0.538403 7.04738 0.538403 7.68054 0.928928 8.07107C1.31945 8.46159 1.95262 8.46159 2.34314 8.07107L8 2.41421L13.6568 8.07107C14.0474 8.46159 14.6805 8.46159 15.0711 8.07107C15.4616 7.68054 15.4616 7.04738 15.0711 6.65685L8.7071 0.292893ZM9 109L9 108L7 108L7 109L9 109ZM9 106L9 104L7 104L7 106L9 106ZM9 102L9 100L7 100L7 102L9 102ZM9 98L9 96L7 96L7 98L9 98ZM9 94L9 92L7 92L7 94L9 94ZM9 90L9 88L7 88L7 90L9 90ZM9 86L9 84L7 84L7 86L9 86ZM9 82L9 80L7 80L7 82L9 82ZM9 78L9 76L7 76L7 78L9 78ZM9 74L9 72L7 72L7 74L9 74ZM9 70L9 68L7 68L7 70L9 70ZM9 66L9 64L7 64L7 66L9 66ZM9 62L9 60L7 60L7 62L9 62ZM9 58L9 56L7 56L7 58L9 58ZM9 54L9 52L7 52L7 54L9 54ZM9 50L9 48L7 48L7 50L9 50ZM9 46L9 44L7 44L7 46L9 46ZM9 42L9 40L7 40L7 42L9 42ZM9 38L9 36L7 36L7 38L9 38ZM9 34L9 32L7 32L7 34L9 34ZM9 30L9 28L7 28L7 30L9 30ZM9 26L9 24L7 24L7 26L9 26ZM9 22L9 20L7 20L7 22L9 22ZM9 18L9 16L7 16L7 18L9 18ZM9 14L9 12L7 12L7 14L9 14ZM9 10L9 8L7 8L7 10L9 10ZM9 6L9 4L7 4L7 6L9 6ZM9 2L9 1L7 1L7 2L9 2Z" fill="#263238"/>
</svg>
