<svg width="80" height="74" viewBox="0 0 80 74" fill="none" xmlns="http://www.w3.org/2000/svg">
<path d="M79.3504 1.75668C79.3624 1.48079 79.1484 1.24746 78.8725 1.23551L74.3768 1.04081C74.1009 1.02886 73.8675 1.24283 73.8556 1.51871C73.8437 1.79459 74.0576 2.02793 74.3335 2.03988L78.3298 2.21294L78.1567 6.2092C78.1447 6.48508 78.3587 6.71841 78.6346 6.73036C78.9105 6.74231 79.1438 6.52835 79.1557 6.25246L79.3504 1.75668ZM1.37394 73.4584L2.12216 72.7723L1.44631 72.0352L0.698085 72.7213L1.37394 73.4584ZM3.6186 71.4001L5.11504 70.0278L4.43919 69.2908L2.94275 70.663L3.6186 71.4001ZM6.61148 68.6556L8.10792 67.2834L7.43207 66.5464L5.93563 67.9186L6.61148 68.6556ZM9.60436 65.9112L11.1008 64.539L10.4249 63.802L8.92851 65.1742L9.60436 65.9112ZM12.5972 63.1668L14.0937 61.7946L13.4178 61.0576L11.9214 62.4298L12.5972 63.1668ZM15.5901 60.4224L17.0866 59.0502L16.4107 58.3131L14.9143 59.6854L15.5901 60.4224ZM18.583 57.678L20.0794 56.3058L19.4036 55.5687L17.9072 56.9409L18.583 57.678ZM21.5759 54.9336L23.0723 53.5614L22.3965 52.8243L20.9 54.1965L21.5759 54.9336ZM24.5688 52.1891L26.0652 50.8169L25.3894 50.0799L23.8929 51.4521L24.5688 52.1891ZM27.5616 49.4447L29.0581 48.0725L28.3822 47.3355L26.8858 48.7077L27.5616 49.4447ZM30.5545 46.7003L32.051 45.3281L31.3751 44.5911L29.8787 45.9633L30.5545 46.7003ZM33.5474 43.9559L35.0438 42.5837L34.368 41.8467L32.8716 43.2189L33.5474 43.9559ZM36.5403 41.2115L38.0367 39.8393L37.3609 39.1022L35.8644 40.4744L36.5403 41.2115ZM39.5332 38.4671L41.0296 37.0949L40.3538 36.3578L38.8573 37.73L39.5332 38.4671ZM42.526 35.7227L44.0225 34.3504L43.3466 33.6134L41.8502 34.9856L42.526 35.7227ZM45.5189 32.9782L47.0154 31.606L46.3395 30.869L44.8431 32.2412L45.5189 32.9782ZM48.5118 30.2338L50.0083 28.8616L49.3324 28.1246L47.836 29.4968L48.5118 30.2338ZM51.5047 27.4894L53.0011 26.1172L52.3253 25.3802L50.8288 26.7524L51.5047 27.4894ZM54.4976 24.745L55.994 23.3728L55.3182 22.6357L53.8217 24.0079L54.4976 24.745ZM57.4905 22.0006L58.9869 20.6284L58.311 19.8913L56.8146 21.2635L57.4905 22.0006ZM60.4833 19.2562L61.9798 17.884L61.3039 17.1469L59.8075 18.5191L60.4833 19.2562ZM63.4762 16.5117L64.9727 15.1395L64.2968 14.4025L62.8004 15.7747L63.4762 16.5117ZM66.4691 13.7673L67.9655 12.3951L67.2897 11.6581L65.7932 13.0303L66.4691 13.7673ZM69.462 11.0229L70.9584 9.6507L70.2826 8.91367L68.7861 10.2859L69.462 11.0229ZM72.4549 8.2785L73.9513 6.90629L73.2755 6.16925L71.779 7.54146L72.4549 8.2785ZM75.4477 5.53408L76.9442 4.16187L76.2683 3.42484L74.7719 4.79704L75.4477 5.53408ZM78.4406 2.78967L79.1888 2.10356L78.513 1.36652L77.7648 2.05263L78.4406 2.78967ZM79.85 1.77831C79.8739 1.22654 79.446 0.759876 78.8942 0.73598L69.9026 0.346581C69.3508 0.322686 68.8842 0.750611 68.8603 1.30238C68.8364 1.85415 69.2643 2.32081 69.8161 2.34471L77.8086 2.69084L77.4625 10.6833C77.4386 11.2351 77.8665 11.7018 78.4183 11.7257C78.97 11.7496 79.4367 11.3216 79.4606 10.7699L79.85 1.77831ZM1.71186 73.8269L2.46008 73.1408L1.10838 71.6667L0.36016 72.3528L1.71186 73.8269ZM3.95652 71.7686L5.45296 70.3964L4.10126 68.9223L2.60482 70.2945L3.95652 71.7686ZM6.9494 69.0242L8.44584 67.6519L7.09414 66.1779L5.5977 67.5501L6.9494 69.0242ZM9.94228 66.2797L11.4387 64.9075L10.087 63.4335L8.59058 64.8057L9.94228 66.2797ZM12.9352 63.5353L14.4316 62.1631L13.0799 60.689L11.5835 62.0612L12.9352 63.5353ZM15.928 60.7909L17.4245 59.4187L16.0728 57.9446L14.5763 59.3168L15.928 60.7909ZM18.9209 58.0465L20.4174 56.6743L19.0657 55.2002L17.5692 56.5724L18.9209 58.0465ZM21.9138 55.3021L23.4102 53.9299L22.0585 52.4558L20.5621 53.828L21.9138 55.3021ZM24.9067 52.5577L26.4031 51.1855L25.0514 49.7114L23.555 51.0836L24.9067 52.5577ZM27.8996 49.8132L29.396 48.441L28.0443 46.967L26.5479 48.3392L27.8996 49.8132ZM30.8925 47.0688L32.3889 45.6966L31.0372 44.2225L29.5407 45.5948L30.8925 47.0688ZM33.8853 44.3244L35.3818 42.9522L34.0301 41.4781L32.5336 42.8503L33.8853 44.3244ZM36.8782 41.58L38.3747 40.2078L37.023 38.7337L35.5265 40.1059L36.8782 41.58ZM39.8711 38.8356L41.3675 37.4634L40.0158 35.9893L38.5194 37.3615L39.8711 38.8356ZM42.864 36.0912L44.3604 34.719L43.0087 33.2449L41.5123 34.6171L42.864 36.0912ZM45.8569 33.3468L47.3533 31.9745L46.0016 30.5005L44.5052 31.8727L45.8569 33.3468ZM48.8497 30.6023L50.3462 29.2301L48.9945 27.7561L47.498 29.1283L48.8497 30.6023ZM51.8426 27.8579L53.3391 26.4857L51.9874 25.0116L50.4909 26.3838L51.8426 27.8579ZM54.8355 25.1135L56.3319 23.7413L54.9802 22.2672L53.4838 23.6394L54.8355 25.1135ZM57.8284 22.3691L59.3248 20.9969L57.9731 19.5228L56.4767 20.895L57.8284 22.3691ZM60.8213 19.6247L62.3177 18.2525L60.966 16.7784L59.4696 18.1506L60.8213 19.6247ZM63.8141 16.8803L65.3106 15.5081L63.9589 14.034L62.4624 15.4062L63.8141 16.8803ZM66.807 14.1358L68.3035 12.7636L66.9518 11.2896L65.4553 12.6618L66.807 14.1358ZM69.7999 11.3914L71.2963 10.0192L69.9446 8.54515L68.4482 9.91735L69.7999 11.3914ZM72.7928 8.64701L74.2892 7.27481L72.9375 5.80073L71.4411 7.17294L72.7928 8.64701ZM75.7857 5.9026L77.2821 4.53039L75.9304 3.05632L74.434 4.42852L75.7857 5.9026ZM78.7785 3.15818L79.5268 2.47208L78.1751 0.998005L77.4268 1.68411L78.7785 3.15818Z" fill="#263238"/>
</svg>
