<svg width="135" height="124" viewBox="0 0 135 124" fill="none" xmlns="http://www.w3.org/2000/svg">
<path d="M134 1.52163C134.011 1.24574 133.798 1.01241 133.522 1.00047L129.026 0.805762C128.75 0.793814 128.517 1.00777 128.505 1.28367C128.493 1.55954 128.707 1.79288 128.983 1.80483L132.979 1.9779L132.806 5.97415C132.794 6.25003 133.008 6.48337 133.284 6.49531C133.56 6.50726 133.793 6.2933 133.805 6.01741L134 1.52163ZM1.33793 123.369L2.07404 122.694L1.39819 121.956L0.662075 122.631L1.33793 123.369ZM3.54626 121.344L5.01848 119.994L4.34263 119.256L2.87041 120.606L3.54626 121.344ZM6.4907 118.644L7.96293 117.294L7.28708 116.556L5.81485 117.906L6.4907 118.644ZM9.43515 115.944L10.9074 114.594L10.2315 113.856L8.7593 115.206L9.43515 115.944ZM12.3796 113.244L13.8518 111.894L13.176 111.156L11.7037 112.506L12.3796 113.244ZM15.324 110.544L16.7963 109.194L16.1204 108.456L14.6482 109.806L15.324 110.544ZM18.2685 107.844L19.7407 106.494L19.0649 105.756L17.5926 107.106L18.2685 107.844ZM21.2129 105.144L22.6851 103.794L22.0093 103.056L20.5371 104.406L21.2129 105.144ZM24.1574 102.444L25.6296 101.094L24.9537 100.356L23.4815 101.706L24.1574 102.444ZM27.1018 99.7435L28.574 98.3935L27.8982 97.6565L26.426 99.0065L27.1018 99.7435ZM30.0463 97.0435L31.5185 95.6935L30.8426 94.9565L29.3704 96.3065L30.0463 97.0435ZM32.9907 94.3435L34.4629 92.9935L33.7871 92.2565L32.3148 93.6065L32.9907 94.3435ZM35.9351 91.6435L37.4074 90.2935L36.7315 89.5565L35.2593 90.9065L35.9351 91.6435ZM38.8796 88.9435L40.3518 87.5935L39.676 86.8565L38.2037 88.2065L38.8796 88.9435ZM41.824 86.2435L43.2962 84.8935L42.6204 84.1565L41.1482 85.5065L41.824 86.2435ZM44.7685 83.5435L46.2407 82.1935L45.5648 81.4565L44.0926 82.8065L44.7685 83.5435ZM47.7129 80.8435L49.1851 79.4935L48.5093 78.7565L47.0371 80.1065L47.7129 80.8435ZM50.6574 78.1435L52.1296 76.7935L51.4537 76.0565L49.9815 77.4065L50.6574 78.1435ZM53.6018 75.4435L55.074 74.0935L54.3982 73.3565L52.926 74.7065L53.6018 75.4435ZM56.5462 72.7435L58.0185 71.3935L57.3426 70.6565L55.8704 72.0065L56.5462 72.7435ZM59.4907 70.0435L60.9629 68.6935L60.2871 67.9565L58.8148 69.3065L59.4907 70.0435ZM62.4351 67.3435L63.9073 65.9935L63.2315 65.2565L61.7593 66.6065L62.4351 67.3435ZM65.3796 64.6435L66.8518 63.2935L66.1759 62.5565L64.7037 63.9065L65.3796 64.6435ZM68.324 61.9435L69.7962 60.5935L69.1204 59.8565L67.6482 61.2065L68.324 61.9435ZM71.2685 59.2435L72.7407 57.8935L72.0648 57.1565L70.5926 58.5065L71.2685 59.2435ZM74.2129 56.5435L75.6851 55.1935L75.0093 54.4565L73.5371 55.8065L74.2129 56.5435ZM77.1573 53.8435L78.6296 52.4935L77.9537 51.7565L76.4815 53.1065L77.1573 53.8435ZM80.1018 51.1435L81.574 49.7935L80.8982 49.0565L79.4259 50.4065L80.1018 51.1435ZM83.0462 48.4435L84.5185 47.0935L83.8426 46.3565L82.3704 47.7065L83.0462 48.4435ZM85.9907 45.7435L87.4629 44.3935L86.787 43.6565L85.3148 45.0065L85.9907 45.7435ZM88.9351 43.0435L90.4073 41.6935L89.7315 40.9565L88.2593 42.3065L88.9351 43.0435ZM91.8796 40.3435L93.3518 38.9935L92.6759 38.2565L91.2037 39.6065L91.8796 40.3435ZM94.824 37.6435L96.2962 36.2936L95.6204 35.5565L94.1482 36.9065L94.824 37.6435ZM97.7685 34.9435L99.2407 33.5935L98.5648 32.8565L97.0926 34.2065L97.7685 34.9435ZM100.713 32.2436L102.185 30.8935L101.509 30.1565L100.037 31.5065L100.713 32.2436ZM103.657 29.5436L105.13 28.1935L104.454 27.4565L102.981 28.8065L103.657 29.5436ZM106.602 26.8436L108.074 25.4935L107.398 24.7565L105.926 26.1065L106.602 26.8436ZM109.546 24.1436L111.018 22.7936L110.343 22.0565L108.87 23.4065L109.546 24.1436ZM112.491 21.4436L113.963 20.0936L113.287 19.3565L111.815 20.7065L112.491 21.4436ZM115.435 18.7435L116.907 17.3936L116.231 16.6565L114.759 18.0065L115.435 18.7435ZM118.38 16.0435L119.852 14.6936L119.176 13.9565L117.704 15.3065L118.38 16.0435ZM121.324 13.3436L122.796 11.9936L122.12 11.2565L120.648 12.6065L121.324 13.3436ZM124.268 10.6436L125.741 9.29355L125.065 8.55652L123.593 9.90652L124.268 10.6436ZM127.213 7.94356L128.685 6.59355L128.009 5.85652L126.537 7.20652L127.213 7.94356ZM130.157 5.24356L131.63 3.89356L130.954 3.15653L129.481 4.50652L130.157 5.24356ZM133.102 2.54356L133.838 1.86852L133.162 1.13147L132.426 1.80652L133.102 2.54356ZM134.499 1.54326C134.523 0.991497 134.095 0.524823 133.543 0.500927L124.552 0.111529C124 0.0876325 123.533 0.515566 123.509 1.06732C123.485 1.61909 123.913 2.08577 124.465 2.10965L132.458 2.45579L132.112 10.4483C132.088 11.0001 132.516 11.4667 133.067 11.4906C133.619 11.5145 134.086 11.0866 134.11 10.5348L134.499 1.54326ZM1.67585 123.737L2.41196 123.062L1.06026 121.588L0.324149 122.263L1.67585 123.737ZM3.88418 121.712L5.35641 120.362L4.0047 118.888L2.53248 120.238L3.88418 121.712ZM6.82863 119.012L8.30085 117.662L6.94915 116.188L5.47693 117.538L6.82863 119.012ZM9.77307 116.312L11.2453 114.962L9.89359 113.488L8.42137 114.838L9.77307 116.312ZM12.7175 113.612L14.1897 112.262L12.838 110.788L11.3658 112.138L12.7175 113.612ZM15.662 110.912L17.1342 109.562L15.7825 108.088L14.3103 109.438L15.662 110.912ZM18.6064 108.212L20.0786 106.862L18.7269 105.388L17.2547 106.738L18.6064 108.212ZM21.5508 105.512L23.0231 104.162L21.6714 102.688L20.1991 104.038L21.5508 105.512ZM24.4953 102.812L25.9675 101.462L24.6158 99.988L23.1436 101.338L24.4953 102.812ZM27.4397 100.112L28.912 98.762L27.5603 97.288L26.088 98.638L27.4397 100.112ZM30.3842 97.412L31.8564 96.062L30.5047 94.588L29.0325 95.938L30.3842 97.412ZM33.3286 94.712L34.8008 93.362L33.4491 91.888L31.9769 93.238L33.3286 94.712ZM36.2731 92.012L37.7453 90.662L36.3936 89.188L34.9214 90.538L36.2731 92.012ZM39.2175 89.312L40.6897 87.962L39.338 86.488L37.8658 87.838L39.2175 89.312ZM42.162 86.612L43.6342 85.262L42.2825 83.788L40.8102 85.138L42.162 86.612ZM45.1064 83.912L46.5786 82.562L45.2269 81.088L43.7547 82.438L45.1064 83.912ZM48.0508 81.212L49.5231 79.862L48.1714 78.388L46.6991 79.738L48.0508 81.212ZM50.9953 78.5121L52.4675 77.1621L51.1158 75.688L49.6436 77.038L50.9953 78.5121ZM53.9397 75.8121L55.4119 74.4621L54.0602 72.988L52.588 74.338L53.9397 75.8121ZM56.8842 73.1121L58.3564 71.7621L57.0047 70.288L55.5325 71.638L56.8842 73.1121ZM59.8286 70.4121L61.3008 69.0621L59.9491 67.588L58.4769 68.938L59.8286 70.4121ZM62.7731 67.7121L64.2453 66.3621L62.8936 64.888L61.4214 66.238L62.7731 67.7121ZM65.7175 65.0121L67.1897 63.6621L65.838 62.188L64.3658 63.538L65.7175 65.0121ZM68.6619 62.3121L70.1342 60.9621L68.7825 59.488L67.3102 60.838L68.6619 62.3121ZM71.6064 59.6121L73.0786 58.2621L71.7269 56.788L70.2547 58.138L71.6064 59.6121ZM74.5508 56.9121L76.023 55.5621L74.6714 54.088L73.1991 55.438L74.5508 56.9121ZM77.4953 54.2121L78.9675 52.8621L77.6158 51.388L76.1436 52.738L77.4953 54.2121ZM80.4397 51.5121L81.9119 50.1621L80.5602 48.688L79.088 50.038L80.4397 51.5121ZM83.3842 48.8121L84.8564 47.4621L83.5047 45.988L82.0325 47.338L83.3842 48.8121ZM86.3286 46.1121L87.8008 44.7621L86.4491 43.288L84.9769 44.638L86.3286 46.1121ZM89.273 43.4121L90.7453 42.0621L89.3936 40.588L87.9213 41.938L89.273 43.4121ZM92.2175 40.7121L93.6897 39.3621L92.338 37.888L90.8658 39.238L92.2175 40.7121ZM95.1619 38.0121L96.6341 36.6621L95.2824 35.188L93.8102 36.538L95.1619 38.0121ZM98.1064 35.3121L99.5786 33.9621L98.2269 32.488L96.7547 33.838L98.1064 35.3121ZM101.051 32.6121L102.523 31.2621L101.171 29.788L99.6991 31.138L101.051 32.6121ZM103.995 29.9121L105.467 28.5621L104.116 27.088L102.644 28.438L103.995 29.9121ZM106.94 27.2121L108.412 25.8621L107.06 24.388L105.588 25.738L106.94 27.2121ZM109.884 24.5121L111.356 23.1621L110.005 21.688L108.532 23.038L109.884 24.5121ZM112.829 21.8121L114.301 20.4621L112.949 18.988L111.477 20.338L112.829 21.8121ZM115.773 19.1121L117.245 17.7621L115.894 16.288L114.421 17.638L115.773 19.1121ZM118.717 16.4121L120.19 15.0621L118.838 13.588L117.366 14.938L118.717 16.4121ZM121.662 13.7121L123.134 12.3621L121.782 10.888L120.31 12.238L121.662 13.7121ZM124.606 11.0121L126.079 9.66207L124.727 8.188L123.255 9.538L124.606 11.0121ZM127.551 8.31208L129.023 6.96207L127.671 5.488L126.199 6.838L127.551 8.31208ZM130.495 5.61208L131.967 4.26208L130.616 2.78801L129.144 4.138L130.495 5.61208ZM133.44 2.91208L134.176 2.23704L132.824 0.762951L132.088 1.438L133.44 2.91208Z" fill="#263238"/>
</svg>
