<svg width="16" height="99" viewBox="0 0 16 99" fill="none" xmlns="http://www.w3.org/2000/svg">
<path d="M7.40643 97.4295C7.59684 97.6295 7.91333 97.6372 8.11332 97.4468L11.3724 94.3439C11.5724 94.1534 11.5802 93.837 11.3898 93.637C11.1993 93.437 10.8829 93.4292 10.6829 93.6196L7.78589 96.3778L5.02771 93.4808C4.83729 93.2808 4.52081 93.2731 4.32081 93.4635C4.12082 93.6539 4.11305 93.9704 4.30347 94.1704L7.40643 97.4295ZM9.63223 0.758486L9.60761 1.76176L10.6073 1.78629L10.6319 0.783018L9.63223 0.758486ZM9.55837 3.7683L9.50913 5.77484L10.5088 5.79937L10.5581 3.79283L9.55837 3.7683ZM9.45989 7.78138L9.41065 9.78792L10.4103 9.81245L10.4596 7.80591L9.45989 7.78138ZM9.36141 11.7945L9.31217 13.801L10.3119 13.8255L10.3611 11.819L9.36141 11.7945ZM9.26293 15.8075L9.21369 17.8141L10.2134 17.8386L10.2626 15.8321L9.26293 15.8075ZM9.16445 19.8206L9.11521 21.8272L10.1149 21.8517L10.1641 19.8452L9.16445 19.8206ZM9.06597 23.8337L9.01673 25.8402L10.0164 25.8648L10.0657 23.8582L9.06597 23.8337ZM8.96749 27.8468L8.91825 29.8533L9.91795 29.8779L9.96719 27.8713L8.96749 27.8468ZM8.86901 31.8599L8.81977 33.8664L9.81947 33.8909L9.86871 31.8844L8.86901 31.8599ZM8.77053 35.8729L8.72129 37.8795L9.72098 37.904L9.77022 35.8975L8.77053 35.8729ZM8.67205 39.886L8.62281 41.8926L9.6225 41.9171L9.67174 39.9106L8.67205 39.886ZM8.57356 43.8991L8.52432 45.9057L9.52402 45.9302L9.57326 43.9236L8.57356 43.8991ZM8.47508 47.9122L8.42584 49.9187L9.42554 49.9433L9.47478 47.9367L8.47508 47.9122ZM8.3766 51.9253L8.32736 53.9318L9.32706 53.9563L9.3763 51.9498L8.3766 51.9253ZM8.27812 55.9384L8.22888 57.9449L9.22858 57.9694L9.27782 55.9629L8.27812 55.9384ZM8.17964 59.9514L8.1304 61.958L9.1301 61.9825L9.17934 59.976L8.17964 59.9514ZM8.08116 63.9645L8.03192 65.9711L9.03162 65.9956L9.08086 63.9891L8.08116 63.9645ZM7.98268 67.9776L7.93344 69.9841L8.93314 70.0087L8.98238 68.0021L7.98268 67.9776ZM7.8842 71.9907L7.83496 73.9972L8.83466 74.0217L8.8839 72.0152L7.8842 71.9907ZM7.78572 76.0037L7.73648 78.0103L8.73618 78.0348L8.78542 76.0283L7.78572 76.0037ZM7.68724 80.0168L7.638 82.0234L8.6377 82.0479L8.68694 80.0414L7.68724 80.0168ZM7.58876 84.0299L7.53952 86.0364L8.53922 86.061L8.58846 84.0544L7.58876 84.0299ZM7.49028 88.043L7.44104 90.0495L8.44074 90.074L8.48998 88.0675L7.49028 88.043ZM7.3918 92.056L7.34256 94.0626L8.34226 94.0871L8.3915 92.0806L7.3918 92.056ZM7.29332 96.0691L7.2687 97.0724L8.2684 97.097L8.29302 96.0937L7.29332 96.0691ZM7.04431 97.7742C7.42513 98.1742 8.05811 98.1898 8.45809 97.8089L14.9763 91.603C15.3763 91.2222 15.3918 90.5892 15.011 90.1892C14.6301 89.7892 13.9972 89.7737 13.5972 90.1545L7.80324 95.6709L2.28687 89.877C1.90604 89.477 1.27307 89.4615 0.873079 89.8423C0.473092 90.2231 0.457559 90.8561 0.838385 91.2561L7.04431 97.7742ZM9.13238 0.746219L9.10776 1.74949L11.1072 1.79855L11.1318 0.795284L9.13238 0.746219ZM9.05852 3.75603L9.00928 5.76257L11.0087 5.81164L11.0579 3.8051L9.05852 3.75603ZM8.96004 7.76911L8.9108 9.77565L10.9102 9.82472L10.9594 7.81818L8.96004 7.76911ZM8.86156 11.7822L8.81232 13.7887L10.8117 13.8378L10.861 11.8313L8.86156 11.7822ZM8.76308 15.7953L8.71384 17.8018L10.7132 17.8509L10.7625 15.8443L8.76308 15.7953ZM8.6646 19.8084L8.61536 21.8149L10.6148 21.864L10.664 19.8574L8.6646 19.8084ZM8.56612 23.8214L8.51688 25.828L10.5163 25.877L10.5655 23.8705L8.56612 23.8214ZM8.46764 27.8345L8.4184 29.8411L10.4178 29.8901L10.467 27.8836L8.46764 27.8345ZM8.36916 31.8476L8.31992 33.8541L10.3193 33.9032L10.3686 31.8967L8.36916 31.8476ZM8.27068 35.8607L8.22144 37.8672L10.2208 37.9163L10.2701 35.9097L8.27068 35.8607ZM8.1722 39.8738L8.12296 41.8803L10.1224 41.9294L10.1716 39.9228L8.1722 39.8738ZM8.07372 43.8868L8.02448 45.8934L10.0239 45.9425L10.0731 43.9359L8.07372 43.8868ZM7.97523 47.8999L7.92599 49.9065L9.92539 49.9555L9.97463 47.949L7.97523 47.8999ZM7.87675 51.913L7.82751 53.9195L9.82691 53.9686L9.87615 51.9621L7.87675 51.913ZM7.77827 55.9261L7.72903 57.9326L9.72843 57.9817L9.77767 55.9752L7.77827 55.9261ZM7.67979 59.9392L7.63055 61.9457L9.62995 61.9948L9.67919 59.9882L7.67979 59.9392ZM7.58131 63.9523L7.53207 65.9588L9.53147 66.0079L9.58071 64.0013L7.58131 63.9523ZM7.48283 67.9653L7.43359 69.9719L9.43299 70.0209L9.48223 68.0144L7.48283 67.9653ZM7.38435 71.9784L7.33511 73.9849L9.33451 74.034L9.38375 72.0275L7.38435 71.9784ZM7.28587 75.9915L7.23663 77.998L9.23603 78.0471L9.28527 76.0405L7.28587 75.9915ZM7.18739 80.0046L7.13815 82.0111L9.13755 82.0602L9.18679 80.0536L7.18739 80.0046ZM7.08891 84.0176L7.03967 86.0242L9.03907 86.0732L9.08831 84.0667L7.08891 84.0176ZM6.99043 88.0307L6.94119 90.0372L8.94059 90.0863L8.98983 88.0798L6.99043 88.0307ZM6.89195 92.0438L6.84271 94.0503L8.84211 94.0994L8.89135 92.0928L6.89195 92.0438ZM6.79347 96.0569L6.76885 97.0602L8.76825 97.1092L8.79287 96.1059L6.79347 96.0569Z" fill="#263238"/>
</svg>
