<svg width="81" height="74" viewBox="0 0 81 74" fill="none" xmlns="http://www.w3.org/2000/svg">
<path d="M0.973368 1.50071C0.697618 1.51542 0.486 1.75088 0.500706 2.02663L0.740366 6.52024C0.755073 6.79599 0.990535 7.00761 1.26629 6.9929C1.54204 6.9782 1.75365 6.74274 1.73895 6.46698L1.52592 2.47266L5.52024 2.25963C5.79599 2.24492 6.00761 2.00946 5.9929 1.73371C5.97819 1.45796 5.74273 1.24634 5.46698 1.26105L0.973368 1.50071ZM80.3342 72.6281L79.6027 71.9707L78.9343 72.7145L79.6658 73.3719L80.3342 72.6281ZM78.1398 70.6559L76.6768 69.3411L76.0084 70.0848L77.4713 71.3997L78.1398 70.6559ZM75.2139 68.0263L73.7509 66.7114L73.0824 67.4552L74.5454 68.77L75.2139 68.0263ZM72.2879 65.3966L70.825 64.0818L70.1565 64.8256L71.6195 66.1404L72.2879 65.3966ZM69.362 62.767L67.899 61.4522L67.2306 62.196L68.6936 63.5108L69.362 62.767ZM66.4361 60.1374L64.9731 58.8226L64.3047 59.5663L65.7676 60.8811L66.4361 60.1374ZM63.5101 57.5077L62.0472 56.1929L61.3787 56.9367L62.8417 58.2515L63.5101 57.5077ZM60.5842 54.8781L59.1213 53.5633L58.4528 54.3071L59.9158 55.6219L60.5842 54.8781ZM57.6583 52.2485L56.1953 50.9337L55.5269 51.6774L56.9899 52.9923L57.6583 52.2485ZM54.7324 49.6189L53.2694 48.304L52.601 49.0478L54.0639 50.3626L54.7324 49.6189ZM51.8064 46.9892L50.3435 45.6744L49.675 46.4182L51.138 47.733L51.8064 46.9892ZM48.8805 44.3596L47.4176 43.0448L46.7491 43.7886L48.2121 45.1034L48.8805 44.3596ZM45.9546 41.73L44.4916 40.4152L43.8232 41.1589L45.2862 42.4737L45.9546 41.73ZM43.0287 39.1003L41.5657 37.7855L40.8973 38.5293L42.3602 39.8441L43.0287 39.1003ZM40.1028 36.4707L38.6398 35.1559L37.9713 35.8997L39.4343 37.2145L40.1028 36.4707ZM37.1768 33.8411L35.7139 32.5263L35.0454 33.27L36.5084 34.5849L37.1768 33.8411ZM34.2509 31.2115L32.7879 29.8966L32.1195 30.6404L33.5825 31.9552L34.2509 31.2115ZM31.325 28.5818L29.862 27.267L29.1936 28.0108L30.6565 29.3256L31.325 28.5818ZM28.399 25.9522L26.9361 24.6374L26.2676 25.3811L27.7306 26.696L28.399 25.9522ZM25.4731 23.3226L24.0101 22.0077L23.3417 22.7515L24.8047 24.0663L25.4731 23.3226ZM22.5472 20.6929L21.0842 19.3781L20.4158 20.1219L21.8787 21.4367L22.5472 20.6929ZM19.6212 18.0633L18.1583 16.7485L17.4898 17.4922L18.9528 18.8071L19.6212 18.0633ZM16.6953 15.4337L15.2324 14.1188L14.5639 14.8626L16.0269 16.1774L16.6953 15.4337ZM13.7694 12.804L12.3064 11.4892L11.638 12.233L13.1009 13.5478L13.7694 12.804ZM10.8435 10.1744L9.38049 8.85958L8.71205 9.60334L10.175 10.9182L10.8435 10.1744ZM7.91753 7.54476L6.45457 6.22995L5.78612 6.97371L7.24908 8.28852L7.91753 7.54476ZM4.9916 4.91513L3.52863 3.60031L2.86019 4.34407L4.32315 5.65889L4.9916 4.91513ZM2.06567 2.2855L1.33422 1.62812L0.665775 2.37188L1.39723 3.02926L2.06567 2.2855ZM0.946739 1.00142C0.395238 1.03083 -0.0279973 1.50176 0.00141609 2.05326L0.480735 11.0405C0.510149 11.592 0.981073 12.0152 1.53257 11.9858C2.08407 11.9564 2.50731 11.4855 2.4779 10.934L2.05184 2.94532L10.0405 2.51926C10.592 2.48985 11.0152 2.01892 10.9858 1.46742C10.9564 0.915922 10.4855 0.492687 9.93397 0.5221L0.946739 1.00142ZM80.6684 72.2562L79.937 71.5988L78.6001 73.0864L79.3316 73.7438L80.6684 72.2562ZM78.474 70.284L77.011 68.9692L75.6741 70.4567L77.1371 71.7715L78.474 70.284ZM75.5481 67.6544L74.0851 66.3396L72.7482 67.8271L74.2112 69.1419L75.5481 67.6544ZM72.6221 65.0248L71.1592 63.7099L69.8223 65.1975L71.2853 66.5123L72.6221 65.0248ZM69.6962 62.3951L68.2333 61.0803L66.8964 62.5678L68.3593 63.8826L69.6962 62.3951ZM66.7703 59.7655L65.3073 58.4507L63.9704 59.9382L65.4334 61.253L66.7703 59.7655ZM63.8444 57.1359L62.3814 55.8211L61.0445 57.3086L62.5075 58.6234L63.8444 57.1359ZM60.9184 54.5062L59.4555 53.1914L58.1186 54.6789L59.5816 55.9938L60.9184 54.5062ZM57.9925 51.8766L56.5296 50.5618L55.1927 52.0493L56.6556 53.3641L57.9925 51.8766ZM55.0666 49.247L53.6036 47.9322L52.2667 49.4197L53.7297 50.7345L55.0666 49.247ZM52.1407 46.6174L50.6777 45.3025L49.3408 46.7901L50.8038 48.1049L52.1407 46.6174ZM49.2147 43.9877L47.7518 42.6729L46.4149 44.1604L47.8779 45.4752L49.2147 43.9877ZM46.2888 41.3581L44.8259 40.0433L43.489 41.5308L44.9519 42.8456L46.2888 41.3581ZM43.3629 38.7285L41.8999 37.4137L40.563 38.9012L42.026 40.216L43.3629 38.7285ZM40.437 36.0988L38.974 34.784L37.6371 36.2716L39.1001 37.5864L40.437 36.0988ZM37.511 33.4692L36.0481 32.1544L34.7112 33.6419L36.1742 34.9567L37.511 33.4692ZM34.5851 30.8396L33.1222 29.5248L31.7853 31.0123L33.2482 32.3271L34.5851 30.8396ZM31.6592 28.21L30.1962 26.8951L28.8593 28.3827L30.3223 29.6975L31.6592 28.21ZM28.7333 25.5803L27.2703 24.2655L25.9334 25.753L27.3964 27.0678L28.7333 25.5803ZM25.8073 22.9507L24.3444 21.6359L23.0075 23.1234L24.4704 24.4382L25.8073 22.9507ZM22.8814 20.3211L21.4184 19.0062L20.0815 20.4938L21.5445 21.8086L22.8814 20.3211ZM19.9555 17.6914L18.4925 16.3766L17.1556 17.8641L18.6186 19.1789L19.9555 17.6914ZM17.0295 15.0618L15.5666 13.747L14.2297 15.2345L15.6927 16.5493L17.0295 15.0618ZM14.1036 12.4322L12.6406 11.1173L11.3038 12.6049L12.7667 13.9197L14.1036 12.4322ZM11.1777 9.80252L9.71472 8.4877L8.37783 9.97522L9.84079 11.29L11.1777 9.80252ZM8.25175 7.17288L6.78879 5.85807L5.4519 7.34559L6.91486 8.66041L8.25175 7.17288ZM5.32582 4.54325L3.86285 3.22843L2.52597 4.71596L3.98893 6.03077L5.32582 4.54325ZM2.39989 1.91362L1.66844 1.25624L0.331553 2.74376L1.063 3.40114L2.39989 1.91362Z" fill="#263238"/>
</svg>
