<svg width="88" height="65" viewBox="0 0 88 65" fill="none" xmlns="http://www.w3.org/2000/svg">
<path d="M1.16658 61.8989C1.11985 62.1711 1.30259 62.4296 1.57475 62.4763L6.00984 63.2379C6.282 63.2846 6.54051 63.1019 6.58725 62.8297C6.63398 62.5576 6.45124 62.2991 6.17908 62.2523L2.23678 61.5754L2.91374 57.6331C2.96047 57.3609 2.77773 57.1024 2.50557 57.0557C2.23341 57.0089 1.9749 57.1917 1.92817 57.4638L1.16658 61.8989ZM86.5267 1.37882L85.7079 1.95763L86.2851 2.77421L87.1039 2.1954L86.5267 1.37882ZM84.0703 3.11526L82.4327 4.27288L83.0099 5.08946L84.6475 3.93183L84.0703 3.11526ZM80.795 5.4305L79.1574 6.58813L79.7347 7.40471L81.3723 6.24708L80.795 5.4305ZM77.5198 7.74575L75.8822 8.90338L76.4594 9.71995L78.097 8.56233L77.5198 7.74575ZM74.2446 10.061L72.607 11.2186L73.1842 12.0352L74.8218 10.8776L74.2446 10.061ZM70.9694 12.3762L69.3317 13.5339L69.909 14.3504L71.5466 13.1928L70.9694 12.3762ZM67.6941 14.6915L66.0565 15.8491L66.6337 16.6657L68.2714 15.5081L67.6941 14.6915ZM64.4189 17.0067L62.7813 18.1644L63.3585 18.9809L64.9961 17.8233L64.4189 17.0067ZM61.1437 19.322L59.5061 20.4796L60.0833 21.2962L61.7209 20.1386L61.1437 19.322ZM57.8684 21.6372L56.2308 22.7949L56.8081 23.6114L58.4457 22.4538L57.8684 21.6372ZM54.5932 23.9525L52.9556 25.1101L53.5328 25.9267L55.1704 24.7691L54.5932 23.9525ZM51.318 26.2677L49.6804 27.4254L50.2576 28.2419L51.8952 27.0843L51.318 26.2677ZM48.0427 28.583L46.4051 29.7406L46.9824 30.5572L48.62 29.3996L48.0427 28.583ZM44.7675 30.8982L43.1299 32.0559L43.7071 32.8724L45.3448 31.7148L44.7675 30.8982ZM41.4923 33.2135L39.8547 34.3711L40.4319 35.1877L42.0695 34.0301L41.4923 33.2135ZM38.2171 35.5287L36.5794 36.6864L37.1567 37.5029L38.7943 36.3453L38.2171 35.5287ZM34.9418 37.844L33.3042 39.0016L33.8814 39.8182L35.5191 38.6606L34.9418 37.844ZM31.6666 40.1592L30.029 41.3169L30.6062 42.1334L32.2438 40.9758L31.6666 40.1592ZM28.3914 42.4745L26.7537 43.6321L27.331 44.4487L28.9686 43.2911L28.3914 42.4745ZM25.1161 44.7897L23.4785 45.9474L24.0557 46.7639L25.6934 45.6063L25.1161 44.7897ZM21.8409 47.105L20.2033 48.2626L20.7805 49.0792L22.4181 47.9216L21.8409 47.105ZM18.5657 49.4202L16.928 50.5779L17.5053 51.3944L19.1429 50.2368L18.5657 49.4202ZM15.2904 51.7355L13.6528 52.8931L14.2301 53.7097L15.8677 52.5521L15.2904 51.7355ZM12.0152 54.0507L10.3776 55.2084L10.9548 56.0249L12.5924 54.8673L12.0152 54.0507ZM8.73997 56.366L7.10235 57.5236L7.67959 58.3402L9.31721 57.1826L8.73997 56.366ZM5.46474 58.6812L3.82712 59.8389L4.40436 60.6554L6.04198 59.4978L5.46474 58.6812ZM2.1895 60.9965L1.37075 61.5753L1.94799 62.3918L2.76674 61.8131L2.1895 60.9965ZM0.673798 61.8143C0.580329 62.3586 0.945814 62.8757 1.49013 62.9691L10.3603 64.4923C10.9046 64.5857 11.4217 64.2203 11.5151 63.6759C11.6086 63.1316 11.2431 62.6146 10.6988 62.5211L2.81419 61.1672L4.16811 53.2826C4.26158 52.7383 3.89609 52.2213 3.35177 52.1278C2.80746 52.0343 2.29043 52.3998 2.19696 52.9441L0.673798 61.8143ZM86.2381 0.970532L85.4193 1.54934L86.5737 3.1825L87.3925 2.60369L86.2381 0.970532ZM83.7817 2.70697L82.144 3.86459L83.2985 5.49775L84.9361 4.34012L83.7817 2.70697ZM80.5064 5.02222L78.8688 6.17984L80.0233 7.81299L81.6609 6.65537L80.5064 5.02222ZM77.2312 7.33746L75.5936 8.49509L76.7481 10.1282L78.3857 8.97062L77.2312 7.33746ZM73.956 9.65271L72.3184 10.8103L73.4728 12.4435L75.1104 11.2859L73.956 9.65271ZM70.6807 11.968L69.0431 13.1256L70.1976 14.7587L71.8352 13.6011L70.6807 11.968ZM67.4055 14.2832L65.7679 15.4408L66.9224 17.074L68.56 15.9164L67.4055 14.2832ZM64.1303 16.5985L62.4927 17.7561L63.6471 19.3892L65.2848 18.2316L64.1303 16.5985ZM60.8551 18.9137L59.2174 20.0713L60.3719 21.7045L62.0095 20.5469L60.8551 18.9137ZM57.5798 21.2289L55.9422 22.3866L57.0967 24.0197L58.7343 22.8621L57.5798 21.2289ZM54.3046 23.5442L52.667 24.7018L53.8214 26.335L55.4591 25.1774L54.3046 23.5442ZM51.0294 25.8594L49.3917 27.0171L50.5462 28.6502L52.1838 27.4926L51.0294 25.8594ZM47.7541 28.1747L46.1165 29.3323L47.271 30.9655L48.9086 29.8079L47.7541 28.1747ZM44.4789 30.4899L42.8413 31.6476L43.9958 33.2807L45.6334 32.1231L44.4789 30.4899ZM41.2037 32.8052L39.566 33.9628L40.7205 35.596L42.3581 34.4384L41.2037 32.8052ZM37.9284 35.1204L36.2908 36.2781L37.4453 37.9112L39.0829 36.7536L37.9284 35.1204ZM34.6532 37.4357L33.0156 38.5933L34.1701 40.2265L35.8077 39.0689L34.6532 37.4357ZM31.378 39.7509L29.7404 40.9086L30.8948 42.5417L32.5324 41.3841L31.378 39.7509ZM28.1027 42.0662L26.4651 43.2238L27.6196 44.857L29.2572 43.6994L28.1027 42.0662ZM24.8275 44.3814L23.1899 45.5391L24.3444 47.1722L25.982 46.0146L24.8275 44.3814ZM21.5523 46.6967L19.9147 47.8543L21.0691 49.4875L22.7067 48.3299L21.5523 46.6967ZM18.277 49.0119L16.6394 50.1696L17.7939 51.8027L19.4315 50.6451L18.277 49.0119ZM15.0018 51.3272L13.3642 52.4848L14.5187 54.118L16.1563 52.9604L15.0018 51.3272ZM11.7266 53.6424L10.089 54.8001L11.2434 56.4332L12.8811 55.2756L11.7266 53.6424ZM8.45135 55.9577L6.81374 57.1153L7.96821 58.7485L9.60582 57.5908L8.45135 55.9577ZM5.17612 58.2729L3.53851 59.4306L4.69298 61.0637L6.33059 59.9061L5.17612 58.2729ZM1.90089 60.5882L1.08214 61.167L2.23661 62.8001L3.05536 62.2214L1.90089 60.5882Z" fill="#263238"/>
</svg>
