<svg width="147" height="107" viewBox="0 0 147 107" fill="none" xmlns="http://www.w3.org/2000/svg">
<path d="M0.507205 103.415C0.460476 103.688 0.643214 103.946 0.915381 103.993L5.35046 104.754C5.62262 104.801 5.88114 104.618 5.92787 104.346C5.97461 104.074 5.79186 103.816 5.5197 103.769L1.5774 103.092L2.25436 99.1495C2.30109 98.8774 2.11836 98.6189 1.8462 98.5721C1.57403 98.5254 1.31552 98.7081 1.26879 98.9803L0.507205 103.415ZM145.711 0.591711L144.888 1.1741L145.465 1.99068L146.289 1.40829L145.711 0.591711ZM143.24 2.33887L141.592 3.50364L142.169 4.32022L143.817 3.15545L143.24 2.33887ZM139.944 4.66842L138.297 5.83319L138.874 6.64977L140.522 5.48499L139.944 4.66842ZM136.649 6.99796L135.001 8.16273L135.578 8.97931L137.226 7.81454L136.649 6.99796ZM133.353 9.32751L131.706 10.4923L132.283 11.3089L133.931 10.1441L133.353 9.32751ZM130.058 11.6571L128.41 12.8218L128.987 13.6384L130.635 12.4736L130.058 11.6571ZM126.763 13.9866L125.115 15.1514L125.692 15.9679L127.34 14.8032L126.763 13.9866ZM123.467 16.3161L121.819 17.4809L122.397 18.2975L124.044 17.1327L123.467 16.3161ZM120.172 18.6457L118.524 19.8105L119.101 20.627L120.749 19.4623L120.172 18.6457ZM116.876 20.9752L115.228 22.14L115.806 22.9566L117.453 21.7918L116.876 20.9752ZM113.581 23.3048L111.933 24.4696L112.51 25.2861L114.158 24.1214L113.581 23.3048ZM110.285 25.6343L108.638 26.7991L109.215 27.6157L110.862 26.4509L110.285 25.6343ZM106.99 27.9639L105.342 29.1286L105.919 29.9452L107.567 28.7804L106.99 27.9639ZM103.694 30.2934L102.047 31.4582L102.624 32.2748L104.272 31.11L103.694 30.2934ZM100.399 32.623L98.7512 33.7877L99.3284 34.6043L100.976 33.4395L100.399 32.623ZM97.1034 34.9525L95.4557 36.1173L96.0329 36.9339L97.6807 35.7691L97.1034 34.9525ZM93.808 37.282L92.1603 38.4468L92.7375 39.2634L94.3852 38.0986L93.808 37.282ZM90.5125 39.6116L88.8648 40.7764L89.442 41.5929L91.0898 40.4282L90.5125 39.6116ZM87.2171 41.9411L85.5693 43.1059L86.1466 43.9225L87.7943 42.7577L87.2171 41.9411ZM83.9216 44.2707L82.2739 45.4355L82.8511 46.252L84.4989 45.0873L83.9216 44.2707ZM80.6262 46.6002L78.9784 47.765L79.5557 48.5816L81.2034 47.4168L80.6262 46.6002ZM77.3307 48.9298L75.683 50.0945L76.2602 50.9111L77.9079 49.7464L77.3307 48.9298ZM74.0353 51.2593L72.3875 52.4241L72.9648 53.2407L74.6125 52.0759L74.0353 51.2593ZM70.7398 53.5889L69.0921 54.7536L69.6693 55.5702L71.317 54.4054L70.7398 53.5889ZM67.4443 55.9184L65.7966 57.0832L66.3739 57.8998L68.0216 56.735L67.4443 55.9184ZM64.1489 58.248L62.5012 59.4127L63.0784 60.2293L64.7261 59.0645L64.1489 58.248ZM60.8534 60.5775L59.2057 61.7423L59.7829 62.5588L61.4307 61.3941L60.8534 60.5775ZM57.558 62.907L55.9103 64.0718L56.4875 64.8884L58.1352 63.7236L57.558 62.907ZM54.2625 65.2366L52.6148 66.4014L53.192 67.2179L54.8398 66.0532L54.2625 65.2366ZM50.9671 67.5661L49.3194 68.7309L49.8966 69.5475L51.5443 68.3827L50.9671 67.5661ZM47.6716 69.8957L46.0239 71.0605L46.6011 71.877L48.2489 70.7123L47.6716 69.8957ZM44.3762 72.2252L42.7284 73.39L43.3057 74.2066L44.9534 73.0418L44.3762 72.2252ZM41.0807 74.5548L39.433 75.7196L40.0102 76.5361L41.6579 75.3714L41.0807 74.5548ZM37.7852 76.8843L36.1375 78.0491L36.7147 78.8657L38.3625 77.7009L37.7852 76.8843ZM34.4898 79.2139L32.842 80.3787L33.4193 81.1952L35.067 80.0305L34.4898 79.2139ZM31.1943 81.5434L29.5466 82.7082L30.1238 83.5248L31.7715 82.36L31.1943 81.5434ZM27.8988 83.873L26.2511 85.0378L26.8283 85.8543L28.4761 84.6896L27.8988 83.873ZM24.6034 86.2025L22.9556 87.3673L23.5329 88.1839L25.1806 87.0191L24.6034 86.2025ZM21.3079 88.5321L19.6602 89.6969L20.2374 90.5134L21.8851 89.3487L21.3079 88.5321ZM18.0124 90.8617L16.3647 92.0264L16.9419 92.843L18.5897 91.6782L18.0124 90.8617ZM14.717 93.1912L13.0692 94.356L13.6465 95.1726L15.2942 94.0078L14.717 93.1912ZM11.4215 95.5208L9.77377 96.6855L10.351 97.5021L11.9987 96.3373L11.4215 95.5208ZM8.12604 97.8503L6.47831 99.0151L7.05554 99.8317L8.70327 98.6669L8.12604 97.8503ZM4.83057 100.18L3.18284 101.345L3.76007 102.161L5.40781 100.996L4.83057 100.18ZM1.5351 102.509L0.711379 103.092L1.28861 103.908L2.11235 103.326L1.5351 102.509ZM0.0144242 103.331C-0.0790441 103.875 0.286441 104.392 0.830755 104.486L9.70093 106.009C10.2452 106.102 10.7623 105.737 10.8557 105.192C10.9492 104.648 10.5837 104.131 10.0394 104.038L2.15481 102.684L3.50874 94.7991C3.6022 94.2547 3.23672 93.7377 2.69239 93.6443C2.14808 93.5508 1.63105 93.9163 1.53758 94.4606L0.0144242 103.331ZM145.423 0.183422L144.599 0.765809L145.753 2.39896L146.577 1.81658L145.423 0.183422ZM142.951 1.93058L141.303 3.09535L142.458 4.72851L144.106 3.56374L142.951 1.93058ZM139.656 4.26013L138.008 5.4249L139.162 7.05805L140.81 5.89328L139.656 4.26013ZM136.36 6.58967L134.713 7.75444L135.867 9.3876L137.515 8.22283L136.36 6.58967ZM133.065 8.91922L131.417 10.084L132.572 11.7171L134.219 10.5524L133.065 8.91922ZM129.769 11.2488L128.122 12.4135L129.276 14.0467L130.924 12.8819L129.769 11.2488ZM126.474 13.5783L124.826 14.7431L125.981 16.3762L127.628 15.2115L126.474 13.5783ZM123.178 15.9079L121.531 17.0726L122.685 18.7058L124.333 17.541L123.178 15.9079ZM119.883 18.2374L118.235 19.4022L119.39 21.0353L121.037 19.8706L119.883 18.2374ZM116.588 20.5669L114.94 21.7317L116.094 23.3649L117.742 22.2001L116.588 20.5669ZM113.292 22.8965L111.644 24.0613L112.799 25.6944L114.447 24.5296L113.292 22.8965ZM109.997 25.226L108.349 26.3908L109.503 28.024L111.151 26.8592L109.997 25.226ZM106.701 27.5556L105.053 28.7204L106.208 30.3535L107.856 29.1887L106.701 27.5556ZM103.406 29.8851L101.758 31.0499L102.912 32.6831L104.56 31.5183L103.406 29.8851ZM100.11 32.2147L98.4625 33.3794L99.617 35.0126L101.265 33.8478L100.11 32.2147ZM96.8148 34.5442L95.1671 35.709L96.3216 37.3421L97.9693 36.1774L96.8148 34.5442ZM93.5194 36.8738L91.8716 38.0385L93.0261 39.6717L94.6738 38.5069L93.5194 36.8738ZM90.2239 39.2033L88.5762 40.3681L89.7307 42.0012L91.3784 40.8365L90.2239 39.2033ZM86.9285 41.5329L85.2807 42.6976L86.4352 44.3308L88.0829 43.166L86.9285 41.5329ZM83.633 43.8624L81.9853 45.0272L83.1397 46.6603L84.7875 45.4956L83.633 43.8624ZM80.3375 46.1919L78.6898 47.3567L79.8443 48.9899L81.492 47.8251L80.3375 46.1919ZM77.0421 48.5215L75.3944 49.6863L76.5488 51.3194L78.1966 50.1546L77.0421 48.5215ZM73.7466 50.851L72.0989 52.0158L73.2534 53.649L74.9011 52.4842L73.7466 50.851ZM70.4512 53.1806L68.8035 54.3453L69.9579 55.9785L71.6057 54.8137L70.4512 53.1806ZM67.1557 55.5101L65.508 56.6749L66.6625 58.3081L68.3102 57.1433L67.1557 55.5101ZM63.8603 57.8397L62.2125 59.0044L63.367 60.6376L65.0147 59.4728L63.8603 57.8397ZM60.5648 60.1692L58.9171 61.334L60.0716 62.9671L61.7193 61.8024L60.5648 60.1692ZM57.2694 62.4988L55.6216 63.6635L56.7761 65.2967L58.4238 64.1319L57.2694 62.4988ZM53.9739 64.8283L52.3262 65.9931L53.4807 67.6262L55.1284 66.4615L53.9739 64.8283ZM50.6785 67.1578L49.0307 68.3226L50.1852 69.9558L51.8329 68.791L50.6785 67.1578ZM47.383 69.4874L45.7353 70.6522L46.8898 72.2853L48.5375 71.1205L47.383 69.4874ZM44.0875 71.8169L42.4398 72.9817L43.5943 74.6149L45.242 73.4501L44.0875 71.8169ZM40.7921 74.1465L39.1444 75.3113L40.2988 76.9444L41.9466 75.7796L40.7921 74.1465ZM37.4966 76.476L35.8489 77.6408L37.0034 79.274L38.6511 78.1092L37.4966 76.476ZM34.2012 78.8056L32.5534 79.9704L33.7079 81.6035L35.3556 80.4387L34.2012 78.8056ZM30.9057 81.1351L29.2579 82.2999L30.4124 83.9331L32.0602 82.7683L30.9057 81.1351ZM27.6102 83.4647L25.9625 84.6295L27.117 86.2626L28.7647 85.0979L27.6102 83.4647ZM24.3148 85.7943L22.667 86.959L23.8215 88.5922L25.4692 87.4274L24.3148 85.7943ZM21.0193 88.1238L19.3716 89.2886L20.526 90.9217L22.1738 89.757L21.0193 88.1238ZM17.7238 90.4534L16.0761 91.6181L17.2306 93.2513L18.8783 92.0865L17.7238 90.4534ZM14.4284 92.7829L12.7806 93.9477L13.9351 95.5809L15.5828 94.4161L14.4284 92.7829ZM11.1329 95.1125L9.48516 96.2772L10.6396 97.9104L12.2874 96.7456L11.1329 95.1125ZM7.83742 97.442L6.18969 98.6068L7.34416 100.24L8.99189 99.0752L7.83742 97.442ZM4.54195 99.7716L2.89422 100.936L4.0487 102.57L5.69643 101.405L4.54195 99.7716ZM1.24649 102.101L0.422763 102.683L1.57723 104.317L2.40097 103.734L1.24649 102.101Z" fill="#263238"/>
</svg>
