<svg width="40" height="40" viewBox="0 0 40 40" fill="none" xmlns="http://www.w3.org/2000/svg">
<path d="M10 11.25H5C4.33696 11.25 3.70107 11.5134 3.23223 11.9822C2.76339 12.4511 2.5 13.087 2.5 13.75V28.75H5V22.5H10V28.75H12.5V13.75C12.5 13.087 12.2366 12.4511 11.7678 11.9822C11.2989 11.5134 10.663 11.25 10 11.25ZM5 20V13.75H10V20H5Z" fill="#263238"/>
<path d="M27.5 13.75H31.25V26.25H27.5V28.75H37.5V26.25H33.75V13.75H37.5V11.25H27.5V13.75Z" fill="#263238"/>
<path d="M17.5 28.75H15V11.25H22.5C23.163 11.25 23.7989 11.5134 24.2678 11.9822C24.7366 12.4511 25 13.087 25 13.75V20C25 20.663 24.7366 21.2989 24.2678 21.7678C23.7989 22.2366 23.163 22.5 22.5 22.5H17.5V28.75ZM17.5 20H22.5V13.75H17.5V20Z" fill="#263238"/>
</svg>
