<svg width="38" height="38" viewBox="0 0 38 38" fill="none" xmlns="http://www.w3.org/2000/svg">
<path d="M19 12.6666L14.25 15.4375V20.9791L19 23.75L23.75 20.9791V15.4375L19 12.6666ZM21.4019 15.8966L18.9794 17.309L16.5775 15.9077L19 14.4954L21.4019 15.8966ZM15.8175 17.2931L18.1672 18.6643V21.4351L15.8175 20.0655V17.2931ZM19.7347 21.4937V18.696L22.1825 17.2678V20.0655L19.7347 21.4937Z" fill="#263238"/>
<path d="M4.75 0L0 2.77083V8.3125L4.75 11.0833L9.5 8.3125V2.77083L4.75 0ZM7.15192 3.23L4.72942 4.64233L2.3275 3.24108L4.75 1.82875L7.15192 3.23ZM1.5675 4.62492L3.91717 5.99608V8.76692L1.5675 7.4005V4.62492ZM5.48467 8.8255V6.02933L7.9325 4.60117V7.39892L5.48467 8.8255Z" fill="#263238"/>
<path d="M4.75 26.9166L0 29.6875V35.2291L4.75 38L9.5 35.2291V29.6875L4.75 26.9166ZM7.15192 30.1466L4.72942 31.559L2.3275 30.1577L4.75 28.7454L7.15192 30.1466ZM1.5675 31.5431L3.91717 32.9143V35.6851L1.5675 34.3171V31.5431ZM5.48467 35.7437V32.946L7.9325 31.5178V34.3155L5.48467 35.7437Z" fill="#263238"/>
<path d="M33.25 0L28.5 2.77083V8.3125L33.25 11.0833L38 8.3125V2.77083L33.25 0ZM35.6519 3.23L33.2294 4.64233L30.8275 3.24108L33.25 1.82875L35.6519 3.23ZM30.0675 4.6265L32.4172 5.99767V8.7685L30.0675 7.39892V4.6265ZM33.9847 8.82708V6.02933L36.4325 4.60117V7.39892L33.9847 8.82708Z" fill="#263238"/>
<path d="M33.25 26.9166L28.5 29.6875V35.2291L33.25 38L38 35.2291V29.6875L33.25 26.9166ZM35.6519 30.1466L33.2294 31.559L30.8275 30.1577L33.25 28.7454L35.6519 30.1466ZM30.0675 31.5431L32.4172 32.9143V35.6851L30.0675 34.3155V31.5431ZM33.9847 35.7437V32.946L36.4325 31.5178V34.3155L33.9847 35.7437Z" fill="#263238"/>
<path d="M14.25 4.75H23.75V6.33333H14.25V4.75Z" fill="#263238"/>
<path d="M14.25 31.6666H23.75V33.25H14.25V31.6666Z" fill="#263238"/>
<path d="M5.54165 14.25V23.75H3.95831V14.25H5.54165Z" fill="#263238"/>
<path d="M11.5473 13.9777L8.18585 10.621L9.30685 9.5L12.6667 12.8583L11.5473 13.9777Z" fill="#263238"/>
<path d="M25.3333 13.1307L28.6916 9.77246L29.811 10.8919L26.4543 14.2501L25.3333 13.1307Z" fill="#263238"/>
<path d="M12.8709 23.5569L9.51266 26.9167L8.39166 25.7957L11.7515 22.4391L12.8709 23.5569Z" fill="#263238"/>
<path d="M26.7251 22.3708L30.0833 25.7291L28.9639 26.8485L25.6057 23.4903L26.7251 22.3708Z" fill="#263238"/>
<path d="M34.0416 14.25V23.75H32.4583V14.25H34.0416Z" fill="#263238"/>
</svg>
