<svg width="175" height="48" viewBox="0 0 175 48" fill="none" xmlns="http://www.w3.org/2000/svg">
<path d="M55.816 4.93946C55.812 4.31523 55.9283 3.69639 56.1582 3.1188C56.3882 2.54122 56.7272 2.01639 57.1556 1.57474C57.584 1.1331 58.0933 0.783413 58.6539 0.545976C59.2146 0.30854 59.8154 0.18807 60.4215 0.191552C61.6591 0.181656 62.8505 0.674571 63.7375 1.56339C64.6244 2.45221 65.1353 3.66526 65.1594 4.93946C65.1313 6.2062 64.617 7.40989 63.729 8.28699C62.8411 9.16409 61.6518 9.64313 60.4215 9.61923C59.8193 9.62898 59.2211 9.51506 58.6621 9.28411C58.103 9.05317 57.5943 8.70984 57.1655 8.27417C56.7368 7.8385 56.3966 7.31922 56.1649 6.74666C55.9332 6.1741 55.8146 5.55974 55.816 4.93946V4.93946Z" fill="#263238"/>
<path d="M6.06094 20.866H0V14.8865H6.06094V11.7003C6.06094 3.70325 11.3636 0.171143 17.6129 0.171143C20.0268 0.187355 22.4261 0.559723 24.7374 1.27689L23.857 6.8004C22.2514 6.22936 20.5683 5.92337 18.8699 5.89379C14.6358 5.89379 12.8089 8.51405 12.8089 12.1352V14.8656H24.2336V20.845H12.8191V46.3296H6.06094V20.866Z" fill="#263238"/>
<path d="M51.0171 14.9495L49.9993 21.5159C48.5041 20.9472 46.9215 20.6613 45.3276 20.6722C41.0325 20.6722 37.6942 23.7274 37.6942 29.5129V46.3507H30.936V14.9076H37.7196V18.4816C39.6738 15.7513 42.7068 14.2578 46.493 14.2578C48.0276 14.2322 49.5559 14.4658 51.0171 14.9495Z" fill="#263238"/>
<path d="M57.0579 14.8866H63.8109V46.3297H57.0579V14.8866Z" fill="#263238"/>
<path d="M71.0923 30.6183C71.0923 20.7347 77.8453 14.2365 86.6238 14.2365C95.275 14.2365 101.585 20.4098 101.585 29.958C101.586 30.6971 101.543 31.4356 101.458 32.1695H77.8453C78.3542 38.0861 81.886 41.4033 86.751 41.4033C89.8044 41.4033 92.5473 40.0774 93.7992 37.4991H100.313C98.6744 43.8716 93.1173 46.9949 86.7408 46.9949C77.8453 47.0054 71.0923 40.5648 71.0923 30.6183ZM95.0104 26.8504C94.4404 23.0143 91.2853 19.891 86.6747 19.891C82.573 19.891 79.3517 22.3593 78.2168 26.8504H95.0104Z" fill="#263238"/>
<path d="M135.809 26.1957V46.3507H129.051V28.0089C129.051 22.9361 126.145 20.5307 122.043 20.5307C117.814 20.5307 114.969 23.5859 114.969 28.9155V46.335H108.216V14.8919H114.969V18.4659C117.005 15.7356 120.084 14.2421 124.002 14.2421C130.847 14.2368 135.809 18.3978 135.809 26.1957Z" fill="#263238"/>
<path d="M174.383 0.841797V46.3504H167.63V41.9956C165.289 45.1818 161.692 47.0055 157.147 47.0055C148.75 47.0055 142.186 40.3081 142.186 30.6184C142.186 20.9287 148.75 14.2366 157.208 14.2366C161.692 14.2366 165.289 16.055 167.63 19.2412V0.841797H174.383ZM167.63 30.6184C167.63 24.508 163.778 20.347 158.47 20.347C153.356 20.347 149.122 24.3141 149.122 30.6184C149.122 36.9228 153.356 40.8898 158.47 40.8898C163.778 40.8898 167.63 36.7289 167.63 30.6184Z" fill="#263238"/>
</svg>
