<svg width="122" height="33" viewBox="0 0 122 33" fill="none" xmlns="http://www.w3.org/2000/svg">
<path d="M38.9266 3.32543C38.9238 2.89009 39.0049 2.4585 39.1653 2.05569C39.3256 1.65288 39.562 1.28686 39.8608 0.97885C40.1596 0.670841 40.5148 0.42697 40.9058 0.261379C41.2968 0.0957891 41.7158 0.0117727 42.1385 0.0142011C43.0016 0.00729956 43.8325 0.351062 44.4511 0.970931C45.0696 1.5908 45.4259 2.4368 45.4427 3.32543C45.4232 4.20887 45.0645 5.04833 44.4452 5.66003C43.8259 6.27172 42.9965 6.60581 42.1385 6.58915C41.7185 6.59594 41.3013 6.51649 40.9115 6.35543C40.5216 6.19437 40.1668 5.95493 39.8678 5.65109C39.5687 5.34725 39.3315 4.9851 39.1699 4.58579C39.0083 4.18648 38.9256 3.75802 38.9266 3.32543V3.32543Z" fill="#263238"/>
<path d="M4.22695 14.4327H0V10.2626H4.22695V8.04052C4.22695 2.46332 7.9251 0 12.2834 0C13.9669 0.0113065 15.6401 0.271 17.2521 0.771159L16.6381 4.6233C15.5183 4.22505 14.3445 4.01166 13.16 3.99102C10.2072 3.99102 8.93304 5.81842 8.93304 8.34387V10.248H16.9007V14.4181H8.94014V32.1913H4.22695V14.4327Z" fill="#263238"/>
<path d="M35.5798 10.3065L34.8699 14.8859C33.8272 14.4893 32.7235 14.29 31.6119 14.2975C28.6165 14.2975 26.2883 16.4283 26.2883 20.4631V32.206H21.5751V10.2773H26.306V12.7698C27.6688 10.8657 29.7841 9.82408 32.4246 9.82408C33.4949 9.80622 34.5607 9.96919 35.5798 10.3065Z" fill="#263238"/>
<path d="M39.7926 10.2626H44.5022V32.1913H39.7926V10.2626Z" fill="#263238"/>
<path d="M49.5803 21.2341C49.5803 14.3412 54.29 9.80927 60.4121 9.80927C66.4456 9.80927 70.8464 14.1146 70.8464 20.7736C70.8467 21.2891 70.8171 21.8041 70.7577 22.3159H54.29C54.6449 26.4422 57.1079 28.7557 60.5009 28.7557C62.6303 28.7557 64.5433 27.831 65.4163 26.0328H69.9592C68.8164 30.4771 64.9408 32.6553 60.4938 32.6553C54.29 32.6626 49.5803 28.1709 49.5803 21.2341ZM66.261 18.6063C65.8635 15.931 63.6631 13.7528 60.4476 13.7528C57.5871 13.7528 55.3405 15.4742 54.549 18.6063H66.261Z" fill="#263238"/>
<path d="M94.7141 18.1498V32.2061H90.0009V19.4144C90.0009 15.8765 87.9744 14.199 85.1138 14.199C82.1645 14.199 80.1806 16.3297 80.1806 20.0466V32.1951H75.4709V10.2664H80.1806V12.759C81.6002 10.8548 83.7474 9.81324 86.4802 9.81324C91.2538 9.80958 94.7141 12.7115 94.7141 18.1498Z" fill="#263238"/>
<path d="M121.616 0.467712V32.2058H116.907V29.1687C115.274 31.3908 112.765 32.6627 109.596 32.6627C103.74 32.6627 99.1614 27.9919 99.1614 21.2342C99.1614 14.4765 103.74 9.80933 109.638 9.80933C112.765 9.80933 115.274 11.0775 116.907 13.2996V0.467712H121.616ZM116.907 21.2342C116.907 16.9727 114.22 14.0708 110.518 14.0708C106.952 14.0708 103.999 16.8375 103.999 21.2342C103.999 25.6309 106.952 28.3975 110.518 28.3975C114.22 28.3975 116.907 25.4957 116.907 21.2342Z" fill="#263238"/>
</svg>
