<svg width="191" height="191" viewBox="0 0 191 191" fill="none" xmlns="http://www.w3.org/2000/svg">
<path opacity="0.8" d="M99 158.466V168C116.703 166.983 133.415 159.492 145.954 146.954C158.492 134.415 165.983 117.703 167 100H157.466C156.464 115.177 149.982 129.472 139.227 140.227C128.472 150.982 114.177 157.464 99 158.466V158.466Z" fill="white"/>
<path opacity="0.8" d="M93 33.3997V24C74.9575 24.7926 57.8696 32.2115 45.0996 44.7964C32.3296 57.3813 24.8025 74.2207 24 92H33.5389C34.3375 76.7143 40.8583 62.2629 51.8409 51.4394C62.8235 40.6158 77.488 34.1884 93 33.3997Z" fill="white"/>
<path opacity="0.8" d="M157.472 92H167C166.202 74.3649 158.807 57.6491 146.245 45.0876C133.684 32.5261 116.849 25.0122 99 24V33.4071C114.323 34.4091 128.74 40.9283 139.518 51.7283C150.295 62.5284 156.684 76.8581 157.472 92V92Z" fill="white"/>
<path opacity="0.8" d="M33.5455 100H24C25.0271 117.849 32.6515 134.684 45.3977 147.245C58.144 159.807 75.1056 167.202 93 168V158.472C77.6364 157.681 63.0976 151.292 52.1393 140.514C41.1811 129.737 34.5651 115.321 33.5455 100V100Z" fill="white"/>
<path d="M143.308 143.308C169.647 116.968 169.647 74.2626 143.308 47.9229C116.968 21.5831 74.2626 21.5831 47.9229 47.9228C21.5831 74.2626 21.5831 116.968 47.9229 143.308C74.2626 169.647 116.968 169.647 143.308 143.308Z" stroke="#0FCFB0" stroke-width="3" stroke-miterlimit="10"/>
</svg>
