<svg width="111" height="158" viewBox="0 0 111 158" fill="none" xmlns="http://www.w3.org/2000/svg">
<path d="M57.6612 0.982056V64.4317L110.395 95.2542V33.2967L57.6612 0.982056Z" fill="#0FCFB0"/>
<path d="M83.689 54.2603C80.3682 54.2603 77.6761 51.5055 77.6761 48.1073C77.6761 44.709 80.3682 41.9542 83.689 41.9542C87.0098 41.9542 89.7019 44.709 89.7019 48.1073C89.7019 51.5055 87.0098 54.2603 83.689 54.2603Z" fill="white"/>
<path d="M52.1396 0.981934V63.8057L-3.29664e-05 94.628V33.7659L52.1396 0.981934Z" fill="#0FCFB0"/>
<path d="M26.5673 54.2603C23.2465 54.2603 20.5544 51.5055 20.5544 48.1073C20.5544 44.709 23.2465 41.9542 26.5673 41.9542C29.8881 41.9542 32.5802 44.709 32.5802 48.1073C32.5802 51.5055 29.8881 54.2603 26.5673 54.2603Z" fill="white"/>
<path d="M107.469 99.5623L55.0125 68.6249L3.07327 99.5623L55.0127 131.029L107.469 99.5623Z" fill="#0FCFB0"/>
<path d="M77.2041 93.3949H71.583C71.583 93.3949 69.1697 106.419 55.5689 106.381C41.968 106.344 36.5168 93.3949 36.5168 93.3949H32.5017C32.5017 93.3949 37.9989 111.275 55.8535 110.789C73.7081 110.303 77.2041 93.3949 77.2041 93.3949Z" fill="white"/>
<path d="M67.1821 123.486V152.683C67.1821 152.683 71.3579 148.981 75.464 149.336C79.5701 149.691 84.6506 157.739 84.6506 157.739H61.9623V125.836L67.1821 123.486Z" fill="#0FCFB0"/>
<path d="M42.8864 123.486V152.683C42.8864 152.683 38.7106 148.981 34.6046 149.336C30.4986 149.691 25.4178 157.739 25.4178 157.739H48.106V125.836L42.8864 123.486Z" fill="#0FCFB0"/>
</svg>
