<svg width="149" height="44" viewBox="0 0 149 44" fill="none" xmlns="http://www.w3.org/2000/svg">
<path d="M54.5346 16.51C54.1422 16.3768 53.3138 16.2879 52.4853 16.2879C49.9998 16.2879 47.34 18.3387 47.34 20.8704V32.9438H41.6717V11.4022H47.1221V13.5786C48.3865 11.9796 50.6974 10.958 53.2701 10.958C53.9134 10.9627 54.5551 11.0222 55.1887 11.1357L54.5346 16.51Z" fill="white"/>
<path d="M60.9439 0.0761719C62.9933 0.0761719 64.6502 1.67513 64.6502 3.7627C64.6502 5.85026 62.9933 7.4491 60.9439 7.4491C58.8945 7.4491 57.2376 5.85026 57.2376 3.7627C57.2376 1.67513 58.8946 0.0761719 60.9439 0.0761719ZM63.7781 32.9438H58.1097V11.4022H63.7781V32.9437V32.9438Z" fill="white"/>
<path d="M80.5222 10.9568C78.2726 10.9278 76.0833 11.6981 74.3308 13.1353V11.4019H68.8792V43.6023H74.5481V31.4339C76.1603 32.7312 78.1627 33.4216 80.217 33.3886C83.3566 33.3886 86.3645 31.9661 88.2395 29.7453C89.8971 27.7906 90.8982 25.1271 90.8982 22.1951C90.8983 15.8435 86.2766 10.9568 80.5222 10.9568ZM79.8332 28.1462C76.3121 28.1462 73.9979 25.6711 73.9979 22.2139C73.9979 18.7567 76.3121 16.2816 79.8332 16.2816C82.8388 16.2816 85.2756 18.938 85.2756 22.2139C85.2756 25.4898 82.8388 28.1462 79.8332 28.1462V28.1462Z" fill="white"/>
<path d="M125.302 32.9438H119.633V1.40869H125.302V32.9439V32.9438Z" fill="white"/>
<path d="M148.411 29.5237C146.362 32.011 143.004 33.3879 139.734 33.3879C133.412 33.3879 128.659 28.9465 128.659 22.1953C128.659 16.1991 132.671 10.958 138.949 10.958C144.792 10.958 148.935 15.977 148.935 21.9731C148.938 22.5237 148.894 23.0736 148.804 23.6166H134.153C134.458 26.6367 136.857 28.7243 139.865 28.7243C142.263 28.7243 144.182 27.3474 145.185 26.237L148.411 29.5237ZM143.135 19.3971C142.961 17.4872 141.261 15.6217 138.949 15.6217C136.595 15.6217 134.676 17.4429 134.415 19.3971H143.135Z" fill="white"/>
<path d="M105.9 10.9568C103.65 10.9279 101.461 11.6981 99.7083 13.1353V11.4019H94.2566V43.6023H99.9255V31.4339C101.538 32.7312 103.54 33.4216 105.594 33.3885C108.734 33.3885 111.742 31.9661 113.617 29.7453C115.275 27.7906 116.276 25.1271 116.276 22.1951C116.276 15.8435 111.654 10.9568 105.9 10.9568ZM105.211 28.1462C101.69 28.1462 99.3753 25.6711 99.3753 22.2139C99.3753 18.7567 101.69 16.2815 105.211 16.2815C108.216 16.2815 110.653 18.938 110.653 22.2139C110.653 25.4897 108.216 28.1462 105.211 28.1462Z" fill="white"/>
<path d="M29.9862 25.0957C28.7064 24.343 27.2651 24.1248 25.8376 24.074C24.6398 24.0314 22.8529 23.2496 22.8529 21.0301C22.8529 19.3765 24.1688 18.0457 25.8382 17.9863C27.2656 17.9355 28.7067 17.7171 29.9862 16.9646C31.1355 16.2887 32.0899 15.3165 32.7534 14.1458C33.417 12.9751 33.7663 11.6471 33.7663 10.2952C33.7663 8.94341 33.417 7.6154 32.7534 6.44469C32.0898 5.27398 31.1354 4.30182 29.9861 3.62592C28.8368 2.95003 27.5331 2.59421 26.206 2.59424C24.8789 2.59427 23.5752 2.95014 22.4259 3.62608C21.2766 4.30202 20.3222 5.27422 19.6587 6.44496C18.9952 7.6157 18.6459 8.94372 18.646 10.2955C18.646 11.7876 19.1669 13.1607 19.8317 14.4342C20.3908 15.5053 20.6736 17.4933 18.7561 18.6209C17.3297 19.4598 15.5495 18.9287 14.6603 17.4791C13.9092 16.2547 13.0025 15.1075 11.7331 14.3608C10.5838 13.6849 9.28015 13.3291 7.95306 13.3291C6.62598 13.3291 5.32228 13.6849 4.17299 14.3608C3.0237 15.0367 2.06932 16.0089 1.40578 17.1796C0.74224 18.3503 0.392914 19.6783 0.392914 21.0301C0.392914 22.3819 0.74224 23.7099 1.40578 24.8806C2.06932 26.0513 3.0237 27.0235 4.17299 27.6994C5.32228 28.3753 6.62598 28.7311 7.95306 28.7311C9.28015 28.7311 10.5838 28.3753 11.7331 27.6993C13.0022 26.9529 13.909 25.8065 14.6596 24.5829C15.2759 23.5781 16.8154 22.2973 18.7561 23.4395C20.1803 24.2777 20.6206 26.1143 19.831 27.627C19.1664 28.9003 18.6461 30.2731 18.6461 31.7649C18.6461 33.1167 18.9954 34.4447 19.6589 35.6154C20.3225 36.786 21.2768 37.7582 22.4261 38.4341C23.5754 39.11 24.8791 39.4658 26.2061 39.4658C27.5332 39.4658 28.8369 39.11 29.9862 38.4341C31.1354 37.7582 32.0898 36.7861 32.7533 35.6154C33.4169 34.4447 33.7662 33.1167 33.7662 31.7649C33.7662 30.4131 33.4169 29.0851 32.7534 27.9144C32.0898 26.7437 31.1355 25.7716 29.9862 25.0957V25.0957Z" fill="url(#paint0_linear_2_381)"/>
<defs>
<linearGradient id="paint0_linear_2_381" x1="9.80487" y1="8.25251" x2="35.3556" y2="33.3358" gradientUnits="userSpaceOnUse">
<stop stop-color="#00AAE4"/>
<stop offset="1" stop-color="#006097"/>
</linearGradient>
</defs>
</svg>
