<svg width="28" height="9" viewBox="0 0 28 9" fill="none" xmlns="http://www.w3.org/2000/svg">
<path d="M0 6.62514L1.56679 6.16168C1.79422 7.02527 2.56077 7.44699 3.48315 7.44699C4.40553 7.44699 5.08644 7.01519 5.08644 6.32145C5.08644 5.6277 4.38448 5.45786 3.44805 5.30385C1.98516 5.05917 0 4.71518 0 2.67855C0 0.951383 1.4278 0 3.29222 0C4.94605 0 6.30505 0.732609 6.68833 2.35759L5.10188 2.82249C4.90955 1.92867 4.10931 1.53574 3.29081 1.53574C2.41897 1.53574 1.91496 1.96754 1.91496 2.60803C1.91496 3.3392 2.54111 3.48313 3.34276 3.62562C4.59647 3.84008 7 4.05741 7 6.25092C7 8.01839 5.43321 9 3.53369 9C1.75913 9 0.348175 8.14361 0 6.62514Z" fill="white"/>
<path d="M20.3046 4.79084V8.59931H18.9958V5.13347C18.9958 4.17491 18.433 3.72039 17.6387 3.72039C16.8197 3.72039 16.2688 4.2977 16.2688 5.30478V8.59733H14.9609V2.65588H16.2688V3.33221C16.663 2.8163 17.2592 2.53309 18.0171 2.53309C19.3377 2.53012 20.3046 3.31637 20.3046 4.79084Z" fill="white"/>
<path d="M27.7751 0V8.59927H26.4663V7.77638C26.0139 8.37845 25.3172 8.72206 24.4371 8.72206C22.8109 8.72206 21.5396 7.45653 21.5396 5.62656C21.5396 3.79659 22.8109 2.53007 24.4489 2.53007C25.3171 2.53007 26.0139 2.87468 26.4663 3.47674V0H27.7751ZM26.4663 5.62656C26.4663 4.47194 25.7212 3.68568 24.6923 3.68568C23.7018 3.68568 22.8828 4.43431 22.8828 5.62656C22.8828 6.81881 23.7018 7.56744 24.6923 7.56744C25.7212 7.56744 26.4663 6.78118 26.4663 5.62656Z" fill="white"/>
<path d="M7.77124 5.62664C7.77124 3.75904 9.07906 2.53015 10.7791 2.53015C12.4546 2.53015 13.6766 3.69765 13.6766 5.50088C13.6767 5.64054 13.6684 5.78008 13.652 5.91876H9.07906C9.17761 7.03675 9.86158 7.66258 10.8038 7.66258C11.3951 7.66258 11.9253 7.41304 12.1687 6.92584H13.4322C13.1139 8.12997 12.0387 8.71917 10.8038 8.71917C9.07906 8.72214 7.77124 7.50612 7.77124 5.62664ZM12.4033 4.91367C12.2929 4.18881 11.6819 3.59961 10.789 3.59961C9.99463 3.59961 9.37078 4.06602 9.151 4.91367H12.4033Z" fill="white"/>
</svg>
