<svg width="22" height="27" viewBox="0 0 22 27" fill="none" xmlns="http://www.w3.org/2000/svg">
<path d="M0.337402 19.3887L4.98978 18.0659C5.66512 20.5307 7.94128 21.7343 10.6802 21.7343C13.4191 21.7343 15.4409 20.5019 15.4409 18.5219C15.4409 16.5419 13.3565 16.0572 10.576 15.6176C6.23207 14.9193 0.337402 13.9375 0.337402 8.12479C0.337402 3.19531 4.57706 0.47998 10.1132 0.47998C15.0241 0.47998 19.0594 2.5709 20.1975 7.20873L15.4868 8.53558C14.9157 5.98457 12.5395 4.86311 10.1091 4.86311C7.52023 4.86311 6.02363 6.09549 6.02363 7.9235C6.02363 10.0103 7.88292 10.4211 10.2633 10.8278C13.986 11.4399 21.123 12.0602 21.123 18.3206C21.123 23.3651 16.4706 26.1667 10.8303 26.1667C5.5609 26.1667 1.37126 23.7225 0.337402 19.3887Z" fill="white"/>
</svg>
