<svg width="15" height="20" viewBox="0 0 15 20" fill="none" xmlns="http://www.w3.org/2000/svg">
<path d="M4.15526 17.4053V19.2803C4.15526 19.4873 4.32326 19.6553 4.53026 19.6553H6.03026C6.12972 19.6553 6.2251 19.6158 6.29543 19.5454C6.36576 19.4751 6.40526 19.3797 6.40526 19.2803V17.4053H7.15526V19.2803C7.15526 19.4873 7.32326 19.6553 7.53026 19.6553H9.03026C9.12972 19.6553 9.2251 19.6158 9.29543 19.5454C9.36576 19.4751 9.40526 19.3797 9.40526 19.2803V17.4053H9.53126C12.5193 17.4053 14.6553 15.8558 14.6553 13.1753C14.6553 10.9223 13.1448 9.69077 11.3763 9.51527V9.38327C12.8313 9.02027 13.9008 7.92227 13.9008 6.09827C13.9008 3.80027 12.1758 2.40527 9.54326 2.40527H9.40526V0.530273C9.40526 0.430817 9.36576 0.335435 9.29543 0.265108C9.2251 0.194782 9.12972 0.155273 9.03026 0.155273L7.53026 0.155273C7.43081 0.155273 7.33543 0.194782 7.2651 0.265108C7.19477 0.335435 7.15526 0.430817 7.15526 0.530273V2.40527H6.29576V0.530273C6.29576 0.430817 6.25626 0.335435 6.18593 0.265108C6.1156 0.194782 6.02022 0.155273 5.92076 0.155273L4.53026 0.155273C4.43081 0.155273 4.33542 0.194782 4.2651 0.265108C4.19477 0.335435 4.15526 0.430817 4.15526 0.530273V2.40527L1.15826 2.42177C1.05881 2.42177 0.963425 2.46128 0.893099 2.53161C0.822773 2.60193 0.783264 2.69732 0.783264 2.79677L0.783264 4.28027C0.783264 4.48577 0.948264 4.65527 1.15526 4.65527L2.28776 4.64777C2.58483 4.64975 2.86906 4.76915 3.07841 4.97992C3.28777 5.19068 3.40527 5.4757 3.40526 5.77277L3.40526 14.0303C3.40526 14.3286 3.28674 14.6148 3.07576 14.8258C2.86478 15.0367 2.57863 15.1553 2.28026 15.1553L1.15826 15.1718C1.05881 15.1718 0.963425 15.2113 0.893099 15.2816C0.822773 15.3519 0.783264 15.4473 0.783264 15.5468V17.0468C0.783264 17.2538 0.951264 17.4218 1.15826 17.4218L4.15526 17.4053ZM6.29576 4.63577L8.87426 4.63577C10.2333 4.63577 11.0313 5.38277 11.0313 6.60377C11.0313 7.91027 10.1688 8.64677 8.21576 8.64677H6.29576L6.29576 4.63577ZM6.29576 10.7123H9.05577C10.7613 10.7123 11.6898 11.5823 11.6898 12.9983C11.6898 14.4278 10.7508 15.1733 8.45276 15.1733H6.29576V10.7138V10.7123Z" fill="#263238"/>
</svg>
