<svg width="13" height="13" viewBox="0 0 13 13" fill="none" xmlns="http://www.w3.org/2000/svg">
<path d="M0.985329 6.50332C0.985329 3.01702 3.47466 0.723022 6.7106 0.723022C9.89965 0.723022 12.2258 2.90242 12.2258 6.26855C12.2259 6.52927 12.2102 6.78975 12.1789 7.04863H3.47466C3.66225 9.1356 4.96413 10.3039 6.7575 10.3039C7.88304 10.3039 8.89228 9.83803 9.35563 8.92856H11.7606C11.1546 11.1764 9.10801 12.2762 6.7575 12.2762C3.47466 12.2818 0.985329 10.0118 0.985329 6.50332ZM9.8021 5.17239C9.592 3.81928 8.42893 2.71941 6.72936 2.71941C5.21738 2.71941 4.02993 3.59006 3.6116 5.17239H9.8021Z" fill="white"/>
</svg>
