<svg width="53" height="59" viewBox="0 0 53 59" fill="none" xmlns="http://www.w3.org/2000/svg">
<path d="M28.3801 55.4423C29.3262 54.9967 30.5075 54.3132 31.8206 53.391L31.8206 53.3911L31.83 53.3843C35.1171 51.0182 38.0313 48.173 40.4754 44.9435C46.2473 37.3939 51.0599 25.9454 48.9783 10.3256L48.9773 10.3185C48.9049 9.80352 48.689 9.3193 48.3543 8.92128C48.0204 8.52434 47.5819 8.22913 47.0886 8.0692C44.6799 7.28113 40.6094 5.9958 36.5781 4.90172L36.5779 4.90167C32.5096 3.79847 28.6143 2.93456 26.5 2.93456C24.6089 2.93456 21.282 3.62814 17.6839 4.56601V4.55024L16.4182 4.89907C12.8913 5.87107 9.38837 6.92799 5.91244 8.06889C5.41894 8.22913 4.98027 8.52459 4.64629 8.9217C4.31189 9.31931 4.09589 9.80285 4.02288 10.3172L4.02284 10.3172L4.02172 10.3256C1.94004 25.9457 6.75293 37.3906 12.5248 44.9437C14.9688 48.1732 17.8829 51.0183 21.17 53.3843L21.17 53.3843L21.1779 53.3899C22.4919 54.3165 23.6701 54.9967 24.6204 55.4425C25.0857 55.6634 25.4863 55.8213 25.8164 55.9238C25.9908 55.9836 26.1703 56.0273 26.3526 56.0545L26.5067 56.0775L26.6604 56.0525C26.8349 56.0241 27.0068 55.9817 27.1745 55.9255C27.5108 55.8226 27.9137 55.6637 28.3801 55.4423ZM28.3801 55.4423C28.3797 55.4425 28.3793 55.4427 28.3789 55.4429L27.9529 54.5381L28.382 55.4414C28.3813 55.4417 28.3807 55.442 28.3801 55.4423ZM37.0347 3.02997L37.0361 3.03036C41.1039 4.12977 45.2105 5.4324 47.6306 6.22312C48.4658 6.49924 49.2064 7.00526 49.7671 7.68313C50.3282 8.36135 50.6866 9.18409 50.8011 10.0568L50.8013 10.0587C52.9601 26.2752 47.9542 38.249 41.9084 46.1575L41.9059 46.1609C39.3424 49.5437 36.2858 52.5225 32.8382 54.998L32.8379 54.9982C31.6655 55.8407 30.4234 56.5816 29.1252 57.213C28.1142 57.6891 27.1775 58 26.5 58C25.8229 58 24.8906 57.6897 23.8743 57.2127C22.5762 56.5814 21.3343 55.8405 20.1621 54.9982L20.1619 54.998C16.7143 52.5224 13.6577 49.5436 11.0941 46.1609L11.0916 46.1575C5.04582 38.249 0.0398954 26.2752 2.19871 10.0587L2.19896 10.0568C2.31346 9.18409 2.67183 8.36135 3.23289 7.68313C3.79376 7.00515 4.53443 6.49908 5.36987 6.22299C8.87599 5.07341 12.4093 4.00863 15.9668 3.02957C19.99 1.93576 24.1118 1 26.5 1C28.8885 1 33.011 1.93599 37.0347 3.02997Z" stroke="#0FCFB0" stroke-width="2"/>
</svg>
