<svg width="9" height="11" viewBox="0 0 9 11" fill="none" xmlns="http://www.w3.org/2000/svg">
<path d="M0.294067 7.47404L2.10947 6.9579C2.37299 7.91966 3.26117 8.38932 4.32991 8.38932C5.39865 8.38932 6.1876 7.90844 6.1876 7.13582C6.1876 6.3632 5.37425 6.17406 4.28924 6.00254C2.59422 5.73004 0.294067 5.34694 0.294067 3.07878C0.294067 1.15525 1.94842 0.0957031 4.10868 0.0957031C6.02493 0.0957031 7.59958 0.9116 8.04367 2.72132L6.20549 3.23907C5.98264 2.24364 5.05542 1.80604 4.10705 1.80604C3.09687 1.80604 2.51289 2.28692 2.51289 3.00023C2.51289 3.81453 3.23839 3.97482 4.16724 4.13351C5.61988 4.37235 8.40479 4.61439 8.40479 7.05728C8.40479 9.02569 6.5894 10.1189 4.38847 10.1189C2.33232 10.1189 0.697489 9.16514 0.294067 7.47404Z" fill="white"/>
</svg>
