<svg width="11" height="16" viewBox="0 0 11 16" fill="none" xmlns="http://www.w3.org/2000/svg">
<path d="M0 8.78H2.62533C2.77867 9.4 2.87333 10.032 2.87333 10.6867C2.87333 12.5333 1.892 14.0147 0.106667 14.3813V16H10.6667V14.3467H3.32267V14.1747C4.42267 13.4747 4.836 12.2467 4.836 10.5827C4.836 9.96267 4.74267 9.36533 4.612 8.78H8.99867V7.484H4.29333C4.04533 6.52 3.79733 5.544 3.79733 4.488C3.79733 2.78933 5.19333 1.73333 7.23733 1.73333C8.2045 1.74666 9.15872 1.95765 10.0413 2.35333V0.608C9.12137 0.213245 8.13173 0.00652205 7.13067 0C3.82 0 1.76267 1.72133 1.76267 4.488C1.76267 5.52133 2.02267 6.508 2.29467 7.484H0V8.78Z" fill="#0FCFB0"/>
</svg>
