<svg width="34" height="38" viewBox="0 0 34 38" fill="none" xmlns="http://www.w3.org/2000/svg">
<path d="M29.9862 23.0957C28.7064 22.343 27.2651 22.1248 25.8376 22.074C24.6398 22.0314 22.8529 21.2496 22.8529 19.0301C22.8529 17.3765 24.1688 16.0457 25.8382 15.9863C27.2656 15.9355 28.7067 15.7171 29.9862 14.9646C31.1355 14.2887 32.0899 13.3165 32.7534 12.1458C33.417 10.9751 33.7663 9.64707 33.7663 8.29524C33.7663 6.94341 33.417 5.6154 32.7534 4.44469C32.0898 3.27398 31.1354 2.30182 29.9861 1.62592C28.8368 0.950028 27.5331 0.594211 26.206 0.594238C24.8789 0.594265 23.5752 0.950135 22.4259 1.62608C21.2766 2.30202 20.3222 3.27422 19.6587 4.44496C18.9952 5.6157 18.6459 6.94372 18.646 8.29555C18.646 9.78762 19.1669 11.1607 19.8317 12.4342C20.3908 13.5053 20.6736 15.4933 18.7561 16.6209C17.3297 17.4598 15.5495 16.9287 14.6603 15.4791C13.9092 14.2547 13.0025 13.1075 11.7331 12.3608C10.5838 11.6849 9.28015 11.3291 7.95306 11.3291C6.62598 11.3291 5.32228 11.6849 4.17299 12.3608C3.0237 13.0367 2.06932 14.0089 1.40578 15.1796C0.74224 16.3503 0.392914 17.6783 0.392914 19.0301C0.392914 20.3819 0.74224 21.7099 1.40578 22.8806C2.06932 24.0513 3.0237 25.0235 4.17299 25.6994C5.32228 26.3753 6.62598 26.7311 7.95306 26.7311C9.28015 26.7311 10.5838 26.3753 11.7331 25.6993C13.0022 24.9529 13.909 23.8065 14.6596 22.5829C15.2759 21.5781 16.8154 20.2973 18.7561 21.4395C20.1803 22.2777 20.6206 24.1143 19.831 25.627C19.1664 26.9003 18.6461 28.2731 18.6461 29.7649C18.6461 31.1167 18.9954 32.4447 19.6589 33.6154C20.3225 34.786 21.2768 35.7582 22.4261 36.4341C23.5754 37.11 24.8791 37.4658 26.2061 37.4658C27.5332 37.4658 28.8369 37.11 29.9862 36.4341C31.1354 35.7582 32.0898 34.7861 32.7533 33.6154C33.4169 32.4447 33.7662 31.1167 33.7662 29.7649C33.7662 28.4131 33.4169 27.0851 32.7534 25.9144C32.0898 24.7437 31.1355 23.7716 29.9862 23.0957Z" fill="url(#paint0_linear_2_388)"/>
<defs>
<linearGradient id="paint0_linear_2_388" x1="9.80487" y1="6.25251" x2="35.3556" y2="31.3358" gradientUnits="userSpaceOnUse">
<stop stop-color="#00AAE4"/>
<stop offset="1" stop-color="#006097"/>
</linearGradient>
</defs>
</svg>
