<svg width="8" height="7" viewBox="0 0 8 7" fill="none" xmlns="http://www.w3.org/2000/svg">
<path d="M0.806641 3.51026C0.806641 1.40546 2.30954 0.0216064 4.26319 0.0216064C6.18853 0.0216064 7.5929 1.33627 7.5929 3.36964C7.59299 3.52704 7.58353 3.6843 7.56458 3.84059H2.30954C2.4228 5.10057 3.20879 5.80701 4.29151 5.80701C4.97104 5.80701 5.58149 5.52465 5.86009 4.97558H7.30976C6.94508 6.33265 5.70833 6.99779 4.28924 6.99779C2.30954 7.00002 0.806641 5.62844 0.806641 3.51026ZM6.12964 2.70784C6.00279 1.89092 5.30061 1.22578 4.27452 1.22578C3.36168 1.22578 2.64477 1.75142 2.39221 2.70784H6.12964Z" fill="white"/>
</svg>
