<svg width="26" height="27" viewBox="0 0 26 27" fill="none" xmlns="http://www.w3.org/2000/svg">
<path d="M0.74968 13.3254C0.74968 5.57789 6.28166 0.47998 13.4728 0.47998C20.5598 0.47998 25.7291 5.3232 25.7291 12.8037C25.7293 13.3831 25.6945 13.9619 25.6249 14.5372H6.28166C6.69854 19.1751 9.59168 21.7712 13.577 21.7712C16.0783 21.7712 18.3211 20.7361 19.3508 18.715H24.6952C23.3487 23.7102 18.8005 26.1544 13.577 26.1544C6.28166 26.1667 0.74968 21.1222 0.74968 13.3254ZM20.343 10.3677C19.8761 7.36072 17.2914 4.91652 13.5145 4.91652C10.1545 4.91652 7.51563 6.85134 6.58599 10.3677H20.343Z" fill="white"/>
</svg>
