<svg width="4" height="4" viewBox="0 0 4 4" fill="none" xmlns="http://www.w3.org/2000/svg">
<path d="M0.767487 2.3093C0.766249 2.12677 0.801797 1.94581 0.872067 1.77691C0.942337 1.60802 1.04593 1.45455 1.17685 1.32541C1.30776 1.19626 1.46339 1.09401 1.63471 1.02458C1.80603 0.95515 1.98963 0.919923 2.17487 0.920941C2.55305 0.918047 2.91715 1.06218 3.18818 1.32209C3.45922 1.58199 3.61534 1.93671 3.6227 2.3093C3.61413 2.67972 3.45696 3.03169 3.1856 3.28817C2.91424 3.54465 2.55081 3.68472 2.17487 3.67774C1.99083 3.68059 1.80805 3.64727 1.63721 3.57974C1.46637 3.51221 1.31091 3.41182 1.17988 3.28442C1.04886 3.15702 0.94491 3.00518 0.874103 2.83775C0.803297 2.67033 0.767051 2.49068 0.767487 2.3093V2.3093Z" fill="white"/>
</svg>
