<svg width="10" height="10" viewBox="0 0 10 10" fill="none" xmlns="http://www.w3.org/2000/svg">
<path d="M0.435669 4.81764C0.435669 1.92753 2.49931 0.0273438 5.18189 0.0273438C7.8256 0.0273438 9.75394 1.83252 9.75394 4.62456C9.75407 4.84069 9.74109 5.05663 9.71506 5.27123H2.49931C2.65483 7.00132 3.73408 7.97133 5.22077 7.97133C6.15384 7.97133 6.99205 7.58363 7.37461 6.82969H9.36516C8.86441 8.69309 7.16622 9.6064 5.21766 9.6064C2.49931 9.60947 0.435669 7.72614 0.435669 4.81764ZM7.74473 3.71584C7.57055 2.59412 6.60638 1.68081 5.19745 1.68081C3.94402 1.68081 2.95963 2.40257 2.61284 3.71584H7.74473Z" fill="white"/>
</svg>
