<svg width="13" height="16" viewBox="0 0 13 16" fill="none" xmlns="http://www.w3.org/2000/svg">
<path d="M0 11.778L2.90975 10.9541C3.33213 12.4894 4.75572 13.2391 6.46871 13.2391C8.18171 13.2391 9.44625 12.4715 9.44625 11.2381C9.44625 10.0048 8.1426 9.70286 6.40353 9.42907C3.68672 8.99408 0 8.38254 0 4.76187C0 1.69135 2.65162 0 6.11412 0C9.18552 0 11.7094 1.30242 12.4212 4.19127L9.47493 5.01775C9.11773 3.42875 7.63157 2.73021 6.11151 2.73021C4.49238 2.73021 3.55636 3.49784 3.55636 4.6365C3.55636 5.93635 4.71921 6.19223 6.20798 6.44555C8.5363 6.8268 13 7.21318 13 11.1127C13 14.2549 10.0903 16 6.56257 16C3.26695 16 0.64661 14.4775 0 11.778Z" fill="white"/>
</svg>
