<svg width="18" height="17" viewBox="0 0 18 17" fill="none" xmlns="http://www.w3.org/2000/svg">
<path d="M4.08614 17V5.53013H0.227649V17H4.08614ZM2.15739 3.96317C3.50292 3.96317 4.34044 3.08242 4.34044 1.98177C4.31537 0.856306 3.50297 0 2.18293 0C0.863092 0 0 0.856323 0 1.98177C0 3.08247 0.837318 3.96317 2.13221 3.96317H2.15727H2.15739ZM6.22181 17H10.0803V10.5947C10.0803 10.2519 10.1054 9.90941 10.2073 9.66436C10.4862 8.97944 11.1211 8.27007 12.187 8.27007C13.5832 8.27007 14.1417 9.32189 14.1417 10.8638V16.9999H18V10.4232C18 6.90011 16.0964 5.26085 13.5578 5.26085C11.4763 5.26085 10.5624 6.41042 10.0546 7.19339H10.0804V5.52989H6.22189C6.27253 6.60616 6.22189 16.9998 6.22189 16.9998L6.22181 17Z" fill="#F8F8F8"/>
</svg>
