<svg width="8" height="10" viewBox="0 0 8 10" fill="none" xmlns="http://www.w3.org/2000/svg">
<path d="M0 7.13717L1.75672 6.63974C2.01172 7.56663 2.87119 8.01927 3.90539 8.01927C4.93958 8.01927 5.70303 7.55582 5.70303 6.81122C5.70303 6.06661 4.91597 5.88432 3.86603 5.71903C2.2258 5.45641 0 5.0872 0 2.90128C0 1.04749 1.60088 0.0263672 3.69131 0.0263672C5.54562 0.0263672 7.06937 0.812681 7.4991 2.55678L5.72035 3.05576C5.50469 2.09643 4.60745 1.67469 3.68973 1.67469C2.71221 1.67469 2.1471 2.13814 2.1471 2.82558C2.1471 3.61035 2.84915 3.76483 3.74798 3.91777C5.15366 4.14795 7.84855 4.38122 7.84855 6.73552C7.84855 8.63256 6.09184 9.68613 3.96206 9.68613C1.97237 9.68613 0.390381 8.76696 0 7.13717Z" fill="white"/>
</svg>
