<svg width="8" height="8" viewBox="0 0 8 8" fill="none" xmlns="http://www.w3.org/2000/svg">
<path d="M7.31778 6.48982C6.62927 7.32546 5.50127 7.78805 4.40263 7.78805C2.27853 7.78805 0.681763 6.29589 0.681763 4.02774C0.681763 2.01326 2.0295 0.252441 4.13896 0.252441C6.10195 0.252441 7.49361 1.93862 7.49361 3.95309C7.49472 4.13809 7.47999 4.32284 7.44961 4.50524H2.52756C2.6301 5.51989 3.43581 6.22124 4.44662 6.22124C5.25225 6.22124 5.89684 5.75865 6.23378 5.38561L7.31778 6.48982ZM5.54526 3.08765C5.48663 2.44599 4.91539 1.81927 4.13894 1.81927C3.34788 1.81927 2.70336 2.43111 2.61548 3.08765H5.54526Z" fill="white"/>
</svg>
