<svg width="23" height="34" viewBox="0 0 23 34" fill="none" xmlns="http://www.w3.org/2000/svg">
<path d="M11.8996 0.956844C9.64997 0.927856 7.46072 1.69814 5.70825 3.13525V1.40193H0.256592V33.6023H5.9255V21.4339C7.53766 22.7312 9.54014 23.4216 11.5944 23.3885C14.7341 23.3885 17.7419 21.9661 19.6169 19.7453C21.2745 17.7906 22.2756 15.1271 22.2756 12.1951C22.2756 5.84355 17.654 0.956844 11.8996 0.956844ZM11.2106 18.1462C7.68952 18.1462 5.37526 15.6711 5.37526 12.2139C5.37526 8.7567 7.68958 6.28153 11.2106 6.28153C14.2161 6.28153 16.6529 8.938 16.6529 12.2139C16.6529 15.4897 14.2162 18.1462 11.2106 18.1462Z" fill="white"/>
</svg>
