<svg width="12" height="13" viewBox="0 0 12 13" fill="none" xmlns="http://www.w3.org/2000/svg">
<path d="M10.5313 8.00202C10.1014 7.74913 9.61717 7.67584 9.13756 7.65878C8.73516 7.64446 8.13481 7.3818 8.13481 6.63615C8.13481 6.0806 8.57693 5.63349 9.13776 5.61354C9.61734 5.59648 10.1015 5.52309 10.5313 5.27029C10.9175 5.04321 11.2381 4.71659 11.461 4.32327C11.684 3.92996 11.8013 3.48379 11.8013 3.02963C11.8013 2.57547 11.6839 2.12931 11.461 1.73599C11.2381 1.34268 10.9174 1.01607 10.5313 0.788991C10.1452 0.561915 9.70719 0.442374 9.26133 0.442383C8.81548 0.442392 8.37748 0.561951 7.99136 0.789042C7.60525 1.01613 7.28462 1.34276 7.0617 1.73608C6.83878 2.1294 6.72144 2.57557 6.72145 3.02973C6.72145 3.53101 6.89648 3.99232 7.11981 4.42016C7.30764 4.78001 7.40267 5.4479 6.75846 5.82675C6.27924 6.10859 5.68116 5.93013 5.38242 5.44313C5.13009 5.03179 4.82547 4.64637 4.399 4.39551C4.01288 4.16843 3.57489 4.04888 3.12904 4.04888C2.68319 4.04888 2.24519 4.16843 1.85908 4.39551C1.47296 4.62259 1.15232 4.94919 0.929397 5.34251C0.706472 5.73582 0.589111 6.18198 0.589111 6.63613C0.589111 7.09029 0.706472 7.53645 0.929397 7.92976C1.15232 8.32307 1.47296 8.64968 1.85908 8.87676C2.24519 9.10384 2.68319 9.22338 3.12904 9.22338C3.57489 9.22338 4.01288 9.10383 4.399 8.87675C4.82535 8.62599 5.12999 8.24083 5.38217 7.82974C5.58925 7.49216 6.10644 7.06187 6.75844 7.4456C7.23693 7.72722 7.38485 8.34423 7.11959 8.85245C6.89629 9.28023 6.72149 9.74143 6.72149 10.2426C6.72149 10.6968 6.83885 11.1429 7.06177 11.5362C7.28469 11.9295 7.60532 12.2562 7.99144 12.4832C8.37755 12.7103 8.81554 12.8298 9.26138 12.8298C9.70723 12.8298 10.1452 12.7103 10.5313 12.4832C10.9174 12.2562 11.2381 11.9295 11.461 11.5362C11.6839 11.1429 11.8013 10.6968 11.8013 10.2426C11.8013 9.78848 11.6839 9.34232 11.461 8.94902C11.2381 8.55571 10.9175 8.2291 10.5313 8.00202V8.00202Z" fill="url(#paint0_linear_122_583)"/>
<defs>
<linearGradient id="paint0_linear_122_583" x1="3.75118" y1="2.34335" x2="12.3353" y2="10.7704" gradientUnits="userSpaceOnUse">
<stop stop-color="#00AAE4"/>
<stop offset="1" stop-color="#006097"/>
</linearGradient>
</defs>
</svg>
