<svg width="11" height="11" viewBox="0 0 11 11" fill="none" xmlns="http://www.w3.org/2000/svg">
<path d="M0.819946 5.1081C0.819946 2.08495 2.97857 0.0957031 5.78463 0.0957031C8.55002 0.0957031 10.5671 1.98557 10.5671 4.90453C10.5672 5.1306 10.5536 5.35648 10.5265 5.58097H2.97857C3.14124 7.39069 4.27017 8.40375 5.8253 8.40375C6.80132 8.40375 7.67648 7.99981 8.07828 7.21116H10.1637C9.63828 9.16034 7.86355 10.1141 5.8253 10.1141C2.97857 10.1189 0.819946 8.15048 0.819946 5.1081ZM8.46543 3.95398C8.28324 2.78063 7.27469 1.82688 5.8009 1.82688C4.48978 1.82688 3.46008 2.58186 3.09733 3.95398H8.46543Z" fill="white"/>
</svg>
