<svg width="11" height="10" viewBox="0 0 11 10" fill="none" xmlns="http://www.w3.org/2000/svg">
<path d="M0.81602 4.93946C0.81197 4.31523 0.928295 3.69639 1.15825 3.1188C1.3882 2.54122 1.7272 2.01639 2.1556 1.57474C2.58401 1.1331 3.0933 0.783413 3.65392 0.545976C4.21455 0.30854 4.81536 0.18807 5.42154 0.191552C6.65909 0.181656 7.85055 0.674571 8.73748 1.56339C9.62442 2.45221 10.1353 3.66526 10.1594 4.93946C10.1313 6.2062 9.61702 7.40989 8.72903 8.28699C7.84105 9.16409 6.65176 9.64313 5.42154 9.61923C4.81926 9.62898 4.22114 9.51506 3.66209 9.28411C3.10305 9.05317 2.5943 8.70984 2.16554 8.27417C1.73678 7.8385 1.39662 7.31922 1.16491 6.74666C0.933202 6.1741 0.814594 5.55974 0.81602 4.93946V4.93946Z" fill="#263238"/>
</svg>
