<svg width="23" height="23" viewBox="0 0 23 23" fill="none" xmlns="http://www.w3.org/2000/svg">
<path d="M20.8437 5.71183C20.1564 6.00831 19.4084 6.22169 18.638 6.30479C19.4379 5.8296 20.0368 5.07888 20.3226 4.19347C19.572 4.63997 18.7498 4.95306 17.8923 5.11886C17.5339 4.73573 17.1005 4.43052 16.619 4.22223C16.1375 4.01395 15.6183 3.90705 15.0937 3.90821C12.9711 3.90821 11.2641 5.62872 11.2641 7.74005C11.2641 8.03653 11.3 8.33302 11.3584 8.61827C8.18019 8.45206 5.34562 6.9337 3.46115 4.60899C3.11778 5.19548 2.93784 5.86327 2.94006 6.54288C2.94006 7.87257 3.61613 9.04503 4.64709 9.73458C4.03953 9.71065 3.4462 9.54366 2.91535 9.24718V9.29434C2.91535 11.1564 4.23156 12.6994 5.98576 13.0543C5.65639 13.1399 5.31756 13.1836 4.97726 13.1846C4.72795 13.1846 4.49211 13.1599 4.25402 13.1262C4.73918 14.6445 6.15197 15.7474 7.83429 15.7833C6.51808 16.8143 4.86945 17.4207 3.07931 17.4207C2.75812 17.4207 2.46164 17.4095 2.15392 17.3735C3.85197 18.4629 5.86672 19.0918 8.03644 19.0918C15.0802 19.0918 18.9345 13.2565 18.9345 8.19151C18.9345 8.0253 18.9345 7.85909 18.9233 7.69288C19.669 7.14708 20.3226 6.47101 20.8437 5.71183Z" fill="#F8F8F8"/>
</svg>
