<svg width="16" height="184" viewBox="0 0 16 184" fill="none" xmlns="http://www.w3.org/2000/svg">
<path d="M8.35355 0.646454C8.15828 0.451187 7.8417 0.451187 7.64644 0.646454L4.46446 3.82843C4.2692 4.0237 4.2692 4.34027 4.46446 4.53554C4.65972 4.73079 4.9763 4.73079 5.17157 4.53554L7.99999 1.70711L10.8284 4.53554C11.0237 4.73079 11.3403 4.73079 11.5355 4.53554C11.7308 4.34027 11.7308 4.0237 11.5355 3.82843L8.35355 0.646454ZM8.5 184L8.5 183.005L7.5 183.005L7.5 184L8.5 184ZM8.5 181.016L8.5 179.027L7.5 179.027L7.5 181.016L8.5 181.016ZM8.5 177.038L8.5 175.049L7.5 175.049L7.5 177.038L8.5 177.038ZM8.5 173.06L8.5 171.071L7.5 171.071L7.5 173.06L8.5 173.06ZM8.5 169.082L8.5 167.092L7.5 167.092L7.5 169.082L8.5 169.082ZM8.5 165.103L8.5 163.114L7.5 163.114L7.5 165.103L8.5 165.103ZM8.5 161.125L8.5 159.136L7.5 159.136L7.5 161.125L8.5 161.125ZM8.5 157.147L8.5 155.158L7.5 155.158L7.5 157.147L8.5 157.147ZM8.5 153.168L8.5 151.179L7.5 151.179L7.5 153.168L8.5 153.168ZM8.5 149.19L8.5 147.201L7.5 147.201L7.5 149.19L8.5 149.19ZM8.5 145.212L8.5 143.223L7.5 143.223L7.5 145.212L8.5 145.212ZM8.5 141.234L8.5 139.245L7.5 139.245L7.5 141.234L8.5 141.234ZM8.5 137.255L8.5 135.266L7.5 135.266L7.5 137.255L8.5 137.255ZM8.5 133.277L8.5 131.288L7.5 131.288L7.5 133.277L8.5 133.277ZM8.5 129.299L8.5 127.31L7.5 127.31L7.5 129.299L8.5 129.299ZM8.5 125.321L8.5 123.332L7.5 123.332L7.5 125.321L8.5 125.321ZM8.5 121.342L8.5 119.353L7.5 119.353L7.5 121.342L8.5 121.342ZM8.5 117.364L8.5 115.375L7.5 115.375L7.5 117.364L8.5 117.364ZM8.5 113.386L8.5 111.397L7.5 111.397L7.5 113.386L8.5 113.386ZM8.5 109.408L8.5 107.418L7.5 107.418L7.5 109.408L8.5 109.408ZM8.5 105.429L8.5 103.44L7.5 103.44L7.5 105.429L8.5 105.429ZM8.5 101.451L8.5 99.462L7.5 99.462L7.5 101.451L8.5 101.451ZM8.5 97.4728L8.5 95.4837L7.5 95.4837L7.5 97.4728L8.5 97.4728ZM8.5 93.4946L8.5 91.5055L7.5 91.5055L7.5 93.4946L8.5 93.4946ZM8.5 89.5163L8.5 87.5272L7.5 87.5272L7.5 89.5163L8.5 89.5163ZM8.5 85.5381L8.5 83.5489L7.5 83.5489L7.5 85.5381L8.5 85.5381ZM8.5 81.5598L8.5 79.5707L7.5 79.5707L7.5 81.5598L8.5 81.5598ZM8.5 77.5816L8.5 75.5924L7.5 75.5924L7.5 77.5816L8.5 77.5816ZM8.5 73.6033L8.5 71.6142L7.5 71.6142L7.5 73.6033L8.5 73.6033ZM8.5 69.625L8.49999 67.6359L7.49999 67.6359L7.5 69.625L8.5 69.625ZM8.49999 65.6468L8.49999 63.6577L7.49999 63.6577L7.49999 65.6468L8.49999 65.6468ZM8.49999 61.6685L8.49999 59.6794L7.49999 59.6794L7.49999 61.6685L8.49999 61.6685ZM8.49999 57.6903L8.49999 55.7011L7.49999 55.7011L7.49999 57.6903L8.49999 57.6903ZM8.49999 53.712L8.49999 51.7229L7.49999 51.7229L7.49999 53.712L8.49999 53.712ZM8.49999 49.7337L8.49999 47.7446L7.49999 47.7446L7.49999 49.7337L8.49999 49.7337ZM8.49999 45.7555L8.49999 43.7663L7.49999 43.7663L7.49999 45.7555L8.49999 45.7555ZM8.49999 41.7772L8.49999 39.7881L7.49999 39.7881L7.49999 41.7772L8.49999 41.7772ZM8.49999 37.7989L8.49999 35.8098L7.49999 35.8098L7.49999 37.7989L8.49999 37.7989ZM8.49999 33.8206L8.49999 31.8315L7.49999 31.8315L7.49999 33.8206L8.49999 33.8206ZM8.49999 29.8424L8.49999 27.8532L7.49999 27.8532L7.49999 29.8424L8.49999 29.8424ZM8.49999 25.8641L8.49999 23.875L7.49999 23.875L7.49999 25.8641L8.49999 25.8641ZM8.49999 21.8858L8.49999 19.8967L7.49999 19.8967L7.49999 21.8858L8.49999 21.8858ZM8.49999 17.9076L8.49999 15.9184L7.49999 15.9184L7.49999 17.9076L8.49999 17.9076ZM8.49999 13.9293L8.49999 11.9402L7.49999 11.9402L7.49999 13.9293L8.49999 13.9293ZM8.49999 9.95102L8.49999 7.96188L7.49999 7.96188L7.49999 9.95102L8.49999 9.95102ZM8.49999 5.97275L8.49999 3.98361L7.49999 3.98361L7.49999 5.97275L8.49999 5.97275ZM8.49999 1.99448L8.49999 1L7.49999 1L7.49999 1.99448L8.49999 1.99448ZM8.7071 0.292892C8.31657 -0.0976257 7.68341 -0.0976257 7.29289 0.292892L0.928924 6.65686C0.5384 7.04738 0.5384 7.68054 0.928924 8.07108C1.31945 8.46159 1.95261 8.46159 2.34314 8.07108L7.99999 2.41422L13.6568 8.07108C14.0474 8.46159 14.6805 8.46159 15.0711 8.07108C15.4616 7.68054 15.4616 7.04738 15.0711 6.65686L8.7071 0.292892ZM9 184L9 183.005L7 183.005L7 184L9 184ZM9 181.016L9 179.027L7 179.027L7 181.016L9 181.016ZM9 177.038L9 175.049L7 175.049L7 177.038L9 177.038ZM9 173.06L9 171.071L7 171.071L7 173.06L9 173.06ZM9 169.082L9 167.092L7 167.092L7 169.082L9 169.082ZM9 165.103L9 163.114L7 163.114L7 165.103L9 165.103ZM9 161.125L9 159.136L7 159.136L7 161.125L9 161.125ZM9 157.147L9 155.158L7 155.158L7 157.147L9 157.147ZM9 153.168L9 151.179L7 151.179L7 153.168L9 153.168ZM9 149.19L9 147.201L7 147.201L7 149.19L9 149.19ZM9 145.212L9 143.223L7 143.223L7 145.212L9 145.212ZM9 141.234L9 139.245L7 139.245L7 141.234L9 141.234ZM9 137.255L9 135.266L7 135.266L7 137.255L9 137.255ZM9 133.277L9 131.288L7 131.288L7 133.277L9 133.277ZM9 129.299L9 127.31L7 127.31L7 129.299L9 129.299ZM9 125.321L9 123.332L7 123.332L7 125.321L9 125.321ZM9 121.342L9 119.353L7 119.353L7 121.342L9 121.342ZM9 117.364L9 115.375L7 115.375L7 117.364L9 117.364ZM9 113.386L9 111.397L7 111.397L7 113.386L9 113.386ZM9 109.408L9 107.418L7 107.418L7 109.408L9 109.408ZM9 105.429L9 103.44L7 103.44L7 105.429L9 105.429ZM9 101.451L9 99.462L7 99.462L7 101.451L9 101.451ZM9 97.4728L9 95.4837L7 95.4837L7 97.4728L9 97.4728ZM9 93.4946L9 91.5055L7 91.5055L7 93.4946L9 93.4946ZM9 89.5163L9 87.5272L7 87.5272L7 89.5163L9 89.5163ZM9 85.5381L9 83.5489L7 83.5489L7 85.5381L9 85.5381ZM9 81.5598L9 79.5707L7 79.5707L7 81.5598L9 81.5598ZM9 77.5816L9 75.5924L7 75.5924L7 77.5816L9 77.5816ZM9 73.6033L9 71.6142L7 71.6142L7 73.6033L9 73.6033ZM9 69.625L8.99999 67.6359L6.99999 67.6359L7 69.625L9 69.625ZM8.99999 65.6468L8.99999 63.6577L6.99999 63.6577L6.99999 65.6468L8.99999 65.6468ZM8.99999 61.6685L8.99999 59.6794L6.99999 59.6794L6.99999 61.6685L8.99999 61.6685ZM8.99999 57.6903L8.99999 55.7011L6.99999 55.7011L6.99999 57.6903L8.99999 57.6903ZM8.99999 53.712L8.99999 51.7229L6.99999 51.7229L6.99999 53.712L8.99999 53.712ZM8.99999 49.7337L8.99999 47.7446L6.99999 47.7446L6.99999 49.7337L8.99999 49.7337ZM8.99999 45.7555L8.99999 43.7663L6.99999 43.7663L6.99999 45.7555L8.99999 45.7555ZM8.99999 41.7772L8.99999 39.7881L6.99999 39.7881L6.99999 41.7772L8.99999 41.7772ZM8.99999 37.7989L8.99999 35.8098L6.99999 35.8098L6.99999 37.7989L8.99999 37.7989ZM8.99999 33.8206L8.99999 31.8315L6.99999 31.8315L6.99999 33.8206L8.99999 33.8206ZM8.99999 29.8424L8.99999 27.8532L6.99999 27.8532L6.99999 29.8424L8.99999 29.8424ZM8.99999 25.8641L8.99999 23.875L6.99999 23.875L6.99999 25.8641L8.99999 25.8641ZM8.99999 21.8858L8.99999 19.8967L6.99999 19.8967L6.99999 21.8858L8.99999 21.8858ZM8.99999 17.9076L8.99999 15.9184L6.99999 15.9184L6.99999 17.9076L8.99999 17.9076ZM8.99999 13.9293L8.99999 11.9402L6.99999 11.9402L6.99999 13.9293L8.99999 13.9293ZM8.99999 9.95102L8.99999 7.96188L6.99999 7.96188L6.99999 9.95102L8.99999 9.95102ZM8.99999 5.97275L8.99999 3.98361L6.99999 3.98361L6.99999 5.97275L8.99999 5.97275ZM8.99999 1.99448L8.99999 1L6.99999 1L6.99999 1.99448L8.99999 1.99448Z" fill="#263238"/>
</svg>
