<svg width="16" height="166" viewBox="0 0 16 166" fill="none" xmlns="http://www.w3.org/2000/svg">
<path d="M7.61335 165.344C7.80377 165.544 8.12025 165.552 8.32025 165.362L11.5793 162.259C11.7793 162.068 11.7871 161.752 11.5967 161.552C11.4063 161.352 11.0898 161.344 10.8898 161.534L7.99282 164.293L5.23463 161.396C5.04422 161.196 4.72773 161.188 4.52774 161.378C4.32775 161.569 4.31998 161.885 4.51039 162.085L7.61335 165.344ZM11.5002 0.987734L11.4756 1.98773L12.4753 2.01226L12.4998 1.01227L11.5002 0.987734ZM11.4265 3.98772L11.3775 5.98772L12.3772 6.01225L12.4262 4.01226L11.4265 3.98772ZM11.3284 7.98771L11.2793 9.9877L12.279 10.0122L12.3281 8.01224L11.3284 7.98771ZM11.2302 11.9877L11.1811 13.9877L12.1808 14.0122L12.2299 12.0122L11.2302 11.9877ZM11.1321 15.9877L11.083 17.9877L12.0827 18.0122L12.1318 16.0122L11.1321 15.9877ZM11.0339 19.9877L10.9848 21.9877L11.9845 22.0122L12.0336 20.0122L11.0339 19.9877ZM10.9357 23.9877L10.8867 25.9876L11.8864 26.0122L11.9354 24.0122L10.9357 23.9877ZM10.8376 27.9876L10.7885 29.9876L11.7882 30.0122L11.8373 28.0122L10.8376 27.9876ZM10.7394 31.9876L10.6903 33.9876L11.69 34.0121L11.7391 32.0122L10.7394 31.9876ZM10.6413 35.9876L10.5922 37.9876L11.5919 38.0121L11.641 36.0121L10.6413 35.9876ZM10.5431 39.9876L10.494 41.9876L11.4937 42.0121L11.5428 40.0121L10.5431 39.9876ZM10.4449 43.9876L10.3959 45.9876L11.3956 46.0121L11.4446 44.0121L10.4449 43.9876ZM10.3468 47.9876L10.2977 49.9876L11.2974 50.0121L11.3465 48.0121L10.3468 47.9876ZM10.2486 51.9876L10.1995 53.9875L11.1992 54.0121L11.2483 52.0121L10.2486 51.9876ZM10.1505 55.9875L10.1014 57.9875L11.1011 58.0121L11.1502 56.0121L10.1505 55.9875ZM10.0523 59.9875L10.0032 61.9875L11.0029 62.012L11.052 60.0121L10.0523 59.9875ZM9.95414 63.9875L9.90506 65.9875L10.9048 66.012L10.9538 64.012L9.95414 63.9875ZM9.85598 67.9875L9.80691 69.9875L10.8066 70.012L10.8557 68.012L9.85598 67.9875ZM9.75783 71.9875L9.70875 73.9875L10.7084 74.012L10.7575 72.012L9.75783 71.9875ZM9.65967 75.9875L9.61059 77.9875L10.6103 78.012L10.6594 76.012L9.65967 75.9875ZM9.56151 79.9875L9.51243 81.9874L10.5121 82.012L10.5612 80.012L9.56151 79.9875ZM9.46335 83.9874L9.41427 85.9874L10.414 86.012L10.463 84.012L9.46335 83.9874ZM9.36519 87.9874L9.31611 89.9874L10.3158 90.012L10.3649 88.012L9.36519 87.9874ZM9.26703 91.9874L9.21795 93.9874L10.2176 94.0119L10.2667 92.0119L9.26703 91.9874ZM9.16887 95.9874L9.11979 97.9874L10.1195 98.0119L10.1686 96.0119L9.16887 95.9874ZM9.07071 99.9874L9.02163 101.987L10.0213 102.012L10.0704 100.012L9.07071 99.9874ZM8.97255 103.987L8.92347 105.987L9.92317 106.012L9.97225 104.012L8.97255 103.987ZM8.87439 107.987L8.82531 109.987L9.82501 110.012L9.87409 108.012L8.87439 107.987ZM8.77623 111.987L8.72715 113.987L9.72685 114.012L9.77593 112.012L8.77623 111.987ZM8.67807 115.987L8.629 117.987L9.62869 118.012L9.67777 116.012L8.67807 115.987ZM8.57992 119.987L8.53084 121.987L9.53054 122.012L9.57961 120.012L8.57992 119.987ZM8.48176 123.987L8.43268 125.987L9.43238 126.012L9.48146 124.012L8.48176 123.987ZM8.3836 127.987L8.33452 129.987L9.33422 130.012L9.3833 128.012L8.3836 127.987ZM8.28544 131.987L8.23636 133.987L9.23606 134.012L9.28514 132.012L8.28544 131.987ZM8.18728 135.987L8.1382 137.987L9.1379 138.012L9.18698 136.012L8.18728 135.987ZM8.08912 139.987L8.04004 141.987L9.03974 142.012L9.08882 140.012L8.08912 139.987ZM7.99096 143.987L7.94188 145.987L8.94158 146.012L8.99066 144.012L7.99096 143.987ZM7.8928 147.987L7.84372 149.987L8.84342 150.012L8.8925 148.012L7.8928 147.987ZM7.79464 151.987L7.74556 153.987L8.74526 154.012L8.79434 152.012L7.79464 151.987ZM7.69648 155.987L7.6474 157.987L8.6471 158.012L8.69618 156.012L7.69648 155.987ZM7.59832 159.987L7.54924 161.987L8.54894 162.012L8.59802 160.012L7.59832 159.987ZM7.50016 163.987L7.47563 164.987L8.47532 165.012L8.49986 164.012L7.50016 163.987ZM7.25123 165.689C7.63206 166.089 8.26503 166.104 8.66502 165.724L15.1832 159.518C15.5832 159.137 15.5987 158.504 15.2179 158.104C14.8371 157.704 14.2041 157.688 13.8041 158.069L8.01017 163.586L2.49379 157.792C2.11297 157.392 1.47999 157.376 1.08001 157.757C0.680019 158.138 0.664486 158.771 1.04531 159.171L7.25123 165.689ZM11.0003 0.975468L10.9758 1.97546L12.9752 2.02453L12.9997 1.02453L11.0003 0.975468ZM10.9267 3.97546L10.8776 5.97545L12.877 6.02451L12.9261 4.02452L10.9267 3.97546ZM10.8285 7.97544L10.7794 9.97543L12.7788 10.0245L12.8279 8.02451L10.8285 7.97544ZM10.7304 11.9754L10.6813 13.9754L12.6807 14.0245L12.7298 12.0245L10.7304 11.9754ZM10.6322 15.9754L10.5831 17.9754L12.5825 18.0245L12.6316 16.0245L10.6322 15.9754ZM10.534 19.9754L10.485 21.9754L12.4844 22.0245L12.5334 20.0245L10.534 19.9754ZM10.4359 23.9754L10.3868 25.9754L12.3862 26.0244L12.4353 24.0245L10.4359 23.9754ZM10.3377 27.9754L10.2886 29.9754L12.288 30.0244L12.3371 28.0244L10.3377 27.9754ZM10.2396 31.9754L10.1905 33.9753L12.1899 34.0244L12.239 32.0244L10.2396 31.9754ZM10.1414 35.9753L10.0923 37.9753L12.0917 38.0244L12.1408 36.0244L10.1414 35.9753ZM10.0432 39.9753L9.99417 41.9753L11.9936 42.0244L12.0426 40.0244L10.0432 39.9753ZM9.94509 43.9753L9.89601 45.9753L11.8954 46.0244L11.9445 44.0244L9.94509 43.9753ZM9.84693 47.9753L9.79785 49.9753L11.7972 50.0244L11.8463 48.0244L9.84693 47.9753ZM9.74877 51.9753L9.69969 53.9753L11.6991 54.0243L11.7482 52.0244L9.74877 51.9753ZM9.65061 55.9753L9.60153 57.9753L11.6009 58.0243L11.65 56.0243L9.65061 55.9753ZM9.55245 59.9753L9.50337 61.9752L11.5028 62.0243L11.5519 60.0243L9.55245 59.9753ZM9.45429 63.9752L9.40521 65.9752L11.4046 66.0243L11.4537 64.0243L9.45429 63.9752ZM9.35614 67.9752L9.30706 69.9752L11.3065 70.0243L11.3555 68.0243L9.35614 67.9752ZM9.25798 71.9752L9.2089 73.9752L11.2083 74.0243L11.2574 72.0243L9.25798 71.9752ZM9.15982 75.9752L9.11074 77.9752L11.1101 78.0243L11.1592 76.0243L9.15982 75.9752ZM9.06166 79.9752L9.01258 81.9752L11.012 82.0242L11.0611 80.0242L9.06166 79.9752ZM8.9635 83.9752L8.91442 85.9752L10.9138 86.0242L10.9629 84.0242L8.9635 83.9752ZM8.86534 87.9752L8.81626 89.9752L10.8157 90.0242L10.8647 88.0242L8.86534 87.9752ZM8.76718 91.9751L8.7181 93.9751L10.7175 94.0242L10.7666 92.0242L8.76718 91.9751ZM8.66902 95.9751L8.61994 97.9751L10.6193 98.0242L10.6684 96.0242L8.66902 95.9751ZM8.57086 99.9751L8.52178 101.975L10.5212 102.024L10.5703 100.024L8.57086 99.9751ZM8.4727 103.975L8.42362 105.975L10.423 106.024L10.4721 104.024L8.4727 103.975ZM8.37454 107.975L8.32546 109.975L10.3249 110.024L10.3739 108.024L8.37454 107.975ZM8.27638 111.975L8.2273 113.975L10.2267 114.024L10.2758 112.024L8.27638 111.975ZM8.17823 115.975L8.12915 117.975L10.1285 118.024L10.1776 116.024L8.17823 115.975ZM8.08007 119.975L8.03099 121.975L10.0304 122.024L10.0795 120.024L8.08007 119.975ZM7.98191 123.975L7.93283 125.975L9.93223 126.024L9.9813 124.024L7.98191 123.975ZM7.88375 127.975L7.83467 129.975L9.83407 130.024L9.88315 128.024L7.88375 127.975ZM7.78559 131.975L7.73651 133.975L9.73591 134.024L9.78499 132.024L7.78559 131.975ZM7.68743 135.975L7.63835 137.975L9.63775 138.024L9.68683 136.024L7.68743 135.975ZM7.58927 139.975L7.54019 141.975L9.53959 142.024L9.58867 140.024L7.58927 139.975ZM7.49111 143.975L7.44203 145.975L9.44143 146.024L9.49051 144.024L7.49111 143.975ZM7.39295 147.975L7.34387 149.975L9.34327 150.024L9.39235 148.024L7.39295 147.975ZM7.29479 151.975L7.24571 153.975L9.24511 154.024L9.29419 152.024L7.29479 151.975ZM7.19663 155.975L7.14755 157.975L9.14695 158.024L9.19603 156.024L7.19663 155.975ZM7.09847 159.975L7.04939 161.975L9.04879 162.024L9.09787 160.024L7.09847 159.975ZM7.00032 163.975L6.97578 164.975L8.97517 165.024L8.99971 164.024L7.00032 163.975Z" fill="#263238"/>
</svg>
