<svg width="78" height="79" viewBox="0 0 78 79" fill="none" xmlns="http://www.w3.org/2000/svg">
<path d="M30.5502 69.8934C42.9229 69.8934 52.9497 59.8666 52.9497 47.4939C52.9497 35.1213 42.9229 25.0945 30.5502 25.0945C18.1776 25.0945 8.15075 35.1213 8.15075 47.4939C8.15075 59.8666 18.1776 69.8934 30.5502 69.8934ZM30.5502 78.0387C13.6814 78.0387 0.00549316 64.3628 0.00549316 47.4939C0.00549316 30.6251 13.6814 16.9492 30.5502 16.9492C47.419 16.9492 61.0949 30.6251 61.0949 47.4939C61.0949 64.3628 47.419 78.0387 30.5502 78.0387Z" fill="#FBCC5C"/>
<path d="M46.8407 53.6029C59.2134 53.6029 69.2402 43.5761 69.2402 31.2034C69.2402 18.8308 59.2134 8.80395 46.8407 8.80395C34.4681 8.80395 24.4413 18.8308 24.4413 31.2034C24.4413 43.5761 34.4681 53.6029 46.8407 53.6029ZM46.8407 61.7481C29.9719 61.7481 16.296 48.0722 16.296 31.2034C16.296 14.3346 29.9719 0.658691 46.8407 0.658691C63.7096 0.658691 77.3855 14.3346 77.3855 31.2034C77.3855 48.0722 63.7096 61.7481 46.8407 61.7481Z" fill="#0FCFB0"/>
<path d="M47.8507 61.7481C49.9685 59.1824 51.4835 56.1768 52.2899 52.9431C55.5154 52.1367 58.521 50.6217 61.0949 48.5039C60.9809 52.2426 60.1745 55.9243 58.7165 59.3779C55.2711 60.8277 51.5894 61.6341 47.8507 61.7481ZM25.101 25.7542C21.8755 26.5606 18.8699 28.0756 16.296 30.1934C16.4101 26.4547 17.2164 22.7731 18.6744 19.3276C22.1199 17.8778 25.8097 17.0714 29.5402 16.9492C27.4224 19.515 25.9074 22.5206 25.101 25.7542Z" fill="#0FCFB0"/>
</svg>
