<svg width="25" height="25" viewBox="0 0 25 25" fill="none" xmlns="http://www.w3.org/2000/svg">
<path d="M9.15526 20.4053V22.2803C9.15526 22.4873 9.32326 22.6553 9.53026 22.6553H11.0303C11.1297 22.6553 11.2251 22.6158 11.2954 22.5454C11.3658 22.4751 11.4053 22.3797 11.4053 22.2803V20.4053H12.1553V22.2803C12.1553 22.4873 12.3233 22.6553 12.5303 22.6553H14.0303C14.1297 22.6553 14.2251 22.6158 14.2954 22.5454C14.3658 22.4751 14.4053 22.3797 14.4053 22.2803V20.4053H14.5313C17.5193 20.4053 19.6553 18.8558 19.6553 16.1753C19.6553 13.9223 18.1448 12.6908 16.3763 12.5153V12.3833C17.8313 12.0203 18.9008 10.9223 18.9008 9.09827C18.9008 6.80027 17.1758 5.40527 14.5433 5.40527H14.4053V3.53027C14.4053 3.43082 14.3658 3.33543 14.2954 3.26511C14.2251 3.19478 14.1297 3.15527 14.0303 3.15527H12.5303C12.4308 3.15527 12.3354 3.19478 12.2651 3.26511C12.1948 3.33543 12.1553 3.43082 12.1553 3.53027V5.40527H11.2958V3.53027C11.2958 3.43082 11.2563 3.33543 11.1859 3.26511C11.1156 3.19478 11.0202 3.15527 10.9208 3.15527L9.53026 3.15527C9.43081 3.15527 9.33542 3.19478 9.2651 3.26511C9.19477 3.33543 9.15526 3.43082 9.15526 3.53027V5.40527L6.15826 5.42177C6.05881 5.42177 5.96342 5.46128 5.8931 5.53161C5.82277 5.60193 5.78326 5.69732 5.78326 5.79677V7.28027C5.78326 7.48577 5.94826 7.65527 6.15526 7.65527L7.28776 7.64777C7.58483 7.64975 7.86906 7.76915 8.07842 7.97992C8.28777 8.19068 8.40527 8.4757 8.40526 8.77277V17.0303C8.40526 17.3286 8.28674 17.6148 8.07576 17.8258C7.86478 18.0367 7.57863 18.1553 7.28026 18.1553L6.15826 18.1718C6.05881 18.1718 5.96342 18.2113 5.8931 18.2816C5.82277 18.3519 5.78326 18.4473 5.78326 18.5468V20.0468C5.78326 20.2538 5.95126 20.4218 6.15826 20.4218L9.15526 20.4053ZM11.2958 7.63577L13.8743 7.63577C15.2333 7.63577 16.0313 8.38277 16.0313 9.60377C16.0313 10.9103 15.1688 11.6468 13.2158 11.6468H11.2958V7.63577V7.63577ZM11.2958 13.7123H14.0558C15.7613 13.7123 16.6898 14.5823 16.6898 15.9983C16.6898 17.4278 15.7508 18.1733 13.4528 18.1733H11.2958V13.7138V13.7123Z" fill="#263238"/>
</svg>
