<svg width="202" height="73" viewBox="0 0 202 73" fill="none" xmlns="http://www.w3.org/2000/svg">
<path d="M48.4839 6.57568V30.9416L27.8153 42.7781V18.9852L48.4839 6.57568Z" fill="white"/>
<path d="M38.2825 27.0351C39.5841 27.0351 40.6392 25.9773 40.6392 24.6723C40.6392 23.3674 39.5841 22.3096 38.2825 22.3096C36.981 22.3096 35.9258 23.3674 35.9258 24.6723C35.9258 25.9773 36.981 27.0351 38.2825 27.0351Z" fill="#0FCFB0"/>
<path d="M50.6482 6.57568V30.7012L71.0839 42.5376V19.1653L50.6482 6.57568Z" fill="white"/>
<path d="M60.6709 27.0351C61.9725 27.0351 63.0276 25.9773 63.0276 24.6723C63.0276 23.3674 61.9725 22.3096 60.6709 22.3096C59.3694 22.3096 58.3143 23.3674 58.3143 24.6723C58.3143 25.9773 59.3694 27.0351 60.6709 27.0351Z" fill="#0FCFB0"/>
<path d="M28.9622 44.432L49.522 32.5518L69.8791 44.432L49.5219 56.5154L28.9622 44.432Z" fill="white"/>
<path d="M40.8243 42.064H43.0275C43.0275 42.064 43.9733 47.066 49.3041 47.0517C54.6348 47.0374 56.7714 42.064 56.7714 42.064H58.3451C58.3451 42.064 56.1905 48.9312 49.1925 48.7445C42.1945 48.5578 40.8243 42.064 40.8243 42.064Z" fill="#0FCFB0"/>
<path d="M44.7523 53.6191V64.8318C44.7523 64.8318 43.1156 63.41 41.5062 63.5464C39.8969 63.6828 37.9056 66.7734 37.9056 66.7734H46.7981V54.5216L44.7523 53.6191Z" fill="white"/>
<path d="M54.2747 53.6191V64.8318C54.2747 64.8318 55.9114 63.41 57.5207 63.5464C59.13 63.6828 61.1214 66.7734 61.1214 66.7734H52.229V54.5216L54.2747 53.6191Z" fill="white"/>
<path d="M109.243 44.3911C109.241 44.0782 109.302 43.7679 109.422 43.4784C109.543 43.1888 109.72 42.9257 109.945 42.7043C110.169 42.4828 110.436 42.3075 110.73 42.1885C111.024 42.0695 111.338 42.0091 111.656 42.0108C112.304 42.0059 112.929 42.253 113.393 42.6986C113.858 43.1442 114.126 43.7523 114.138 44.3911C114.124 45.0262 113.854 45.6297 113.389 46.0694C112.924 46.5091 112.301 46.7493 111.656 46.7373C111.34 46.7422 111.027 46.6851 110.734 46.5693C110.441 46.4535 110.175 46.2814 109.95 46.063C109.726 45.8445 109.547 45.5842 109.426 45.2972C109.304 45.0101 109.242 44.7021 109.243 44.3911V44.3911Z" fill="white"/>
<path d="M83.1755 52.3751H80V49.3774H83.1755V47.78C83.1755 43.7708 85.9537 42 89.2278 42C90.4925 42.0081 91.7495 42.1948 92.9605 42.5544L92.4992 45.3235C91.658 45.0372 90.7762 44.8838 89.8863 44.869C87.668 44.869 86.7109 46.1826 86.7109 47.9981V49.3669H92.6965V52.3646H86.7162V65.1411H83.1755V52.3751Z" fill="white"/>
<path d="M106.729 49.4088L106.196 52.7008C105.412 52.4156 104.583 52.2724 103.748 52.2778C101.498 52.2778 99.7487 53.8095 99.7487 56.71V65.1514H96.208V49.3878H99.7621V51.1796C100.786 49.8108 102.375 49.062 104.359 49.062C105.163 49.0492 105.963 49.1663 106.729 49.4088Z" fill="white"/>
<path d="M109.894 49.3774H113.432V65.1411H109.894V49.3774Z" fill="white"/>
<path d="M117.247 57.2646C117.247 52.3096 120.785 49.0518 125.384 49.0518C129.917 49.0518 133.223 52.1467 133.223 56.9336C133.223 57.3041 133.201 57.6744 133.156 58.0423H120.785C121.052 61.0085 122.902 62.6716 125.451 62.6716C127.051 62.6716 128.488 62.0069 129.144 60.7142H132.556C131.698 63.909 128.786 65.4749 125.446 65.4749C120.785 65.4801 117.247 62.2512 117.247 57.2646ZM129.778 55.3756C129.48 53.4524 127.827 51.8866 125.411 51.8866C123.262 51.8866 121.574 53.124 120.98 55.3756H129.778Z" fill="white"/>
<path d="M151.153 55.047V65.1515H147.613V55.9561C147.613 53.4129 146.09 52.2069 143.941 52.2069C141.726 52.2069 140.235 53.7386 140.235 56.4106V65.1436H136.697V49.38H140.235V51.1718C141.302 49.803 142.915 49.0542 144.968 49.0542C148.554 49.0516 151.153 51.1376 151.153 55.047Z" fill="white"/>
<path d="M171.363 42.3364V65.1517H167.825V62.9684C166.599 64.5658 164.714 65.4801 162.333 65.4801C157.934 65.4801 154.494 62.1224 154.494 57.2646C154.494 52.4068 157.934 49.0517 162.365 49.0517C164.714 49.0517 166.599 49.9634 167.825 51.5608V42.3364H171.363ZM167.825 57.2646C167.825 54.2012 165.807 52.1151 163.026 52.1151C160.346 52.1151 158.128 54.104 158.128 57.2646C158.128 60.4252 160.346 62.4141 163.026 62.4141C165.807 62.4141 167.825 60.328 167.825 57.2646Z" fill="white"/>
<path d="M81 32.672L84.1125 31.7871C84.5643 33.436 86.087 34.2412 87.9194 34.2412C89.7517 34.2412 91.1043 33.4168 91.1043 32.0921C91.1043 30.7675 89.7099 30.4432 87.8496 30.1491C84.9436 29.6819 81 29.0251 81 25.1364C81 21.8385 83.8364 20.022 87.5401 20.022C90.8255 20.022 93.5252 21.4208 94.2865 24.5235L91.135 25.4112C90.7529 23.7046 89.1632 22.9543 87.5373 22.9543C85.8054 22.9543 84.8041 23.7788 84.8041 25.0017C84.8041 26.3978 86.048 26.6726 87.6405 26.9447C90.131 27.3542 94.9057 27.7692 94.9057 31.9575C94.9057 35.3323 91.7932 37.2065 88.0198 37.2065C84.4945 37.2065 81.6917 35.5713 81 32.672Z" fill="white"/>
<path d="M132.799 26.2957V36.8653H129.095V27.2466C129.095 24.5863 127.503 23.3249 125.255 23.3249C122.937 23.3249 121.378 24.9271 121.378 27.7221V36.8599H117.677V20.3706H121.378V22.2476C122.494 20.8158 124.181 20.0298 126.326 20.0298C130.063 20.0216 132.799 22.2036 132.799 26.2957Z" fill="white"/>
<path d="M153.939 13V36.8655H150.236V34.5817C148.956 36.2526 146.984 37.2062 144.493 37.2062C139.891 37.2062 136.294 33.694 136.294 28.6153C136.294 23.5366 139.891 20.0217 144.527 20.0217C146.984 20.0217 148.956 20.9781 150.236 22.649V13H153.939ZM150.236 28.6153C150.236 25.4109 148.127 23.2288 145.216 23.2288C142.413 23.2288 140.095 25.3065 140.095 28.6153C140.095 31.9242 142.413 34.0018 145.216 34.0018C148.127 34.0018 150.236 31.8198 150.236 28.6153Z" fill="white"/>
<path d="M97.3321 28.6156C97.3321 23.4325 101.033 20.022 105.844 20.022C110.585 20.022 114.043 23.2621 114.043 28.2666C114.044 28.6542 114.02 29.0415 113.974 29.4264H101.033C101.312 32.5291 103.247 34.2659 105.914 34.2659C107.587 34.2659 109.087 33.5734 109.776 32.2213H113.352C112.451 35.5631 109.408 37.1983 105.914 37.1983C101.033 37.2065 97.3321 33.8317 97.3321 28.6156ZM110.44 26.6369C110.128 24.6252 108.399 22.99 105.872 22.99C103.624 22.99 101.859 24.2844 101.237 26.6369H110.44Z" fill="white"/>
</svg>
