<svg width="59" height="59" viewBox="0 0 59 59" fill="none" xmlns="http://www.w3.org/2000/svg">
<path d="M29.5 19.6665L22.125 23.9686V32.5727L29.5 36.8748L36.875 32.5727V23.9686L29.5 19.6665ZM33.2293 24.6815L29.468 26.8743L25.7388 24.6987L29.5 22.5059L33.2293 24.6815ZM24.5587 26.8498L28.2069 28.9787V33.2807L24.5587 31.1543V26.8498ZM30.6407 33.3717V29.0278L34.4413 26.8104V31.1543L30.6407 33.3717Z" fill="#0FCFB0"/>
<path d="M7.375 0L0 4.30208V12.9062L7.375 17.2083L14.75 12.9062V4.30208L7.375 0ZM11.1043 5.015L7.34304 7.20783L3.61375 5.03221L7.375 2.83937L11.1043 5.015ZM2.43375 7.18079L6.08192 9.30971V13.6118L2.43375 11.4902V7.18079ZM8.51567 13.7027V9.36133L12.3163 7.14392V11.4878L8.51567 13.7027Z" fill="#0FCFB0"/>
<path d="M7.375 41.7915L0 46.0936V54.6977L7.375 58.9998L14.75 54.6977V46.0936L7.375 41.7915ZM11.1043 46.8065L7.34304 48.9993L3.61375 46.8237L7.375 44.6309L11.1043 46.8065ZM2.43375 48.9748L6.08192 51.1037V55.4057L2.43375 53.2817V48.9748ZM8.51567 55.4967V51.1528L12.3163 48.9354V53.2793L8.51567 55.4967Z" fill="#0FCFB0"/>
<path d="M51.625 0L44.25 4.30208V12.9062L51.625 17.2083L59 12.9062V4.30208L51.625 0ZM55.3543 5.015L51.593 7.20783L47.8637 5.03221L51.625 2.83937L55.3543 5.015ZM46.6837 7.18325L50.3319 9.31217V13.6142L46.6837 11.4878V7.18325ZM52.7657 13.7052V9.36133L56.5663 7.14392V11.4878L52.7657 13.7052Z" fill="#0FCFB0"/>
<path d="M51.625 41.7915L44.25 46.0936V54.6977L51.625 58.9998L59 54.6977V46.0936L51.625 41.7915ZM55.3543 46.8065L51.593 48.9993L47.8637 46.8237L51.625 44.6309L55.3543 46.8065ZM46.6837 48.9748L50.3319 51.1037V55.4057L46.6837 53.2793V48.9748ZM52.7657 55.4967V51.1528L56.5663 48.9354V53.2793L52.7657 55.4967Z" fill="#0FCFB0"/>
<path d="M22.125 7.375H36.875V9.83333H22.125V7.375Z" fill="#0FCFB0"/>
<path d="M22.125 49.1665H36.875V51.6248H22.125V49.1665Z" fill="#0FCFB0"/>
<path d="M8.60414 22.125V36.875H6.14581V22.125H8.60414Z" fill="#0FCFB0"/>
<path d="M17.9286 21.7022L12.7096 16.4905L14.4501 14.75L19.6667 19.9641L17.9286 21.7022Z" fill="#0FCFB0"/>
<path d="M39.3333 20.3871L44.5474 15.173L46.2855 16.911L41.0738 22.1251L39.3333 20.3871Z" fill="#0FCFB0"/>
<path d="M19.9838 36.5752L14.7697 41.7918L13.0292 40.0513L18.2458 34.8396L19.9838 36.5752Z" fill="#0FCFB0"/>
<path d="M41.4942 34.7336L46.7083 39.9478L44.9703 41.6858L39.7562 36.4717L41.4942 34.7336Z" fill="#0FCFB0"/>
<path d="M52.8541 22.125V36.875H50.3958V22.125H52.8541Z" fill="#0FCFB0"/>
</svg>
