<svg width="1053" height="231" viewBox="0 0 1053 231" fill="none" xmlns="http://www.w3.org/2000/svg">
<g filter="url(#filter0_d_2_267)">
<g filter="url(#filter1_d_2_267)">
<rect x="14" y="2" width="1025" height="203" fill="#252A30"/>
</g>
<path d="M109.296 101.824H102.128V97.6H121.648V101.824H114.48V120H109.296V101.824ZM130.527 120.256C128.714 120.256 127.082 119.883 125.631 119.136C124.202 118.368 123.082 117.312 122.271 115.968C121.461 114.624 121.055 113.099 121.055 111.392C121.055 109.685 121.461 108.16 122.271 106.816C123.082 105.472 124.202 104.427 125.631 103.68C127.082 102.912 128.714 102.528 130.527 102.528C132.341 102.528 133.962 102.912 135.391 103.68C136.821 104.427 137.941 105.472 138.751 106.816C139.562 108.16 139.967 109.685 139.967 111.392C139.967 113.099 139.562 114.624 138.751 115.968C137.941 117.312 136.821 118.368 135.391 119.136C133.962 119.883 132.341 120.256 130.527 120.256ZM130.527 116.16C131.807 116.16 132.853 115.733 133.663 114.88C134.495 114.005 134.911 112.843 134.911 111.392C134.911 109.941 134.495 108.789 133.663 107.936C132.853 107.061 131.807 106.624 130.527 106.624C129.247 106.624 128.191 107.061 127.359 107.936C126.527 108.789 126.111 109.941 126.111 111.392C126.111 112.843 126.527 114.005 127.359 114.88C128.191 115.733 129.247 116.16 130.527 116.16ZM152.367 96.256H157.359V120H152.367V96.256ZM178.856 111.456C178.856 111.52 178.824 111.968 178.76 112.8H165.736C165.97 113.867 166.525 114.709 167.4 115.328C168.274 115.947 169.362 116.256 170.664 116.256C171.56 116.256 172.349 116.128 173.032 115.872C173.736 115.595 174.386 115.168 174.984 114.592L177.64 117.472C176.018 119.328 173.65 120.256 170.536 120.256C168.594 120.256 166.877 119.883 165.384 119.136C163.89 118.368 162.738 117.312 161.928 115.968C161.117 114.624 160.712 113.099 160.712 111.392C160.712 109.707 161.106 108.192 161.896 106.848C162.706 105.483 163.805 104.427 165.192 103.68C166.6 102.912 168.168 102.528 169.896 102.528C171.581 102.528 173.106 102.891 174.472 103.616C175.837 104.341 176.904 105.387 177.672 106.752C178.461 108.096 178.856 109.664 178.856 111.456ZM169.928 106.304C168.797 106.304 167.848 106.624 167.08 107.264C166.312 107.904 165.842 108.779 165.672 109.888H174.152C173.981 108.8 173.512 107.936 172.744 107.296C171.976 106.635 171.037 106.304 169.928 106.304ZM188.654 102.528C191.321 102.528 193.369 103.168 194.798 104.448C196.228 105.707 196.942 107.616 196.942 110.176V120H192.27V117.856C191.332 119.456 189.582 120.256 187.022 120.256C185.7 120.256 184.548 120.032 183.566 119.584C182.606 119.136 181.87 118.517 181.358 117.728C180.846 116.939 180.59 116.043 180.59 115.04C180.59 113.44 181.188 112.181 182.382 111.264C183.598 110.347 185.465 109.888 187.982 109.888H191.95C191.95 108.8 191.62 107.968 190.958 107.392C190.297 106.795 189.305 106.496 187.982 106.496C187.065 106.496 186.158 106.645 185.262 106.944C184.388 107.221 183.641 107.605 183.022 108.096L181.23 104.608C182.169 103.947 183.289 103.435 184.59 103.072C185.913 102.709 187.268 102.528 188.654 102.528ZM188.27 116.896C189.124 116.896 189.881 116.704 190.542 116.32C191.204 115.915 191.673 115.328 191.95 114.56V112.8H188.526C186.478 112.8 185.454 113.472 185.454 114.816C185.454 115.456 185.7 115.968 186.19 116.352C186.702 116.715 187.396 116.896 188.27 116.896ZM206.228 105.056C206.826 104.224 207.626 103.595 208.628 103.168C209.652 102.741 210.826 102.528 212.148 102.528V107.136C211.594 107.093 211.22 107.072 211.028 107.072C209.599 107.072 208.479 107.477 207.668 108.288C206.858 109.077 206.452 110.272 206.452 111.872V120H201.46V102.784H206.228V105.056ZM225.581 102.528C227.714 102.528 229.431 103.168 230.733 104.448C232.055 105.728 232.717 107.627 232.717 110.144V120H227.725V110.912C227.725 109.547 227.426 108.533 226.829 107.872C226.231 107.189 225.367 106.848 224.237 106.848C222.978 106.848 221.975 107.243 221.229 108.032C220.482 108.8 220.109 109.952 220.109 111.488V120H215.117V102.784H219.885V104.8C220.546 104.075 221.367 103.52 222.349 103.136C223.33 102.731 224.407 102.528 225.581 102.528ZM268.352 102.528C270.507 102.528 272.213 103.168 273.472 104.448C274.752 105.707 275.392 107.605 275.392 110.144V120H270.4V110.912C270.4 109.547 270.112 108.533 269.536 107.872C268.981 107.189 268.181 106.848 267.136 106.848C265.963 106.848 265.035 107.232 264.352 108C263.669 108.747 263.328 109.867 263.328 111.36V120H258.336V110.912C258.336 108.203 257.248 106.848 255.072 106.848C253.92 106.848 253.003 107.232 252.32 108C251.637 108.747 251.296 109.867 251.296 111.36V120H246.304V102.784H251.072V104.768C251.712 104.043 252.491 103.488 253.408 103.104C254.347 102.72 255.371 102.528 256.48 102.528C257.696 102.528 258.795 102.773 259.776 103.264C260.757 103.733 261.547 104.427 262.144 105.344C262.848 104.448 263.733 103.755 264.8 103.264C265.888 102.773 267.072 102.528 268.352 102.528ZM288.246 120.256C286.433 120.256 284.801 119.883 283.35 119.136C281.921 118.368 280.801 117.312 279.99 115.968C279.179 114.624 278.774 113.099 278.774 111.392C278.774 109.685 279.179 108.16 279.99 106.816C280.801 105.472 281.921 104.427 283.35 103.68C284.801 102.912 286.433 102.528 288.246 102.528C290.059 102.528 291.681 102.912 293.11 103.68C294.539 104.427 295.659 105.472 296.47 106.816C297.281 108.16 297.686 109.685 297.686 111.392C297.686 113.099 297.281 114.624 296.47 115.968C295.659 117.312 294.539 118.368 293.11 119.136C291.681 119.883 290.059 120.256 288.246 120.256ZM288.246 116.16C289.526 116.16 290.571 115.733 291.382 114.88C292.214 114.005 292.63 112.843 292.63 111.392C292.63 109.941 292.214 108.789 291.382 107.936C290.571 107.061 289.526 106.624 288.246 106.624C286.966 106.624 285.91 107.061 285.078 107.936C284.246 108.789 283.83 109.941 283.83 111.392C283.83 112.843 284.246 114.005 285.078 114.88C285.91 115.733 286.966 116.16 288.246 116.16ZM305.791 105.056C306.388 104.224 307.188 103.595 308.191 103.168C309.215 102.741 310.388 102.528 311.711 102.528V107.136C311.156 107.093 310.783 107.072 310.591 107.072C309.161 107.072 308.041 107.477 307.231 108.288C306.42 109.077 306.015 110.272 306.015 111.872V120H301.023V102.784H305.791V105.056ZM331.387 111.456C331.387 111.52 331.355 111.968 331.291 112.8H318.267C318.501 113.867 319.056 114.709 319.931 115.328C320.805 115.947 321.893 116.256 323.195 116.256C324.091 116.256 324.88 116.128 325.563 115.872C326.267 115.595 326.917 115.168 327.515 114.592L330.171 117.472C328.549 119.328 326.181 120.256 323.067 120.256C321.125 120.256 319.408 119.883 317.915 119.136C316.421 118.368 315.269 117.312 314.459 115.968C313.648 114.624 313.243 113.099 313.243 111.392C313.243 109.707 313.637 108.192 314.427 106.848C315.237 105.483 316.336 104.427 317.723 103.68C319.131 102.912 320.699 102.528 322.427 102.528C324.112 102.528 325.637 102.891 327.003 103.616C328.368 104.341 329.435 105.387 330.203 106.752C330.992 108.096 331.387 109.664 331.387 111.456ZM322.459 106.304C321.328 106.304 320.379 106.624 319.611 107.264C318.843 107.904 318.373 108.779 318.203 109.888H326.683C326.512 108.8 326.043 107.936 325.275 107.296C324.507 106.635 323.568 106.304 322.459 106.304ZM350.717 102.528C353.383 102.528 355.431 103.168 356.861 104.448C358.29 105.707 359.005 107.616 359.005 110.176V120H354.333V117.856C353.394 119.456 351.645 120.256 349.085 120.256C347.762 120.256 346.61 120.032 345.629 119.584C344.669 119.136 343.933 118.517 343.421 117.728C342.909 116.939 342.653 116.043 342.653 115.04C342.653 113.44 343.25 112.181 344.445 111.264C345.661 110.347 347.527 109.888 350.045 109.888H354.013C354.013 108.8 353.682 107.968 353.021 107.392C352.359 106.795 351.367 106.496 350.045 106.496C349.127 106.496 348.221 106.645 347.325 106.944C346.45 107.221 345.703 107.605 345.085 108.096L343.293 104.608C344.231 103.947 345.351 103.435 346.653 103.072C347.975 102.709 349.33 102.528 350.717 102.528ZM350.333 116.896C351.186 116.896 351.943 116.704 352.605 116.32C353.266 115.915 353.735 115.328 354.013 114.56V112.8H350.589C348.541 112.8 347.517 113.472 347.517 114.816C347.517 115.456 347.762 115.968 348.253 116.352C348.765 116.715 349.458 116.896 350.333 116.896ZM373.699 102.528C375.299 102.528 376.749 102.901 378.051 103.648C379.373 104.373 380.408 105.408 381.155 106.752C381.901 108.075 382.275 109.621 382.275 111.392C382.275 113.163 381.901 114.72 381.155 116.064C380.408 117.387 379.373 118.421 378.051 119.168C376.749 119.893 375.299 120.256 373.699 120.256C371.331 120.256 369.528 119.509 368.291 118.016V120H363.523V96.256H368.515V104.608C369.773 103.221 371.501 102.528 373.699 102.528ZM372.835 116.16C374.115 116.16 375.16 115.733 375.971 114.88C376.803 114.005 377.219 112.843 377.219 111.392C377.219 109.941 376.803 108.789 375.971 107.936C375.16 107.061 374.115 106.624 372.835 106.624C371.555 106.624 370.499 107.061 369.667 107.936C368.856 108.789 368.451 109.941 368.451 111.392C368.451 112.843 368.856 114.005 369.667 114.88C370.499 115.733 371.555 116.16 372.835 116.16ZM393.809 120.256C391.995 120.256 390.363 119.883 388.913 119.136C387.483 118.368 386.363 117.312 385.553 115.968C384.742 114.624 384.337 113.099 384.337 111.392C384.337 109.685 384.742 108.16 385.553 106.816C386.363 105.472 387.483 104.427 388.913 103.68C390.363 102.912 391.995 102.528 393.809 102.528C395.622 102.528 397.243 102.912 398.673 103.68C400.102 104.427 401.222 105.472 402.033 106.816C402.843 108.16 403.249 109.685 403.249 111.392C403.249 113.099 402.843 114.624 402.033 115.968C401.222 117.312 400.102 118.368 398.673 119.136C397.243 119.883 395.622 120.256 393.809 120.256ZM393.809 116.16C395.089 116.16 396.134 115.733 396.945 114.88C397.777 114.005 398.193 112.843 398.193 111.392C398.193 109.941 397.777 108.789 396.945 107.936C396.134 107.061 395.089 106.624 393.809 106.624C392.529 106.624 391.473 107.061 390.641 107.936C389.809 108.789 389.393 109.941 389.393 111.392C389.393 112.843 389.809 114.005 390.641 114.88C391.473 115.733 392.529 116.16 393.809 116.16ZM423.929 102.784V120H419.193V117.952C418.532 118.699 417.743 119.275 416.825 119.68C415.908 120.064 414.916 120.256 413.849 120.256C411.588 120.256 409.796 119.605 408.473 118.304C407.151 117.003 406.489 115.072 406.489 112.512V102.784H411.481V111.776C411.481 114.549 412.644 115.936 414.969 115.936C416.164 115.936 417.124 115.552 417.849 114.784C418.575 113.995 418.937 112.832 418.937 111.296V102.784H423.929ZM439.658 119.168C439.167 119.531 438.559 119.808 437.834 120C437.13 120.171 436.383 120.256 435.594 120.256C433.546 120.256 431.957 119.733 430.826 118.688C429.717 117.643 429.162 116.107 429.162 114.08V107.008H426.506V103.168H429.162V98.976H434.154V103.168H438.442V107.008H434.154V114.016C434.154 114.741 434.335 115.307 434.698 115.712C435.082 116.096 435.615 116.288 436.298 116.288C437.087 116.288 437.759 116.075 438.314 115.648L439.658 119.168Z" fill="white"/>
<path d="M459.235 120.384C457.464 120.384 455.747 120.149 454.083 119.68C452.44 119.189 451.117 118.56 450.115 117.792L451.875 113.888C452.835 114.592 453.976 115.157 455.299 115.584C456.621 116.011 457.944 116.224 459.267 116.224C460.739 116.224 461.827 116.011 462.531 115.584C463.235 115.136 463.587 114.549 463.587 113.824C463.587 113.291 463.373 112.853 462.947 112.512C462.541 112.149 462.008 111.861 461.347 111.648C460.707 111.435 459.832 111.2 458.723 110.944C457.016 110.539 455.619 110.133 454.531 109.728C453.443 109.323 452.504 108.672 451.715 107.776C450.947 106.88 450.563 105.685 450.563 104.192C450.563 102.891 450.915 101.717 451.619 100.672C452.323 99.6053 453.379 98.7627 454.787 98.144C456.216 97.5253 457.955 97.216 460.003 97.216C461.432 97.216 462.829 97.3867 464.195 97.728C465.56 98.0693 466.755 98.56 467.779 99.2L466.179 103.136C464.109 101.963 462.04 101.376 459.971 101.376C458.52 101.376 457.443 101.611 456.739 102.08C456.056 102.549 455.715 103.168 455.715 103.936C455.715 104.704 456.109 105.28 456.899 105.664C457.709 106.027 458.936 106.389 460.579 106.752C462.285 107.157 463.683 107.563 464.771 107.968C465.859 108.373 466.787 109.013 467.555 109.888C468.344 110.763 468.739 111.947 468.739 113.44C468.739 114.72 468.376 115.893 467.651 116.96C466.947 118.005 465.88 118.837 464.451 119.456C463.021 120.075 461.283 120.384 459.235 120.384ZM488.793 111.456C488.793 111.52 488.761 111.968 488.697 112.8H475.673C475.908 113.867 476.462 114.709 477.337 115.328C478.212 115.947 479.3 116.256 480.601 116.256C481.497 116.256 482.286 116.128 482.969 115.872C483.673 115.595 484.324 115.168 484.921 114.592L487.577 117.472C485.956 119.328 483.588 120.256 480.473 120.256C478.532 120.256 476.814 119.883 475.321 119.136C473.828 118.368 472.676 117.312 471.865 115.968C471.054 114.624 470.649 113.099 470.649 111.392C470.649 109.707 471.044 108.192 471.833 106.848C472.644 105.483 473.742 104.427 475.129 103.68C476.537 102.912 478.105 102.528 479.833 102.528C481.518 102.528 483.044 102.891 484.409 103.616C485.774 104.341 486.841 105.387 487.609 106.752C488.398 108.096 488.793 109.664 488.793 111.456ZM479.865 106.304C478.734 106.304 477.785 106.624 477.017 107.264C476.249 107.904 475.78 108.779 475.609 109.888H484.089C483.918 108.8 483.449 107.936 482.681 107.296C481.913 106.635 480.974 106.304 479.865 106.304ZM502.581 102.528C504.714 102.528 506.431 103.168 507.733 104.448C509.055 105.728 509.717 107.627 509.717 110.144V120H504.725V110.912C504.725 109.547 504.426 108.533 503.829 107.872C503.231 107.189 502.367 106.848 501.237 106.848C499.978 106.848 498.975 107.243 498.229 108.032C497.482 108.8 497.109 109.952 497.109 111.488V120H492.117V102.784H496.885V104.8C497.546 104.075 498.367 103.52 499.349 103.136C500.33 102.731 501.407 102.528 502.581 102.528ZM531.965 96.256V120H527.197V118.016C525.96 119.509 524.168 120.256 521.821 120.256C520.2 120.256 518.728 119.893 517.405 119.168C516.104 118.443 515.08 117.408 514.333 116.064C513.586 114.72 513.213 113.163 513.213 111.392C513.213 109.621 513.586 108.064 514.333 106.72C515.08 105.376 516.104 104.341 517.405 103.616C518.728 102.891 520.2 102.528 521.821 102.528C524.018 102.528 525.736 103.221 526.973 104.608V96.256H531.965ZM522.685 116.16C523.944 116.16 524.989 115.733 525.821 114.88C526.653 114.005 527.069 112.843 527.069 111.392C527.069 109.941 526.653 108.789 525.821 107.936C524.989 107.061 523.944 106.624 522.685 106.624C521.405 106.624 520.349 107.061 519.517 107.936C518.685 108.789 518.269 109.941 518.269 111.392C518.269 112.843 518.685 114.005 519.517 114.88C520.349 115.733 521.405 116.16 522.685 116.16ZM542.121 101.76V107.68H552.489V111.84H542.121V120H536.937V97.6H553.865V101.76H542.121ZM561.478 105.056C562.076 104.224 562.876 103.595 563.878 103.168C564.902 102.741 566.076 102.528 567.398 102.528V107.136C566.844 107.093 566.47 107.072 566.278 107.072C564.849 107.072 563.729 107.477 562.918 108.288C562.108 109.077 561.702 110.272 561.702 111.872V120H556.71V102.784H561.478V105.056ZM570.367 102.784H575.359V120H570.367V102.784ZM572.863 100.384C571.945 100.384 571.199 100.117 570.623 99.584C570.047 99.0507 569.759 98.3893 569.759 97.6C569.759 96.8107 570.047 96.1493 570.623 95.616C571.199 95.0827 571.945 94.816 572.863 94.816C573.78 94.816 574.527 95.072 575.103 95.584C575.679 96.096 575.967 96.736 575.967 97.504C575.967 98.336 575.679 99.0293 575.103 99.584C574.527 100.117 573.78 100.384 572.863 100.384ZM596.856 111.456C596.856 111.52 596.824 111.968 596.76 112.8H583.736C583.97 113.867 584.525 114.709 585.4 115.328C586.274 115.947 587.362 116.256 588.664 116.256C589.56 116.256 590.349 116.128 591.032 115.872C591.736 115.595 592.386 115.168 592.984 114.592L595.64 117.472C594.018 119.328 591.65 120.256 588.536 120.256C586.594 120.256 584.877 119.883 583.384 119.136C581.89 118.368 580.738 117.312 579.928 115.968C579.117 114.624 578.712 113.099 578.712 111.392C578.712 109.707 579.106 108.192 579.896 106.848C580.706 105.483 581.805 104.427 583.192 103.68C584.6 102.912 586.168 102.528 587.896 102.528C589.581 102.528 591.106 102.891 592.472 103.616C593.837 104.341 594.904 105.387 595.672 106.752C596.461 108.096 596.856 109.664 596.856 111.456ZM587.928 106.304C586.797 106.304 585.848 106.624 585.08 107.264C584.312 107.904 583.842 108.779 583.672 109.888H592.152C591.981 108.8 591.512 107.936 590.744 107.296C589.976 106.635 589.037 106.304 587.928 106.304ZM610.643 102.528C612.776 102.528 614.494 103.168 615.795 104.448C617.118 105.728 617.779 107.627 617.779 110.144V120H612.787V110.912C612.787 109.547 612.488 108.533 611.891 107.872C611.294 107.189 610.43 106.848 609.299 106.848C608.04 106.848 607.038 107.243 606.291 108.032C605.544 108.8 605.171 109.952 605.171 111.488V120H600.179V102.784H604.947V104.8C605.608 104.075 606.43 103.52 607.411 103.136C608.392 102.731 609.47 102.528 610.643 102.528ZM640.028 96.256V120H635.26V118.016C634.022 119.509 632.23 120.256 629.884 120.256C628.262 120.256 626.79 119.893 625.468 119.168C624.166 118.443 623.142 117.408 622.396 116.064C621.649 114.72 621.276 113.163 621.276 111.392C621.276 109.621 621.649 108.064 622.396 106.72C623.142 105.376 624.166 104.341 625.468 103.616C626.79 102.891 628.262 102.528 629.884 102.528C632.081 102.528 633.798 103.221 635.036 104.608V96.256H640.028ZM630.748 116.16C632.006 116.16 633.052 115.733 633.884 114.88C634.716 114.005 635.132 112.843 635.132 111.392C635.132 109.941 634.716 108.789 633.884 107.936C633.052 107.061 632.006 106.624 630.748 106.624C629.468 106.624 628.412 107.061 627.58 107.936C626.748 108.789 626.332 109.941 626.332 111.392C626.332 112.843 626.748 114.005 627.58 114.88C628.412 115.733 629.468 116.16 630.748 116.16Z" fill="#0FCFB0"/>
<rect x="778" y="71" width="207" height="75" fill="#0FCFB0"/>
<path d="M820.032 118.288C818.32 118.288 816.768 117.92 815.376 117.184C814 116.432 812.912 115.4 812.112 114.088C811.328 112.76 810.936 111.264 810.936 109.6C810.936 107.936 811.328 106.448 812.112 105.136C812.912 103.808 814 102.776 815.376 102.04C816.768 101.288 818.328 100.912 820.056 100.912C821.512 100.912 822.824 101.168 823.992 101.68C825.176 102.192 826.168 102.928 826.968 103.888L824.472 106.192C823.336 104.88 821.928 104.224 820.248 104.224C819.208 104.224 818.28 104.456 817.464 104.92C816.648 105.368 816.008 106 815.544 106.816C815.096 107.632 814.872 108.56 814.872 109.6C814.872 110.64 815.096 111.568 815.544 112.384C816.008 113.2 816.648 113.84 817.464 114.304C818.28 114.752 819.208 114.976 820.248 114.976C821.928 114.976 823.336 114.312 824.472 112.984L826.968 115.288C826.168 116.264 825.176 117.008 823.992 117.52C822.808 118.032 821.488 118.288 820.032 118.288ZM835.028 118.192C833.668 118.192 832.444 117.912 831.356 117.352C830.284 116.776 829.444 115.984 828.836 114.976C828.228 113.968 827.924 112.824 827.924 111.544C827.924 110.264 828.228 109.12 828.836 108.112C829.444 107.104 830.284 106.32 831.356 105.76C832.444 105.184 833.668 104.896 835.028 104.896C836.388 104.896 837.604 105.184 838.676 105.76C839.748 106.32 840.588 107.104 841.196 108.112C841.804 109.12 842.108 110.264 842.108 111.544C842.108 112.824 841.804 113.968 841.196 114.976C840.588 115.984 839.748 116.776 838.676 117.352C837.604 117.912 836.388 118.192 835.028 118.192ZM835.028 115.12C835.988 115.12 836.772 114.8 837.38 114.16C838.004 113.504 838.316 112.632 838.316 111.544C838.316 110.456 838.004 109.592 837.38 108.952C836.772 108.296 835.988 107.968 835.028 107.968C834.068 107.968 833.276 108.296 832.652 108.952C832.028 109.592 831.716 110.456 831.716 111.544C831.716 112.632 832.028 113.504 832.652 114.16C833.276 114.8 834.068 115.12 835.028 115.12ZM852.459 104.896C854.059 104.896 855.347 105.376 856.323 106.336C857.315 107.296 857.811 108.72 857.811 110.608V118H854.067V111.184C854.067 110.16 853.843 109.4 853.395 108.904C852.947 108.392 852.299 108.136 851.451 108.136C850.507 108.136 849.755 108.432 849.195 109.024C848.635 109.6 848.355 110.464 848.355 111.616V118H844.611V105.088H848.187V106.6C848.683 106.056 849.299 105.64 850.035 105.352C850.771 105.048 851.579 104.896 852.459 104.896ZM869.533 117.376C869.165 117.648 868.709 117.856 868.165 118C867.637 118.128 867.077 118.192 866.485 118.192C864.949 118.192 863.757 117.8 862.909 117.016C862.077 116.232 861.661 115.08 861.661 113.56V108.256H859.669V105.376H861.661V102.232H865.405V105.376H868.621V108.256H865.405V113.512C865.405 114.056 865.541 114.48 865.813 114.784C866.101 115.072 866.501 115.216 867.013 115.216C867.605 115.216 868.109 115.056 868.525 114.736L869.533 117.376ZM876.842 104.896C878.842 104.896 880.378 105.376 881.45 106.336C882.522 107.28 883.058 108.712 883.058 110.632V118H879.554V116.392C878.85 117.592 877.538 118.192 875.618 118.192C874.626 118.192 873.762 118.024 873.026 117.688C872.306 117.352 871.754 116.888 871.37 116.296C870.986 115.704 870.794 115.032 870.794 114.28C870.794 113.08 871.242 112.136 872.138 111.448C873.05 110.76 874.45 110.416 876.338 110.416H879.314C879.314 109.6 879.066 108.976 878.57 108.544C878.074 108.096 877.33 107.872 876.338 107.872C875.65 107.872 874.97 107.984 874.298 108.208C873.642 108.416 873.082 108.704 872.618 109.072L871.274 106.456C871.978 105.96 872.818 105.576 873.794 105.304C874.786 105.032 875.802 104.896 876.842 104.896ZM876.554 115.672C877.194 115.672 877.762 115.528 878.258 115.24C878.754 114.936 879.106 114.496 879.314 113.92V112.6H876.746C875.21 112.6 874.442 113.104 874.442 114.112C874.442 114.592 874.626 114.976 874.994 115.264C875.378 115.536 875.898 115.672 876.554 115.672ZM892.827 118.192C891.451 118.192 890.211 117.912 889.107 117.352C888.019 116.776 887.163 115.984 886.539 114.976C885.931 113.968 885.627 112.824 885.627 111.544C885.627 110.264 885.931 109.12 886.539 108.112C887.163 107.104 888.019 106.32 889.107 105.76C890.211 105.184 891.451 104.896 892.827 104.896C894.187 104.896 895.371 105.184 896.379 105.76C897.403 106.32 898.147 107.128 898.611 108.184L895.707 109.744C895.035 108.56 894.067 107.968 892.803 107.968C891.827 107.968 891.019 108.288 890.379 108.928C889.739 109.568 889.419 110.44 889.419 111.544C889.419 112.648 889.739 113.52 890.379 114.16C891.019 114.8 891.827 115.12 892.803 115.12C894.083 115.12 895.051 114.528 895.707 113.344L898.611 114.928C898.147 115.952 897.403 116.752 896.379 117.328C895.371 117.904 894.187 118.192 892.827 118.192ZM909.283 117.376C908.915 117.648 908.459 117.856 907.915 118C907.387 118.128 906.827 118.192 906.235 118.192C904.699 118.192 903.507 117.8 902.659 117.016C901.827 116.232 901.411 115.08 901.411 113.56V108.256H899.419V105.376H901.411V102.232H905.155V105.376H908.371V108.256H905.155V113.512C905.155 114.056 905.291 114.48 905.563 114.784C905.851 115.072 906.251 115.216 906.763 115.216C907.355 115.216 907.859 115.056 908.275 114.736L909.283 117.376ZM925.909 118.288C923.509 118.288 921.637 117.624 920.293 116.296C918.965 114.968 918.301 113.072 918.301 110.608V101.2H922.189V110.464C922.189 113.472 923.437 114.976 925.933 114.976C927.149 114.976 928.077 114.616 928.717 113.896C929.357 113.16 929.677 112.016 929.677 110.464V101.2H933.517V110.608C933.517 113.072 932.845 114.968 931.501 116.296C930.173 117.624 928.309 118.288 925.909 118.288ZM941.439 118.192C940.367 118.192 939.319 118.064 938.295 117.808C937.271 117.536 936.455 117.2 935.847 116.8L937.095 114.112C937.671 114.48 938.367 114.784 939.183 115.024C939.999 115.248 940.799 115.36 941.583 115.36C943.167 115.36 943.959 114.968 943.959 114.184C943.959 113.816 943.743 113.552 943.311 113.392C942.879 113.232 942.215 113.096 941.319 112.984C940.263 112.824 939.391 112.64 938.703 112.432C938.015 112.224 937.415 111.856 936.903 111.328C936.407 110.8 936.159 110.048 936.159 109.072C936.159 108.256 936.391 107.536 936.855 106.912C937.335 106.272 938.023 105.776 938.919 105.424C939.831 105.072 940.903 104.896 942.135 104.896C943.047 104.896 943.951 105 944.847 105.208C945.759 105.4 946.511 105.672 947.103 106.024L945.855 108.688C944.719 108.048 943.479 107.728 942.135 107.728C941.335 107.728 940.735 107.84 940.335 108.064C939.935 108.288 939.735 108.576 939.735 108.928C939.735 109.328 939.951 109.608 940.383 109.768C940.815 109.928 941.503 110.08 942.447 110.224C943.503 110.4 944.367 110.592 945.039 110.8C945.711 110.992 946.295 111.352 946.791 111.88C947.287 112.408 947.535 113.144 947.535 114.088C947.535 114.888 947.295 115.6 946.815 116.224C946.335 116.848 945.631 117.336 944.703 117.688C943.791 118.024 942.703 118.192 941.439 118.192Z" fill="white"/>
</g>
<defs>
<filter id="filter0_d_2_267" x="14" y="2" width="1034" height="212" filterUnits="userSpaceOnUse" color-interpolation-filters="sRGB">
<feFlood flood-opacity="0" result="BackgroundImageFix"/>
<feColorMatrix in="SourceAlpha" type="matrix" values="0 0 0 0 0 0 0 0 0 0 0 0 0 0 0 0 0 0 127 0" result="hardAlpha"/>
<feOffset dx="9" dy="9"/>
<feComposite in2="hardAlpha" operator="out"/>
<feColorMatrix type="matrix" values="0 0 0 0 0 0 0 0 0 0 0 0 0 0 0 0 0 0 0.26 0"/>
<feBlend mode="normal" in2="BackgroundImageFix" result="effect1_dropShadow_2_267"/>
<feBlend mode="normal" in="SourceGraphic" in2="effect1_dropShadow_2_267" result="shape"/>
</filter>
<filter id="filter1_d_2_267" x="0" y="0" width="1053" height="231" filterUnits="userSpaceOnUse" color-interpolation-filters="sRGB">
<feFlood flood-opacity="0" result="BackgroundImageFix"/>
<feColorMatrix in="SourceAlpha" type="matrix" values="0 0 0 0 0 0 0 0 0 0 0 0 0 0 0 0 0 0 127 0" result="hardAlpha"/>
<feOffset dy="12"/>
<feGaussianBlur stdDeviation="7"/>
<feComposite in2="hardAlpha" operator="out"/>
<feColorMatrix type="matrix" values="0 0 0 0 0 0 0 0 0 0 0 0 0 0 0 0 0 0 0.1 0"/>
<feBlend mode="normal" in2="BackgroundImageFix" result="effect1_dropShadow_2_267"/>
<feBlend mode="normal" in="SourceGraphic" in2="effect1_dropShadow_2_267" result="shape"/>
</filter>
</defs>
</svg>
