<svg width="64" height="87" viewBox="0 0 64 87" fill="none" xmlns="http://www.w3.org/2000/svg">
<path d="M33.3589 0V35.1255L63.8672 52.1887V17.8893L33.3589 0Z" fill="#0FCFB0"/>
<path d="M48.4169 29.4947C46.4957 29.4947 44.9382 27.9697 44.9382 26.0884C44.9382 24.2072 46.4957 22.6821 48.4169 22.6821C50.3381 22.6821 51.8955 24.2072 51.8955 26.0884C51.8955 27.9697 50.3381 29.4947 48.4169 29.4947Z" fill="white"/>
<path d="M30.1645 0V34.779L-1.76259e-06 51.8422V18.1491L30.1645 0Z" fill="#0FCFB0"/>
<path d="M15.3702 29.4947C13.449 29.4947 11.8915 27.9697 11.8915 26.0884C11.8915 24.2072 13.449 22.6821 15.3702 22.6821C17.2914 22.6821 18.8488 24.2072 18.8488 26.0884C18.8488 27.9697 17.2914 29.4947 15.3702 29.4947Z" fill="white"/>
<path d="M62.1743 54.5736L31.8266 37.4468L1.77801 54.5736L31.8267 71.9933L62.1743 54.5736Z" fill="#0FCFB0"/>
<path d="M44.6651 51.1597H41.4131C41.4131 51.1597 40.0169 58.3695 32.1484 58.3489C24.2798 58.3284 21.1261 51.1597 21.1261 51.1597H18.8032C18.8032 51.1597 21.9835 61.058 32.313 60.7889C42.6425 60.5199 44.6651 51.1597 44.6651 51.1597Z" fill="white"/>
<path d="M38.8671 67.8179V83.9809C38.8671 83.9809 41.2829 81.9314 43.6584 82.1281C46.034 82.3248 48.9732 86.7799 48.9732 86.7799H35.8473V69.1188L38.8671 67.8179Z" fill="#0FCFB0"/>
<path d="M24.8112 67.8179V83.9809C24.8112 83.9809 22.3953 81.9314 20.0199 82.1281C17.6444 82.3248 14.705 86.7799 14.705 86.7799H27.8308V69.1188L24.8112 67.8179Z" fill="#0FCFB0"/>
</svg>
