<svg width="32" height="37" viewBox="0 0 32 37" fill="none" xmlns="http://www.w3.org/2000/svg">
<path d="M3.45559 5.43154C5.59059 4.73078 7.74219 4.08161 9.90849 3.48457L11.1742 3.13575V3.15441C13.1957 2.64232 15.0649 2.26721 16.1875 2.26721C17.5432 2.26721 19.9799 2.81255 22.4624 3.48575L22.4626 3.4858C24.9402 4.15819 27.4397 4.94746 28.9186 5.4313M3.45559 5.43154L28.6093 6.38228M3.45559 5.43154C3.08453 5.55212 2.75471 5.77432 2.50357 6.07293C2.25201 6.37204 2.08952 6.73579 2.0346 7.12274L2.03456 7.12273L2.03344 7.13116C0.743178 16.8128 3.72756 23.9248 7.31805 28.6236M3.45559 5.43154L7.31805 28.6236M28.9186 5.4313C28.9192 5.43149 28.9197 5.43167 28.9203 5.43186L28.6093 6.38228M28.9186 5.4313C28.9178 5.43105 28.917 5.4308 28.9162 5.43054L28.6093 6.38228M28.9186 5.4313C29.2901 5.55159 29.6203 5.77381 29.8717 6.07267C30.1235 6.37217 30.286 6.73652 30.3405 7.12403L30.3415 7.13115L30.3415 7.13116C31.6317 16.8125 28.6475 23.9268 25.0569 28.6236M28.6093 6.38228C28.8031 6.44476 28.9753 6.56052 29.1063 6.71632C29.2374 6.87212 29.3219 7.06167 29.3502 7.26326C30.6017 16.6536 27.7103 23.5072 24.2609 28.0183M25.0569 28.6236C25.0573 28.623 25.0578 28.6224 25.0583 28.6217L24.2609 28.0183M25.0569 28.6236C25.0563 28.6243 25.0558 28.625 25.0553 28.6257L24.2609 28.0183M25.0569 28.6236L7.31805 28.6236M24.2609 28.0183C22.8004 29.9483 21.059 31.6486 19.0947 33.0625C18.3131 33.6114 17.6196 34.0112 17.0775 34.2665M7.31805 28.6236C8.83847 30.6325 10.6512 32.4023 12.696 33.8741L12.696 33.8742L12.7039 33.8797C13.5236 34.4578 14.2646 34.8865 14.8706 35.1708C15.1652 35.3106 15.4259 35.4142 15.6484 35.4836C15.7758 35.527 15.9069 35.5588 16.0401 35.5786L16.1941 35.6016L16.3478 35.5766C16.4737 35.5561 16.5978 35.5256 16.7188 35.4854C16.9464 35.4154 17.2097 35.3107 17.5057 35.1702C17.5059 35.1701 17.5062 35.1699 17.5065 35.1698L17.0775 34.2665M17.0775 34.2665C16.8064 34.3953 16.585 34.4811 16.4134 34.5331M17.0775 34.2665L16.4134 34.5331M16.1875 34.5895C16.1098 34.578 16.0334 34.5591 15.9593 34.5331C15.7899 34.4811 15.5685 34.3953 15.2974 34.2665C14.753 34.0112 14.0618 33.6137 13.2802 33.0625L16.1875 34.5895ZM16.1875 34.5895C16.2642 34.5771 16.3398 34.5582 16.4134 34.5331M16.1875 34.5895L16.4134 34.5331M3.36428 5.03712C5.50592 4.33493 7.66419 3.68453 9.83721 3.08649C12.3103 2.41412 14.785 1.85693 16.1875 1.85693C17.5902 1.85693 20.0656 2.41435 22.5392 3.0869L22.5407 3.0873C25.0229 3.75815 27.5309 4.55366 29.011 5.03723C29.4532 5.18357 29.8453 5.45156 30.1422 5.81049C30.4394 6.16981 30.6293 6.60568 30.69 7.06805L30.6902 7.06993C31.9976 16.8907 28.9674 24.1246 25.3187 28.8973L25.3162 28.9007C23.7693 30.9421 21.9247 32.7397 19.8442 34.2335L19.8439 34.2337C19.1443 34.7365 18.4031 35.1787 17.6284 35.5556C17.0177 35.843 16.511 35.9998 16.1875 35.9998C15.8644 35.9998 15.3605 35.8435 14.746 35.5554C13.9715 35.1785 13.2305 34.7364 12.531 34.2338L12.5307 34.2336C10.4502 32.7396 8.6057 30.942 7.05872 28.9007L7.05617 28.8974C3.40754 24.1246 0.377326 16.8907 1.68472 7.06993L1.68496 7.06805C1.74562 6.60569 1.93548 6.16981 2.23273 5.81049C2.52974 5.45147 2.92192 5.18343 3.36428 5.03712ZM16.9836 17.7934L16.1874 18.0749L15.3913 17.7934C14.9785 17.6474 14.6138 17.3908 14.337 17.0516C14.0602 16.7124 13.882 16.3037 13.8217 15.87C13.7615 15.4364 13.8217 14.9945 13.9956 14.5927C14.1696 14.1909 14.4506 13.8447 14.808 13.5918C15.1654 13.339 15.5854 13.1892 16.0222 13.1589C16.459 13.1286 16.8957 13.219 17.2846 13.4201C17.6735 13.6212 17.9996 13.9253 18.2273 14.2993C18.455 14.6732 18.5756 15.1025 18.5758 15.5403C18.5761 16.0344 18.4231 16.5165 18.1379 16.92C17.8528 17.3235 17.4494 17.6287 16.9836 17.7934ZM16.0399 18.9257L16.1873 18.1619L16.3351 18.9261L17.2048 23.4214L17.2048 23.4215C17.2084 23.4402 17.2079 23.4595 17.2032 23.478C17.1985 23.4965 17.1897 23.5137 17.1776 23.5285C17.1654 23.5432 17.1502 23.555 17.1329 23.5632C17.1156 23.5713 17.0968 23.5755 17.0777 23.5755H17.0775L15.2992 23.5755C15.299 23.5755 15.2989 23.5755 15.2987 23.5755C15.2798 23.5754 15.2612 23.5712 15.2441 23.5631C15.2268 23.5549 15.2116 23.5431 15.1995 23.5284C15.1874 23.5136 15.1787 23.4964 15.174 23.4779C15.1693 23.4595 15.1687 23.4402 15.1723 23.4215L15.1724 23.4209L16.0399 18.9257Z" stroke="#263238" stroke-width="2"/>
</svg>
