<svg width="32" height="37" viewBox="0 0 32 37" fill="none" xmlns="http://www.w3.org/2000/svg">
<path d="M15.6484 35.4836C15.426 35.4142 15.1652 35.3107 14.8707 35.1709C14.2647 34.8865 13.5236 34.4578 12.7039 33.8797L12.696 33.8741L12.696 33.8741C10.6513 32.4023 8.83851 30.6325 7.3181 28.6237C3.72759 23.9248 0.743172 16.8128 2.03344 7.13116L2.03456 7.12273L2.0346 7.12274C2.08952 6.73579 2.25201 6.37204 2.50357 6.07293C2.75471 5.77432 3.08453 5.55212 3.45559 5.43154L15.6484 35.4836ZM15.6484 35.4836C15.7759 35.527 15.9069 35.5588 16.0401 35.5786L16.1941 35.6016L16.3478 35.5766C16.4737 35.5561 16.5978 35.5256 16.7188 35.4854C16.9462 35.4155 17.2091 35.311 17.5046 35.1707C18.1079 34.8865 18.8507 34.4559 19.6694 33.8808L19.6695 33.8809L19.6789 33.8741C21.7237 32.4023 23.5364 30.6325 25.0569 28.6236C28.6475 23.9268 31.6317 16.8126 30.3415 7.13116L30.3415 7.13115L30.3405 7.12402C30.286 6.73651 30.1235 6.37216 29.8717 6.07267C29.6203 5.77382 29.2901 5.5516 28.9186 5.43132C28.9178 5.43106 28.917 5.4308 28.9162 5.43054L28.6093 6.38228M15.6484 35.4836L22.2007 4.45089C24.6562 5.11727 27.1387 5.90112 28.6093 6.38228M28.6093 6.38228C28.8031 6.44476 28.9753 6.56052 29.1063 6.71632C29.2374 6.87212 29.3219 7.06167 29.3502 7.26326L28.6093 6.38228ZM22.5392 3.0869L22.5407 3.0873C25.0228 3.75813 27.5308 4.5536 29.0108 5.03718C29.4531 5.18351 29.8452 5.45152 30.1422 5.81049C30.4394 6.16981 30.6293 6.60568 30.69 7.06805L30.6902 7.06993C31.9976 16.8907 28.9674 24.1246 25.3187 28.8973L25.3162 28.9007C23.7693 30.9421 21.9247 32.7397 19.8442 34.2335L19.8439 34.2337C19.1443 34.7365 18.4031 35.1787 17.6283 35.5557C17.0177 35.8431 16.5109 35.9998 16.1875 35.9998C15.8643 35.9998 15.3605 35.8435 14.7459 35.5553C13.9714 35.1785 13.2304 34.7364 12.531 34.2338L12.5307 34.2336C10.4502 32.7396 8.6057 30.942 7.05872 28.9007L7.05617 28.8974C3.40754 24.1246 0.377326 16.8907 1.68472 7.06993L1.68496 7.06805C1.74562 6.60569 1.93548 6.16981 2.23273 5.81049C2.52974 5.45146 2.92193 5.18342 3.36431 5.03711C5.50591 4.33493 7.66415 3.68454 9.83714 3.08651C12.3103 2.41413 14.785 1.85693 16.1875 1.85693C17.5902 1.85693 20.0656 2.41435 22.5392 3.0869Z" stroke="#263238" stroke-width="2"/>
<path d="M16.9836 17.7933L16.1875 18.0747L15.3913 17.7933C14.9786 17.6473 14.6138 17.3907 14.337 17.0515C14.0602 16.7123 13.882 16.3036 13.8218 15.8699C13.7616 15.4363 13.8217 14.9944 13.9956 14.5926C14.1696 14.1908 14.4506 13.8446 14.808 13.5917C15.1654 13.3389 15.5855 13.1891 16.0222 13.1588C16.459 13.1285 16.8957 13.2189 17.2846 13.42C17.6735 13.6211 17.9996 13.9252 18.2273 14.2991C18.4551 14.6731 18.5756 15.1024 18.5759 15.5402C18.5761 16.0343 18.4231 16.5164 18.1379 16.9199C17.8528 17.3234 17.4495 17.6286 16.9836 17.7933ZM16.0399 18.9256L16.1873 18.1618L16.3351 18.926L17.2048 23.4213L17.2048 23.4214C17.2085 23.4401 17.2079 23.4594 17.2032 23.4779C17.1985 23.4964 17.1897 23.5136 17.1776 23.5284C17.1654 23.5431 17.1502 23.5549 17.1329 23.5631C17.1156 23.5712 17.0968 23.5754 17.0777 23.5754H17.0775L15.2992 23.5754C15.2991 23.5754 15.299 23.5754 15.2989 23.5754C15.28 23.5753 15.2612 23.5711 15.2441 23.563C15.2269 23.5548 15.2116 23.543 15.1995 23.5283C15.1874 23.5135 15.1787 23.4963 15.174 23.4778C15.1693 23.4594 15.1687 23.4401 15.1724 23.4214L15.1725 23.4208L16.0399 18.9256Z" stroke="#263238" stroke-width="2"/>
</svg>
