<svg width="55" height="74" viewBox="0 0 55 74" fill="none" xmlns="http://www.w3.org/2000/svg">
<path d="M52.8285 13.8227L28.4494 0V29.5626L54.3509 44.2609V16.4114C54.3504 15.8867 54.2095 15.3714 53.9423 14.917C53.6751 14.4627 53.291 14.0853 52.8285 13.8227V13.8227Z" fill="#0FCFB0"/>
<path d="M25.9015 0L1.52238 13.8227C1.05988 14.0853 0.675797 14.4627 0.408607 14.917C0.141418 15.3714 0.000508494 15.8867 0 16.4114L0 44.2609L25.9015 29.5626V0Z" fill="#0FCFB0"/>
<path d="M53.0647 46.344L27.1773 31.6631L1.28629 46.344L21.2534 57.6749V71.1964C20.2807 70.3316 19.0095 69.8627 17.6976 69.8848C15.111 69.8848 13.0142 71.5391 13.0142 73.581H23.7413V59.0904L25.7606 60.2186C26.1838 60.4768 26.672 60.6136 27.1702 60.6136C27.6684 60.6136 28.1566 60.4768 28.5798 60.2186L30.5991 59.0765V73.5671H41.3368C41.3368 71.5252 39.2223 69.8709 36.6533 69.8709C35.3415 69.8489 34.0702 70.3178 33.0976 71.1826V57.6749L53.0647 46.344Z" fill="#0FCFB0"/>
<path d="M41.4002 19.1733C39.7333 19.1733 38.3765 20.2947 38.3765 22.0597C38.3765 23.7382 39.7333 24.9011 41.4002 24.9011C41.7902 24.9149 42.1792 24.8519 42.5441 24.7157C42.9089 24.5795 43.2423 24.3728 43.5245 24.108C43.8067 23.8431 44.032 23.5254 44.187 23.1736C44.3421 22.8218 44.4238 22.443 44.4273 22.0597C44.4273 20.2947 43.0247 19.1733 41.4002 19.1733Z" fill="white"/>
<path d="M12.9507 19.1733C11.3262 19.1733 9.92361 20.2947 9.92361 22.0597C9.92477 22.4445 10.0047 22.8251 10.1587 23.1789C10.3128 23.5328 10.5377 23.8525 10.8201 24.1192C11.1025 24.386 11.4367 24.5941 11.8027 24.7314C12.1688 24.8687 12.5592 24.9323 12.9507 24.9184C14.6176 24.9184 15.9743 23.7555 15.9743 22.077C15.9743 20.2947 14.6176 19.1733 12.9507 19.1733Z" fill="white"/>
<path d="M27.1772 49.2898C23.0154 49.2898 19.7768 46.8983 18.6984 43.3198H16.1541C17.2888 48.3069 21.5776 51.702 27.1772 51.702C32.7769 51.702 37.0621 48.3069 38.1968 43.3198H35.6525C34.5741 46.8983 31.3391 49.2898 27.1772 49.2898Z" fill="white"/>
</svg>
