<svg width="102" height="36" viewBox="0 0 102 36" fill="none" xmlns="http://www.w3.org/2000/svg">
<path d="M0 28.5572L4.32352 27.2725C4.95113 29.6662 7.0664 30.8352 9.6117 30.8352C12.157 30.8352 14.036 29.6383 14.036 27.7154C14.036 25.7924 12.0989 25.3217 9.51485 24.8948C5.47801 24.2166 0 23.2631 0 17.6179C0 12.8305 3.93998 10.1935 9.08482 10.1935C13.6485 10.1935 17.3987 12.2241 18.4563 16.7283L14.0786 18.0169C13.5478 15.5394 11.3396 14.4503 9.08095 14.4503C6.67512 14.4503 5.28431 15.6471 5.28431 17.4225C5.28431 19.4491 7.01217 19.8481 9.22429 20.243C12.6839 20.8375 19.3164 21.4399 19.3164 27.5199C19.3164 32.419 14.9929 35.1398 9.75117 35.1398C4.85428 35.1398 0.960783 32.7661 0 28.5572Z" fill="#263238"/>
<path d="M71.9542 19.3013V34.6449H66.8094V20.6817C66.8094 16.8198 64.5973 14.9886 61.4747 14.9886C58.2553 14.9886 56.0897 17.3145 56.0897 21.3719V34.6369H50.9487V10.6999H56.0897V13.4248C57.6393 11.3462 59.9832 10.2052 62.9624 10.2052C68.1537 10.1933 71.9542 13.3609 71.9542 19.3013Z" fill="#263238"/>
<path d="M101.32 0V34.6449H96.1756V31.3296C94.3974 33.7552 91.6584 35.1396 88.1988 35.1396C81.8065 35.1396 76.8088 30.041 76.8088 22.6684C76.8088 15.2958 81.8065 10.1932 88.2453 10.1932C91.6584 10.1932 94.3974 11.5815 96.1756 14.0071V0H101.32ZM96.1756 22.6684C96.1756 18.0166 93.2468 14.8489 89.2022 14.8489C85.3087 14.8489 82.0893 17.865 82.0893 22.6684C82.0893 27.4717 85.3087 30.4878 89.2022 30.4878C93.2468 30.4878 96.1756 27.3201 96.1756 22.6684Z" fill="#263238"/>
<path d="M22.6866 22.6687C22.6866 15.1445 27.8276 10.1935 34.5105 10.1935C41.0965 10.1935 45.9004 14.8971 45.9004 22.162C45.9006 22.7247 45.8683 23.2868 45.8036 23.8456H27.8276C28.215 28.3497 30.9037 30.8711 34.6073 30.8711C36.9318 30.8711 39.0161 29.8657 39.973 27.9029H44.9396C43.6883 32.7541 39.4616 35.1279 34.6073 35.1279C27.8276 35.1398 22.6866 30.2407 22.6866 22.6687ZM40.895 19.7962C40.4611 16.8759 38.0592 14.5021 34.5492 14.5021C31.4267 14.5021 28.9744 16.3812 28.1104 19.7962H40.895Z" fill="#263238"/>
</svg>
