<svg width="22" height="24" viewBox="0 0 22 24" fill="none" xmlns="http://www.w3.org/2000/svg">
<path d="M0.580322 12.2341C0.580322 5.3412 5.28996 0.809265 11.4121 0.809265C17.4456 0.809265 21.8464 5.1146 21.8464 11.7736C21.8467 12.2891 21.8171 12.8041 21.7577 13.3159H5.28996C5.64487 17.4422 8.10793 19.7557 11.5009 19.7557C13.6303 19.7557 15.5433 18.831 16.4163 17.0328H20.9592C19.8164 21.4771 15.9408 23.6553 11.4938 23.6553C5.28996 23.6626 0.580322 19.1709 0.580322 12.2341ZM17.261 9.60633C16.8635 6.93103 14.6631 4.75278 11.4476 4.75278C8.58706 4.75278 6.34048 6.47418 5.54904 9.60633H17.261Z" fill="#263238"/>
</svg>
