<svg width="23" height="34" viewBox="0 0 23 34" fill="none" xmlns="http://www.w3.org/2000/svg">
<path d="M12.5068 0.880672C10.2571 0.851684 8.0679 1.62197 6.31543 3.05908V1.32576H0.86377V33.5262H6.53268V21.3577C8.14484 22.655 10.1473 23.3455 12.2016 23.3124C15.3412 23.3124 18.349 21.8899 20.224 19.6691C21.8817 17.7145 22.8828 15.0509 22.8828 12.1189C22.8828 5.76737 18.2612 0.880672 12.5068 0.880672ZM11.8178 18.0701C8.29669 18.0701 5.98243 15.5949 5.98243 12.1377C5.98243 8.68053 8.29676 6.20536 11.8178 6.20536C14.8233 6.20536 17.2601 8.86183 17.2601 12.1377C17.2601 15.4136 14.8233 18.0701 11.8178 18.0701Z" fill="#263238"/>
</svg>
