<svg width="12" height="10" viewBox="0 0 12 10" fill="none" xmlns="http://www.w3.org/2000/svg">
<path d="M11.1134 0.652344H9.83096C9.55206 0.652344 9.28682 0.786328 9.12276 1.01602L4.82432 6.97695L2.87745 4.27539C2.71338 4.04844 2.45088 3.91172 2.16924 3.91172H0.886821C0.709087 3.91172 0.60518 4.11406 0.709087 4.25898L4.11612 8.98398C4.1966 9.09632 4.30271 9.18786 4.42563 9.251C4.54856 9.31415 4.68476 9.34709 4.82295 9.34709C4.96115 9.34709 5.09735 9.31415 5.22028 9.251C5.3432 9.18786 5.4493 9.09632 5.52979 8.98398L11.2884 0.99961C11.395 0.854688 11.2911 0.652344 11.1134 0.652344V0.652344Z" fill="#263238"/>
</svg>
