<svg width="8" height="7" viewBox="0 0 8 7" fill="none" xmlns="http://www.w3.org/2000/svg">
<path d="M0.926585 3.32549C0.92376 2.89015 1.00489 2.45856 1.16526 2.05575C1.32563 1.65294 1.56205 1.28692 1.86082 0.978911C2.1596 0.670902 2.51478 0.427031 2.90576 0.26144C3.29675 0.0958501 3.71576 0.0118338 4.13851 0.0142621C5.00159 0.00736059 5.83253 0.351123 6.45108 0.970992C7.06964 1.59086 7.42595 2.43686 7.44273 3.32549C7.42317 4.20893 7.06448 5.04839 6.44519 5.66009C5.8259 6.27178 4.99648 6.60587 4.13851 6.58921C3.71848 6.59601 3.30134 6.51655 2.91146 6.35549C2.52158 6.19443 2.16677 5.95499 1.86775 5.65115C1.56873 5.34731 1.3315 4.98516 1.1699 4.58585C1.00831 4.18654 0.92559 3.75808 0.926585 3.32549V3.32549Z" fill="#263238"/>
</svg>
