<svg width="28" height="26" viewBox="0 0 28 26" fill="none" xmlns="http://www.w3.org/2000/svg">
<path d="M26.9188 11.3409C27.9638 11.3409 28.4001 10.0242 27.5512 9.41731L14.6357 0.203967C14.4513 0.0714441 14.2286 0 13.9999 0C13.7713 0 13.5486 0.0714441 13.3641 0.203967L0.448595 9.41731C-0.400265 10.0209 0.0360016 11.3409 1.08439 11.3409H3.1778V23.7448H0.742821C0.594017 23.7448 0.472268 23.8641 0.472268 24.0101V25.7347C0.472268 25.8806 0.594017 26 0.742821 26H27.257C27.4058 26 27.5276 25.8806 27.5276 25.7347V24.0101C27.5276 23.8641 27.4058 23.7448 27.257 23.7448H24.822V11.3409H26.9188ZM13.9999 2.54213L23.1683 9.08234H4.83155L13.9999 2.54213ZM5.61277 11.3409H9.56961V23.7448H5.61277V11.3409ZM12.0046 11.3409H15.9614V23.7448H12.0046V11.3409ZM22.3871 23.7448H18.3964V11.3409H22.3871V23.7448Z" fill="#0FCFB0"/>
</svg>
