<svg width="18" height="18" viewBox="0 0 18 18" fill="none" xmlns="http://www.w3.org/2000/svg">
<path d="M0.332092 8.61563C0.332092 3.4325 4.03302 0.0219727 8.84395 0.0219727C13.5852 0.0219727 17.0434 3.26211 17.0434 8.2666C17.0436 8.65421 17.0203 9.04147 16.9737 9.42635H4.03302C4.31191 12.5291 6.24744 14.2659 8.91367 14.2659C10.587 14.2659 12.0875 13.5734 12.7764 12.2213H16.3518C15.451 15.5631 12.4082 17.1983 8.91367 17.1983C4.03302 17.2065 0.332092 13.8317 0.332092 8.61563ZM13.4401 6.63692C13.1278 4.62523 11.3986 2.99004 8.87184 2.99004C6.62395 2.99004 4.85855 4.28445 4.23661 6.63692H13.4401Z" fill="white"/>
</svg>
