<svg width="12" height="13" viewBox="0 0 12 13" fill="none" xmlns="http://www.w3.org/2000/svg">
<path d="M0.497334 6.73987C0.497334 3.25358 2.98667 0.961426 6.22262 0.961426C9.41166 0.961426 11.7378 3.13897 11.7378 6.50696C11.7379 6.76767 11.7223 7.02816 11.6909 7.28703H2.98667C3.17426 9.374 4.47614 10.5441 6.26951 10.5441C7.39506 10.5441 8.40618 10.0764 8.86765 9.16696H11.2688C10.6648 11.4148 8.61627 12.5165 6.26576 12.5165C2.98667 12.5202 0.497334 10.2483 0.497334 6.73987ZM9.31411 5.41079C9.10401 4.05768 7.94095 2.95597 6.24138 2.95597C4.72939 2.95597 3.54194 3.82662 3.12361 5.41079H9.31411Z" fill="white"/>
</svg>
