<svg width="19" height="17" viewBox="0 0 19 17" fill="none" xmlns="http://www.w3.org/2000/svg">
<path d="M18.8437 2.71183C18.1564 3.00831 17.4084 3.22169 16.638 3.30479C17.4379 2.8296 18.0368 2.07888 18.3226 1.19347C17.572 1.63997 16.7498 1.95306 15.8923 2.11886C15.5339 1.73573 15.1005 1.43052 14.619 1.22223C14.1375 1.01395 13.6183 0.907054 13.0937 0.908212C10.9711 0.908212 9.26408 2.62872 9.26408 4.74005C9.26408 5.03653 9.30002 5.33302 9.35842 5.61827C6.18019 5.45206 3.34562 3.9337 1.46115 1.60899C1.11778 2.19548 0.93784 2.86327 0.940056 3.54288C0.940056 4.87257 1.61613 6.04503 2.64709 6.73458C2.03953 6.71065 1.4462 6.54366 0.915349 6.24718V6.29434C0.915349 8.15636 2.23156 9.69942 3.98576 10.0543C3.65639 10.1399 3.31756 10.1836 2.97726 10.1846C2.72795 10.1846 2.49211 10.1599 2.25402 10.1262C2.73918 11.6445 4.15197 12.7474 5.83429 12.7833C4.51808 13.8143 2.86945 14.4207 1.07931 14.4207C0.758122 14.4207 0.461638 14.4095 0.153923 14.3735C1.85197 15.4629 3.86672 16.0918 6.03644 16.0918C13.0802 16.0918 16.9345 10.2565 16.9345 5.19151C16.9345 5.0253 16.9345 4.85909 16.9233 4.69288C17.669 4.14708 18.3226 3.47101 18.8437 2.71183Z" fill="#F8F8F8"/>
</svg>
