<svg width="108" height="107" viewBox="0 0 108 107" fill="none" xmlns="http://www.w3.org/2000/svg">
<path d="M59.7138 9.67326e-06C61.272 9.67326e-06 62.6659 0.96991 63.1906 2.42211L66.9324 12.7942C68.2733 13.1281 69.4234 13.462 70.3986 13.8118C71.4639 14.1934 72.8366 14.7711 74.5326 15.5608L83.2458 10.9498C83.957 10.573 84.7712 10.437 85.5663 10.5622C86.3613 10.6874 87.0944 11.067 87.6554 11.6441L95.3192 19.5676C96.3368 20.6223 96.623 22.1646 96.0506 23.5108L91.9643 33.0879C92.6427 34.3334 93.1833 35.3987 93.5967 36.2891C94.0419 37.259 94.5931 38.5946 95.2503 40.3171L104.774 44.3981C106.205 45.0076 107.09 46.4386 106.995 47.9703L106.295 58.9678C106.248 59.6823 105.991 60.367 105.558 60.937C105.124 61.507 104.533 61.9372 103.857 62.1743L94.8369 65.3808C94.5772 66.6263 94.3069 67.6916 94.0207 68.5926C93.559 69.9841 93.032 71.353 92.4413 72.6948L96.9728 82.7118C97.2926 83.4156 97.3787 84.2033 97.2185 84.9596C97.0583 85.7159 96.6601 86.4011 96.0824 86.9147L87.4646 94.6103C86.897 95.115 86.1888 95.4342 85.4348 95.5251C84.6808 95.616 83.917 95.4744 83.2458 95.1191L74.363 90.4127C72.9732 91.1486 71.5395 91.7982 70.07 92.3578L66.1904 93.81L62.7454 103.35C62.4901 104.049 62.0296 104.654 61.4242 105.086C60.8189 105.518 60.097 105.757 59.3534 105.772L49.2834 106C48.52 106.02 47.7691 105.803 47.1342 105.379C46.4992 104.954 46.0113 104.344 45.7377 103.631L41.6779 92.8878C40.2927 92.4144 38.9212 91.9019 37.5651 91.3508C36.4559 90.8707 35.3634 90.3528 34.2897 89.7979L24.2197 94.1015C23.5561 94.3846 22.8246 94.4687 22.1142 94.3435C21.4037 94.2184 20.745 93.8894 20.2182 93.3966L12.7664 86.4059C12.2116 85.8877 11.8337 85.2082 11.6863 84.4635C11.5389 83.7187 11.6293 82.9465 11.9449 82.256L16.275 72.822C15.6991 71.7046 15.1652 70.5661 14.6744 69.4088C14.1014 67.9923 13.5712 66.5589 13.0844 65.1105L3.59736 62.222C2.82621 61.9889 2.15361 61.5077 1.68401 60.8532C1.2144 60.1986 0.974079 59.4073 1.00036 58.6021L1.37136 48.4208C1.39777 47.7565 1.60529 47.1121 1.97147 46.5572C2.33765 46.0023 2.84857 45.5581 3.44896 45.2726L13.4024 40.492C13.8635 38.8013 14.2663 37.4869 14.6214 36.5276C15.1214 35.2463 15.6766 33.9873 16.2856 32.754L11.9714 23.638C11.644 22.9457 11.5445 22.1675 11.6874 21.4151C11.8302 20.6628 12.208 19.9751 12.7664 19.451L20.2076 12.4232C20.7292 11.9312 21.3819 11.6005 22.0871 11.4707C22.7923 11.3409 23.52 11.4177 24.1826 11.6918L34.242 15.847C35.355 15.105 36.362 14.5061 37.2736 14.0238C38.3601 13.4461 39.8123 12.8419 41.6408 12.19L45.1388 2.43271C45.3974 1.71863 45.8701 1.10178 46.4923 0.666384C47.1146 0.230988 47.8561 -0.00172913 48.6156 9.67326e-06H59.7138ZM54.1276 37.2007C45.2925 37.2007 38.1322 44.2762 38.1322 53.0106C38.1322 61.745 45.2925 68.8258 54.1276 68.8258C62.9574 68.8258 70.1177 61.745 70.1177 53.0106C70.1177 44.2762 62.9627 37.2007 54.1276 37.2007Z" fill="#221E20"/>
</svg>
