<svg width="21" height="24" viewBox="0 0 21 24" fill="none" xmlns="http://www.w3.org/2000/svg">
<path d="M20.0184 19.4476C17.969 21.9348 14.6115 23.3117 11.3414 23.3117C5.01893 23.3117 0.266113 18.8703 0.266113 12.1191C0.266113 6.12294 4.2777 0.881836 10.5566 0.881836C16.3994 0.881836 20.5417 5.90079 20.5417 11.8969C20.545 12.4476 20.5012 12.9975 20.4108 13.5404H5.76016C6.06539 16.5605 8.46362 18.6481 11.4723 18.6481C13.8703 18.6481 15.7889 17.2712 16.7918 16.1608L20.0184 19.4476ZM14.7424 9.32091C14.5679 7.411 12.8676 5.54555 10.5565 5.54555C8.20188 5.54555 6.28346 7.36668 6.02187 9.32091H14.7424Z" fill="#263238"/>
</svg>
