<svg width="8" height="8" viewBox="0 0 8 8" fill="none" xmlns="http://www.w3.org/2000/svg">
<path d="M0.55431 3.90576C0.551138 3.43797 0.642236 2.97422 0.82232 2.54139C1.0024 2.10856 1.26789 1.71527 1.60339 1.3843C1.93889 1.05334 2.33773 0.791295 2.77678 0.613364C3.21582 0.435434 3.68634 0.345156 4.16106 0.347766C5.13023 0.34035 6.06331 0.709731 6.75789 1.37579C7.45248 2.04186 7.85259 2.9509 7.87144 3.90576C7.84948 4.85503 7.44669 5.75705 6.75128 6.41433C6.05587 7.07161 5.12449 7.43059 4.16106 7.41269C3.6894 7.41999 3.22098 7.33462 2.78317 7.16155C2.34536 6.98849 1.94695 6.73121 1.61117 6.40472C1.27539 6.07824 1.009 5.6891 0.827537 5.26004C0.646079 4.83097 0.553193 4.37058 0.55431 3.90576Z" fill="white"/>
</svg>
