<svg width="6" height="5" viewBox="0 0 6 5" fill="none" xmlns="http://www.w3.org/2000/svg">
<path d="M0.243096 2.39113C0.240973 2.07818 0.301919 1.76793 0.422396 1.47836C0.542872 1.1888 0.720483 0.92568 0.944934 0.704264C1.16938 0.482848 1.43621 0.307539 1.72994 0.188502C2.02366 0.0694659 2.33844 0.00906984 2.65603 0.0108155C3.30441 0.00585425 3.92864 0.252972 4.39333 0.698572C4.85801 1.14417 5.12569 1.75232 5.1383 2.39113C5.1236 3.0262 4.85414 3.62965 4.3889 4.06938C3.92367 4.5091 3.30057 4.74927 2.65603 4.73729C2.34049 4.74217 2.02711 4.68506 1.73422 4.56928C1.44132 4.4535 1.17478 4.28137 0.950141 4.06295C0.725505 3.84453 0.547283 3.5842 0.425886 3.29715C0.30449 3.01011 0.242348 2.7021 0.243096 2.39113V2.39113Z" fill="white"/>
</svg>
