<svg width="33" height="35" viewBox="0 0 33 35" fill="none" xmlns="http://www.w3.org/2000/svg">
<path d="M0.172363 17.436C0.172363 7.0974 7.23625 0.294556 16.4188 0.294556C25.4682 0.294556 32.069 6.75753 32.069 16.7398C32.0693 17.5129 32.0248 18.2854 31.9359 19.0531H7.23625C7.76857 25.242 11.4629 28.7064 16.5519 28.7064C19.7458 28.7064 22.6097 27.325 23.9245 24.628H30.7489C29.0295 31.2938 23.2218 34.5554 16.5519 34.5554C7.23625 34.5719 0.172363 27.8403 0.172363 17.436ZM25.1914 13.4891C24.5952 9.47647 21.2948 6.21484 16.472 6.21484C12.1815 6.21484 8.81193 8.79674 7.62485 13.4891H25.1914Z" fill="#263238"/>
</svg>
