<svg width="21" height="24" viewBox="0 0 21 24" fill="none" xmlns="http://www.w3.org/2000/svg">
<path d="M20.4113 19.5237C18.362 22.011 15.0044 23.3879 11.7343 23.3879C5.41187 23.3879 0.659058 18.9465 0.659058 12.1953C0.659058 6.19912 4.67065 0.958008 10.9495 0.958008C16.7924 0.958008 20.9347 5.97696 20.9347 11.9731C20.938 12.5237 20.8942 13.0736 20.8037 13.6166H6.15311C6.45834 16.6367 8.85656 18.7243 11.8653 18.7243C14.2632 18.7243 16.1819 17.3474 17.1848 16.237L20.4113 19.5237ZM15.1354 9.39708C14.9609 7.48717 13.2605 5.62172 10.9494 5.62172C8.59482 5.62172 6.6764 7.44285 6.41482 9.39708H15.1354Z" fill="white"/>
</svg>
