<svg width="27" height="35" viewBox="0 0 27 35" fill="none" xmlns="http://www.w3.org/2000/svg">
<path d="M0 25.527L5.9407 23.7619C6.80306 27.0509 9.70953 28.6571 13.2069 28.6571C16.7042 28.6571 19.286 27.0126 19.286 24.3704C19.286 21.7282 16.6244 21.0813 13.0738 20.4948C7.52701 19.5629 0 18.2527 0 10.4961C0 3.91799 5.4137 0.294556 12.4829 0.294556C18.7537 0.294556 23.9065 3.08476 25.3598 9.27365L19.3445 11.0442C18.6152 7.64009 15.581 6.14357 12.4776 6.14357C9.17188 6.14357 7.26085 7.7881 7.26085 10.2275C7.26085 13.0122 9.635 13.5604 12.6746 14.1031C17.4282 14.9198 26.5415 15.7476 26.5415 24.1018C26.5415 30.8333 20.6008 34.5719 13.3985 34.5719C6.66998 34.5719 1.32016 31.3102 0 25.527Z" fill="#263238"/>
</svg>
