<svg width="5" height="4" viewBox="0 0 5 4" fill="none" xmlns="http://www.w3.org/2000/svg">
<path d="M0.865867 1.68225C0.864374 1.46206 0.907254 1.24377 0.99202 1.04004C1.07679 0.836307 1.20175 0.651182 1.35967 0.495397C1.51759 0.339613 1.70533 0.216268 1.91199 0.132515C2.11865 0.0487634 2.34012 0.00626965 2.56357 0.00749785C3.01976 0.00400721 3.45896 0.177875 3.78591 0.491392C4.11285 0.804909 4.30118 1.2328 4.31006 1.68225C4.29971 2.12907 4.11012 2.55366 3.78279 2.86304C3.45546 3.17242 3.01706 3.3414 2.56357 3.33297C2.34156 3.33641 2.12107 3.29622 1.915 3.21476C1.70892 3.1333 1.52138 3.01219 1.36333 2.85852C1.20528 2.70484 1.07989 2.52167 0.994476 2.31971C0.909063 2.11775 0.865341 1.90105 0.865867 1.68225V1.68225Z" fill="white"/>
</svg>
