<svg width="17" height="17" viewBox="0 0 17 17" fill="none" xmlns="http://www.w3.org/2000/svg">
<path d="M0.24704 8.26463C0.24704 3.30958 3.78512 0.0517578 8.38435 0.0517578C12.9169 0.0517578 16.223 3.14669 16.223 7.93359C16.2233 8.30414 16.201 8.67437 16.1564 9.0423H3.78512C4.05174 12.0085 5.9021 13.6716 8.451 13.6716C10.0507 13.6716 11.4878 13.0069 12.1437 11.7142H15.5565C14.698 14.909 11.7864 16.4749 8.44567 16.4749C3.78511 16.4801 0.24704 13.2512 0.24704 8.26463ZM12.7783 6.37562C12.4797 4.45245 10.8266 2.88659 8.41101 2.88659C6.26204 2.88659 4.57432 4.12404 3.97975 6.37562H12.7783Z" fill="white"/>
</svg>
