<svg width="5" height="4" viewBox="0 0 5 4" fill="none" xmlns="http://www.w3.org/2000/svg">
<path d="M0.866004 1.68225C0.864511 1.46206 0.907392 1.24377 0.992157 1.04004C1.07692 0.836307 1.20189 0.651182 1.35981 0.495397C1.51773 0.339613 1.70546 0.216268 1.91212 0.132515C2.11878 0.0487634 2.34026 0.00626965 2.56371 0.00749785C3.0199 0.00400721 3.4591 0.177875 3.78604 0.491392C4.11299 0.804909 4.30132 1.2328 4.31019 1.68225C4.29985 2.12907 4.11026 2.55366 3.78293 2.86304C3.4556 3.17242 3.01719 3.3414 2.56371 3.33297C2.34169 3.33641 2.12121 3.29622 1.91513 3.21476C1.70906 3.1333 1.52152 3.01219 1.36347 2.85852C1.20542 2.70484 1.08003 2.52167 0.994613 2.31971C0.9092 2.11775 0.865479 1.90105 0.866004 1.68225V1.68225Z" fill="white"/>
</svg>
