<svg width="23" height="34" viewBox="0 0 23 34" fill="none" xmlns="http://www.w3.org/2000/svg">
<path d="M12.1293 0.880673C9.87969 0.851665 7.6904 1.62195 5.93791 3.05908V1.32576H0.486328V33.5262H6.1552V21.3577C7.76737 22.655 9.76985 23.3455 11.8241 23.3124C14.9638 23.3124 17.9716 21.8899 19.8466 19.6691C21.5043 17.7145 22.5053 15.0509 22.5053 12.1189C22.5054 5.76738 17.8838 0.880673 12.1293 0.880673ZM11.4404 18.0701C7.91925 18.0701 5.60499 15.5949 5.60499 12.1377C5.60499 8.68053 7.91925 6.2054 11.4404 6.2054C14.4459 6.2054 16.8827 8.86187 16.8827 12.1377C16.8827 15.4136 14.4459 18.0701 11.4404 18.0701V18.0701Z" fill="#263238"/>
</svg>
