<svg width="8" height="8" viewBox="0 0 8 8" fill="none" xmlns="http://www.w3.org/2000/svg">
<path d="M0.554279 3.90576C0.551107 3.43797 0.642206 2.97422 0.822289 2.54139C1.00237 2.10856 1.26786 1.71527 1.60336 1.3843C1.93886 1.05334 2.3377 0.791295 2.77674 0.613364C3.21579 0.435434 3.68631 0.345156 4.16103 0.347766C5.1302 0.34035 6.06327 0.709731 6.75786 1.37579C7.45245 2.04186 7.85256 2.9509 7.87141 3.90576C7.84945 4.85503 7.44666 5.75705 6.75125 6.41433C6.05584 7.07161 5.12446 7.43059 4.16103 7.41269C3.68936 7.41999 3.22095 7.33462 2.78314 7.16155C2.34533 6.98849 1.94692 6.73121 1.61114 6.40472C1.27536 6.07824 1.00897 5.6891 0.827507 5.26004C0.646049 4.83097 0.553162 4.37058 0.554279 3.90576V3.90576Z" fill="white"/>
</svg>
